<?xml version="1.0" encoding="UTF-8"?>
<svg xmlns="http://www.w3.org/2000/svg" width="768" height="768" viewBox="0 0 768 768">
  <rect width="768" height="768" fill="#151515"/>
  
  <rect x="137" y="515" width="112" height="24" rx="12" fill="#36c5f0"/>
<rect x="273" y="515" width="112" height="24" rx="12" fill="#2eb67d"/>
<rect x="409" y="515" width="112" height="24" rx="12" fill="#ecb22e"/>
<rect x="545" y="515" width="112" height="24" rx="12" fill="#e01e5a"/><rect x="72" y="84" width="624" height="600" rx="56" fill="rgba(255,255,255,0.04)" opacity="0.9"/>
      
    <svg x="202" y="136" width="364" height="364" viewBox="0 0 24 24" overflow="visible" >
      <g fill="#ffffff"><path d="M15.852 8.981h-4.588V0h4.588c2.476 0 4.49 2.014 4.49 4.49s-2.014 4.491-4.49 4.491zM12.735 7.51h3.117c1.665 0 3.019-1.355 3.019-3.019s-1.355-3.019-3.019-3.019h-3.117V7.51zm0 1.471H8.148c-2.476 0-4.49-2.014-4.49-4.49S5.672 0 8.148 0h4.588v8.981zm-4.587-7.51c-1.665 0-3.019 1.355-3.019 3.019s1.354 3.02 3.019 3.02h3.117V1.471H8.148zm4.587 15.019H8.148c-2.476 0-4.49-2.014-4.49-4.49s2.014-4.49 4.49-4.49h4.588v8.98zM8.148 8.981c-1.665 0-3.019 1.355-3.019 3.019s1.355 3.019 3.019 3.019h3.117V8.981H8.148zM8.172 24c-2.489 0-4.515-2.014-4.515-4.49s2.014-4.49 4.49-4.49h4.588v4.441c0 2.503-2.047 4.539-4.563 4.539zm-.024-7.51a3.023 3.023 0 0 0-3.019 3.019c0 1.665 1.365 3.019 3.044 3.019 1.705 0 3.093-1.376 3.093-3.068v-2.97H8.148zm7.704 0h-.098c-2.476 0-4.49-2.014-4.49-4.49s2.014-4.49 4.49-4.49h.098c2.476 0 4.49 2.014 4.49 4.49s-2.014 4.49-4.49 4.49zm-.097-7.509c-1.665 0-3.019 1.355-3.019 3.019s1.355 3.019 3.019 3.019h.098c1.665 0 3.019-1.355 3.019-3.019s-1.355-3.019-3.019-3.019h-.098z"/></g>
    </svg>
      <text x="384" y="617" text-anchor="middle" font-family="Arial, Helvetica, sans-serif" font-size="62" font-weight="800" letter-spacing="1.8" fill="#ffffff">FIGMA</text>
</svg>