<?xml version="1.0" encoding="UTF-8" standalone="no"?>
<!DOCTYPE svg PUBLIC "-//W3C//DTD SVG 1.1//EN" "http://www.w3.org/Graphics/SVG/1.1/DTD/svg11.dtd">
<svg xmlns="http://www.w3.org/2000/svg" version="1.1" viewBox="0 0 860 1216" width="860.0pt" height="1216.0pt">
<path d="M 0.00 0.00 L 860.00 0.00 L 860.00 1216.00 L 0.00 1216.00 L 0.00 0.00 Z" fill="#ffffff" />
<path d="M 741.97 112.29 C 741.97 251.10 741.97 389.91 741.97 528.72 C 533.81 528.70 325.64 528.75 117.49 528.69 C 117.53 389.90 117.51 251.10 117.50 112.31 C 325.66 112.28 533.81 112.30 741.97 112.29 Z" fill="#000000" />
<path d="M 484.00 216.31 C 517.69 216.36 550.31 222.62 582.49 232.22 C 580.82 232.58 579.16 232.98 577.53 233.48 C 577.25 234.18 576.97 234.88 576.71 235.58 C 574.96 235.28 573.23 235.14 571.47 235.01 C 573.16 238.46 576.18 241.28 578.95 243.93 C 580.90 245.94 583.63 245.83 586.22 246.36 C 586.91 246.46 587.61 246.55 588.31 246.64 C 583.25 247.33 578.34 248.41 573.20 248.28 C 555.13 238.00 535.36 231.54 515.00 227.66 C 463.20 218.19 410.37 225.95 361.36 244.15 C 347.52 247.97 334.23 254.01 320.79 259.04 C 341.16 247.08 363.11 237.61 385.68 230.66 C 417.58 221.22 450.69 215.94 484.00 216.31 Z" fill="#0ea5fe" />
<path d="M 515.00 227.66 C 535.36 231.54 555.13 238.00 573.20 248.28 C 562.02 251.53 551.02 255.59 540.11 259.63 C 538.47 260.16 536.84 260.74 535.23 261.33 C 533.00 260.46 530.78 259.58 528.56 258.69 C 528.60 258.06 528.64 257.43 528.67 256.80 C 537.75 253.69 546.79 250.45 555.83 247.24 C 546.08 243.12 536.29 239.31 525.97 236.85 C 473.53 224.37 417.15 228.89 367.23 249.19 C 360.05 251.95 353.23 255.46 346.15 258.43 C 350.11 259.10 354.08 259.61 358.07 260.04 C 356.43 261.23 354.81 262.28 352.86 262.90 C 351.35 262.74 349.84 262.56 348.33 262.37 C 347.16 261.80 345.99 261.20 344.83 260.59 C 344.51 259.23 344.18 257.88 343.86 256.52 C 341.98 255.66 340.11 254.79 338.19 254.01 C 345.78 250.43 353.56 247.22 361.36 244.15 C 410.37 225.95 463.20 218.19 515.00 227.66 Z" fill="#fdfcfd" />
<path d="M 577.53 233.48 C 579.16 232.98 580.82 232.58 582.49 232.22 C 603.03 238.09 622.65 246.53 643.07 252.72 C 642.87 253.25 642.68 253.78 642.48 254.32 C 646.18 256.03 649.49 258.35 653.30 259.83 C 656.25 260.95 658.80 262.66 661.29 264.57 C 661.36 265.55 661.44 266.52 661.52 267.50 C 662.44 267.91 663.36 268.32 664.28 268.73 C 663.03 272.08 660.64 271.44 657.64 271.79 C 652.87 270.31 648.08 268.94 643.21 267.83 C 641.70 264.91 640.15 261.42 637.70 259.18 C 635.39 257.75 632.53 257.32 630.21 255.80 C 627.26 253.92 624.10 252.77 620.73 251.87 C 621.43 251.86 622.13 251.85 622.84 251.83 C 614.59 248.48 606.21 245.45 597.79 242.57 C 594.69 241.47 591.58 240.42 588.44 239.45 C 586.44 238.80 584.44 238.14 582.45 237.48 C 580.54 236.83 578.64 236.16 576.71 235.58 C 576.97 234.88 577.25 234.18 577.53 233.48 Z" fill="#0d9afe" />
<path d="M 451.00 234.96 C 456.16 234.98 461.31 235.21 466.48 235.07 C 460.91 236.08 455.42 236.50 449.97 238.15 C 441.43 238.96 433.56 241.67 425.00 241.57 C 419.22 241.52 413.69 241.94 407.98 240.76 C 422.11 237.21 436.44 235.32 451.00 234.96 Z" fill="#afafaf" />
<path d="M 466.48 235.07 C 476.65 234.97 486.91 237.11 496.99 238.40 C 488.67 238.30 480.30 238.25 472.00 238.87 C 456.33 240.32 440.50 242.38 425.26 246.41 C 413.60 246.60 402.43 246.87 391.07 245.40 C 396.73 243.69 402.10 241.73 407.98 240.76 C 413.69 241.94 419.22 241.52 425.00 241.57 C 433.56 241.67 441.43 238.96 449.97 238.15 C 455.42 236.50 460.91 236.08 466.48 235.07 Z" fill="#666666" />
<path d="M 571.47 235.01 C 573.23 235.14 574.96 235.28 576.71 235.58 C 578.64 236.16 580.54 236.83 582.45 237.48 C 583.50 240.53 584.81 243.46 586.22 246.36 C 583.63 245.83 580.90 245.94 578.95 243.93 C 576.18 241.28 573.16 238.46 571.47 235.01 Z" fill="#31b4fc" />
<path d="M 582.45 237.48 C 584.44 238.14 586.44 238.80 588.44 239.45 C 590.04 241.97 591.74 244.31 592.58 247.23 C 591.16 247.01 589.73 246.82 588.31 246.64 C 587.61 246.55 586.91 246.46 586.22 246.36 C 584.81 243.46 583.50 240.53 582.45 237.48 Z" fill="#46befc" />
<path d="M 588.44 239.45 C 591.58 240.42 594.69 241.47 597.79 242.57 C 597.91 244.42 598.04 246.26 598.17 248.10 C 596.30 247.82 594.44 247.53 592.58 247.23 C 591.74 244.31 590.04 241.97 588.44 239.45 Z" fill="#5fcdfd" />
<path d="M 597.79 242.57 C 606.21 245.45 614.59 248.48 622.84 251.83 C 622.13 251.85 621.43 251.86 620.73 251.87 C 613.27 250.12 605.71 249.35 598.17 248.10 C 598.04 246.26 597.91 244.42 597.79 242.57 Z" fill="#76e5f9" />
<path d="M 390.91 245.45 L 391.07 245.40 C 402.43 246.87 413.60 246.60 425.26 246.41 C 418.42 248.67 411.40 250.24 404.54 252.43 C 401.15 253.56 397.69 253.68 394.14 253.53 C 387.25 253.18 380.64 254.10 373.81 252.65 C 379.23 249.71 384.98 247.15 390.91 245.45 Z" fill="#2d2d2d" />
<path d="M 588.31 246.64 C 589.73 246.82 591.16 247.01 592.58 247.23 C 594.44 247.53 596.30 247.82 598.17 248.10 C 605.71 249.35 613.27 250.12 620.73 251.87 C 624.10 252.77 627.26 253.92 630.21 255.80 C 632.53 257.32 635.39 257.75 637.70 259.18 C 640.15 261.42 641.70 264.91 643.21 267.83 C 639.65 267.09 636.05 266.50 632.47 265.87 C 629.75 262.15 625.95 261.03 621.98 259.12 C 617.05 256.83 612.00 255.32 606.61 254.60 C 596.00 253.16 584.69 252.35 574.12 254.37 C 566.22 255.64 558.61 256.42 551.00 259.09 C 547.20 260.34 543.94 261.46 540.11 259.63 C 551.02 255.59 562.02 251.53 573.20 248.28 C 578.34 248.41 583.25 247.33 588.31 246.64 Z" fill="#0b8efc" />
<path d="M 606.61 254.60 C 612.00 255.32 617.05 256.83 621.98 259.12 C 625.95 261.03 629.75 262.15 632.47 265.87 C 626.75 264.99 621.00 264.48 615.24 263.97 C 615.38 263.32 615.52 262.68 615.67 262.03 C 611.79 261.16 607.93 260.36 603.96 260.06 C 593.67 259.51 584.17 257.62 573.83 259.48 C 565.44 261.08 556.82 262.16 548.64 264.66 C 550.12 264.85 551.60 265.01 553.09 265.15 C 545.84 266.05 538.59 266.90 531.39 268.16 C 527.03 268.61 522.68 269.42 518.36 270.12 C 514.34 270.72 510.58 271.65 506.62 271.43 C 510.74 270.44 514.56 268.94 518.52 267.45 C 524.07 265.36 529.67 263.39 535.23 261.33 C 536.84 260.74 538.47 260.16 540.11 259.63 C 543.94 261.46 547.20 260.34 551.00 259.09 C 558.61 256.42 566.22 255.64 574.12 254.37 C 584.69 252.35 596.00 253.16 606.61 254.60 Z" fill="#0372e5" />
<path d="M 643.07 252.72 C 658.58 257.13 674.89 259.10 691.00 258.48 C 699.35 258.20 707.27 256.72 715.46 255.25 C 704.97 259.94 693.20 259.19 682.00 259.31 C 674.84 259.45 667.92 257.74 660.75 258.23 C 661.87 260.39 662.90 261.93 665.23 262.93 C 672.87 266.68 680.71 270.28 688.61 273.42 C 695.31 276.26 702.73 270.35 709.13 268.59 C 703.43 276.14 697.68 283.66 691.92 291.16 C 684.06 283.93 674.75 278.18 664.73 274.47 C 662.36 273.55 660.06 272.59 657.64 271.79 C 660.64 271.44 663.03 272.08 664.28 268.73 C 663.36 268.32 662.44 267.91 661.52 267.50 C 661.44 266.52 661.36 265.55 661.29 264.57 C 658.80 262.66 656.25 260.95 653.30 259.83 C 649.49 258.35 646.18 256.03 642.48 254.32 C 642.68 253.78 642.87 253.25 643.07 252.72 Z" fill="#1996fc" />
<path d="M 338.19 254.01 C 340.11 254.79 341.98 255.66 343.86 256.52 C 344.18 257.88 344.51 259.23 344.83 260.59 C 345.99 261.20 347.16 261.80 348.33 262.37 C 340.39 261.63 332.45 260.92 324.48 260.48 C 329.01 258.25 333.59 256.09 338.19 254.01 Z" fill="#ebebeb" />
<path d="M 715.46 255.25 L 716.14 255.07 C 717.52 254.72 718.90 254.37 720.28 254.03 C 716.48 258.82 712.87 263.76 709.13 268.59 C 702.73 270.35 695.31 276.26 688.61 273.42 C 680.71 270.28 672.87 266.68 665.23 262.93 C 662.90 261.93 661.87 260.39 660.75 258.23 C 667.92 257.74 674.84 259.45 682.00 259.31 C 693.20 259.19 704.97 259.94 715.46 255.25 Z" fill="#0c82fd" />
<path d="M 528.67 256.80 C 528.64 257.43 528.60 258.06 528.56 258.69 C 530.78 259.58 533.00 260.46 535.23 261.33 C 529.67 263.39 524.07 265.36 518.52 267.45 C 514.74 266.31 510.98 265.08 507.17 264.02 C 514.41 261.80 521.51 259.24 528.67 256.80 Z" fill="#ebeaeb" />
<path d="M 603.96 260.06 C 607.93 260.36 611.79 261.16 615.67 262.03 C 615.52 262.68 615.38 263.32 615.24 263.97 C 611.58 263.64 607.91 263.41 604.24 263.29 C 587.13 262.31 570.11 263.40 553.09 265.15 C 551.60 265.01 550.12 264.85 548.64 264.66 C 556.82 262.16 565.44 261.08 573.83 259.48 C 584.17 257.62 593.67 259.51 603.96 260.06 Z" fill="#035fcf" />
<path d="M 358.07 260.04 C 381.08 262.42 404.10 265.49 427.01 268.73 C 434.43 269.85 441.85 270.85 449.21 272.29 C 443.74 271.52 439.59 271.66 434.17 272.70 L 434.79 274.03 C 431.51 273.62 428.23 273.67 424.97 273.07 C 401.03 268.99 376.97 265.80 352.86 262.90 C 354.81 262.28 356.43 261.23 358.07 260.04 Z" fill="#e1e0e0" />
<path d="M 604.24 263.29 C 600.61 263.41 596.79 263.36 593.24 264.20 C 591.60 264.64 591.93 267.67 591.55 268.99 C 596.76 269.17 601.97 269.36 607.17 269.70 C 601.93 269.74 596.70 270.02 591.46 270.03 C 584.42 269.94 577.47 269.90 570.53 271.37 C 570.15 272.94 569.54 274.63 569.57 276.27 C 570.15 277.45 571.10 278.47 571.88 279.53 C 567.04 279.59 562.21 279.88 557.38 280.24 C 557.37 277.19 557.36 274.14 557.37 271.09 C 556.28 271.08 555.18 271.07 554.08 271.07 C 554.80 270.31 555.51 269.54 556.22 268.78 C 553.00 268.09 551.08 268.21 547.99 269.20 C 542.35 266.62 537.36 269.32 531.39 268.16 C 538.59 266.90 545.84 266.05 553.09 265.15 C 570.11 263.40 587.13 262.31 604.24 263.29 Z" fill="#e7e7e7" />
<path d="M 506.80 264.12 L 507.17 264.02 C 510.98 265.08 514.74 266.31 518.52 267.45 C 514.56 268.94 510.74 270.44 506.62 271.43 C 502.70 271.03 498.94 270.48 495.00 271.09 C 489.89 271.36 485.05 273.27 480.31 271.20 C 489.24 269.20 498.04 266.74 506.80 264.12 Z" fill="#d5d4d4" />
<path d="M 593.24 264.20 C 596.79 263.36 600.61 263.41 604.24 263.29 C 607.91 263.41 611.58 263.64 615.24 263.97 C 621.00 264.48 626.75 264.99 632.47 265.87 C 636.05 266.50 639.65 267.09 643.21 267.83 C 648.08 268.94 652.87 270.31 657.64 271.79 C 660.06 272.59 662.36 273.55 664.73 274.47 C 661.02 275.38 657.25 275.83 653.45 276.27 C 647.25 274.51 640.80 273.51 634.46 272.38 C 631.67 271.94 628.89 271.63 626.10 271.30 C 623.74 271.03 621.39 270.74 619.02 270.56 C 615.08 270.18 611.13 269.84 607.17 269.70 C 601.97 269.36 596.76 269.17 591.55 268.99 C 591.93 267.67 591.60 264.64 593.24 264.20 Z" fill="#fdfdfe" />
<path d="M 531.39 268.16 C 537.36 269.32 542.35 266.62 547.99 269.20 C 551.08 268.21 553.00 268.09 556.22 268.78 C 555.51 269.54 554.80 270.31 554.08 271.07 C 545.42 271.16 536.66 273.10 527.97 273.82 C 528.54 273.31 529.12 272.80 529.70 272.30 C 528.72 271.82 527.74 271.35 526.76 270.88 C 523.48 272.62 521.49 271.42 518.36 270.12 C 522.68 269.42 527.03 268.61 531.39 268.16 Z" fill="#d7d6d7" />
<path d="M 317.00 269.78 C 337.58 270.50 358.15 271.37 378.68 273.03 C 376.81 273.40 374.95 273.78 373.05 273.98 C 370.83 274.02 368.61 273.96 366.39 274.06 C 365.71 276.27 365.16 278.51 364.60 280.75 C 362.02 280.98 359.46 281.21 356.86 281.30 C 352.26 281.05 347.66 280.84 343.05 280.65 C 337.18 280.42 331.65 279.49 325.75 279.98 C 327.72 279.64 329.80 279.29 331.62 278.45 C 333.17 276.77 334.19 274.52 335.36 272.57 C 331.31 271.93 327.35 271.65 323.24 271.77 C 318.67 271.70 314.11 271.48 309.53 271.51 C 295.02 271.56 280.46 272.24 266.02 273.74 C 249.51 275.17 232.94 278.05 217.12 283.03 C 203.06 287.37 189.11 292.87 176.44 300.40 C 174.79 301.43 173.06 301.48 171.18 301.62 C 172.19 300.78 173.22 299.97 174.27 299.18 C 185.37 292.69 196.96 288.31 209.00 283.91 C 243.29 272.02 280.94 269.27 317.00 269.78 Z" fill="#f5f4f5" />
<path d="M 506.62 271.43 C 510.58 271.65 514.34 270.72 518.36 270.12 C 521.49 271.42 523.48 272.62 526.76 270.88 C 527.74 271.35 528.72 271.82 529.70 272.30 C 529.12 272.80 528.54 273.31 527.97 273.82 L 526.72 273.95 C 522.39 274.47 518.13 275.29 513.82 275.90 C 508.96 276.52 504.15 277.24 499.48 278.76 C 502.69 281.82 505.50 284.53 510.21 284.84 C 498.82 286.17 487.41 287.32 476.01 288.54 C 476.99 286.09 477.98 283.64 478.97 281.19 C 482.88 280.64 486.67 279.65 490.55 278.96 C 494.14 278.91 496.84 278.40 500.09 276.84 C 494.34 274.83 488.91 275.49 483.00 275.59 C 475.33 275.85 467.66 275.56 460.00 275.99 C 457.69 276.14 455.50 275.69 453.28 275.15 C 462.36 274.36 471.35 272.90 480.31 271.20 C 485.05 273.27 489.89 271.36 495.00 271.09 C 498.94 270.48 502.70 271.03 506.62 271.43 Z" fill="#c4c3c3" />
<path d="M 591.46 270.03 C 591.32 271.70 591.15 273.36 590.96 275.03 C 591.18 276.00 591.40 276.97 591.62 277.94 C 588.17 278.06 584.93 278.48 581.57 279.22 C 578.34 279.38 575.11 279.43 571.88 279.53 C 571.10 278.47 570.15 277.45 569.57 276.27 C 569.54 274.63 570.15 272.94 570.53 271.37 C 577.47 269.90 584.42 269.94 591.46 270.03 Z" fill="#dedddd" />
<path d="M 591.46 270.03 C 596.70 270.02 601.93 269.74 607.17 269.70 C 611.13 269.84 615.08 270.18 619.02 270.56 C 617.90 271.20 616.80 271.87 615.71 272.55 C 616.31 273.66 616.92 274.78 617.53 275.89 C 617.19 276.78 616.85 277.68 616.51 278.57 C 616.95 279.30 617.40 280.04 617.84 280.78 C 605.78 279.38 593.69 279.25 581.57 279.22 C 584.93 278.48 588.17 278.06 591.62 277.94 C 591.40 276.97 591.18 276.00 590.96 275.03 C 591.15 273.36 591.32 271.70 591.46 270.03 Z" fill="#d0d0d0" />
<path d="M 554.08 271.07 C 555.18 271.07 556.28 271.08 557.37 271.09 C 557.36 274.14 557.37 277.19 557.38 280.24 C 547.61 280.87 537.83 281.74 528.09 282.84 C 527.12 281.23 525.96 279.58 525.31 277.80 C 525.20 276.53 526.27 275.13 526.72 273.95 L 527.97 273.82 C 536.66 273.10 545.42 271.16 554.08 271.07 Z" fill="#f2f1f2" />
<path d="M 619.02 270.56 C 621.39 270.74 623.74 271.03 626.10 271.30 C 626.23 274.84 626.43 278.38 626.74 281.91 C 623.78 281.47 620.81 281.15 617.84 280.78 C 617.40 280.04 616.95 279.30 616.51 278.57 C 616.85 277.68 617.19 276.78 617.53 275.89 C 616.92 274.78 616.31 273.66 615.71 272.55 C 616.80 271.87 617.90 271.20 619.02 270.56 Z" fill="#c2c1c2" />
<path d="M 309.53 271.51 C 310.14 274.03 310.75 276.54 311.34 279.06 C 309.47 279.16 307.60 279.36 305.74 279.60 C 312.36 280.05 319.13 280.58 325.75 279.98 C 331.65 279.49 337.18 280.42 343.05 280.65 C 347.66 280.84 352.26 281.05 356.86 281.30 C 362.83 281.97 368.82 281.83 374.78 282.37 L 375.55 282.48 C 373.80 282.59 371.94 282.68 370.24 283.15 C 369.49 284.24 368.79 285.36 368.16 286.53 C 348.58 283.71 328.78 280.77 308.99 280.21 C 285.32 279.04 261.37 279.84 237.95 283.55 C 230.59 284.74 223.27 286.19 216.05 288.07 C 216.42 286.40 216.79 284.72 217.12 283.03 C 232.94 278.05 249.51 275.17 266.02 273.74 C 280.46 272.24 295.02 271.56 309.53 271.51 Z" fill="#cecdcd" />
<path d="M 309.53 271.51 C 314.11 271.48 318.67 271.70 323.24 271.77 C 322.14 273.08 321.11 274.44 320.07 275.79 C 320.76 276.68 321.44 277.56 322.13 278.44 C 318.54 278.94 314.96 279.05 311.34 279.06 C 310.75 276.54 310.14 274.03 309.53 271.51 Z" fill="#d8d7d8" />
<path d="M 323.24 271.77 C 327.35 271.65 331.31 271.93 335.36 272.57 C 334.19 274.52 333.17 276.77 331.62 278.45 C 329.80 279.29 327.72 279.64 325.75 279.98 C 319.13 280.58 312.36 280.05 305.74 279.60 C 307.60 279.36 309.47 279.16 311.34 279.06 C 314.96 279.05 318.54 278.94 322.13 278.44 C 321.44 277.56 320.76 276.68 320.07 275.79 C 321.11 274.44 322.14 273.08 323.24 271.77 Z" fill="#e3e2e3" />
<path d="M 626.10 271.30 C 628.89 271.63 631.67 271.94 634.46 272.38 C 634.58 276.16 634.62 279.91 635.38 283.64 C 632.52 282.96 629.64 282.38 626.74 281.91 C 626.43 278.38 626.23 274.84 626.10 271.30 Z" fill="#b6b6b6" />
<path d="M 378.68 273.03 C 384.28 273.21 389.87 273.69 395.46 274.08 C 391.66 274.86 387.85 275.19 383.98 275.49 C 381.25 275.40 379.33 278.63 377.60 280.35 C 380.63 281.77 383.82 282.22 387.08 282.78 L 385.73 283.18 C 383.81 283.16 381.89 283.13 379.97 283.01 C 378.50 282.87 377.03 282.66 375.55 282.48 L 374.78 282.37 C 373.81 281.55 372.87 280.70 371.92 279.84 C 372.30 277.89 372.68 275.93 373.05 273.98 C 374.95 273.78 376.81 273.40 378.68 273.03 Z" fill="#dcdbdb" />
<path d="M 634.46 272.38 C 640.80 273.51 647.25 274.51 653.45 276.27 C 654.96 276.75 656.45 277.26 657.94 277.76 C 655.24 278.72 652.76 280.10 650.30 281.56 C 650.12 283.86 649.92 286.16 649.71 288.45 C 645.12 286.27 640.32 284.82 635.38 283.64 C 634.62 279.91 634.58 276.16 634.46 272.38 Z" fill="#a8a7a7" />
<path d="M 366.39 274.06 C 368.61 273.96 370.83 274.02 373.05 273.98 C 372.68 275.93 372.30 277.89 371.92 279.84 C 372.87 280.70 373.81 281.55 374.78 282.37 C 368.82 281.83 362.83 281.97 356.86 281.30 C 359.46 281.21 362.02 280.98 364.60 280.75 C 365.16 278.51 365.71 276.27 366.39 274.06 Z" fill="#e9e8e8" />
<path d="M 395.46 274.08 C 400.52 274.36 405.56 274.89 410.63 275.12 C 405.32 276.82 400.13 275.64 395.25 278.10 C 393.11 279.05 391.29 280.42 389.47 281.86 C 392.56 282.72 395.29 282.97 398.49 282.76 C 400.10 282.93 401.71 283.13 403.31 283.37 C 399.12 283.96 394.93 284.32 390.70 283.91 C 389.04 283.70 387.39 283.40 385.73 283.18 L 387.08 282.78 C 383.82 282.22 380.63 281.77 377.60 280.35 C 379.33 278.63 381.25 275.40 383.98 275.49 C 387.85 275.19 391.66 274.86 395.46 274.08 Z" fill="#c6c5c5" />
<path d="M 526.72 273.95 C 526.27 275.13 525.20 276.53 525.31 277.80 C 525.96 279.58 527.12 281.23 528.09 282.84 C 524.84 283.26 521.58 283.55 518.33 283.93 C 516.97 282.85 515.61 281.77 514.26 280.69 C 514.11 279.09 513.96 277.50 513.82 275.90 C 518.13 275.29 522.39 274.47 526.72 273.95 Z" fill="#e3e2e3" />
<path d="M 664.73 274.47 C 674.75 278.18 684.06 283.93 691.92 291.16 C 694.22 293.42 696.28 295.96 698.13 298.60 L 697.67 300.65 C 695.16 298.54 692.79 296.25 690.29 294.13 C 686.43 291.03 682.30 288.29 677.92 285.99 C 671.58 282.40 664.84 280.00 657.94 277.76 C 656.45 277.26 654.96 276.75 653.45 276.27 C 657.25 275.83 661.02 275.38 664.73 274.47 Z" fill="#d6d5d5" />
<path d="M 410.63 275.12 C 414.43 275.14 418.21 275.48 422.01 275.66 C 432.39 276.18 442.90 275.71 453.28 275.15 C 455.50 275.69 457.69 276.14 460.00 275.99 C 467.66 275.56 475.33 275.85 483.00 275.59 C 488.91 275.49 494.34 274.83 500.09 276.84 C 496.84 278.40 494.14 278.91 490.55 278.96 C 481.84 275.63 470.83 277.91 461.58 277.47 C 453.90 276.92 446.25 277.28 438.57 277.15 C 435.13 276.84 431.71 276.98 428.27 277.28 C 423.44 277.05 418.84 276.54 414.01 277.37 C 408.58 278.34 403.36 280.18 398.49 282.76 C 395.29 282.97 392.56 282.72 389.47 281.86 C 391.29 280.42 393.11 279.05 395.25 278.10 C 400.13 275.64 405.32 276.82 410.63 275.12 Z" fill="#b3b3b3" />
<path d="M 513.82 275.90 C 513.96 277.50 514.11 279.09 514.26 280.69 C 515.61 281.77 516.97 282.85 518.33 283.93 C 515.62 284.26 512.92 284.59 510.21 284.84 C 505.50 284.53 502.69 281.82 499.48 278.76 C 504.15 277.24 508.96 276.52 513.82 275.90 Z" fill="#d8d8d8" />
<path d="M 414.01 277.37 C 418.84 276.54 423.44 277.05 428.27 277.28 C 424.20 278.93 420.20 280.74 416.37 282.89 C 416.88 283.57 417.38 284.24 417.89 284.91 C 413.70 284.97 409.53 285.14 405.35 285.43 C 404.54 287.45 403.74 289.47 402.93 291.50 C 400.54 291.42 398.15 291.44 395.76 291.36 C 393.38 290.99 391.03 290.45 388.67 290.00 C 389.34 287.97 390.01 285.94 390.70 283.91 C 394.93 284.32 399.12 283.96 403.31 283.37 C 401.71 283.13 400.10 282.93 398.49 282.76 C 403.36 280.18 408.58 278.34 414.01 277.37 Z" fill="#9e9d9d" />
<path d="M 428.27 277.28 C 431.71 276.98 435.13 276.84 438.57 277.15 C 444.84 280.81 451.09 280.06 458.01 280.96 C 463.18 281.69 467.60 279.64 472.62 281.62 C 467.12 282.55 461.63 283.50 456.10 284.18 C 453.66 284.39 451.23 284.67 448.80 284.98 C 444.43 285.54 440.05 286.01 435.69 286.61 C 429.61 284.63 422.42 286.09 416.03 285.90 C 415.95 287.06 415.87 288.22 415.79 289.38 C 415.15 290.16 414.51 290.95 413.87 291.73 C 410.22 291.77 406.58 291.62 402.93 291.50 C 403.74 289.47 404.54 287.45 405.35 285.43 C 409.53 285.14 413.70 284.97 417.89 284.91 C 417.38 284.24 416.88 283.57 416.37 282.89 C 420.20 280.74 424.20 278.93 428.27 277.28 Z" fill="#818080" />
<path d="M 438.57 277.15 C 446.25 277.28 453.90 276.92 461.58 277.47 C 470.83 277.91 481.84 275.63 490.55 278.96 C 486.67 279.65 482.88 280.64 478.97 281.19 C 476.86 281.45 474.74 281.58 472.62 281.62 C 467.60 279.64 463.18 281.69 458.01 280.96 C 451.09 280.06 444.84 280.81 438.57 277.15 Z" fill="#9e9d9d" />
<path d="M 657.94 277.76 C 664.84 280.00 671.58 282.40 677.92 285.99 C 674.33 287.06 671.59 285.30 668.12 285.04 C 664.22 285.54 661.94 289.57 659.66 292.37 C 660.35 293.82 661.03 295.26 661.78 296.68 C 658.13 293.40 654.11 290.64 649.71 288.45 C 649.92 286.16 650.12 283.86 650.30 281.56 C 652.76 280.10 655.24 278.72 657.94 277.76 Z" fill="#969595" />
<path d="M 308.99 280.21 C 328.78 280.77 348.58 283.71 368.16 286.53 C 371.68 287.09 375.20 287.65 378.72 288.27 C 382.03 288.87 385.36 289.39 388.67 290.00 C 391.03 290.45 393.38 290.99 395.76 291.36 C 373.21 288.78 350.66 286.94 328.00 285.57 C 299.37 284.27 269.50 283.76 241.18 288.65 C 240.10 286.95 239.02 285.25 237.95 283.55 C 261.37 279.84 285.32 279.04 308.99 280.21 Z" fill="#0fb6fd" />
<path d="M 478.97 281.19 C 477.98 283.64 476.99 286.09 476.01 288.54 C 471.89 289.01 467.76 289.31 463.62 289.70 C 460.98 288.04 458.51 286.15 456.10 284.18 C 461.63 283.50 467.12 282.55 472.62 281.62 C 474.74 281.58 476.86 281.45 478.97 281.19 Z" fill="#b3b3b3" />
<path d="M 217.12 283.03 C 216.79 284.72 216.42 286.40 216.05 288.07 C 212.87 288.89 209.70 289.77 206.57 290.77 C 196.05 294.01 186.52 298.23 177.05 303.82 C 174.76 303.40 172.46 303.04 170.16 302.69 L 170.61 302.08 L 171.18 301.62 C 173.06 301.48 174.79 301.43 176.44 300.40 C 189.11 292.87 203.06 287.37 217.12 283.03 Z" fill="#d3d2d2" />
<path d="M 370.24 283.15 C 371.94 282.68 373.80 282.59 375.55 282.48 C 377.03 282.66 378.50 282.87 379.97 283.01 C 379.55 284.76 379.13 286.52 378.72 288.27 C 375.20 287.65 371.68 287.09 368.16 286.53 C 368.79 285.36 369.49 284.24 370.24 283.15 Z" fill="#bebebe" />
<path d="M 379.97 283.01 C 381.89 283.13 383.81 283.16 385.73 283.18 C 387.39 283.40 389.04 283.70 390.70 283.91 C 390.01 285.94 389.34 287.97 388.67 290.00 C 385.36 289.39 382.03 288.87 378.72 288.27 C 379.13 286.52 379.55 284.76 379.97 283.01 Z" fill="#b2b1b1" />
<path d="M 237.95 283.55 C 239.02 285.25 240.10 286.95 241.18 288.65 C 229.97 290.74 218.22 293.70 208.26 299.40 C 207.66 296.53 207.10 293.65 206.57 290.77 C 209.70 289.77 212.87 288.89 216.05 288.07 C 223.27 286.19 230.59 284.74 237.95 283.55 Z" fill="#0dacfe" />
<path d="M 456.10 284.18 C 458.51 286.15 460.98 288.04 463.62 289.70 C 458.09 290.24 452.54 290.52 447.00 290.90 C 447.60 288.93 448.20 286.95 448.80 284.98 C 451.23 284.67 453.66 284.39 456.10 284.18 Z" fill="#a6a5a5" />
<path d="M 448.80 284.98 C 448.20 286.95 447.60 288.93 447.00 290.90 C 435.97 291.49 424.91 291.52 413.87 291.73 C 414.51 290.95 415.15 290.16 415.79 289.38 C 422.45 288.65 429.11 287.90 435.69 286.61 C 440.05 286.01 444.43 285.54 448.80 284.98 Z" fill="#979696" />
<path d="M 668.12 285.04 C 671.59 285.30 674.33 287.06 677.92 285.99 C 682.30 288.29 686.43 291.03 690.29 294.13 C 690.44 297.76 691.30 302.05 689.20 305.28 C 686.64 309.40 682.48 312.87 678.84 316.02 L 676.51 316.13 C 675.63 316.12 674.75 316.08 673.87 316.03 C 673.16 315.92 672.45 315.82 671.75 315.71 C 671.15 313.87 670.59 312.11 669.32 310.60 C 667.72 305.00 665.60 301.06 661.78 296.68 C 661.03 295.26 660.35 293.82 659.66 292.37 C 661.94 289.57 664.22 285.54 668.12 285.04 Z" fill="#8b8a8a" />
<path d="M 416.03 285.90 C 422.42 286.09 429.61 284.63 435.69 286.61 C 429.11 287.90 422.45 288.65 415.79 289.38 C 415.87 288.22 415.95 287.06 416.03 285.90 Z" fill="#6d6d6d" />
<path d="M 670.34 289.36 C 674.86 287.62 677.92 290.11 681.32 292.68 C 683.78 294.38 684.88 298.79 683.43 301.39 C 681.25 303.68 678.02 305.17 675.07 306.20 C 673.28 306.80 671.27 306.63 670.02 305.07 C 667.74 302.42 665.52 299.33 663.82 296.27 C 662.91 294.95 663.94 293.80 664.77 292.75 C 666.26 291.16 668.29 290.04 670.34 289.36 Z" fill="#7b7a7a" />
<path d="M 206.57 290.77 C 207.10 293.65 207.66 296.53 208.26 299.40 C 201.64 303.29 196.46 309.33 194.15 316.70 C 189.25 313.44 184.40 314.83 178.87 314.84 C 177.86 311.23 177.32 307.55 177.05 303.82 C 186.52 298.23 196.05 294.01 206.57 290.77 Z" fill="#0da2fe" />
<path d="M 690.29 294.13 C 692.79 296.25 695.16 298.54 697.67 300.65 C 697.53 301.29 697.38 301.92 697.23 302.55 C 694.28 306.14 691.50 309.48 690.46 314.15 C 686.66 315.24 682.77 315.76 678.84 316.02 C 682.48 312.87 686.64 309.40 689.20 305.28 C 691.30 302.05 690.44 297.76 690.29 294.13 Z" fill="#a9a8a8" />
<path d="M 174.27 299.18 C 173.22 299.97 172.19 300.78 171.18 301.62 L 170.61 302.08 L 170.16 302.69 C 171.00 310.30 173.64 317.57 177.58 324.11 C 182.37 332.20 189.21 337.86 196.02 344.11 C 186.14 339.66 177.59 332.45 171.62 323.39 C 168.34 317.99 165.19 311.45 165.07 305.03 C 167.55 302.49 171.20 300.92 174.27 299.18 Z" fill="#0ea4fd" />
<path d="M 698.13 298.60 C 699.37 300.52 701.32 302.77 701.64 305.06 C 701.22 307.98 699.67 310.84 698.48 313.52 L 697.97 311.45 C 695.50 312.43 693.02 313.40 690.46 314.15 C 691.50 309.48 694.28 306.14 697.23 302.55 C 697.38 301.92 697.53 301.29 697.67 300.65 L 698.13 298.60 Z" fill="#bebebe" />
<path d="M 312.97 301.80 C 310.86 311.80 308.93 321.95 305.93 331.74 C 305.07 330.50 304.21 329.27 303.37 328.02 C 299.02 327.30 294.90 327.05 290.51 327.42 C 289.96 328.89 289.40 330.35 288.92 331.84 C 288.42 333.89 288.05 335.97 287.64 338.04 C 287.24 339.98 286.80 341.91 286.36 343.83 C 285.81 343.32 285.26 342.80 284.71 342.28 C 284.91 341.42 285.12 340.56 285.30 339.70 C 288.04 327.05 290.93 314.48 293.87 301.88 C 300.23 301.70 306.61 301.86 312.97 301.80 Z" fill="#efeeee" />
<path d="M 235.37 301.95 C 245.42 301.60 255.50 301.96 265.56 301.75 C 271.04 311.55 275.95 321.68 281.08 331.67 C 280.38 331.75 279.68 331.83 278.97 331.92 C 277.64 329.47 276.29 327.03 274.91 324.61 C 267.85 326.00 261.02 325.11 253.93 324.67 C 254.57 327.18 255.33 329.67 256.07 332.15 L 254.61 332.09 C 253.12 329.44 251.86 326.63 250.64 323.85 C 250.26 325.33 249.88 326.81 249.51 328.30 C 248.80 328.71 248.09 329.12 247.38 329.53 C 247.07 328.74 246.76 327.96 246.45 327.17 C 241.35 326.10 236.68 327.10 231.78 328.57 C 231.40 329.62 231.01 330.68 230.62 331.73 C 229.68 332.39 228.76 333.07 227.89 333.82 C 230.45 323.21 232.90 312.58 235.37 301.95 Z" fill="#f1f0f1" />
<path d="M 341.99 301.82 C 358.05 301.77 374.13 301.81 390.18 301.81 C 389.34 306.50 388.10 311.08 387.00 315.71 C 375.33 315.51 363.66 315.87 352.00 315.69 C 349.13 315.61 346.34 316.08 343.53 316.61 C 343.54 317.79 343.54 318.98 343.54 320.16 C 353.91 322.81 364.38 325.05 374.79 327.53 C 378.07 328.30 380.43 329.52 382.95 331.75 L 380.19 331.79 C 369.05 327.51 357.51 326.08 346.01 323.17 C 340.96 321.76 336.10 322.79 331.03 322.02 C 329.06 321.80 326.87 321.38 324.92 321.92 C 322.92 322.55 321.12 324.12 319.43 325.33 C 319.37 320.03 320.43 313.97 323.54 309.55 C 327.99 303.81 335.05 302.03 341.99 301.82 Z" fill="#f2f2f2" />
<path d="M 423.99 301.79 C 440.06 301.77 456.21 301.77 472.27 301.78 L 472.02 302.63 C 466.93 304.51 462.30 303.68 457.00 303.93 C 448.01 304.33 439.01 304.01 430.00 304.07 C 424.24 304.16 418.77 303.43 413.71 306.76 C 409.54 309.24 408.03 313.39 406.80 317.83 C 405.64 322.51 404.48 327.17 403.12 331.80 C 402.00 336.15 400.89 340.50 399.75 344.85 C 399.22 347.53 398.84 350.22 398.49 352.93 C 398.35 349.74 397.96 346.58 397.78 343.39 C 400.42 334.26 402.47 324.97 404.79 315.75 C 405.68 312.36 407.22 309.21 409.80 306.79 C 413.49 303.17 418.97 301.84 423.99 301.79 Z" fill="#91effb" />
<path d="M 501.01 301.86 C 510.28 301.66 519.58 301.81 528.86 301.80 L 528.26 303.25 C 519.93 305.19 510.92 303.42 502.37 304.31 C 495.94 313.58 489.25 322.66 482.58 331.76 C 477.10 339.23 471.84 346.87 466.28 354.29 C 464.43 356.47 463.59 358.95 460.27 358.71 C 473.75 339.66 487.30 320.75 501.01 301.86 Z" fill="#8adceb" />
<path d="M 528.86 301.80 L 529.28 301.80 C 532.13 314.74 535.19 327.64 538.10 340.56 C 535.24 337.53 534.40 333.82 533.46 329.90 C 531.67 321.55 529.62 313.26 527.67 304.94 L 528.26 303.25 L 528.86 301.80 Z" fill="#096dcf" />
<path d="M 562.48 301.73 C 579.35 301.85 596.22 301.76 613.08 301.77 C 611.62 303.43 611.23 303.73 609.02 303.77 C 594.14 304.25 579.28 303.94 564.41 304.18 C 562.60 311.96 560.56 319.67 558.88 327.47 C 558.29 326.25 557.70 325.02 557.11 323.79 C 559.07 316.48 560.47 309.03 562.48 301.73 Z" fill="#9febf7" />
<path d="M 613.08 301.77 C 616.30 301.74 619.94 301.71 623.01 302.78 C 625.21 303.55 627.01 305.72 628.68 307.28 C 627.99 311.45 627.08 315.04 628.53 319.21 C 627.88 319.42 627.23 319.63 626.59 319.84 C 626.62 321.20 626.63 322.57 626.63 323.93 C 626.08 325.11 625.69 326.37 625.47 327.69 L 624.96 327.53 C 624.45 329.88 623.35 331.81 622.02 333.79 L 620.78 332.32 C 613.27 331.14 605.61 332.70 598.00 332.11 C 590.98 331.53 584.01 332.44 576.99 331.97 C 570.61 331.63 564.24 331.96 557.84 331.83 C 558.21 330.38 558.56 328.93 558.88 327.47 C 560.56 319.67 562.60 311.96 564.41 304.18 C 579.28 303.94 594.14 304.25 609.02 303.77 C 611.23 303.73 611.62 303.43 613.08 301.77 Z" fill="#53c2fe" />
<path d="M 170.16 302.69 C 172.46 303.04 174.76 303.40 177.05 303.82 C 177.32 307.55 177.86 311.23 178.87 314.84 C 179.45 316.86 180.10 318.87 180.89 320.83 C 179.76 321.90 178.68 323.00 177.58 324.11 C 173.64 317.57 171.00 310.30 170.16 302.69 Z" fill="#b9b8b8" />
<path d="M 472.02 302.63 C 470.89 307.02 469.78 311.41 468.56 315.77 C 463.32 315.39 458.23 316.48 453.00 316.33 C 446.64 316.23 440.32 316.49 433.97 316.07 C 432.48 316.17 431.00 316.26 429.52 316.32 C 427.46 316.40 426.25 316.26 425.29 318.32 C 423.47 322.56 422.84 327.36 421.65 331.81 C 415.44 332.45 409.34 331.63 403.12 331.80 C 404.48 327.17 405.64 322.51 406.80 317.83 C 408.03 313.39 409.54 309.24 413.71 306.76 C 418.77 303.43 424.24 304.16 430.00 304.07 C 439.01 304.01 448.01 304.33 457.00 303.93 C 462.30 303.68 466.93 304.51 472.02 302.63 Z" fill="#54c2fe" />
<path d="M 528.26 303.25 L 527.67 304.94 C 529.62 313.26 531.67 321.55 533.46 329.90 L 533.15 331.54 C 527.12 332.26 521.13 332.44 515.08 331.81 C 513.98 327.75 513.16 323.71 512.54 319.55 C 511.99 317.40 512.26 315.20 510.06 314.04 C 505.50 319.54 501.92 325.85 497.72 331.64 C 492.66 331.98 487.64 332.26 482.58 331.76 C 489.25 322.66 495.94 313.58 502.37 304.31 C 510.92 303.42 519.93 305.19 528.26 303.25 Z" fill="#55c3fe" />
<path d="M 669.32 310.60 C 670.59 312.11 671.15 313.87 671.75 315.71 C 672.45 315.82 673.16 315.92 673.87 316.03 C 674.93 316.71 675.94 317.38 676.86 318.24 C 676.96 322.39 675.84 326.49 676.52 330.82 C 676.97 333.51 678.64 336.03 679.99 338.35 C 677.99 339.86 675.88 341.24 673.72 342.52 C 671.31 339.44 669.56 336.69 665.15 337.07 C 659.79 341.74 656.36 348.69 648.55 350.27 C 654.26 345.96 659.46 341.17 663.38 335.13 L 665.00 336.17 C 667.61 331.51 671.61 325.64 669.41 320.14 C 669.58 316.95 669.68 313.78 669.32 310.60 Z" fill="#aaa9a9" />
<path d="M 697.97 311.45 L 698.48 313.52 C 696.77 317.39 694.70 320.99 692.52 324.61 C 691.84 323.91 691.17 323.20 690.50 322.50 C 690.54 320.97 690.59 319.44 690.63 317.92 C 688.45 317.67 686.27 317.44 684.09 317.23 C 681.55 316.97 679.02 316.60 676.51 316.13 L 678.84 316.02 C 682.77 315.76 686.66 315.24 690.46 314.15 C 693.02 313.40 695.50 312.43 697.97 311.45 Z" fill="#fafafa" />
<path d="M 579.14 314.30 C 584.40 313.86 589.72 314.42 595.00 314.22 C 598.60 314.27 602.66 313.74 606.14 314.79 C 608.27 315.35 608.09 317.45 608.79 319.19 C 608.13 318.78 607.48 318.37 606.82 317.97 C 604.06 315.83 601.25 316.43 598.00 316.37 C 592.22 316.55 586.45 316.31 580.68 316.39 C 579.62 320.31 578.78 324.29 578.11 328.30 C 577.20 328.60 576.30 328.90 575.40 329.22 C 576.65 324.28 577.40 319.10 579.14 314.30 Z" fill="#0b6bd1" />
<path d="M 178.87 314.84 C 184.40 314.83 189.25 313.44 194.15 316.70 C 190.97 326.84 193.88 336.05 198.03 345.34 C 197.56 345.06 197.09 344.77 196.62 344.48 C 193.94 340.49 190.52 337.13 187.81 333.15 C 185.01 329.32 182.76 325.19 180.89 320.83 C 180.10 318.87 179.45 316.86 178.87 314.84 Z" fill="#0c83fd" />
<path d="M 510.06 314.04 C 512.26 315.20 511.99 317.40 512.54 319.55 C 513.16 323.71 513.98 327.75 515.08 331.81 C 521.13 332.44 527.12 332.26 533.15 331.54 L 533.46 329.90 C 534.40 333.82 535.24 337.53 538.10 340.56 C 538.37 341.77 538.64 342.97 538.92 344.17 C 538.37 344.82 537.87 345.49 537.42 346.19 C 537.61 351.04 538.90 356.25 541.73 360.27 C 541.84 359.16 541.94 358.06 542.02 356.95 C 542.36 358.38 542.68 359.81 543.00 361.24 C 535.47 361.29 527.93 361.25 520.40 361.32 C 520.40 359.29 520.60 356.91 519.89 354.99 C 519.27 353.67 517.91 352.65 516.90 351.63 C 516.79 350.96 516.67 350.28 516.55 349.60 C 506.97 349.70 497.39 349.83 487.81 349.78 C 485.15 353.56 482.66 357.45 480.09 361.28 C 472.84 361.31 465.59 361.30 458.34 361.27 C 458.98 360.42 459.63 359.57 460.27 358.71 C 463.59 358.95 464.43 356.47 466.28 354.29 C 471.84 346.87 477.10 339.23 482.58 331.76 C 487.64 332.26 492.66 331.98 497.72 331.64 C 501.92 325.85 505.50 319.54 510.06 314.04 Z" fill="#0c93fd" />
<path d="M 580.68 316.39 C 586.45 316.31 592.22 316.55 598.00 316.37 C 601.25 316.43 604.06 315.83 606.82 317.97 C 606.62 319.75 606.42 321.52 606.15 323.29 C 605.13 325.61 604.23 327.16 601.48 327.50 C 594.37 328.14 587.11 327.48 579.96 327.82 L 578.11 328.30 C 578.78 324.29 579.62 320.31 580.68 316.39 Z" fill="#000000" />
<path d="M 673.87 316.03 C 674.75 316.08 675.63 316.12 676.51 316.13 C 679.02 316.60 681.55 316.97 684.09 317.23 C 684.58 317.66 685.07 318.09 685.55 318.52 C 685.22 320.81 684.37 323.54 684.99 325.79 C 685.56 327.75 687.33 328.63 688.81 329.88 C 686.20 333.01 683.21 335.85 679.99 338.35 C 678.64 336.03 676.97 333.51 676.52 330.82 C 675.84 326.49 676.96 322.39 676.86 318.24 C 675.94 317.38 674.93 316.71 673.87 316.03 Z" fill="#c0c0c0" />
<path d="M 429.52 316.32 C 425.27 320.64 425.79 325.66 423.88 331.01 C 423.07 335.78 421.93 340.46 421.47 345.29 C 417.38 345.16 416.08 342.12 412.93 340.15 C 408.13 340.88 403.13 340.98 399.75 344.85 C 400.89 340.50 402.00 336.15 403.12 331.80 C 409.34 331.63 415.44 332.45 421.65 331.81 C 422.84 327.36 423.47 322.56 425.29 318.32 C 426.25 316.26 427.46 316.40 429.52 316.32 Z" fill="#0d9cfd" />
<path d="M 684.09 317.23 C 686.27 317.44 688.45 317.67 690.63 317.92 C 690.59 319.44 690.54 320.97 690.50 322.50 C 691.17 323.20 691.84 323.91 692.52 324.61 C 691.37 326.43 690.12 328.18 688.81 329.88 C 687.33 328.63 685.56 327.75 684.99 325.79 C 684.37 323.54 685.22 320.81 685.55 318.52 C 685.07 318.09 684.58 317.66 684.09 317.23 Z" fill="#e1e0e1" />
<path d="M 509.97 317.50 C 511.11 323.81 512.88 330.04 513.57 336.40 C 509.39 335.32 504.62 335.78 500.30 335.84 L 497.64 335.84 C 501.53 329.61 505.61 323.42 509.97 317.50 Z" fill="#010101" />
<path d="M 180.89 320.83 C 182.76 325.19 185.01 329.32 187.81 333.15 C 190.52 337.13 193.94 340.49 196.62 344.48 L 196.02 344.11 C 189.21 337.86 182.37 332.20 177.58 324.11 C 178.68 323.00 179.76 321.90 180.89 320.83 Z" fill="#d3d3d3" />
<path d="M 331.03 322.02 C 336.10 322.79 340.96 321.76 346.01 323.17 C 357.51 326.08 369.05 327.51 380.19 331.79 C 369.76 332.04 359.32 331.92 348.89 332.01 C 340.86 332.10 332.04 330.74 324.23 332.74 C 321.36 330.97 320.24 328.49 319.43 325.33 C 321.12 324.12 322.92 322.55 324.92 321.92 C 326.87 321.38 329.06 321.80 331.03 322.02 Z" fill="#dddcdc" />
<path d="M 669.41 320.14 C 671.61 325.64 667.61 331.51 665.00 336.17 L 663.38 335.13 C 666.32 330.51 668.09 325.42 669.41 320.14 Z" fill="#b9b9b9" />
<path d="M 608.97 322.62 C 608.18 324.44 607.44 326.61 606.04 328.05 C 603.92 329.96 600.69 329.91 598.00 330.02 C 591.80 330.06 585.61 330.10 579.41 329.75 C 579.59 329.11 579.78 328.47 579.96 327.82 C 587.11 327.48 594.37 328.14 601.48 327.50 C 604.23 327.16 605.13 325.61 606.15 323.29 C 607.09 323.06 608.03 322.83 608.97 322.62 Z" fill="#8de1f2" />
<path d="M 253.93 324.67 C 261.02 325.11 267.85 326.00 274.91 324.61 C 276.29 327.03 277.64 329.47 278.97 331.92 C 275.63 332.42 272.34 332.13 269.00 331.89 C 264.64 331.59 260.41 332.17 256.07 332.15 C 255.33 329.67 254.57 327.18 253.93 324.67 Z" fill="#e6e5e5" />
<path d="M 557.11 323.79 C 557.70 325.02 558.29 326.25 558.88 327.47 C 558.56 328.93 558.21 330.38 557.84 331.83 C 556.73 335.99 555.71 340.16 554.69 344.34 C 552.94 349.87 552.89 357.22 548.33 361.09 C 550.88 348.59 554.05 336.18 557.11 323.79 Z" fill="#65daf9" />
<path d="M 246.45 327.17 C 246.76 327.96 247.07 328.74 247.38 329.53 C 248.09 329.12 248.80 328.71 249.51 328.30 C 249.23 329.50 248.92 330.69 248.60 331.87 L 247.83 332.00 C 242.01 332.62 236.43 331.94 230.62 331.73 C 231.01 330.68 231.40 329.62 231.78 328.57 C 236.68 327.10 241.35 326.10 246.45 327.17 Z" fill="#e6e5e5" />
<path d="M 303.37 328.02 C 304.21 329.27 305.07 330.50 305.93 331.74 L 305.88 331.88 C 300.21 332.56 294.60 332.23 288.92 331.84 C 289.40 330.35 289.96 328.89 290.51 327.42 C 294.90 327.05 299.02 327.30 303.37 328.02 Z" fill="#dddcdc" />
<path d="M 281.08 331.67 C 282.45 334.37 283.99 336.98 285.30 339.70 C 285.12 340.56 284.91 341.42 284.71 342.28 C 281.05 342.27 278.92 340.92 275.94 339.15 C 271.30 339.19 266.81 342.08 263.79 345.48 C 262.65 343.41 261.39 341.42 260.07 339.47 L 259.65 342.23 C 258.01 338.82 256.48 335.39 254.61 332.09 L 256.07 332.15 C 260.41 332.17 264.64 331.59 269.00 331.89 C 272.34 332.13 275.63 332.42 278.97 331.92 C 279.68 331.83 280.38 331.75 281.08 331.67 Z" fill="#afaeae" />
<path d="M 230.62 331.73 C 236.43 331.94 242.01 332.62 247.83 332.00 C 247.51 335.93 246.73 339.78 245.72 343.58 L 244.53 343.37 C 244.06 342.05 243.61 340.73 243.18 339.39 C 240.71 339.17 237.74 338.55 235.39 339.47 C 232.76 340.44 230.30 341.93 227.83 343.24 C 228.13 341.66 228.42 340.08 228.70 338.51 C 228.05 338.46 227.41 338.42 226.77 338.39 C 227.12 336.86 227.48 335.34 227.89 333.82 C 228.76 333.07 229.68 332.39 230.62 331.73 Z" fill="#aaa9a9" />
<path d="M 288.92 331.84 C 294.60 332.23 300.21 332.56 305.88 331.88 C 304.27 336.66 303.90 341.75 302.55 346.63 L 301.24 344.29 C 300.59 342.02 299.97 339.78 299.13 337.57 C 295.24 338.18 291.57 338.66 287.64 338.04 C 288.05 335.97 288.42 333.89 288.92 331.84 Z" fill="#acabab" />
<path d="M 348.89 332.01 C 350.11 332.70 351.41 333.41 352.43 334.37 C 352.61 335.41 352.73 336.45 352.78 337.50 L 350.75 338.50 C 349.58 338.78 348.40 339.04 347.22 339.30 C 339.51 337.60 331.45 336.00 324.23 332.74 C 332.04 330.74 340.86 332.10 348.89 332.01 Z" fill="#9b9a99" />
<path d="M 348.89 332.01 C 359.32 331.92 369.76 332.04 380.19 331.79 L 382.95 331.75 C 384.47 334.70 385.67 337.61 385.13 341.02 C 384.34 346.43 382.72 352.69 378.42 356.42 C 373.82 360.43 367.89 361.18 362.00 361.32 C 345.57 361.37 329.14 361.22 312.71 361.31 C 313.12 360.64 313.52 359.96 313.91 359.27 C 324.75 358.89 335.59 359.09 346.43 358.85 C 353.74 358.63 361.24 359.24 368.49 358.24 C 374.61 357.22 379.56 353.38 381.22 347.27 C 382.52 343.56 380.64 337.97 375.91 338.50 C 369.77 339.03 363.81 338.17 357.74 339.55 C 355.40 339.22 353.09 338.78 350.75 338.50 L 352.78 337.50 C 352.73 336.45 352.61 335.41 352.43 334.37 C 351.41 333.41 350.11 332.70 348.89 332.01 Z" fill="#acabab" />
<path d="M 557.84 331.83 C 564.24 331.96 570.61 331.63 576.99 331.97 C 584.01 332.44 590.98 331.53 598.00 332.11 C 605.61 332.70 613.27 331.14 620.78 332.32 C 620.71 333.25 620.65 334.18 620.58 335.11 C 615.37 337.61 611.68 338.04 605.90 337.63 C 606.90 340.11 608.30 342.27 609.95 344.36 C 606.43 344.62 602.76 345.79 599.24 345.47 C 595.27 344.51 591.65 342.96 587.47 342.90 C 587.20 343.87 586.92 344.83 586.64 345.79 C 584.57 342.60 582.39 339.49 579.91 336.60 L 579.83 339.10 L 579.00 337.79 C 577.88 337.60 576.76 337.43 575.64 337.27 C 574.27 344.91 572.36 352.51 570.41 360.03 C 569.43 358.77 568.25 358.45 568.61 356.71 C 568.84 354.30 569.34 351.90 569.76 349.51 C 567.48 348.09 565.22 346.46 562.75 345.39 C 560.89 344.56 558.54 345.02 556.54 345.01 C 555.92 344.79 555.30 344.57 554.69 344.34 C 555.71 340.16 556.73 335.99 557.84 331.83 Z" fill="#0e9afd" />
<path d="M 500.30 335.84 C 504.62 335.78 509.39 335.32 513.57 336.40 C 514.35 336.80 515.11 337.23 515.88 337.65 C 509.96 338.04 504.05 338.22 498.13 337.64 C 498.85 337.03 499.57 336.43 500.30 335.84 Z" fill="#63cef5" />
<path d="M 299.13 337.57 C 299.97 339.78 300.59 342.02 301.24 344.29 C 299.42 349.86 297.81 355.39 297.49 361.28 C 295.62 361.32 293.75 361.27 291.88 361.19 C 290.58 360.33 289.70 359.32 288.04 359.30 C 282.20 358.95 276.33 359.11 270.48 358.71 C 268.35 354.25 266.16 349.82 263.79 345.48 C 266.81 342.08 271.30 339.19 275.94 339.15 C 278.92 340.92 281.05 342.27 284.71 342.28 C 285.26 342.80 285.81 343.32 286.36 343.83 C 286.80 341.91 287.24 339.98 287.64 338.04 C 291.57 338.66 295.24 338.18 299.13 337.57 Z" fill="#a09f9f" />
<path d="M 579.91 336.60 C 582.39 339.49 584.57 342.60 586.64 345.79 C 586.92 344.83 587.20 343.87 587.47 342.90 C 591.65 342.96 595.27 344.51 599.24 345.47 C 602.76 345.79 606.43 344.62 609.95 344.36 C 611.25 346.06 612.47 347.81 613.71 349.54 C 613.15 353.03 614.56 356.28 617.46 358.27 C 618.30 358.29 619.14 358.27 619.98 358.23 C 620.65 359.24 621.32 360.26 622.00 361.27 C 612.88 361.13 603.80 361.19 594.68 361.30 C 589.82 353.85 584.35 346.76 579.83 339.10 L 579.91 336.60 Z" fill="#0b8cfd" />
<path d="M 665.15 337.07 C 669.56 336.69 671.31 339.44 673.72 342.52 C 664.99 347.67 655.07 350.77 645.13 352.58 C 646.26 351.79 647.40 351.02 648.55 350.27 C 656.36 348.69 659.79 341.74 665.15 337.07 Z" fill="#9d9d9d" />
<path d="M 226.77 338.39 C 227.41 338.42 228.05 338.46 228.70 338.51 C 228.42 340.08 228.13 341.66 227.83 343.24 C 226.77 348.70 225.42 354.11 224.15 359.52 C 229.48 359.69 234.80 359.84 240.14 359.59 C 241.38 354.13 242.72 348.66 244.53 343.37 L 245.72 343.58 C 244.13 349.47 243.04 355.45 241.26 361.29 C 234.63 360.99 228.02 361.25 221.39 361.28 C 223.04 353.61 225.04 346.03 226.77 338.39 Z" fill="#e7e7e7" />
<path d="M 350.75 338.50 C 353.09 338.78 355.40 339.22 357.74 339.55 C 359.36 340.36 361.20 341.19 362.53 342.45 C 363.92 344.71 362.02 347.86 359.83 348.79 C 356.33 349.46 352.56 349.11 349.00 349.10 C 343.59 348.92 338.20 349.08 332.80 349.22 C 327.53 349.17 322.06 348.92 316.82 349.42 C 315.80 352.71 315.08 356.02 313.91 359.27 C 313.52 359.96 313.12 360.64 312.71 361.31 L 311.45 361.39 C 312.48 356.63 313.58 351.88 314.76 347.16 C 325.49 346.62 336.26 347.01 347.00 346.90 C 351.08 346.77 355.44 347.31 359.45 346.46 C 360.31 345.47 360.54 343.91 360.96 342.69 C 356.42 341.43 351.82 340.30 347.22 339.30 C 348.40 339.04 349.58 338.78 350.75 338.50 Z" fill="#cfcece" />
<path d="M 375.91 338.50 C 380.64 337.97 382.52 343.56 381.22 347.27 C 379.56 353.38 374.61 357.22 368.49 358.24 C 361.24 359.24 353.74 358.63 346.43 358.85 C 345.59 356.23 345.11 351.91 342.74 350.25 C 339.52 349.47 336.10 349.41 332.80 349.22 C 338.20 349.08 343.59 348.92 349.00 349.10 C 352.56 349.11 356.33 349.46 359.83 348.79 C 362.02 347.86 363.92 344.71 362.53 342.45 C 361.20 341.19 359.36 340.36 357.74 339.55 C 363.81 338.17 369.77 339.03 375.91 338.50 Z" fill="#a2a1a1" />
<path d="M 235.39 339.47 C 237.74 338.55 240.71 339.17 243.18 339.39 C 243.61 340.73 244.06 342.05 244.53 343.37 C 242.72 348.66 241.38 354.13 240.14 359.59 C 234.80 359.84 229.48 359.69 224.15 359.52 C 225.42 354.11 226.77 348.70 227.83 343.24 C 230.30 341.93 232.76 340.44 235.39 339.47 Z" fill="#9b9a9a" />
<path d="M 260.07 339.47 C 261.39 341.42 262.65 343.41 263.79 345.48 C 266.16 349.82 268.35 354.25 270.48 358.71 C 276.33 359.11 282.20 358.95 288.04 359.30 C 289.70 359.32 290.58 360.33 291.88 361.19 C 284.25 361.33 276.62 361.29 268.99 361.30 C 265.92 354.92 262.64 348.64 259.65 342.23 L 260.07 339.47 Z" fill="#c1c0c0" />
<path d="M 412.93 340.15 C 416.08 342.12 417.38 345.16 421.47 345.29 C 422.37 345.78 423.24 346.30 424.10 346.84 L 425.15 348.97 C 432.06 349.58 439.07 349.09 446.00 349.24 C 451.36 349.06 456.02 350.26 460.89 347.37 L 461.43 347.18 C 457.95 351.58 455.47 356.73 451.92 361.03 C 449.33 361.45 446.61 361.29 444.00 361.31 C 433.00 361.19 421.99 361.49 410.99 361.32 C 405.86 361.17 400.33 359.21 397.88 354.38 C 396.65 350.99 397.08 346.87 397.78 343.39 C 397.96 346.58 398.35 349.74 398.49 352.93 C 398.84 350.22 399.22 347.53 399.75 344.85 C 403.13 340.98 408.13 340.88 412.93 340.15 Z" fill="#0b8ffd" />
<path d="M 554.69 344.34 C 555.30 344.57 555.92 344.79 556.54 345.01 C 558.54 345.02 560.89 344.56 562.75 345.39 C 565.22 346.46 567.48 348.09 569.76 349.51 C 569.34 351.90 568.84 354.30 568.61 356.71 C 568.25 358.45 569.43 358.77 570.41 360.03 L 570.04 361.20 C 562.74 361.44 555.42 361.06 548.12 361.38 L 548.33 361.09 C 552.89 357.22 552.94 349.87 554.69 344.34 Z" fill="#0b89fd" />
<path d="M 301.24 344.29 L 302.55 346.63 C 301.44 351.50 300.40 356.41 298.95 361.19 L 297.49 361.28 C 297.81 355.39 299.42 349.86 301.24 344.29 Z" fill="#b8b7b8" />
<path d="M 538.92 344.17 C 539.95 348.43 541.03 352.68 542.02 356.95 C 541.94 358.06 541.84 359.16 541.73 360.27 C 538.90 356.25 537.61 351.04 537.42 346.19 C 537.87 345.49 538.37 344.82 538.92 344.17 Z" fill="#23a7f9" />
<path d="M 424.10 346.84 C 436.38 347.36 448.63 346.62 460.89 347.37 C 456.02 350.26 451.36 349.06 446.00 349.24 C 439.07 349.09 432.06 349.58 425.15 348.97 L 424.10 346.84 Z" fill="#6dcde2" />
<path d="M 316.82 349.42 C 322.06 348.92 327.53 349.17 332.80 349.22 C 336.10 349.41 339.52 349.47 342.74 350.25 C 345.11 351.91 345.59 356.23 346.43 358.85 C 335.59 359.09 324.75 358.89 313.91 359.27 C 315.08 356.02 315.80 352.71 316.82 349.42 Z" fill="#8e8d8d" />
<path d="M 613.71 349.54 C 615.86 352.40 618.01 355.24 619.98 358.23 C 619.14 358.27 618.30 358.29 617.46 358.27 C 614.56 356.28 613.15 353.03 613.71 349.54 Z" fill="#2097e7" />
<path d="M 516.90 351.63 C 517.91 352.65 519.27 353.67 519.89 354.99 C 520.60 356.91 520.40 359.29 520.40 361.32 L 518.81 361.26 C 517.95 358.08 517.43 354.88 516.90 351.63 Z" fill="#289ad9" />
<path d="M 680.68 363.20 C 678.16 364.06 675.62 364.79 673.07 365.56 C 669.07 366.06 665.30 367.26 661.48 368.50 C 644.53 373.46 627.31 377.54 610.04 381.24 C 598.29 383.61 586.62 386.07 574.72 387.60 C 563.67 385.86 552.19 387.20 541.01 386.70 C 543.79 386.29 546.55 385.76 549.31 385.22 C 566.48 382.79 583.68 380.49 600.81 377.82 C 619.40 374.62 638.15 371.61 656.51 367.27 C 659.73 366.60 662.98 366.16 666.21 365.54 C 671.08 364.66 675.67 363.21 680.68 363.20 Z" fill="#eae9e9" />
<path d="M 673.07 365.56 C 668.48 367.73 663.75 369.14 658.94 370.76 C 636.30 378.34 613.18 383.99 589.87 389.04 C 594.73 390.60 599.65 391.93 604.57 393.30 C 569.12 401.42 533.24 407.51 496.99 410.64 C 456.07 414.41 414.77 414.55 373.75 412.39 C 375.64 411.16 377.52 409.92 379.39 408.68 C 382.08 408.77 384.76 408.81 387.45 408.78 C 409.76 409.75 432.29 409.77 454.60 408.76 C 462.89 408.70 471.27 408.32 479.54 407.74 C 507.97 406.01 536.28 402.72 564.36 397.95 C 573.68 396.21 583.14 394.92 592.35 392.66 C 586.48 390.96 580.56 389.41 574.72 387.60 C 586.62 386.07 598.29 383.61 610.04 381.24 C 627.31 377.54 644.53 373.46 661.48 368.50 C 665.30 367.26 669.07 366.06 673.07 365.56 Z" fill="#1ea8fd" />
<path d="M 638.47 369.33 C 625.04 370.75 611.45 371.33 597.95 371.69 C 579.60 372.98 561.25 372.42 543.00 373.17 C 517.34 373.34 491.67 373.19 466.00 373.16 C 462.33 373.16 458.67 372.88 455.00 372.83 C 403.34 372.69 351.66 372.17 300.00 372.79 C 288.60 373.42 277.19 373.17 265.80 374.06 C 245.06 375.04 223.86 376.83 203.56 381.38 C 200.83 386.36 197.68 391.09 194.94 396.07 L 193.78 393.73 C 196.68 388.95 199.41 384.07 202.28 379.27 C 231.48 372.52 260.19 371.87 290.00 370.74 C 338.37 369.57 386.63 370.57 435.00 370.83 C 487.00 371.67 539.04 372.12 591.04 371.25 C 599.03 370.79 607.01 370.66 615.00 370.43 C 622.86 369.96 630.54 369.02 638.47 369.33 Z" fill="#23adf1" />
<path d="M 287.67 378.83 C 292.29 379.03 297.24 378.31 301.75 379.24 C 303.87 380.15 303.47 381.90 303.11 383.79 C 302.69 384.46 302.27 385.12 301.85 385.79 C 300.40 385.71 298.96 385.64 297.51 385.58 C 297.61 384.56 297.72 383.53 297.82 382.51 C 295.79 382.49 293.75 382.49 291.72 382.50 C 291.50 383.73 291.27 384.95 291.05 386.17 C 289.23 386.11 287.43 385.96 285.61 385.82 C 286.33 383.50 286.98 381.16 287.67 378.83 Z" fill="#f9f9f9" />
<path d="M 307.84 378.83 C 313.46 378.97 318.43 378.30 323.71 379.62 C 323.56 381.91 323.28 384.16 322.69 386.38 C 321.17 386.03 319.64 385.72 318.11 385.45 C 318.22 384.46 318.32 383.46 318.42 382.47 C 316.23 382.46 314.03 382.48 311.83 382.50 C 311.57 383.57 311.32 384.64 311.06 385.71 C 309.88 385.67 308.70 385.58 307.53 385.45 C 307.07 385.06 306.61 384.66 306.15 384.27 C 306.72 382.46 307.28 380.65 307.84 378.83 Z" fill="#f9f8f8" />
<path d="M 331.18 379.28 C 335.03 378.53 339.99 378.34 343.79 379.33 C 346.63 380.61 345.21 383.79 344.76 386.09 C 343.01 385.86 341.27 385.64 339.52 385.42 C 339.67 384.46 339.80 383.50 339.91 382.54 C 337.53 382.50 335.17 382.54 332.80 382.67 C 332.40 383.84 331.99 385.01 331.62 386.19 C 329.85 385.93 328.08 385.68 326.31 385.42 C 327.36 382.69 328.03 380.17 331.18 379.28 Z" fill="#f9f9f9" />
<path d="M 358.62 378.78 C 364.23 378.84 369.84 378.82 375.45 378.79 C 375.02 380.03 374.60 381.28 374.17 382.52 C 372.26 382.53 370.35 382.53 368.44 382.53 C 368.02 383.94 367.60 385.35 367.20 386.76 C 365.61 386.20 364.01 385.63 362.40 385.12 L 363.30 382.59 C 361.32 382.57 359.35 382.55 357.37 382.53 C 357.79 381.28 358.20 380.03 358.62 378.78 Z" fill="#f8f8f8" />
<path d="M 384.99 378.72 C 387.68 378.75 390.99 378.41 393.46 379.59 C 395.31 380.73 394.41 383.58 394.21 385.34 C 393.16 385.35 392.11 385.36 391.06 385.36 C 390.42 384.49 389.76 383.63 389.09 382.77 C 387.01 382.49 384.95 382.34 382.85 382.63 C 382.06 383.39 381.44 384.32 380.99 385.42 C 379.55 385.42 378.11 385.41 376.67 385.40 C 376.76 384.29 376.87 383.17 376.98 382.06 C 378.65 379.01 381.89 378.88 384.99 378.72 Z" fill="#faf9f9" />
<path d="M 399.80 378.81 C 401.58 378.81 403.36 378.80 405.14 378.80 C 404.40 381.34 403.63 383.86 402.96 386.42 C 401.74 386.11 400.52 385.79 399.32 385.44 L 398.23 383.95 C 398.74 382.23 399.28 380.52 399.80 378.81 Z" fill="#f8f8f8" />
<path d="M 412.44 378.81 C 414.12 378.80 415.81 378.80 417.50 378.82 C 416.80 381.33 416.06 383.83 415.36 386.34 C 413.65 385.95 411.95 385.55 410.25 385.16 C 410.91 383.04 411.56 380.85 412.44 378.81 Z" fill="#f7f6f7" />
<path d="M 424.15 379.35 C 428.16 378.29 432.69 378.97 436.81 378.84 C 436.50 380.07 436.18 381.30 435.87 382.53 C 432.73 382.65 429.12 382.08 426.10 382.95 C 425.60 383.71 425.15 384.51 424.76 385.35 C 422.94 385.36 421.13 385.36 419.31 385.42 C 420.30 382.71 421.16 380.31 424.15 379.35 Z" fill="#fafafa" />
<path d="M 440.60 378.79 C 442.32 378.80 444.05 378.82 445.77 378.83 C 445.22 380.81 444.65 382.78 444.10 384.76 C 446.40 384.76 448.70 384.75 451.00 384.71 C 451.51 382.73 452.06 380.76 452.61 378.79 C 454.35 378.81 456.09 378.83 457.83 378.85 C 457.20 381.13 456.54 383.41 455.90 385.69 C 450.06 385.63 444.22 385.77 438.38 385.74 C 439.12 383.43 439.86 381.11 440.60 378.79 Z" fill="#f8f7f8" />
<path d="M 469.96 378.86 C 471.66 378.85 473.36 378.83 475.05 378.83 C 474.47 381.35 473.81 383.85 473.13 386.34 C 471.47 385.97 469.80 385.59 468.14 385.22 C 468.77 383.10 469.36 380.98 469.96 378.86 Z" fill="#f8f7f8" />
<path d="M 483.34 379.04 C 488.76 378.51 494.32 378.99 499.78 378.81 C 499.38 380.06 498.98 381.30 498.59 382.55 C 496.73 382.55 494.87 382.57 493.01 382.60 C 492.74 383.71 492.46 384.81 492.18 385.92 C 490.46 385.69 488.74 385.45 487.01 385.30 L 487.90 382.59 C 485.89 382.56 483.88 382.54 481.87 382.49 C 482.34 381.33 482.78 380.16 483.34 379.04 Z" fill="#f7f7f7" />
<path d="M 502.49 378.87 C 506.85 378.94 511.55 378.35 515.82 379.32 C 518.85 380.39 517.53 383.60 517.32 385.99 C 516.06 385.75 514.80 385.50 513.55 385.22 C 513.14 384.41 512.75 383.58 512.37 382.75 C 510.39 382.59 508.41 382.49 506.43 382.39 C 506.03 383.74 505.63 385.10 505.24 386.46 C 503.60 386.04 501.95 385.63 500.30 385.21 C 500.97 383.05 501.58 380.95 502.49 378.87 Z" fill="#f9f8f8" />
<path d="M 297.82 382.51 C 297.72 383.53 297.61 384.56 297.51 385.58 C 295.36 385.88 293.22 386.12 291.05 386.17 C 291.27 384.95 291.50 383.73 291.72 382.50 C 293.75 382.49 295.79 382.49 297.82 382.51 Z" fill="#050606" />
<path d="M 318.42 382.47 C 318.32 383.46 318.22 384.46 318.11 385.45 C 315.76 385.50 313.41 385.67 311.06 385.71 C 311.32 384.64 311.57 383.57 311.83 382.50 C 314.03 382.48 316.23 382.46 318.42 382.47 Z" fill="#040505" />
<path d="M 339.91 382.54 C 339.80 383.50 339.67 384.46 339.52 385.42 C 339.00 387.16 338.40 388.97 337.47 390.54 C 335.22 391.09 332.71 390.82 330.41 390.76 C 330.79 389.23 331.18 387.70 331.62 386.19 C 331.99 385.01 332.40 383.84 332.80 382.67 C 335.17 382.54 337.53 382.50 339.91 382.54 Z" fill="#020302" />
<path d="M 376.98 382.06 C 376.87 383.17 376.76 384.29 376.67 385.40 C 378.11 385.41 379.55 385.42 380.99 385.42 C 380.55 387.22 380.20 389.06 379.84 390.87 C 382.09 390.87 384.45 391.00 386.67 390.61 C 388.13 388.38 388.56 385.34 389.09 382.77 C 389.76 383.63 390.42 384.49 391.06 385.36 C 392.11 385.36 393.16 385.35 394.21 385.34 C 393.17 388.54 392.63 392.62 389.10 394.04 C 386.00 395.22 382.22 394.94 378.95 394.85 C 376.95 394.68 374.42 394.38 374.16 391.90 C 374.31 388.53 375.66 385.13 376.98 382.06 Z" fill="#c8c8c8" />
<path d="M 382.85 382.63 C 384.95 382.34 387.01 382.49 389.09 382.77 C 388.56 385.34 388.13 388.38 386.67 390.61 C 384.45 391.00 382.09 390.87 379.84 390.87 C 380.20 389.06 380.55 387.22 380.99 385.42 C 381.44 384.32 382.06 383.39 382.85 382.63 Z" fill="#020202" />
<path d="M 506.43 382.39 C 508.41 382.49 510.39 382.59 512.37 382.75 C 511.89 385.12 511.59 388.14 510.13 390.14 C 508.50 391.15 505.93 390.74 504.05 390.94 C 504.44 389.44 504.83 387.95 505.24 386.46 C 505.63 385.10 506.03 383.74 506.43 382.39 Z" fill="#030303" />
<path d="M 512.37 382.75 C 512.75 383.58 513.14 384.41 513.55 385.22 C 514.80 385.50 516.06 385.75 517.32 385.99 C 516.18 389.33 515.69 392.65 511.96 394.02 C 507.44 395.45 502.10 394.58 497.39 394.80 C 498.35 391.60 499.33 388.41 500.30 385.21 C 501.95 385.63 503.60 386.04 505.24 386.46 C 504.83 387.95 504.44 389.44 504.05 390.94 C 505.93 390.74 508.50 391.15 510.13 390.14 C 511.59 388.14 511.89 385.12 512.37 382.75 Z" fill="#c5c4c4" />
<path d="M 303.11 383.79 C 302.53 386.15 301.85 388.22 299.44 389.25 C 296.39 390.18 292.87 389.95 289.70 389.87 C 288.09 389.30 286.51 388.65 284.91 388.06 C 285.15 387.32 285.38 386.57 285.61 385.82 C 287.43 385.96 289.23 386.11 291.05 386.17 C 293.22 386.12 295.36 385.88 297.51 385.58 C 298.96 385.64 300.40 385.71 301.85 385.79 C 302.27 385.12 302.69 384.46 303.11 383.79 Z" fill="#bcbbbc" />
<path d="M 306.15 384.27 C 306.61 384.66 307.07 385.06 307.53 385.45 C 308.70 385.58 309.88 385.67 311.06 385.71 C 313.41 385.67 315.76 385.50 318.11 385.45 C 319.64 385.72 321.17 386.03 322.69 386.38 C 321.32 387.65 319.73 388.53 318.10 389.41 C 318.97 391.20 319.85 392.99 320.71 394.78 C 318.72 394.78 316.73 394.78 314.74 394.75 C 313.34 392.24 313.52 389.37 310.03 389.09 C 309.48 390.99 308.92 392.89 308.37 394.78 C 306.60 394.78 304.84 394.78 303.07 394.77 C 304.05 391.25 305.03 387.74 306.15 384.27 Z" fill="#c5c4c5" />
<path d="M 398.23 383.95 L 399.32 385.44 C 400.52 385.79 401.74 386.11 402.96 386.42 C 402.58 387.89 402.25 389.37 401.91 390.86 C 404.00 390.84 406.28 391.04 408.32 390.50 C 409.15 388.84 409.69 386.94 410.25 385.16 C 411.95 385.55 413.65 385.95 415.36 386.34 C 414.46 389.06 413.97 392.80 410.92 393.98 C 407.54 395.21 403.53 395.03 399.99 394.78 C 398.17 394.53 396.31 394.20 396.22 391.97 C 396.36 389.26 397.47 386.54 398.23 383.95 Z" fill="#c8c8c8" />
<path d="M 362.40 385.12 C 364.01 385.63 365.61 386.20 367.20 386.76 C 366.44 389.45 365.64 392.11 364.78 394.76 C 363.01 394.77 361.24 394.77 359.47 394.77 C 360.40 391.52 361.25 388.30 362.40 385.12 Z" fill="#c8c7c7" />
<path d="M 419.31 385.42 C 421.13 385.36 422.94 385.36 424.76 385.35 C 424.30 387.15 423.93 388.99 423.56 390.81 C 426.87 390.84 430.17 390.82 433.48 390.85 C 433.08 392.15 432.68 393.45 432.28 394.75 C 428.26 394.63 423.67 395.38 419.81 394.19 C 416.48 392.54 418.53 388.04 419.31 385.42 Z" fill="#cdcccc" />
<path d="M 468.14 385.22 C 469.80 385.59 471.47 385.97 473.13 386.34 C 472.73 387.81 472.33 389.27 471.87 390.72 L 471.40 392.10 C 474.39 392.18 477.38 392.22 480.36 392.02 C 480.02 392.93 479.69 393.85 479.35 394.77 C 474.65 394.76 469.95 394.79 465.25 394.80 C 466.19 391.60 467.15 388.40 468.14 385.22 Z" fill="#c3c3c3" />
<path d="M 487.01 385.30 C 488.74 385.45 490.46 385.69 492.18 385.92 C 491.43 388.88 490.58 391.82 489.68 394.75 C 487.86 394.77 486.04 394.77 484.22 394.78 C 485.12 391.62 485.96 388.42 487.01 385.30 Z" fill="#c4c4c4" />
<path d="M 549.31 385.22 C 546.55 385.76 543.79 386.29 541.01 386.70 C 552.19 387.20 563.67 385.86 574.72 387.60 C 580.56 389.41 586.48 390.96 592.35 392.66 C 583.14 394.92 573.68 396.21 564.36 397.95 C 563.48 396.39 562.61 394.83 561.74 393.28 C 563.59 393.00 565.44 392.73 567.30 392.46 C 557.13 390.51 546.99 388.43 536.77 386.73 C 540.91 385.86 545.10 385.54 549.31 385.22 Z" fill="#c3c2c3" />
<path d="M 326.31 385.42 C 328.08 385.68 329.85 385.93 331.62 386.19 C 331.18 387.70 330.79 389.23 330.41 390.76 C 332.71 390.82 335.22 391.09 337.47 390.54 C 338.40 388.97 339.00 387.16 339.52 385.42 C 341.27 385.64 343.01 385.86 344.76 386.09 C 343.60 389.42 343.21 393.22 339.25 394.29 C 335.24 395.12 329.99 395.50 326.13 393.95 C 323.51 392.04 325.67 387.95 326.31 385.42 Z" fill="#c9c8c8" />
<path d="M 438.38 385.74 C 444.22 385.77 450.06 385.63 455.90 385.69 C 455.06 388.77 454.14 391.81 453.14 394.85 C 451.38 394.82 449.61 394.78 447.85 394.74 C 448.42 392.71 448.99 390.69 449.56 388.67 C 447.37 388.66 445.19 388.66 443.00 388.65 C 442.39 390.70 441.77 392.76 441.13 394.80 C 439.31 394.78 437.50 394.76 435.68 394.74 C 436.54 391.72 437.41 388.72 438.38 385.74 Z" fill="#c6c5c5" />
<path d="M 284.91 388.06 C 286.51 388.65 288.09 389.30 289.70 389.87 C 289.23 391.50 288.75 393.14 288.28 394.78 C 286.52 394.78 284.75 394.77 282.99 394.76 C 283.60 392.52 284.20 390.27 284.91 388.06 Z" fill="#cecccd" />
<path d="M 471.87 390.72 C 474.87 390.64 477.87 390.70 480.87 390.74 L 480.36 392.02 C 477.38 392.22 474.39 392.18 471.40 392.10 L 471.87 390.72 Z" fill="#d7d6d6" />
<path d="M 193.78 393.73 L 194.94 396.07 C 191.67 402.27 187.71 408.12 183.97 414.05 C 186.54 413.13 189.04 412.17 191.68 411.44 C 192.61 411.51 193.53 411.58 194.46 411.66 C 189.71 413.57 184.94 415.45 180.18 417.35 C 184.52 409.41 189.06 401.45 193.78 393.73 Z" fill="#1264aa" />
<path d="M 561.74 393.28 C 562.61 394.83 563.48 396.39 564.36 397.95 C 536.28 402.72 507.97 406.01 479.54 407.74 C 482.31 405.25 485.39 405.69 488.65 404.68 C 490.09 403.62 491.23 402.06 492.38 400.70 C 515.58 399.26 538.74 396.62 561.74 393.28 Z" fill="#cccbcc" />
<path d="M 492.38 400.70 C 491.23 402.06 490.09 403.62 488.65 404.68 C 485.39 405.69 482.31 405.25 479.54 407.74 C 471.27 408.32 462.89 408.70 454.60 408.76 C 452.07 408.26 449.59 407.71 447.00 407.67 C 430.36 407.51 413.65 408.24 397.00 407.88 C 393.77 407.78 390.62 408.23 387.45 408.78 C 384.76 408.81 382.08 408.77 379.39 408.68 C 374.15 408.44 368.83 408.41 363.62 407.84 C 355.28 405.88 346.82 405.58 338.29 405.87 C 337.80 405.00 337.30 404.13 336.81 403.26 C 354.87 403.64 372.93 404.00 391.00 403.85 C 398.21 403.70 405.29 404.13 412.48 403.47 C 439.15 403.12 465.76 402.61 492.38 400.70 Z" fill="#c0c0c0" />
<path d="M 251.01 402.80 C 272.90 401.91 295.10 401.26 317.00 402.20 C 348.83 402.52 380.64 403.44 412.48 403.47 C 405.29 404.13 398.21 403.70 391.00 403.85 C 372.93 404.00 354.87 403.64 336.81 403.26 C 328.87 403.14 320.94 403.03 313.00 403.01 C 307.04 403.10 301.61 402.23 295.91 404.55 C 290.08 404.28 284.85 402.52 279.00 402.83 C 251.29 404.08 221.39 404.68 194.46 411.66 C 193.53 411.58 192.61 411.51 191.68 411.44 C 210.48 405.49 231.42 404.22 251.01 402.80 Z" fill="#31a9ea" />
<path d="M 313.00 403.01 C 320.94 403.03 328.87 403.14 336.81 403.26 C 337.30 404.13 337.80 405.00 338.29 405.87 C 346.82 405.58 355.28 405.88 363.62 407.84 C 345.73 407.23 327.85 405.71 310.01 404.41 C 305.20 404.01 300.68 403.20 295.91 404.55 C 301.61 402.23 307.04 403.10 313.00 403.01 Z" fill="#cdcccc" />
<path d="M 295.91 404.55 C 300.68 403.20 305.20 404.01 310.01 404.41 C 327.85 405.71 345.73 407.23 363.62 407.84 C 368.83 408.41 374.15 408.44 379.39 408.68 C 377.52 409.92 375.64 411.16 373.75 412.39 C 347.77 410.75 321.62 408.73 295.91 404.55 Z" fill="#199bfd" />
<path d="M 397.00 407.88 C 413.65 408.24 430.36 407.51 447.00 407.67 C 449.59 407.71 452.07 408.26 454.60 408.76 C 432.29 409.77 409.76 409.75 387.45 408.78 C 390.62 408.23 393.77 407.78 397.00 407.88 Z" fill="#cecfd0" />
</svg>