<?xml version="1.0" encoding="UTF-8" standalone="no"?>
<!DOCTYPE svg PUBLIC "-//W3C//DTD SVG 1.1//EN" "http://www.w3.org/Graphics/SVG/1.1/DTD/svg11.dtd">
<svg xmlns="http://www.w3.org/2000/svg" version="1.1" viewBox="0 0 768 768" width="768.0pt" height="768.0pt">
<path d="M 0.00 0.00 L 287.49 0.00 C 236.67 19.77 182.94 46.38 142.82 83.90 C 126.89 83.66 112.46 83.46 98.56 92.51 C 84.77 100.36 75.47 115.50 72.78 130.93 C 71.00 144.69 72.59 158.96 71.89 172.83 C 55.38 202.33 45.22 236.21 38.26 269.17 C 34.54 285.43 34.79 301.45 35.00 318.00 C 35.00 342.00 35.00 366.00 35.00 390.00 C 33.94 407.73 37.75 424.59 41.19 441.84 C 48.18 471.14 57.58 501.64 71.75 528.25 L 72.19 529.84 C 71.75 552.55 72.12 575.29 72.00 598.00 C 72.79 614.30 69.55 633.17 75.86 648.13 C 81.04 661.80 91.70 672.96 105.00 678.98 C 120.03 686.02 134.04 683.60 150.00 684.00 C 182.72 683.88 215.48 684.25 248.19 683.81 C 249.05 683.96 249.91 684.11 250.77 684.26 C 272.33 691.28 296.16 700.87 318.97 700.14 C 334.93 703.19 351.49 709.10 368.00 708.00 C 387.05 707.67 406.40 708.68 425.38 707.48 C 441.13 706.40 455.30 698.85 471.01 699.92 C 490.94 697.69 509.60 690.25 529.18 684.20 L 530.85 683.83 C 553.55 684.21 576.29 683.90 599.00 684.00 C 615.31 683.61 631.96 684.80 648.18 683.37 C 664.02 680.94 678.59 671.69 687.12 658.07 C 695.08 645.91 696.80 632.25 696.00 618.00 C 695.85 586.95 696.31 555.84 695.76 524.81 L 696.23 523.18 C 702.89 506.17 708.25 488.86 711.92 470.96 C 716.46 455.66 714.70 440.68 714.97 425.00 C 717.01 405.86 715.57 386.27 716.00 367.00 C 715.56 347.40 717.03 327.47 714.97 308.00 C 714.73 290.41 716.44 273.29 711.92 256.05 C 707.71 235.78 702.98 215.36 696.19 195.80 C 695.77 177.22 696.09 158.59 696.03 140.00 C 695.60 122.81 688.02 106.25 674.14 95.88 C 663.90 87.56 651.10 84.12 638.08 83.91 C 619.26 59.60 596.06 37.42 570.00 21.00 C 557.65 12.34 543.73 7.34 530.76 0.00 L 768.00 0.00 L 768.00 768.00 L 0.00 768.00 L 0.00 0.00 Z" fill="#05070b" />
<path d="M 287.49 0.00 L 530.76 0.00 C 543.73 7.34 557.65 12.34 570.00 21.00 C 596.06 37.42 619.26 59.60 638.08 83.91 C 625.36 84.17 612.62 83.82 599.90 84.12 L 599.10 83.88 C 568.17 50.51 527.21 28.05 483.85 15.33 C 475.44 14.93 468.56 10.10 460.17 9.62 C 454.77 8.54 449.44 9.30 444.03 8.87 C 420.57 3.81 397.49 4.60 374.02 9.02 C 362.04 8.36 350.46 10.22 339.17 14.21 C 331.69 15.32 324.49 16.70 317.37 19.38 C 270.50 32.66 224.93 54.67 185.81 83.79 L 185.04 84.09 C 170.97 83.85 156.89 84.16 142.82 83.90 C 182.94 46.38 236.67 19.77 287.49 0.00 Z" fill="#060b0f" />
<path d="M 444.03 8.87 C 449.44 9.30 454.77 8.54 460.17 9.62 C 468.56 10.10 475.44 14.93 483.85 15.33 C 527.21 28.05 568.17 50.51 599.10 83.88 C 586.68 84.24 574.24 83.72 561.83 84.19 L 561.05 83.90 C 539.92 67.23 516.29 54.00 490.83 45.21 C 479.69 41.63 468.09 37.33 456.37 36.53 C 441.68 32.10 427.20 31.63 412.00 32.00 C 392.87 32.21 375.46 30.70 356.64 35.68 C 311.70 42.47 266.79 60.27 227.89 83.85 L 227.11 84.15 C 213.35 83.71 199.56 84.34 185.81 83.79 C 224.93 54.67 270.50 32.66 317.37 19.38 C 324.49 16.70 331.69 15.32 339.17 14.21 C 350.46 10.22 362.04 8.36 374.02 9.02 C 397.49 4.60 420.57 3.81 444.03 8.87 Z" fill="#080f13" />
<path d="M 412.00 32.00 C 427.20 31.63 441.68 32.10 456.37 36.53 C 468.09 37.33 479.69 41.63 490.83 45.21 C 516.29 54.00 539.92 67.23 561.05 83.90 C 555.63 84.02 550.21 83.97 544.78 84.12 C 536.49 83.90 528.15 83.94 519.85 84.14 L 518.14 83.87 C 495.81 70.35 469.39 62.06 443.85 57.29 C 435.41 56.93 427.25 55.02 418.84 54.31 C 383.14 52.16 346.48 57.90 312.41 68.53 C 299.45 73.03 285.88 77.30 273.81 83.86 C 264.27 84.22 254.70 83.80 245.16 84.10 C 239.40 83.97 233.64 84.06 227.89 83.85 C 266.79 60.27 311.70 42.47 356.64 35.68 C 375.46 30.70 392.87 32.21 412.00 32.00 Z" fill="#0c1317" />
<path d="M 418.84 54.31 C 427.25 55.02 435.41 56.93 443.85 57.29 C 469.39 62.06 495.81 70.35 518.14 83.87 C 506.37 84.23 494.57 83.75 482.80 84.16 C 421.64 83.88 360.35 83.91 299.18 84.15 C 290.73 83.82 282.27 84.18 273.81 83.86 C 285.88 77.30 299.45 73.03 312.41 68.53 C 346.48 57.90 383.14 52.16 418.84 54.31 Z" fill="#0f1a1d" />
<path d="M 142.82 83.90 C 156.89 84.16 170.97 83.85 185.04 84.09 C 167.08 98.23 148.68 113.38 133.75 130.75 C 104.94 162.20 86.04 199.10 72.16 239.19 C 71.72 217.08 72.25 194.95 71.89 172.83 C 72.59 158.96 71.00 144.69 72.78 130.93 C 75.47 115.50 84.77 100.36 98.56 92.51 C 112.46 83.46 126.89 83.66 142.82 83.90 Z" fill="#0f1317" />
<path d="M 185.04 84.09 L 185.81 83.79 C 199.56 84.34 213.35 83.71 227.11 84.15 C 174.37 116.48 130.50 161.18 105.14 218.12 C 64.17 310.37 69.99 422.30 118.38 510.65 C 148.45 564.16 195.14 606.91 251.32 631.69 C 282.53 645.89 315.11 653.60 348.98 657.93 C 354.72 658.04 360.21 659.44 366.00 659.02 C 375.14 658.37 383.85 660.70 393.00 660.03 C 408.81 658.21 424.41 659.77 440.17 656.24 C 473.43 651.41 506.23 641.81 536.05 626.09 C 590.28 598.40 633.05 550.27 654.10 493.11 C 675.37 437.43 679.86 374.22 673.56 315.37 C 666.52 249.64 645.21 180.55 604.14 127.84 C 591.91 111.52 577.53 97.16 561.83 84.19 C 574.24 83.72 586.68 84.24 599.10 83.88 L 599.90 84.12 C 644.99 129.84 670.52 189.20 685.01 251.00 C 690.09 272.22 692.96 293.62 695.75 315.22 C 696.17 348.36 696.17 381.64 695.75 414.78 C 691.40 448.59 684.56 481.77 671.29 513.31 C 658.97 543.03 641.86 572.14 618.80 594.80 C 597.51 616.95 572.31 635.46 544.47 648.56 C 514.38 663.42 482.84 671.89 450.00 677.92 C 443.01 679.26 436.17 678.77 429.16 679.28 C 415.74 682.44 402.69 681.90 389.00 683.07 C 380.66 682.42 372.53 681.89 364.16 681.70 C 356.52 681.29 349.65 678.34 342.00 679.01 C 330.78 678.92 319.37 676.45 308.64 673.44 C 300.41 673.00 292.92 670.27 285.11 667.90 C 224.91 651.99 170.09 617.62 130.34 569.69 C 103.63 537.40 84.50 499.75 72.19 459.80 C 71.86 386.33 71.91 312.66 72.16 239.19 C 86.04 199.10 104.94 162.20 133.75 130.75 C 148.68 113.38 167.08 98.23 185.04 84.09 Z" fill="#11171b" />
<path d="M 227.11 84.15 L 227.89 83.85 C 233.64 84.06 239.40 83.97 245.16 84.10 C 219.22 99.23 194.89 116.39 173.24 137.24 C 150.43 159.97 131.05 185.77 116.75 214.70 C 86.73 276.66 79.97 347.74 93.16 414.94 C 105.24 478.24 137.46 537.36 186.42 579.55 C 222.51 611.03 267.36 632.65 314.00 643.01 C 352.64 651.59 393.91 653.70 433.16 648.18 C 486.64 641.58 538.23 620.74 579.24 585.24 C 600.90 566.05 619.79 542.84 633.00 517.00 C 656.23 473.93 666.14 422.91 667.44 374.37 C 668.43 367.98 668.27 361.33 667.21 354.96 C 667.06 318.20 661.20 281.05 651.34 245.63 C 634.61 185.97 602.73 129.13 553.24 90.77 C 550.41 88.51 547.30 86.77 544.78 84.12 C 550.21 83.97 555.63 84.02 561.05 83.90 L 561.83 84.19 C 577.53 97.16 591.91 111.52 604.14 127.84 C 645.21 180.55 666.52 249.64 673.56 315.37 C 679.86 374.22 675.37 437.43 654.10 493.11 C 633.05 550.27 590.28 598.40 536.05 626.09 C 506.23 641.81 473.43 651.41 440.17 656.24 C 424.41 659.77 408.81 658.21 393.00 660.03 C 383.85 660.70 375.14 658.37 366.00 659.02 C 360.21 659.44 354.72 658.04 348.98 657.93 C 315.11 653.60 282.53 645.89 251.32 631.69 C 195.14 606.91 148.45 564.16 118.38 510.65 C 69.99 422.30 64.17 310.37 105.14 218.12 C 130.50 161.18 174.37 116.48 227.11 84.15 Z" fill="#131a1e" />
<path d="M 245.16 84.10 C 254.70 83.80 264.27 84.22 273.81 83.86 C 282.27 84.18 290.73 83.82 299.18 84.15 C 260.07 99.32 220.64 122.26 191.07 152.15 C 182.06 155.67 172.97 159.06 163.91 162.43 C 162.58 162.78 161.26 163.16 159.96 163.62 C 161.60 163.86 163.25 164.04 164.89 164.28 C 144.34 187.76 127.89 215.57 116.72 244.69 C 92.55 309.01 92.17 381.65 113.11 446.89 C 132.41 505.70 170.46 557.59 222.39 591.60 C 236.93 601.50 252.93 609.44 268.96 616.59 C 269.89 616.85 270.83 617.09 271.76 617.31 C 315.57 635.46 364.89 642.61 412.01 638.99 C 478.31 634.00 542.30 608.33 588.10 559.13 C 608.45 536.58 624.94 510.27 635.82 481.87 C 654.38 432.94 658.72 381.86 654.99 330.00 C 649.58 262.96 628.37 194.21 585.67 141.31 C 567.49 118.21 544.99 99.29 519.85 84.14 C 528.15 83.94 536.49 83.90 544.78 84.12 C 547.30 86.77 550.41 88.51 553.24 90.77 C 602.73 129.13 634.61 185.97 651.34 245.63 C 661.20 281.05 667.06 318.20 667.21 354.96 C 668.27 361.33 668.43 367.98 667.44 374.37 C 666.14 422.91 656.23 473.93 633.00 517.00 C 619.79 542.84 600.90 566.05 579.24 585.24 C 538.23 620.74 486.64 641.58 433.16 648.18 C 393.91 653.70 352.64 651.59 314.00 643.01 C 267.36 632.65 222.51 611.03 186.42 579.55 C 137.46 537.36 105.24 478.24 93.16 414.94 C 79.97 347.74 86.73 276.66 116.75 214.70 C 131.05 185.77 150.43 159.97 173.24 137.24 C 194.89 116.39 219.22 99.23 245.16 84.10 Z" fill="#151d21" />
<path d="M 299.18 84.15 C 360.35 83.91 421.64 83.88 482.80 84.16 C 515.64 98.00 549.53 119.17 571.24 147.85 C 553.97 139.36 536.74 131.64 517.99 126.94 C 517.06 126.57 516.14 126.21 515.21 125.84 C 490.35 107.24 458.60 96.25 428.00 91.98 C 391.23 86.79 352.89 91.20 317.64 102.67 C 295.30 110.18 272.51 119.67 253.10 133.14 C 251.44 133.79 249.75 134.37 248.09 135.01 C 228.85 139.66 209.84 145.88 191.07 152.15 C 220.64 122.26 260.07 99.32 299.18 84.15 Z" fill="#192629" />
<path d="M 482.80 84.16 C 494.57 83.75 506.37 84.23 518.14 83.87 L 519.85 84.14 C 544.99 99.29 567.49 118.21 585.67 141.31 C 628.37 194.21 649.58 262.96 654.99 330.00 C 658.72 381.86 654.38 432.94 635.82 481.87 C 624.94 510.27 608.45 536.58 588.10 559.13 C 542.30 608.33 478.31 634.00 412.01 638.99 C 364.89 642.61 315.57 635.46 271.76 617.31 C 275.38 616.99 279.06 617.19 282.65 616.70 C 283.47 614.42 283.83 611.95 284.81 609.74 C 289.98 610.12 295.02 610.12 300.19 609.74 C 301.17 611.95 301.53 614.43 302.35 616.71 C 307.08 617.31 311.99 617.05 316.75 616.88 C 314.61 610.47 312.01 604.20 309.61 597.88 C 313.72 596.87 318.54 600.22 322.94 600.14 C 323.16 605.68 322.70 611.27 323.20 616.79 C 327.35 617.12 331.74 617.35 335.85 616.65 L 337.24 616.24 C 353.10 619.27 369.00 619.53 385.00 621.05 C 399.96 620.17 415.46 619.83 430.22 617.23 C 437.12 616.65 444.06 617.33 450.94 616.86 C 452.62 617.17 452.62 605.93 450.95 606.15 C 449.25 605.93 447.52 605.83 445.80 605.75 C 450.21 604.67 454.44 603.46 458.94 602.87 C 459.55 606.04 457.80 615.50 460.05 616.86 C 471.99 617.10 484.01 617.10 495.95 616.86 C 497.58 617.75 497.58 606.33 495.95 607.15 C 494.26 606.94 492.53 606.87 490.83 606.81 C 533.47 589.54 572.78 562.00 597.59 522.61 C 627.83 478.71 641.82 423.00 642.32 370.16 C 643.42 364.69 643.21 359.42 642.20 353.96 C 641.56 290.54 623.86 226.08 589.71 172.40 C 588.23 170.32 590.94 171.21 592.18 170.63 C 596.66 171.49 601.47 173.13 606.00 172.92 C 596.63 163.01 582.67 155.17 571.24 147.85 C 549.53 119.17 515.64 98.00 482.80 84.16 Z" fill="#162125" />
<path d="M 599.90 84.12 C 612.62 83.82 625.36 84.17 638.08 83.91 C 651.10 84.12 663.90 87.56 674.14 95.88 C 688.02 106.25 695.60 122.81 696.03 140.00 C 696.09 158.59 695.77 177.22 696.19 195.80 C 695.59 235.58 696.45 275.45 695.75 315.22 C 692.96 293.62 690.09 272.22 685.01 251.00 C 670.52 189.20 644.99 129.84 599.90 84.12 Z" fill="#0f1317" />
<path d="M 428.00 91.98 C 458.60 96.25 490.35 107.24 515.21 125.84 C 481.05 117.03 445.29 112.05 410.00 113.00 C 357.12 111.66 304.39 120.99 253.10 133.14 C 272.51 119.67 295.30 110.18 317.64 102.67 C 352.89 91.20 391.23 86.79 428.00 91.98 Z" fill="#1d2c30" />
<path d="M 410.00 113.00 C 445.29 112.05 481.05 117.03 515.21 125.84 C 516.14 126.21 517.06 126.57 517.99 126.94 C 532.95 138.32 546.11 149.34 558.08 163.96 C 554.76 163.66 551.49 163.07 548.19 162.59 C 538.44 161.45 528.67 159.70 518.90 158.99 C 517.92 158.69 516.94 158.39 515.96 158.08 C 501.63 143.71 482.86 136.97 467.86 126.18 C 461.27 122.92 454.05 120.98 446.98 119.11 C 432.04 119.69 418.09 113.99 402.99 114.89 C 393.34 112.59 384.65 115.54 374.98 115.04 C 341.79 118.13 309.15 128.18 279.70 143.72 C 273.81 147.38 267.03 150.26 261.86 154.90 C 260.57 155.26 259.26 155.56 257.97 155.93 C 248.98 156.17 239.85 156.98 230.87 157.58 C 227.63 157.96 224.37 158.05 221.13 158.41 L 219.10 157.74 C 227.79 149.22 238.83 142.66 248.09 135.01 C 249.75 134.37 251.44 133.79 253.10 133.14 C 304.39 120.99 357.12 111.66 410.00 113.00 Z" fill="#4e5c5e" />
<path d="M 402.99 114.89 C 418.09 113.99 432.04 119.69 446.98 119.11 C 454.05 120.98 461.27 122.92 467.86 126.18 C 482.86 136.97 501.63 143.71 515.96 158.08 C 507.26 157.88 498.46 155.45 489.82 156.12 C 484.91 154.66 480.03 155.12 475.01 154.72 C 474.41 154.42 473.82 154.11 473.22 153.81 C 470.09 146.40 467.72 134.82 460.69 130.31 C 448.32 122.86 433.71 128.17 421.17 132.23 C 416.06 133.04 411.49 133.66 406.63 135.59 C 375.05 133.07 341.85 138.66 312.38 150.45 C 306.32 152.64 315.43 151.76 317.22 152.30 C 314.89 152.84 312.54 153.07 310.16 153.19 C 302.66 152.44 295.58 153.43 288.16 154.19 C 279.19 153.03 270.76 155.53 261.86 154.90 C 267.03 150.26 273.81 147.38 279.70 143.72 C 309.15 128.18 341.79 118.13 374.98 115.04 C 384.65 115.54 393.34 112.59 402.99 114.89 Z" fill="#526265" />
<path d="M 460.69 130.31 C 467.72 134.82 470.09 146.40 473.22 153.81 C 471.48 153.89 469.73 153.96 467.98 154.02 L 466.01 154.06 C 465.00 154.06 463.99 154.06 462.97 154.05 L 460.98 153.93 L 459.78 153.15 C 461.13 153.08 462.48 152.95 463.83 152.77 C 463.27 144.09 462.62 137.33 454.37 132.64 C 443.20 130.05 434.11 133.58 424.12 138.14 C 416.06 141.50 408.80 145.69 401.82 150.94 C 400.17 151.03 398.52 151.14 396.87 151.22 L 396.07 151.21 C 372.55 150.64 352.58 150.93 329.19 152.17 C 325.19 151.98 321.21 151.84 317.22 152.30 C 315.43 151.76 306.32 152.64 312.38 150.45 C 341.85 138.66 375.05 133.07 406.63 135.59 C 411.49 133.66 416.06 133.04 421.17 132.23 C 433.71 128.17 448.32 122.86 460.69 130.31 Z" fill="#566a6c" />
<path d="M 517.99 126.94 C 536.74 131.64 553.97 139.36 571.24 147.85 C 582.67 155.17 596.63 163.01 606.00 172.92 C 601.47 173.13 596.66 171.49 592.18 170.63 C 581.59 168.36 570.70 166.31 559.97 164.99 C 559.34 164.64 558.71 164.30 558.08 163.96 C 546.11 149.34 532.95 138.32 517.99 126.94 Z" fill="#4b5457" />
<path d="M 454.37 132.64 C 462.62 137.33 463.27 144.09 463.83 152.77 C 462.48 152.95 461.13 153.08 459.78 153.15 L 457.91 153.11 L 456.25 153.07 L 456.38 152.21 C 456.90 148.69 458.12 137.96 455.94 136.15 C 454.70 136.11 453.46 136.11 452.22 136.16 C 438.22 134.74 423.18 143.08 411.98 150.78 L 411.17 150.89 C 408.37 151.03 405.57 151.09 402.76 151.02 L 401.82 150.94 C 408.80 145.69 416.06 141.50 424.12 138.14 C 434.11 133.58 443.20 130.05 454.37 132.64 Z" fill="#617d7f" />
<path d="M 248.09 135.01 C 238.83 142.66 227.79 149.22 219.10 157.74 L 221.13 158.41 C 219.46 158.68 217.79 158.90 216.11 159.07 C 205.79 159.72 195.04 160.56 184.84 161.79 C 177.42 161.54 171.08 164.12 163.91 162.43 C 172.97 159.06 182.06 155.67 191.07 152.15 C 209.84 145.88 228.85 139.66 248.09 135.01 Z" fill="#4a5457" />
<path d="M 452.22 136.16 C 438.34 138.61 426.70 143.62 415.27 151.83 C 414.18 151.47 413.08 151.11 411.98 150.78 C 423.18 143.08 438.22 134.74 452.22 136.16 Z" fill="#719294" />
<path d="M 452.22 136.16 C 453.46 136.11 454.70 136.11 455.94 136.15 C 456.07 141.52 455.78 146.85 456.38 152.21 L 456.25 153.07 C 451.49 183.02 429.58 210.86 399.63 218.55 C 394.27 220.02 388.73 220.45 383.21 219.79 C 381.05 193.26 394.68 168.00 415.27 151.83 C 426.70 143.62 438.34 138.61 452.22 136.16 Z" fill="#f3f5f7" />
<path d="M 455.94 136.15 C 458.12 137.96 456.90 148.69 456.38 152.21 C 455.78 146.85 456.07 141.52 455.94 136.15 Z" fill="#c3cfd0" />
<path d="M 396.07 151.21 C 389.11 156.09 382.63 152.84 374.83 154.64 C 314.39 159.25 256.42 193.44 222.59 243.60 C 191.03 289.82 181.21 349.09 195.99 403.00 C 204.02 433.58 219.67 461.69 240.99 485.01 C 245.60 490.59 251.01 495.77 256.84 500.08 C 266.74 502.14 273.61 511.58 282.95 516.09 C 311.05 533.38 343.46 543.01 376.37 544.56 C 393.99 545.27 411.43 546.29 428.63 541.57 C 459.75 534.26 488.83 517.86 512.27 496.27 C 555.65 454.11 571.61 388.67 564.25 329.95 C 558.39 280.95 537.91 232.60 501.54 198.48 C 491.27 188.24 478.99 181.07 467.33 172.65 C 464.62 167.52 466.57 159.81 466.01 154.06 L 467.98 154.02 C 470.80 156.02 469.62 158.70 470.33 161.69 C 478.16 167.55 487.92 172.17 495.06 178.72 C 495.29 183.46 498.47 184.62 501.67 187.36 C 549.44 228.49 573.01 295.10 573.00 357.00 C 573.55 407.67 558.49 458.03 524.01 496.01 C 512.98 507.67 501.56 520.66 487.63 528.63 C 475.08 535.91 461.91 542.71 448.00 546.99 C 432.04 551.47 416.82 556.23 400.00 555.00 C 364.87 556.29 329.98 550.99 297.99 536.02 C 270.24 522.66 245.26 504.13 226.26 479.74 C 183.44 426.37 170.71 352.20 192.37 287.37 C 206.98 243.89 236.31 206.69 274.55 181.56 C 277.27 179.77 274.78 180.47 273.19 179.64 C 290.36 167.50 309.37 158.96 329.19 152.17 C 352.58 150.93 372.55 150.64 396.07 151.21 Z" fill="#274346" />
<path d="M 396.07 151.21 L 396.87 151.22 C 398.20 151.59 399.53 151.96 400.85 152.37 C 394.96 157.64 388.85 162.68 383.03 168.04 C 380.54 170.84 376.75 172.74 373.01 173.04 C 309.03 178.50 247.76 220.86 222.04 280.01 C 207.63 311.91 203.71 347.50 209.13 381.95 C 219.16 444.93 266.10 501.46 327.11 520.89 C 338.20 524.68 348.18 526.93 360.01 525.99 C 376.71 528.27 393.19 528.17 410.00 528.00 C 425.41 529.40 441.68 522.27 455.99 516.96 C 468.66 510.41 484.19 504.49 493.76 493.76 C 516.03 471.84 533.87 443.95 543.01 414.00 C 544.67 407.38 545.87 401.49 545.53 394.64 C 551.93 354.83 548.37 314.42 533.13 276.89 C 530.55 270.88 533.30 263.12 531.17 256.87 C 528.76 246.31 519.71 237.22 512.22 229.79 C 495.80 217.72 481.55 204.76 464.25 193.75 C 461.36 191.82 459.00 189.52 459.34 185.76 C 460.14 175.04 463.79 165.07 462.97 154.05 C 463.99 154.06 465.00 154.06 466.01 154.06 C 466.57 159.81 464.62 167.52 467.33 172.65 C 478.99 181.07 491.27 188.24 501.54 198.48 C 537.91 232.60 558.39 280.95 564.25 329.95 C 571.61 388.67 555.65 454.11 512.27 496.27 C 488.83 517.86 459.75 534.26 428.63 541.57 C 411.43 546.29 393.99 545.27 376.37 544.56 C 343.46 543.01 311.05 533.38 282.95 516.09 C 273.61 511.58 266.74 502.14 256.84 500.08 C 251.01 495.77 245.60 490.59 240.99 485.01 C 219.67 461.69 204.02 433.58 195.99 403.00 C 181.21 349.09 191.03 289.82 222.59 243.60 C 256.42 193.44 314.39 159.25 374.83 154.64 C 382.63 152.84 389.11 156.09 396.07 151.21 Z" fill="#2b494c" />
<path d="M 396.87 151.22 C 398.52 151.14 400.17 151.03 401.82 150.94 L 402.76 151.02 C 403.78 151.46 404.80 151.93 405.80 152.40 C 392.72 162.77 384.94 176.15 374.97 188.98 C 370.34 196.61 363.81 199.41 355.17 200.32 C 329.47 206.38 302.63 212.18 279.85 225.88 C 246.57 247.63 225.53 287.61 223.97 327.00 C 223.13 349.41 225.20 371.29 230.88 392.98 C 237.52 419.16 250.76 442.49 267.13 463.84 C 275.40 475.59 285.30 485.47 295.85 495.13 C 305.71 502.93 317.78 509.31 330.62 509.47 C 345.59 511.21 360.82 505.76 376.00 507.00 C 390.91 507.69 405.11 505.06 419.98 505.85 C 432.32 507.12 443.85 509.89 456.38 507.47 C 471.48 504.75 485.53 494.92 495.65 483.68 C 505.45 471.99 514.62 459.50 522.28 446.31 C 528.38 434.43 538.12 419.66 538.05 405.98 C 538.24 391.37 520.55 383.69 524.79 369.96 C 525.79 350.47 524.66 331.12 519.68 312.18 C 518.32 303.78 514.44 296.33 515.29 287.85 C 515.88 277.92 525.96 269.61 526.05 260.00 C 525.99 250.32 519.89 245.63 514.22 238.79 C 495.75 222.26 473.46 214.46 449.61 209.37 C 445.98 208.98 445.59 205.27 446.34 202.36 C 449.46 191.62 455.11 181.81 457.80 170.84 C 459.46 165.31 459.39 159.44 460.98 153.93 L 462.97 154.05 C 463.79 165.07 460.14 175.04 459.34 185.76 C 459.00 189.52 461.36 191.82 464.25 193.75 C 481.55 204.76 495.80 217.72 512.22 229.79 C 519.71 237.22 528.76 246.31 531.17 256.87 C 533.30 263.12 530.55 270.88 533.13 276.89 C 548.37 314.42 551.93 354.83 545.53 394.64 C 545.87 401.49 544.67 407.38 543.01 414.00 C 533.87 443.95 516.03 471.84 493.76 493.76 C 484.19 504.49 468.66 510.41 455.99 516.96 C 441.68 522.27 425.41 529.40 410.00 528.00 C 393.19 528.17 376.71 528.27 360.01 525.99 C 348.18 526.93 338.20 524.68 327.11 520.89 C 266.10 501.46 219.16 444.93 209.13 381.95 C 203.71 347.50 207.63 311.91 222.04 280.01 C 247.76 220.86 309.03 178.50 373.01 173.04 C 376.75 172.74 380.54 170.84 383.03 168.04 C 388.85 162.68 394.96 157.64 400.85 152.37 C 399.53 151.96 398.20 151.59 396.87 151.22 Z" fill="#305457" />
<path d="M 402.76 151.02 C 405.57 151.09 408.37 151.03 411.17 150.89 C 411.31 152.19 412.04 152.80 410.70 153.67 C 400.15 161.80 391.59 172.62 385.30 184.31 C 378.98 197.74 373.11 210.24 379.73 224.92 C 374.78 227.57 368.45 226.39 363.36 224.70 C 348.13 219.74 331.88 217.15 315.99 219.96 C 286.61 225.12 260.96 243.53 246.61 269.64 C 229.46 299.60 228.45 334.27 233.45 367.63 C 239.53 399.85 251.27 430.74 270.59 457.40 C 278.97 469.46 288.17 482.10 299.87 491.10 C 309.63 499.38 322.07 504.67 335.01 504.05 C 351.70 502.97 367.54 493.91 384.02 492.92 C 398.00 490.30 413.91 495.45 427.16 499.79 C 441.04 504.20 455.99 504.83 469.32 498.28 C 482.77 491.65 492.32 481.01 501.15 469.17 C 511.84 455.03 521.32 440.48 528.08 424.03 C 531.24 416.00 536.95 404.02 528.81 397.20 C 518.97 387.27 508.86 379.02 503.31 365.68 C 495.69 348.86 493.33 329.16 495.80 310.94 C 497.82 295.46 505.57 282.28 515.76 270.76 C 518.42 267.96 519.78 264.65 521.23 261.14 C 522.57 258.86 521.14 257.93 520.15 255.96 C 517.62 245.43 505.09 237.04 496.33 231.66 C 482.78 224.28 466.61 218.30 450.99 218.99 C 442.00 217.60 433.21 219.98 424.10 218.78 C 425.30 212.34 434.54 206.10 438.11 200.14 C 449.22 186.17 454.32 170.30 457.91 153.11 L 459.78 153.15 L 460.98 153.93 C 459.39 159.44 459.46 165.31 457.80 170.84 C 455.11 181.81 449.46 191.62 446.34 202.36 C 445.59 205.27 445.98 208.98 449.61 209.37 C 473.46 214.46 495.75 222.26 514.22 238.79 C 519.89 245.63 525.99 250.32 526.05 260.00 C 525.96 269.61 515.88 277.92 515.29 287.85 C 514.44 296.33 518.32 303.78 519.68 312.18 C 524.66 331.12 525.79 350.47 524.79 369.96 C 520.55 383.69 538.24 391.37 538.05 405.98 C 538.12 419.66 528.38 434.43 522.28 446.31 C 514.62 459.50 505.45 471.99 495.65 483.68 C 485.53 494.92 471.48 504.75 456.38 507.47 C 443.85 509.89 432.32 507.12 419.98 505.85 C 405.11 505.06 390.91 507.69 376.00 507.00 C 360.82 505.76 345.59 511.21 330.62 509.47 C 317.78 509.31 305.71 502.93 295.85 495.13 C 285.30 485.47 275.40 475.59 267.13 463.84 C 250.76 442.49 237.52 419.16 230.88 392.98 C 225.20 371.29 223.13 349.41 223.97 327.00 C 225.53 287.61 246.57 247.63 279.85 225.88 C 302.63 212.18 329.47 206.38 355.17 200.32 C 363.81 199.41 370.34 196.61 374.97 188.98 C 384.94 176.15 392.72 162.77 405.80 152.40 C 404.80 151.93 403.78 151.46 402.76 151.02 Z" fill="#396567" />
<path d="M 411.17 150.89 L 411.98 150.78 C 413.08 151.11 414.18 151.47 415.27 151.83 C 394.68 168.00 381.05 193.26 383.21 219.79 C 388.73 220.45 394.27 220.02 399.63 218.55 C 429.58 210.86 451.49 183.02 456.25 153.07 L 457.91 153.11 C 454.32 170.30 449.22 186.17 438.11 200.14 C 434.54 206.10 425.30 212.34 424.10 218.78 C 433.21 219.98 442.00 217.60 450.99 218.99 C 466.61 218.30 482.78 224.28 496.33 231.66 C 505.09 237.04 517.62 245.43 520.15 255.96 C 510.06 244.46 498.91 234.74 484.12 229.89 C 470.20 224.45 455.86 223.21 441.04 224.15 C 439.12 223.62 437.60 223.42 436.01 224.84 L 435.23 225.09 C 419.85 225.47 405.18 234.21 390.02 236.00 C 371.94 238.29 354.11 224.83 335.90 225.06 L 335.11 224.83 C 330.95 223.38 326.03 223.78 321.77 224.66 C 291.42 227.39 264.62 245.40 250.07 272.04 C 233.38 302.77 233.10 339.49 239.99 373.00 C 246.79 404.73 259.92 435.56 279.46 461.57 C 287.73 473.11 297.43 484.70 308.97 493.05 C 320.08 500.52 332.98 501.81 345.63 497.59 C 350.95 496.16 355.70 493.41 361.08 492.13 C 379.15 486.36 396.49 484.97 414.92 490.11 C 425.21 493.00 433.99 498.05 444.76 499.35 C 448.42 500.26 451.59 500.32 455.25 499.34 C 467.74 497.56 478.09 490.56 486.57 481.59 C 505.96 459.08 523.75 432.05 531.81 403.25 C 527.59 400.41 522.82 398.54 518.82 395.28 C 516.41 390.78 512.39 388.53 509.02 384.98 C 487.29 361.78 481.07 323.91 493.91 294.97 C 496.41 286.88 502.34 281.15 505.94 273.86 C 510.14 268.80 515.80 264.79 521.23 261.14 C 519.78 264.65 518.42 267.96 515.76 270.76 C 505.57 282.28 497.82 295.46 495.80 310.94 C 493.33 329.16 495.69 348.86 503.31 365.68 C 508.86 379.02 518.97 387.27 528.81 397.20 C 536.95 404.02 531.24 416.00 528.08 424.03 C 521.32 440.48 511.84 455.03 501.15 469.17 C 492.32 481.01 482.77 491.65 469.32 498.28 C 455.99 504.83 441.04 504.20 427.16 499.79 C 413.91 495.45 398.00 490.30 384.02 492.92 C 367.54 493.91 351.70 502.97 335.01 504.05 C 322.07 504.67 309.63 499.38 299.87 491.10 C 288.17 482.10 278.97 469.46 270.59 457.40 C 251.27 430.74 239.53 399.85 233.45 367.63 C 228.45 334.27 229.46 299.60 246.61 269.64 C 260.96 243.53 286.61 225.12 315.99 219.96 C 331.88 217.15 348.13 219.74 363.36 224.70 C 368.45 226.39 374.78 227.57 379.73 224.92 C 373.11 210.24 378.98 197.74 385.30 184.31 C 391.59 172.62 400.15 161.80 410.70 153.67 C 412.04 152.80 411.31 152.19 411.17 150.89 Z" fill="#4a7f81" />
<path d="M 317.22 152.30 C 321.21 151.84 325.19 151.98 329.19 152.17 C 309.37 158.96 290.36 167.50 273.19 179.64 C 274.78 180.47 277.27 179.77 274.55 181.56 C 236.31 206.69 206.98 243.89 192.37 287.37 C 170.71 352.20 183.44 426.37 226.26 479.74 C 245.26 504.13 270.24 522.66 297.99 536.02 C 329.98 550.99 364.87 556.29 400.00 555.00 C 416.82 556.23 432.04 551.47 448.00 546.99 C 461.91 542.71 475.08 535.91 487.63 528.63 C 501.56 520.66 512.98 507.67 524.01 496.01 C 558.49 458.03 573.55 407.67 573.00 357.00 C 573.01 295.10 549.44 228.49 501.67 187.36 C 498.47 184.62 495.29 183.46 495.06 178.72 C 487.92 172.17 478.16 167.55 470.33 161.69 C 469.62 158.70 470.80 156.02 467.98 154.02 C 469.73 153.96 471.48 153.89 473.22 153.81 C 473.82 154.11 474.41 154.42 475.01 154.72 C 473.20 156.47 474.94 157.51 476.38 158.57 C 502.87 173.15 524.83 194.42 541.41 219.60 C 578.98 277.07 590.32 351.73 574.23 418.17 C 566.04 450.48 550.71 480.45 527.77 504.77 C 507.05 526.59 481.10 542.92 452.61 552.55 C 388.65 574.00 313.60 563.16 259.28 522.71 C 206.65 484.55 174.12 421.01 174.00 356.00 C 172.63 322.49 180.64 288.41 195.31 258.32 C 219.14 210.49 260.94 173.44 310.16 153.19 C 312.54 153.07 314.89 152.84 317.22 152.30 Z" fill="#263f42" />
<path d="M 310.16 153.19 C 260.94 173.44 219.14 210.49 195.31 258.32 C 180.64 288.41 172.63 322.49 174.00 356.00 C 174.12 421.01 206.65 484.55 259.28 522.71 C 313.60 563.16 388.65 574.00 452.61 552.55 C 481.10 542.92 507.05 526.59 527.77 504.77 C 550.71 480.45 566.04 450.48 574.23 418.17 C 590.32 351.73 578.98 277.07 541.41 219.60 C 524.83 194.42 502.87 173.15 476.38 158.57 C 474.94 157.51 473.20 156.47 475.01 154.72 C 480.03 155.12 484.91 154.66 489.82 156.12 C 514.75 172.02 535.91 194.49 551.28 219.69 C 559.63 234.66 567.86 250.03 573.83 266.12 C 584.52 297.31 590.08 330.01 589.00 363.00 C 589.21 397.43 582.08 433.99 565.37 464.35 C 538.51 522.02 481.26 560.08 419.06 569.18 C 401.78 572.14 384.64 570.70 366.98 570.96 C 331.07 567.60 296.23 556.96 266.00 537.01 C 212.58 504.08 176.33 444.94 167.66 383.17 C 163.71 348.37 165.65 313.58 177.27 280.31 C 187.77 252.29 202.77 226.12 222.90 203.87 C 241.16 183.67 264.41 167.30 288.16 154.19 C 295.58 153.43 302.66 152.44 310.16 153.19 Z" fill="#243a3d" />
<path d="M 288.16 154.19 C 264.41 167.30 241.16 183.67 222.90 203.87 C 202.77 226.12 187.77 252.29 177.27 280.31 C 165.65 313.58 163.71 348.37 167.66 383.17 C 176.33 444.94 212.58 504.08 266.00 537.01 C 296.23 556.96 331.07 567.60 366.98 570.96 C 384.64 570.70 401.78 572.14 419.06 569.18 C 481.26 560.08 538.51 522.02 565.37 464.35 C 582.08 433.99 589.21 397.43 589.00 363.00 C 590.08 330.01 584.52 297.31 573.83 266.12 C 567.86 250.03 559.63 234.66 551.28 219.69 C 535.91 194.49 514.75 172.02 489.82 156.12 C 498.46 155.45 507.26 157.88 515.96 158.08 C 516.94 158.39 517.92 158.69 518.90 158.99 C 528.37 169.65 539.49 178.39 547.71 190.28 C 568.13 215.91 582.25 247.47 591.22 278.83 C 609.03 343.06 606.50 418.67 573.99 478.00 C 559.83 504.69 538.96 527.91 514.44 545.48 C 498.77 556.53 481.63 564.81 463.82 571.79 C 462.84 572.15 458.73 571.52 459.15 573.09 C 458.96 575.05 458.98 577.06 458.96 579.04 C 449.95 582.51 439.59 584.76 430.05 586.12 C 429.93 581.77 430.19 577.39 429.86 573.06 C 429.01 571.34 416.96 571.33 416.13 573.07 C 415.78 578.35 416.12 583.67 415.95 588.96 C 413.00 589.60 410.12 590.00 407.10 590.05 C 407.73 581.15 405.78 574.66 396.25 572.67 C 387.55 571.30 378.04 572.10 369.20 572.20 C 368.70 578.10 369.16 584.09 368.96 590.01 C 366.29 590.00 363.63 589.96 360.96 589.93 C 361.38 587.50 361.37 585.30 360.42 583.00 C 359.06 576.90 355.28 573.78 349.24 572.68 C 341.43 571.24 332.99 572.26 325.03 572.04 C 323.64 571.93 323.01 572.27 323.15 573.05 C 323.02 574.08 322.92 575.11 322.84 576.15 C 267.66 561.40 218.52 526.18 188.61 477.39 C 152.25 420.05 142.98 346.02 163.38 281.37 C 177.38 236.47 205.26 197.08 242.22 168.21 C 247.01 163.58 253.82 161.02 257.97 155.93 C 259.26 155.56 260.57 155.26 261.86 154.90 C 270.76 155.53 279.19 153.03 288.16 154.19 Z" fill="#213539" />
<path d="M 257.97 155.93 C 253.82 161.02 247.01 163.58 242.22 168.21 C 205.26 197.08 177.38 236.47 163.38 281.37 C 142.98 346.02 152.25 420.05 188.61 477.39 C 218.52 526.18 267.66 561.40 322.84 576.15 C 323.15 584.13 322.98 592.15 322.94 600.14 C 318.54 600.22 313.72 596.87 309.61 597.88 C 306.26 589.67 303.68 581.02 299.99 572.98 C 297.07 571.35 287.78 571.35 285.05 572.99 C 284.38 574.31 283.91 575.67 283.40 577.05 C 278.58 572.85 271.88 570.83 266.32 567.68 C 210.92 538.44 169.42 486.65 151.14 426.88 C 130.75 361.03 137.68 287.39 172.68 227.68 C 187.88 201.36 208.23 178.89 231.63 159.65 C 233.41 157.78 233.30 158.49 230.87 157.58 C 239.85 156.98 248.98 156.17 257.97 155.93 Z" fill="#1e3033" />
<path d="M 221.13 158.41 C 224.37 158.05 227.63 157.96 230.87 157.58 C 233.30 158.49 233.41 157.78 231.63 159.65 C 208.23 178.89 187.88 201.36 172.68 227.68 C 137.68 287.39 130.75 361.03 151.14 426.88 C 169.42 486.65 210.92 538.44 266.32 567.68 C 271.88 570.83 278.58 572.85 283.40 577.05 C 282.17 580.78 280.68 584.41 279.32 588.09 C 279.31 583.93 274.57 583.84 271.70 582.24 C 214.62 555.34 169.33 505.91 147.09 446.89 C 136.32 419.07 130.11 388.98 129.68 359.16 C 128.65 353.44 128.65 347.56 129.68 341.84 C 131.06 279.03 157.28 216.36 202.25 172.25 C 206.85 167.89 211.02 162.84 216.11 159.07 C 217.79 158.90 219.46 158.68 221.13 158.41 Z" fill="#1c2a2e" />
<path d="M 216.11 159.07 C 211.02 162.84 206.85 167.89 202.25 172.25 C 157.28 216.36 131.06 279.03 129.68 341.84 C 128.65 347.56 128.65 353.44 129.68 359.16 C 130.11 388.98 136.32 419.07 147.09 446.89 C 169.33 505.91 214.62 555.34 271.70 582.24 C 274.57 583.84 279.31 583.93 279.32 588.09 C 277.38 593.42 275.34 598.70 273.37 604.02 C 272.69 602.66 272.08 601.95 270.67 601.33 C 241.33 588.95 215.13 570.69 191.86 549.10 C 146.21 502.75 118.52 440.76 113.00 376.00 C 107.41 313.92 122.40 249.41 157.59 197.60 C 165.74 184.93 176.00 173.85 184.84 161.79 C 195.04 160.56 205.79 159.72 216.11 159.07 Z" fill="#192629" />
<path d="M 518.90 158.99 C 528.67 159.70 538.44 161.45 548.19 162.59 C 547.44 162.97 543.32 162.67 544.16 164.05 C 586.47 209.80 608.97 272.44 613.97 333.99 C 619.64 398.34 604.99 468.37 563.01 519.01 C 545.02 541.06 521.69 559.77 496.07 572.17 C 485.33 571.70 474.55 572.33 463.82 571.79 C 481.63 564.81 498.77 556.53 514.44 545.48 C 538.96 527.91 559.83 504.69 573.99 478.00 C 606.50 418.67 609.03 343.06 591.22 278.83 C 582.25 247.47 568.13 215.91 547.71 190.28 C 539.49 178.39 528.37 169.65 518.90 158.99 Z" fill="#1e3033" />
<path d="M 163.91 162.43 C 171.08 164.12 177.42 161.54 184.84 161.79 C 176.00 173.85 165.74 184.93 157.59 197.60 C 122.40 249.41 107.41 313.92 113.00 376.00 C 118.52 440.76 146.21 502.75 191.86 549.10 C 215.13 570.69 241.33 588.95 270.67 601.33 C 272.08 601.95 272.69 602.66 273.37 604.02 C 271.87 608.18 270.02 612.30 268.96 616.59 C 252.93 609.44 236.93 601.50 222.39 591.60 C 170.46 557.59 132.41 505.70 113.11 446.89 C 92.17 381.65 92.55 309.01 116.72 244.69 C 127.89 215.57 144.34 187.76 164.89 164.28 C 163.25 164.04 161.60 163.86 159.96 163.62 C 161.26 163.16 162.58 162.78 163.91 162.43 Z" fill="#162125" />
<path d="M 548.19 162.59 C 551.49 163.07 554.76 163.66 558.08 163.96 C 558.71 164.30 559.34 164.64 559.97 164.99 C 599.58 212.47 620.31 276.27 624.56 337.37 C 626.23 371.58 624.81 405.43 615.61 438.62 C 606.84 470.52 592.07 502.16 570.18 527.20 C 547.88 554.43 519.03 574.93 486.81 588.82 C 482.27 589.09 477.65 589.04 473.11 588.94 C 472.87 586.71 472.88 584.43 473.19 582.20 C 480.68 581.55 488.31 582.45 495.81 581.80 C 496.14 578.93 495.99 575.95 495.97 573.06 L 496.07 572.17 C 521.69 559.77 545.02 541.06 563.01 519.01 C 604.99 468.37 619.64 398.34 613.97 333.99 C 608.97 272.44 586.47 209.80 544.16 164.05 C 543.32 162.67 547.44 162.97 548.19 162.59 Z" fill="#1c2a2e" />
<path d="M 559.97 164.99 C 570.70 166.31 581.59 168.36 592.18 170.63 C 590.94 171.21 588.23 170.32 589.71 172.40 C 623.86 226.08 641.56 290.54 642.20 353.96 C 643.21 359.42 643.42 364.69 642.32 370.16 C 641.82 423.00 627.83 478.71 597.59 522.61 C 572.78 562.00 533.47 589.54 490.83 606.81 C 484.98 607.04 479.03 607.25 473.20 606.80 C 472.86 604.24 472.86 601.62 473.12 599.05 C 479.90 598.45 487.77 600.05 494.22 598.21 C 495.20 596.71 495.86 589.25 493.91 589.14 C 491.55 588.91 489.17 588.88 486.81 588.82 C 519.03 574.93 547.88 554.43 570.18 527.20 C 592.07 502.16 606.84 470.52 615.61 438.62 C 624.81 405.43 626.23 371.58 624.56 337.37 C 620.31 276.27 599.58 212.47 559.97 164.99 Z" fill="#192629" />
<path d="M 71.89 172.83 C 72.25 194.95 71.72 217.08 72.16 239.19 C 71.91 312.66 71.86 386.33 72.19 459.80 C 71.60 482.59 72.44 505.46 71.75 528.25 C 57.58 501.64 48.18 471.14 41.19 441.84 C 37.75 424.59 33.94 407.73 35.00 390.00 C 35.00 366.00 35.00 342.00 35.00 318.00 C 34.79 301.45 34.54 285.43 38.26 269.17 C 45.22 236.21 55.38 202.33 71.89 172.83 Z" fill="#070b0f" />
<path d="M 696.19 195.80 C 702.98 215.36 707.71 235.78 711.92 256.05 C 716.44 273.29 714.73 290.41 714.97 308.00 C 717.03 327.47 715.56 347.40 716.00 367.00 C 715.57 386.27 717.01 405.86 714.97 425.00 C 714.70 440.68 716.46 455.66 711.92 470.96 C 708.25 488.86 702.89 506.17 696.23 523.18 C 695.53 487.08 696.48 450.88 695.75 414.78 C 696.17 381.64 696.17 348.36 695.75 315.22 C 696.45 275.45 695.59 235.58 696.19 195.80 Z" fill="#060b0f" />
<path d="M 335.11 224.83 C 330.65 225.05 326.22 225.14 321.77 224.66 C 326.03 223.78 330.95 223.38 335.11 224.83 Z" fill="#5f9597" />
<path d="M 441.04 224.15 C 439.47 225.59 437.93 225.38 436.01 224.84 C 437.60 223.42 439.12 223.62 441.04 224.15 Z" fill="#6c9c9f" />
<path d="M 441.04 224.15 C 455.86 223.21 470.20 224.45 484.12 229.89 C 498.91 234.74 510.06 244.46 520.15 255.96 C 521.14 257.93 522.57 258.86 521.23 261.14 C 515.80 264.79 510.14 268.80 505.94 273.86 C 493.29 286.55 485.88 303.01 483.65 320.76 C 482.62 325.96 482.62 332.04 483.65 337.24 C 486.34 360.85 498.82 382.29 518.82 395.28 C 522.82 398.54 527.59 400.41 531.81 403.25 C 523.75 432.05 505.96 459.08 486.57 481.59 C 478.09 490.56 467.74 497.56 455.25 499.34 C 451.67 498.94 448.34 498.93 444.76 499.35 C 433.99 498.05 425.21 493.00 414.92 490.11 C 403.59 483.74 386.52 484.21 374.04 487.06 C 369.75 488.28 364.55 489.19 361.08 492.13 C 355.70 493.41 350.95 496.16 345.63 497.59 C 332.98 501.81 320.08 500.52 308.97 493.05 C 297.43 484.70 287.73 473.11 279.46 461.57 C 259.92 435.56 246.79 404.73 239.99 373.00 C 233.10 339.49 233.38 302.77 250.07 272.04 C 264.62 245.40 291.42 227.39 321.77 224.66 C 326.22 225.14 330.65 225.05 335.11 224.83 L 335.90 225.06 C 349.24 227.93 361.32 233.37 374.10 237.91 C 385.10 242.44 394.89 239.49 405.31 235.28 C 415.03 231.07 425.14 228.20 435.23 225.09 L 436.01 224.84 C 437.93 225.38 439.47 225.59 441.04 224.15 Z" fill="#f4f6f8" />
<path d="M 335.90 225.06 C 354.11 224.83 371.94 238.29 390.02 236.00 C 405.18 234.21 419.85 225.47 435.23 225.09 C 425.14 228.20 415.03 231.07 405.31 235.28 C 394.89 239.49 385.10 242.44 374.10 237.91 C 361.32 233.37 349.24 227.93 335.90 225.06 Z" fill="#5b9698" />
<path d="M 505.94 273.86 C 502.34 281.15 496.41 286.88 493.91 294.97 C 481.07 323.91 487.29 361.78 509.02 384.98 C 512.39 388.53 516.41 390.78 518.82 395.28 C 498.82 382.29 486.34 360.85 483.65 337.24 C 484.18 331.68 484.18 326.32 483.65 320.76 C 485.88 303.01 493.29 286.55 505.94 273.86 Z" fill="#579395" />
<path d="M 483.65 320.76 C 484.18 326.32 484.18 331.68 483.65 337.24 C 482.62 332.04 482.62 325.96 483.65 320.76 Z" fill="#b9d0d2" />
<path d="M 695.75 414.78 C 696.48 450.88 695.53 487.08 696.23 523.18 L 695.76 524.81 C 684.12 554.32 668.41 581.52 647.47 605.45 C 627.04 628.29 602.74 649.33 575.33 663.32 C 561.11 671.55 545.79 677.15 530.85 683.83 L 529.18 684.20 C 444.53 683.74 359.67 684.13 275.00 684.00 C 266.93 684.10 258.83 683.75 250.77 684.26 C 249.91 684.11 249.05 683.96 248.19 683.81 C 219.29 672.05 191.26 659.89 166.28 640.71 C 126.49 611.81 95.09 573.21 72.19 529.84 L 71.75 528.25 C 72.44 505.46 71.60 482.59 72.19 459.80 C 84.50 499.75 103.63 537.40 130.34 569.69 C 170.09 617.62 224.91 651.99 285.11 667.90 C 292.92 670.27 300.41 673.00 308.64 673.44 C 319.37 676.45 330.78 678.92 342.00 679.01 C 349.65 678.34 356.52 681.29 364.16 681.70 C 372.53 681.89 380.66 682.42 389.00 683.07 C 402.69 681.90 415.74 682.44 429.16 679.28 C 436.17 678.77 443.01 679.26 450.00 677.92 C 482.84 671.89 514.38 663.42 544.47 648.56 C 572.31 635.46 597.51 616.95 618.80 594.80 C 641.86 572.14 658.97 543.03 671.29 513.31 C 684.56 481.77 691.40 448.59 695.75 414.78 Z" fill="#0f1418" />
<path d="M 414.92 490.11 C 396.49 484.97 379.15 486.36 361.08 492.13 C 364.55 489.19 369.75 488.28 374.04 487.06 C 386.52 484.21 403.59 483.74 414.92 490.11 Z" fill="#5e9698" />
<path d="M 444.76 499.35 C 448.34 498.93 451.67 498.94 455.25 499.34 C 451.59 500.32 448.42 500.26 444.76 499.35 Z" fill="#86a8aa" />
<path d="M 695.76 524.81 C 696.31 555.84 695.85 586.95 696.00 618.00 C 696.80 632.25 695.08 645.91 687.12 658.07 C 678.59 671.69 664.02 680.94 648.18 683.37 C 631.96 684.80 615.31 683.61 599.00 684.00 C 576.29 683.90 553.55 684.21 530.85 683.83 C 545.79 677.15 561.11 671.55 575.33 663.32 C 602.74 649.33 627.04 628.29 647.47 605.45 C 668.41 581.52 684.12 554.32 695.76 524.81 Z" fill="#0e1115" />
<path d="M 72.19 529.84 C 95.09 573.21 126.49 611.81 166.28 640.71 C 191.26 659.89 219.29 672.05 248.19 683.81 C 215.48 684.25 182.72 683.88 150.00 684.00 C 134.04 683.60 120.03 686.02 105.00 678.98 C 91.70 672.96 81.04 661.80 75.86 648.13 C 69.55 633.17 72.79 614.30 72.00 598.00 C 72.12 575.29 71.75 552.55 72.19 529.84 Z" fill="#0e1115" />
<path d="M 299.99 572.98 C 295.01 573.00 290.03 572.99 285.05 572.99 C 287.78 571.35 297.07 571.35 299.99 572.98 Z" fill="#889294" />
<path d="M 325.03 572.04 C 332.99 572.26 341.43 571.24 349.24 572.68 C 340.59 573.36 331.84 572.79 323.15 573.05 C 323.01 572.27 323.64 571.93 325.03 572.04 Z" fill="#838f92" />
<path d="M 369.20 572.20 C 378.04 572.10 387.55 571.30 396.25 572.67 C 387.59 573.49 378.85 572.56 370.20 573.20 C 369.74 587.71 370.08 602.33 370.05 616.86 L 369.20 616.75 C 368.68 607.87 369.20 598.91 368.96 590.01 C 369.16 584.09 368.70 578.10 369.20 572.20 Z" fill="#869193" />
<path d="M 429.86 573.06 C 425.59 572.96 421.31 572.96 417.04 573.07 L 416.13 573.07 C 416.96 571.33 429.01 571.34 429.86 573.06 Z" fill="#889396" />
<path d="M 463.82 571.79 C 474.55 572.33 485.33 571.70 496.07 572.17 L 495.97 573.06 C 484.00 572.98 472.01 572.93 460.04 573.08 L 459.15 573.09 C 458.73 571.52 462.84 572.15 463.82 571.79 Z" fill="#889295" />
<path d="M 285.05 572.99 C 290.03 572.99 295.01 573.00 299.99 572.98 C 303.68 581.02 306.26 589.67 309.61 597.88 C 312.01 604.20 314.61 610.47 316.75 616.88 C 311.99 617.05 307.08 617.31 302.35 616.71 C 301.53 614.43 301.17 611.95 300.19 609.74 C 298.00 608.56 287.00 608.56 284.81 609.74 C 283.83 611.95 283.47 614.42 282.65 616.70 C 279.06 617.19 275.38 616.99 271.76 617.31 C 270.83 617.09 269.89 616.85 268.96 616.59 C 270.02 612.30 271.87 608.18 273.37 604.02 C 275.34 598.70 277.38 593.42 279.32 588.09 C 280.68 584.41 282.17 580.78 283.40 577.05 C 283.91 575.67 284.38 574.31 285.05 572.99 Z" fill="#f1f3f5" />
<path d="M 323.15 573.05 C 331.84 572.79 340.59 573.36 349.24 572.68 C 355.28 573.78 359.06 576.90 360.42 583.00 C 359.74 585.42 359.53 587.54 360.38 589.97 C 358.82 596.00 355.19 598.94 349.25 600.33 C 345.37 600.22 340.42 599.16 336.79 600.78 C 335.02 605.54 336.53 611.57 335.85 616.65 C 331.74 617.35 327.35 617.12 323.20 616.79 C 322.70 611.27 323.16 605.68 322.94 600.14 C 322.98 592.15 323.15 584.13 322.84 576.15 C 322.92 575.11 323.02 574.08 323.15 573.05 Z" fill="#f2f4f6" />
<path d="M 370.20 573.20 C 378.85 572.56 387.59 573.49 396.25 572.67 C 405.78 574.66 407.73 581.15 407.10 590.05 C 404.93 595.91 401.48 599.17 395.24 600.33 C 391.32 600.02 387.12 599.70 383.20 600.20 C 382.70 605.72 383.16 611.32 382.95 616.86 C 378.77 617.15 374.23 617.15 370.05 616.86 C 370.08 602.33 369.74 587.71 370.20 573.20 Z" fill="#f3f5f7" />
<path d="M 416.13 573.07 L 417.04 573.07 C 416.99 587.67 416.95 602.27 417.05 616.86 L 416.20 616.76 C 415.68 607.53 416.21 598.21 415.95 588.96 C 416.12 583.67 415.78 578.35 416.13 573.07 Z" fill="#bfc4c7" />
<path d="M 417.04 573.07 C 421.31 572.96 425.59 572.96 429.86 573.06 C 430.19 577.39 429.93 581.77 430.05 586.12 C 430.09 592.66 429.72 599.27 430.20 605.79 C 435.37 606.25 440.63 606.07 445.80 605.75 C 447.52 605.83 449.25 605.93 450.95 606.15 C 451.02 609.72 451.02 613.29 450.94 616.86 C 444.06 617.33 437.12 616.65 430.22 617.23 C 425.83 616.92 421.43 617.15 417.05 616.86 C 416.95 602.27 416.99 587.67 417.04 573.07 Z" fill="#f4f6f8" />
<path d="M 459.15 573.09 L 460.04 573.08 C 459.99 587.67 459.95 602.27 460.05 616.86 C 457.80 615.50 459.55 606.04 458.94 602.87 C 459.04 594.93 459.02 586.98 458.96 579.04 C 458.98 577.06 458.96 575.05 459.15 573.09 Z" fill="#bec3c6" />
<path d="M 460.04 573.08 C 472.01 572.93 484.00 572.98 495.97 573.06 C 495.99 575.95 496.14 578.93 495.81 581.80 C 488.31 582.45 480.68 581.55 473.19 582.20 C 472.88 584.43 472.87 586.71 473.11 588.94 C 476.04 591.33 488.93 589.33 493.91 590.04 C 493.98 592.77 494.07 595.49 494.22 598.21 C 490.09 598.44 475.04 596.79 473.12 599.05 C 472.86 601.62 472.86 604.24 473.20 606.80 C 479.03 607.25 484.98 607.04 490.83 606.81 C 492.53 606.87 494.26 606.94 495.95 607.15 C 496.02 610.39 496.02 613.62 495.95 616.86 C 484.01 617.10 471.99 617.10 460.05 616.86 C 459.95 602.27 459.99 587.67 460.04 573.08 Z" fill="#f4f6f8" />
<path d="M 458.96 579.04 C 459.02 586.98 459.04 594.93 458.94 602.87 C 454.44 603.46 450.21 604.67 445.80 605.75 C 440.63 606.07 435.37 606.25 430.20 605.79 C 429.72 599.27 430.09 592.66 430.05 586.12 C 439.59 584.76 449.95 582.51 458.96 579.04 Z" fill="#1c2b2f" />
<path d="M 337.20 582.19 C 340.36 582.02 344.88 580.90 346.71 584.31 C 347.84 588.18 346.52 589.90 343.02 591.36 C 341.08 590.91 339.25 590.74 337.25 590.92 C 336.85 588.05 336.82 585.06 337.20 582.19 Z" fill="#203235" />
<path d="M 384.04 582.11 C 384.64 587.63 381.31 591.74 389.24 591.43 C 387.20 592.01 385.30 592.14 383.20 591.86 C 383.20 589.92 382.03 582.47 384.04 582.11 Z" fill="#6d7a7d" />
<path d="M 384.04 582.11 C 387.45 581.84 390.51 581.42 393.18 583.99 C 392.81 585.78 392.84 587.23 393.23 589.02 C 392.04 590.44 391.05 591.02 389.24 591.43 C 381.31 591.74 384.64 587.63 384.04 582.11 Z" fill="#223538" />
<path d="M 360.42 583.00 C 361.37 585.30 361.38 587.50 360.96 589.93 L 360.38 589.97 C 359.53 587.54 359.74 585.42 360.42 583.00 Z" fill="#818d8f" />
<path d="M 393.18 583.99 C 394.80 585.08 394.64 587.81 393.23 589.02 C 392.84 587.23 392.81 585.78 393.18 583.99 Z" fill="#7c888a" />
<path d="M 292.78 585.46 C 294.32 590.03 296.20 595.04 296.94 599.80 C 294.01 600.15 290.99 600.15 288.06 599.80 C 288.23 596.97 289.52 594.09 290.29 591.35 C 290.91 590.32 291.51 584.76 292.78 585.46 Z" fill="#243034" />
<path d="M 415.95 588.96 C 416.21 598.21 415.68 607.53 416.20 616.76 L 417.05 616.86 C 421.43 617.15 425.83 616.92 430.22 617.23 C 415.46 619.83 399.96 620.17 385.00 621.05 C 369.00 619.53 353.10 619.27 337.24 616.24 C 336.86 611.09 337.12 605.93 336.79 600.78 C 340.79 600.97 345.38 601.49 349.25 600.33 C 355.19 598.94 358.82 596.00 360.38 589.97 L 360.96 589.93 C 363.63 589.96 366.29 590.00 368.96 590.01 C 369.20 598.91 368.68 607.87 369.20 616.75 L 370.05 616.86 C 374.23 617.15 378.77 617.15 382.95 616.86 C 385.36 614.92 383.17 605.00 384.20 601.20 C 388.04 600.80 391.50 601.37 395.24 600.33 C 401.48 599.17 404.93 595.91 407.10 590.05 C 410.12 590.00 413.00 589.60 415.95 588.96 Z" fill="#1b292c" />
<path d="M 473.11 588.94 C 477.65 589.04 482.27 589.09 486.81 588.82 C 489.17 588.88 491.55 588.91 493.91 589.14 L 493.91 590.04 C 488.93 589.33 476.04 591.33 473.11 588.94 Z" fill="#bec2c5" />
<path d="M 493.91 589.14 C 495.86 589.25 495.20 596.71 494.22 598.21 C 494.07 595.49 493.98 592.77 493.91 590.04 L 493.91 589.14 Z" fill="#4e595c" />
<path d="M 337.25 590.92 C 339.25 590.74 341.08 590.91 343.02 591.36 C 341.75 592.25 337.49 593.16 337.25 590.92 Z" fill="#939c9e" />
<path d="M 494.22 598.21 C 487.77 600.05 479.90 598.45 473.12 599.05 C 475.04 596.79 490.09 598.44 494.22 598.21 Z" fill="#505a5d" />
<path d="M 349.25 600.33 C 345.38 601.49 340.79 600.97 336.79 600.78 C 340.42 599.16 345.37 600.22 349.25 600.33 Z" fill="#7e878a" />
<path d="M 383.20 600.20 C 387.12 599.70 391.32 600.02 395.24 600.33 C 391.50 601.37 388.04 600.80 384.20 601.20 C 383.17 605.00 385.36 614.92 382.95 616.86 C 383.16 611.32 382.70 605.72 383.20 600.20 Z" fill="#667073" />
<path d="M 336.79 600.78 C 337.12 605.93 336.86 611.09 337.24 616.24 L 335.85 616.65 C 336.53 611.57 335.02 605.54 336.79 600.78 Z" fill="#bec2c5" />
<path d="M 450.95 606.15 C 452.62 605.93 452.62 617.17 450.94 616.86 C 451.02 613.29 451.02 609.72 450.95 606.15 Z" fill="#505a5d" />
<path d="M 495.95 607.15 C 497.58 606.33 497.58 617.75 495.95 616.86 C 496.02 613.62 496.02 610.39 495.95 607.15 Z" fill="#bdc1c4" />
<path d="M 300.19 609.74 C 295.02 610.12 289.98 610.12 284.81 609.74 C 287.00 608.56 298.00 608.56 300.19 609.74 Z" fill="#bdc2c4" />
<path d="M 250.77 684.26 C 258.83 683.75 266.93 684.10 275.00 684.00 C 359.67 684.13 444.53 683.74 529.18 684.20 C 509.60 690.25 490.94 697.69 471.01 699.92 C 455.30 698.85 441.13 706.40 425.38 707.48 C 406.40 708.68 387.05 707.67 368.00 708.00 C 351.49 709.10 334.93 703.19 318.97 700.14 C 296.16 700.87 272.33 691.28 250.77 684.26 Z" fill="#060a0e" />
</svg>