<?xml version="1.0" encoding="UTF-8" standalone="no"?>
<!DOCTYPE svg PUBLIC "-//W3C//DTD SVG 1.1//EN" "http://www.w3.org/Graphics/SVG/1.1/DTD/svg11.dtd">
<svg xmlns="http://www.w3.org/2000/svg" version="1.1" viewBox="0 0 768 768" width="768.0pt" height="768.0pt">
<path d="M 0.00 0.00 L 768.00 0.00 L 768.00 768.00 L 0.00 768.00 L 0.00 0.00 Z" fill="#151515" />
<path d="M 131.00 83.98 C 298.00 84.03 465.00 83.99 632.00 84.00 C 637.62 84.05 643.63 83.68 649.13 84.67 C 666.58 87.55 682.31 99.01 690.07 114.95 C 694.64 123.60 696.38 133.27 696.02 143.00 C 695.97 302.00 696.01 461.00 696.00 620.00 C 695.95 626.09 696.36 632.06 695.16 638.03 C 691.99 655.64 680.02 671.29 663.71 678.73 C 653.99 683.63 643.70 684.41 633.00 684.00 C 467.00 684.00 301.00 684.00 135.00 684.00 C 129.63 683.98 124.14 684.28 118.87 683.32 C 101.42 680.45 85.68 668.99 77.93 653.05 C 73.36 644.40 71.62 634.73 71.98 625.00 C 72.03 466.01 71.99 306.99 72.00 148.00 C 72.05 142.38 71.68 136.37 72.68 130.87 C 75.53 113.42 87.02 97.68 102.96 89.93 C 111.61 85.36 121.27 83.62 131.00 83.98 Z" fill="#1d1d1d" />
<path d="M 332.00 136.00 C 364.00 136.00 396.00 136.00 428.00 136.00 C 439.10 136.09 449.37 135.32 460.21 138.42 C 482.82 144.43 501.29 162.56 507.75 185.04 C 511.93 199.32 511.26 214.93 505.83 228.80 C 500.72 241.97 491.48 253.17 479.78 261.04 C 492.95 269.92 502.94 282.93 507.53 298.19 C 512.34 313.93 511.21 331.33 504.31 346.27 C 498.46 359.18 488.40 370.11 476.09 377.11 C 465.18 383.41 452.58 386.41 440.00 386.02 C 423.51 385.90 407.49 379.45 395.25 368.47 C 395.26 387.98 395.24 407.49 395.26 427.00 C 395.16 434.15 394.80 441.09 392.97 448.04 C 389.09 463.50 379.57 477.38 366.68 486.71 C 356.05 494.49 343.11 499.10 329.97 499.83 C 315.10 500.74 300.02 496.64 287.68 488.30 C 275.81 480.32 266.59 468.66 261.65 455.23 C 256.12 440.29 256.14 423.45 261.66 408.51 C 266.66 394.75 276.13 383.14 288.19 374.93 C 277.17 367.45 268.29 357.17 263.06 344.87 C 256.22 329.15 255.70 310.87 261.61 294.78 C 266.57 280.92 276.09 269.27 288.22 261.04 C 278.45 254.43 270.31 245.57 264.97 235.02 C 259.28 223.98 256.76 211.37 257.73 198.99 C 258.70 185.35 263.97 172.16 272.53 161.51 C 282.57 148.96 297.18 140.15 312.99 137.22 C 319.35 135.98 325.56 135.95 332.00 136.00 Z" fill="#ffffff" />
<path d="M 325.97 158.29 C 341.56 158.20 357.16 158.28 372.75 158.25 C 372.75 188.83 372.74 219.41 372.75 249.99 C 356.53 249.91 340.27 250.19 324.05 249.85 C 307.10 249.38 291.51 239.01 284.24 223.75 C 279.05 212.83 278.37 199.92 282.54 188.56 C 286.24 178.30 293.70 169.51 303.22 164.20 C 310.15 160.22 318.00 158.37 325.97 158.29 Z" fill="#1d1d1d" />
<path d="M 395.33 158.33 C 407.86 158.14 420.45 158.31 433.00 158.25 C 440.00 158.26 447.20 157.99 454.01 159.86 C 466.33 162.98 477.12 171.71 482.98 182.96 C 488.08 192.65 489.50 204.18 486.90 214.82 C 483.52 229.27 472.67 241.54 458.82 246.81 C 452.45 249.37 445.81 249.98 439.00 250.01 C 424.42 249.99 409.83 250.01 395.25 249.99 C 395.31 219.51 395.15 188.78 395.33 158.33 Z" fill="#1d1d1d" />
<path d="M 324.98 272.25 C 340.88 272.25 356.84 272.26 372.75 272.25 C 372.75 302.75 372.75 333.25 372.75 363.75 C 357.16 363.76 341.57 363.74 325.98 363.76 C 321.33 363.75 316.64 363.12 312.18 361.76 C 295.67 356.79 282.87 342.10 280.38 325.02 C 277.87 309.69 283.79 293.66 295.52 283.53 C 303.62 276.41 314.19 272.36 324.98 272.25 Z" fill="#1d1d1d" />
<path d="M 433.51 272.84 C 440.29 271.83 447.40 271.99 454.05 273.75 C 470.10 277.85 483.06 291.09 486.89 307.20 C 491.13 324.04 484.90 342.51 471.39 353.37 C 456.33 366.08 432.89 367.22 416.42 356.59 C 408.35 351.46 401.88 343.70 398.39 334.79 C 394.25 324.38 394.14 312.50 398.08 302.01 C 403.67 286.81 417.52 275.42 433.51 272.84 Z" fill="#1d1d1d" />
<path d="M 330.00 385.99 C 344.25 386.02 358.50 385.98 372.75 386.01 C 372.76 401.00 372.73 416.00 372.77 431.00 C 373.01 444.78 366.51 458.17 355.91 466.89 C 344.66 476.23 329.18 479.83 314.97 476.33 C 302.97 473.48 292.33 465.54 286.10 454.92 C 280.12 444.86 278.34 432.54 281.09 421.18 C 284.60 406.15 296.15 393.52 310.77 388.61 C 317.03 386.37 323.41 386.01 330.00 385.99 Z" fill="#1d1d1d" />
<path d="M 149.99 515.00 C 176.32 515.00 202.66 515.00 229.00 515.00 C 232.57 515.05 236.33 514.73 239.84 515.39 C 245.84 516.75 249.92 522.94 248.79 529.00 C 247.91 534.67 242.77 539.01 237.03 538.96 C 208.42 539.07 179.63 538.94 151.00 539.02 C 147.30 539.06 143.85 538.56 141.06 535.94 C 136.14 531.72 135.67 523.82 140.06 519.06 C 142.62 516.11 146.15 514.95 149.99 515.00 Z" fill="#3dc7f1" />
<path d="M 285.99 515.00 C 312.31 514.99 338.67 515.01 365.00 515.00 C 370.08 515.18 376.24 514.03 380.40 517.60 C 385.78 521.71 386.53 529.96 381.94 534.94 C 379.36 537.91 375.86 539.06 372.01 539.00 C 343.34 539.00 314.66 539.00 285.99 539.00 C 282.66 539.00 279.54 538.27 277.06 535.94 C 272.13 531.73 271.67 523.81 276.06 519.06 C 278.63 516.10 282.14 514.95 285.99 515.00 Z" fill="#35b982" />
<path d="M 421.99 515.00 C 448.32 515.00 474.66 515.00 501.00 515.00 C 504.57 515.05 508.33 514.74 511.84 515.39 C 517.85 516.74 521.92 522.94 520.79 529.00 C 519.91 534.67 514.77 539.01 509.03 538.96 C 480.42 539.07 451.63 538.94 423.00 539.02 C 419.30 539.05 415.85 538.57 413.06 535.94 C 408.14 531.73 407.67 523.81 412.06 519.06 C 414.62 516.10 418.15 514.95 421.99 515.00 Z" fill="#edb535" />
<path d="M 565.00 515.00 C 589.33 515.00 613.67 515.01 638.00 514.99 C 641.44 515.04 645.20 514.71 648.54 515.57 C 654.20 517.27 657.86 523.17 656.79 529.00 C 655.91 534.67 650.77 539.01 645.03 538.96 C 616.42 539.08 587.63 538.94 559.00 539.02 C 555.04 539.09 551.38 538.42 548.54 535.46 C 543.68 530.77 543.93 522.45 549.05 518.06 C 553.41 513.94 559.53 515.18 565.00 515.00 Z" fill="#e12660" />
<path d="M 363.06 571.93 C 368.64 571.92 374.87 571.79 379.42 575.57 C 382.40 577.84 383.75 580.98 385.03 584.38 C 380.67 585.22 376.30 585.97 371.94 586.76 C 369.51 580.59 360.79 579.98 356.82 584.82 C 353.92 588.31 354.04 593.75 354.34 598.01 C 354.69 601.81 356.12 605.49 359.84 607.13 C 364.68 609.10 369.21 607.62 373.52 605.20 C 373.51 603.80 373.50 602.40 373.49 601.00 C 370.49 601.00 367.49 601.00 364.49 600.99 C 364.50 597.91 364.50 594.83 364.51 591.75 C 371.51 591.76 378.50 591.75 385.50 591.75 C 385.49 598.08 385.54 604.41 385.47 610.74 C 383.18 612.09 380.92 613.53 378.54 614.66 C 372.65 617.60 365.46 618.16 359.01 617.45 C 353.75 616.85 348.82 614.76 345.44 610.57 C 342.01 606.16 340.57 600.54 340.49 595.02 C 340.24 588.19 342.51 581.31 347.84 576.82 C 352.16 573.10 357.49 571.98 363.06 571.93 Z" fill="#ffffff" />
<path d="M 273.00 572.50 C 284.33 572.50 295.67 572.50 307.00 572.50 C 307.00 575.75 307.00 579.00 306.99 582.25 C 300.25 582.25 293.50 582.25 286.76 582.25 C 286.75 584.83 286.75 587.41 286.75 589.99 C 292.50 590.01 298.25 590.00 304.00 590.00 C 304.00 592.92 304.00 595.84 303.99 598.76 C 298.25 598.75 292.50 598.75 286.76 598.76 C 286.75 604.83 286.75 610.91 286.76 616.99 C 282.17 617.00 277.59 617.00 273.00 617.00 C 273.00 602.17 273.00 587.33 273.00 572.50 Z" fill="#ffffff" />
<path d="M 316.75 572.50 C 321.33 572.50 325.92 572.50 330.50 572.50 C 330.50 587.33 330.50 602.17 330.50 617.00 C 325.91 617.00 321.33 617.00 316.75 616.99 C 316.75 602.16 316.74 587.33 316.75 572.50 Z" fill="#ffffff" />
<path d="M 395.50 572.50 C 401.46 572.49 407.42 572.51 413.38 572.49 C 415.75 581.50 417.99 590.55 420.41 599.55 C 422.66 590.53 425.09 581.56 427.28 572.52 C 433.27 572.48 439.26 572.51 445.25 572.50 C 445.26 587.33 445.25 602.16 445.25 616.99 C 441.50 617.00 437.75 617.00 434.00 617.00 C 433.89 605.92 434.24 594.81 433.79 583.73 C 431.29 594.88 428.13 605.87 425.46 616.98 C 422.05 617.01 418.65 617.01 415.24 616.99 C 412.36 605.67 409.53 594.34 406.51 583.06 C 406.48 594.37 406.51 605.68 406.50 617.00 C 402.83 617.00 399.17 617.00 395.50 617.00 C 395.50 602.17 395.50 587.33 395.50 572.50 Z" fill="#ffffff" />
<path d="M 468.07 572.51 C 473.04 572.50 478.00 572.50 482.96 572.50 C 488.53 587.34 494.10 602.17 499.69 617.00 C 494.90 617.00 490.11 617.02 485.31 616.98 C 484.62 614.56 483.90 612.15 483.15 609.75 C 477.95 609.75 472.76 609.77 467.56 609.73 C 466.80 612.14 466.08 614.55 465.42 616.98 C 460.74 617.01 456.06 617.00 451.37 617.00 C 456.90 602.16 462.55 587.35 468.07 572.51 Z" fill="#ffffff" />
<path d="M 475.28 584.79 C 477.47 589.58 478.49 595.01 480.27 600.00 C 477.02 600.00 473.78 600.00 470.54 599.99 C 472.15 594.94 473.48 589.78 475.28 584.79 Z" fill="#1d1d1d" />
</svg>