<?xml version="1.0" encoding="UTF-8" standalone="no"?>
<!DOCTYPE svg PUBLIC "-//W3C//DTD SVG 1.1//EN" "http://www.w3.org/Graphics/SVG/1.1/DTD/svg11.dtd">
<svg xmlns="http://www.w3.org/2000/svg" version="1.1" viewBox="0 0 768 768" width="768.0pt" height="768.0pt">
<path d="M 0.00 0.00 L 768.00 0.00 L 768.00 768.00 L 0.00 768.00 L 0.00 0.00 Z" fill="#06080c" />
<path d="M 220.05 318.70 C 227.17 318.99 234.46 320.22 240.17 324.81 C 244.77 328.39 247.18 333.16 249.51 338.35 C 244.00 339.61 238.49 340.84 232.96 342.02 C 231.69 339.62 230.60 337.36 228.43 335.63 C 222.33 330.40 211.77 331.51 207.10 338.13 C 202.91 343.60 203.08 351.49 203.30 358.03 C 203.66 363.29 204.60 369.51 208.97 373.03 C 213.59 376.75 221.11 377.06 226.24 374.23 C 230.72 371.75 232.18 367.14 233.85 362.64 C 239.33 364.29 244.80 365.97 250.29 367.60 C 248.06 374.73 244.73 381.15 238.19 385.21 C 231.02 390.08 221.38 390.19 213.06 389.46 C 205.31 388.73 198.02 386.25 192.84 380.18 C 185.31 371.86 183.27 360.96 184.15 350.05 C 184.71 341.15 187.56 332.46 194.48 326.49 C 201.57 320.23 210.88 318.66 220.05 318.70 Z" fill="#ffffff" />
<path d="M 352.50 319.60 C 360.54 318.14 369.14 318.47 376.93 321.04 C 384.62 323.58 391.09 329.30 394.24 336.80 C 397.71 344.87 398.09 354.44 396.77 363.03 C 395.54 370.76 392.06 377.95 385.77 382.80 C 379.19 388.01 371.23 389.66 363.01 389.71 C 355.01 389.69 346.70 388.66 339.92 384.07 C 331.93 378.61 327.49 369.49 326.60 359.99 C 325.83 350.49 326.74 340.38 332.23 332.28 C 336.90 325.39 344.35 321.01 352.50 319.60 Z" fill="#ffffff" />
<path d="M 685.51 319.55 C 694.40 318.02 704.27 318.53 712.59 322.23 C 720.41 325.63 726.09 332.60 728.43 340.74 C 730.66 348.63 730.70 357.21 729.08 365.22 C 727.54 372.74 723.36 379.60 716.96 383.94 C 709.80 388.97 700.60 390.04 692.07 389.63 C 684.37 389.28 676.54 387.52 670.51 382.46 C 663.56 376.61 659.92 368.06 659.28 359.10 C 658.61 349.90 659.68 339.87 665.08 332.11 C 669.79 325.19 677.34 320.94 685.51 319.55 Z" fill="#ffffff" />
<path d="M 34.07 319.94 C 40.71 319.94 47.36 319.94 54.00 319.94 C 59.73 338.29 65.59 356.62 71.17 375.02 C 76.83 356.66 82.46 338.29 88.13 319.93 C 94.55 319.94 100.97 319.94 107.40 319.93 C 98.94 342.80 90.41 365.65 81.97 388.53 C 74.65 388.54 67.33 388.53 60.01 388.54 C 51.34 365.68 42.73 342.80 34.07 319.94 Z" fill="#ffffff" />
<path d="M 116.24 319.93 C 135.00 319.94 153.77 319.95 172.53 319.92 C 172.53 324.05 172.53 328.18 172.53 332.31 C 160.19 332.29 147.86 332.31 135.52 332.30 C 135.54 337.02 135.53 341.75 135.53 346.47 C 146.94 346.46 158.35 346.47 169.77 346.47 C 169.76 350.41 169.76 354.36 169.77 358.30 C 158.35 358.29 146.94 358.31 135.52 358.30 C 135.54 363.94 135.53 369.59 135.53 375.24 C 148.20 375.23 160.87 375.24 173.53 375.23 C 173.53 379.67 173.53 384.10 173.54 388.54 C 154.43 388.53 135.33 388.53 116.23 388.54 C 116.24 365.67 116.23 342.80 116.24 319.93 Z" fill="#ffffff" />
<path d="M 257.24 319.93 C 278.67 319.94 300.10 319.95 321.53 319.93 C 321.53 324.80 321.53 329.67 321.54 334.54 C 314.04 334.52 306.55 334.55 299.06 334.52 C 299.08 352.52 299.04 370.53 299.08 388.53 C 292.62 388.53 286.16 388.53 279.70 388.54 C 279.72 370.53 279.69 352.53 279.71 334.52 C 272.22 334.55 264.73 334.52 257.23 334.54 C 257.24 329.67 257.24 324.80 257.24 319.93 Z" fill="#ffffff" />
<path d="M 410.70 319.93 C 423.13 319.95 435.57 319.93 448.00 319.93 C 454.23 320.13 460.50 320.22 465.76 324.01 C 474.72 330.67 474.35 345.97 465.68 352.71 C 461.45 356.19 456.12 357.00 450.93 358.12 C 455.21 359.56 460.67 360.72 463.57 364.42 C 467.14 368.34 469.11 372.87 471.53 377.50 C 473.38 381.20 475.32 384.85 477.20 388.53 C 469.96 388.53 462.73 388.53 455.49 388.54 C 452.11 382.29 448.70 376.05 445.36 369.77 C 443.79 366.94 442.08 363.47 439.49 361.44 C 436.56 359.39 433.47 359.64 430.08 359.40 C 430.05 369.11 430.06 378.82 430.08 388.53 C 423.62 388.53 417.16 388.53 410.70 388.54 C 410.72 365.67 410.70 342.80 410.70 319.93 Z" fill="#ffffff" />
<path d="M 517.47 319.93 C 529.32 319.96 541.17 319.91 553.01 319.94 C 559.33 320.09 565.55 321.05 570.16 325.78 C 575.28 331.04 575.98 339.95 574.44 346.78 C 572.98 353.46 568.08 358.52 561.53 360.41 C 553.75 362.68 544.81 361.91 536.76 362.06 C 536.78 370.88 536.76 379.71 536.77 388.54 C 530.33 388.53 523.90 388.53 517.47 388.54 C 517.47 365.67 517.47 342.80 517.47 319.93 Z" fill="#ffffff" />
<path d="M 587.93 319.93 C 600.62 319.95 613.32 319.91 626.01 319.95 C 631.57 320.17 637.72 320.28 642.44 323.59 C 652.15 329.78 651.85 346.18 642.84 352.85 C 638.77 356.20 633.25 357.06 628.23 358.14 C 631.85 359.37 636.28 360.33 639.32 362.75 C 642.45 365.61 644.82 369.47 646.68 373.25 C 649.29 378.36 651.92 383.46 654.60 388.53 C 647.33 388.54 640.06 388.54 632.79 388.53 C 628.24 380.30 624.13 371.74 619.14 363.79 C 616.21 359.49 612.03 359.53 607.30 359.41 C 607.29 369.12 607.29 378.83 607.30 388.54 C 600.84 388.53 594.38 388.53 587.92 388.53 C 587.95 365.67 587.93 342.80 587.93 319.93 Z" fill="#ffffff" />
<path d="M 430.05 331.28 C 435.81 331.47 442.18 330.77 447.77 332.30 C 454.09 334.33 454.75 343.79 449.08 347.00 C 443.56 349.58 436.02 348.83 430.04 348.95 C 430.08 343.06 430.07 337.17 430.05 331.28 Z" fill="#06080c" />
<path d="M 607.38 331.39 C 611.87 331.16 616.55 331.23 621.04 331.55 C 623.79 331.85 626.64 332.16 628.43 334.53 C 631.54 338.38 630.82 344.83 626.13 347.08 C 620.66 349.63 613.20 348.80 607.27 348.94 C 607.40 343.10 607.12 337.22 607.38 331.39 Z" fill="#06080c" />
<path d="M 536.76 331.54 C 541.39 331.67 546.91 330.93 551.28 332.61 C 557.22 335.05 558.53 344.38 553.09 348.10 C 548.79 351.09 541.79 350.34 536.76 350.48 C 536.76 344.17 536.77 337.85 536.76 331.54 Z" fill="#06080c" />
<path d="M 355.48 333.68 C 361.80 331.26 369.66 332.54 374.08 337.94 C 377.82 342.64 378.41 349.23 378.28 355.01 C 378.13 360.09 377.42 366.21 374.41 370.49 C 370.01 376.35 360.86 377.54 354.52 374.47 C 350.21 372.39 347.59 368.39 346.53 363.82 C 345.12 357.63 345.12 350.65 346.62 344.47 C 347.82 339.71 350.84 335.55 355.48 333.68 Z" fill="#06080c" />
<path d="M 689.25 333.30 C 695.43 331.42 702.75 332.87 706.91 338.07 C 710.62 342.75 711.06 349.27 710.96 355.01 C 710.82 360.31 710.23 366.52 706.82 370.85 C 701.63 377.28 690.64 377.77 684.40 372.65 C 680.25 369.18 678.88 363.85 678.42 358.68 C 678.07 353.50 678.15 347.80 679.86 342.84 C 681.37 338.42 684.75 334.73 689.25 333.30 Z" fill="#06080c" />
<path d="M 394.95 377.79 C 399.35 377.19 403.93 377.67 408.37 377.64 C 408.39 381.98 408.40 386.31 408.36 390.64 C 416.45 390.60 424.54 390.60 432.64 390.65 C 432.61 386.59 432.61 382.54 432.61 378.48 C 437.44 378.51 442.26 378.58 447.09 378.65 C 449.29 382.60 451.44 386.58 453.55 390.58 C 462.73 390.66 471.91 390.62 481.09 390.60 C 479.45 387.23 477.79 383.86 476.17 380.48 C 488.94 381.29 501.85 382.19 514.55 383.79 C 514.62 386.05 514.70 388.31 514.77 390.58 C 522.72 390.65 530.67 390.63 538.62 390.59 C 539.10 389.26 539.60 387.93 540.09 386.61 C 562.19 389.92 585.17 393.50 606.47 400.41 C 614.45 403.08 623.64 406.33 629.97 412.04 C 632.49 414.36 635.23 418.33 634.03 421.90 C 632.59 426.58 628.11 429.79 624.09 432.18 C 616.24 436.69 607.12 439.40 598.49 442.06 C 549.61 427.21 498.89 419.02 447.99 415.38 C 389.08 411.43 329.45 413.01 270.97 421.33 C 237.92 426.20 205.40 432.96 173.52 443.01 C 167.47 441.69 161.56 439.61 155.73 437.56 C 149.41 435.20 142.45 432.18 137.52 427.47 C 134.90 424.84 132.59 421.07 134.24 417.29 C 136.43 411.86 142.82 408.19 147.83 405.73 C 162.17 399.19 178.35 395.42 193.75 392.30 C 197.05 391.64 200.62 390.57 204.00 390.69 C 207.71 390.92 211.32 392.01 215.05 392.31 C 221.46 392.85 228.19 392.28 234.28 390.14 C 239.12 388.46 241.83 384.93 247.01 384.38 C 257.10 383.19 267.25 382.31 277.38 381.41 C 277.35 384.49 277.41 387.57 277.37 390.65 C 285.46 390.60 293.54 390.60 301.63 390.65 C 301.61 386.97 301.61 383.30 301.63 379.63 C 311.23 379.95 320.64 378.12 330.24 378.54 C 334.38 382.52 337.60 386.56 343.10 388.77 C 353.60 393.09 365.88 393.56 376.74 390.37 C 381.83 388.80 386.52 386.10 390.10 382.12 C 391.58 380.71 393.04 378.56 394.95 377.79 Z" fill="#0c2e44" />
<path d="M 447.99 415.38 C 498.89 419.02 549.61 427.21 598.49 442.06 C 614.66 447.13 630.54 453.00 645.96 460.05 C 647.25 460.53 648.32 461.19 649.73 460.71 C 654.35 459.23 658.76 457.13 663.33 455.52 C 665.16 459.84 666.96 464.18 668.71 468.53 C 667.62 468.94 666.53 469.34 665.44 469.74 C 667.09 470.66 668.75 471.58 670.40 472.51 C 666.75 478.84 663.17 485.22 659.50 491.54 C 652.04 487.42 644.54 483.43 636.74 479.99 C 604.97 490.14 571.95 496.84 539.00 501.80 C 523.34 503.74 507.72 506.26 491.99 507.48 C 480.33 508.47 468.68 509.84 457.00 510.28 C 445.01 510.86 433.01 511.75 421.01 511.99 C 406.00 511.93 390.97 512.96 376.00 512.29 C 339.90 512.14 303.89 509.80 268.00 505.97 C 252.46 503.85 236.91 502.18 221.46 499.49 C 193.32 494.78 165.23 488.70 138.01 480.12 C 130.29 483.51 122.87 487.45 115.50 491.54 C 111.83 485.22 108.24 478.84 104.59 472.50 C 106.11 471.67 107.62 470.84 109.14 470.01 C 107.87 469.49 106.60 468.96 105.33 468.44 C 107.08 464.12 108.84 459.81 110.61 455.49 C 115.77 457.22 120.76 459.85 126.06 461.08 C 128.51 460.49 130.84 459.18 133.16 458.19 C 146.32 452.42 159.81 447.34 173.52 443.01 C 205.40 432.96 237.92 426.20 270.97 421.33 C 329.45 413.01 389.08 411.43 447.99 415.38 Z" fill="#1795e0" />
<path d="M 377.98 435.31 C 414.42 434.91 450.84 436.72 487.02 441.18 C 507.02 443.82 527.11 446.80 546.75 451.44 C 545.66 451.84 544.56 452.24 543.47 452.64 C 538.77 453.76 533.83 453.98 529.05 454.66 C 507.44 457.40 485.72 458.94 464.00 460.41 C 455.94 460.18 448.06 461.75 440.00 461.45 C 432.95 461.20 426.02 462.04 419.00 462.42 C 395.37 462.40 371.62 462.47 347.99 462.39 C 341.32 461.91 334.71 461.25 328.00 461.45 C 320.27 461.77 312.72 460.25 305.00 460.43 C 281.31 458.97 257.63 457.14 234.08 454.06 C 230.01 453.52 225.97 452.91 221.87 452.72 C 272.89 441.07 325.70 435.87 377.98 435.31 Z" fill="#0c2e44" />
<path d="M 543.47 452.64 C 544.56 452.24 545.66 451.84 546.75 451.44 C 570.46 456.23 593.80 463.03 616.47 471.43 C 598.99 476.18 581.34 480.22 563.52 483.45 C 543.44 487.34 523.20 489.70 502.94 492.31 C 490.63 493.51 478.31 494.57 465.99 495.70 C 443.99 496.94 422.04 498.29 400.00 498.20 C 384.67 498.86 369.34 497.88 353.99 497.95 C 332.11 497.01 310.27 496.07 288.49 493.82 C 272.24 492.62 256.17 490.16 240.02 488.14 C 212.53 484.18 185.12 478.76 158.32 471.49 C 179.06 463.77 200.28 457.59 221.87 452.72 C 225.97 452.91 230.01 453.52 234.08 454.06 C 257.63 457.14 281.31 458.97 305.00 460.43 C 312.72 460.25 320.27 461.77 328.00 461.45 C 334.71 461.25 341.32 461.91 347.99 462.39 C 371.62 462.47 395.37 462.40 419.00 462.42 C 426.02 462.04 432.95 461.20 440.00 461.45 C 448.06 461.75 455.94 460.18 464.00 460.41 C 485.72 458.94 507.44 457.40 529.05 454.66 C 533.83 453.98 538.77 453.76 543.47 452.64 Z" fill="#06080c" />
</svg>