<?xml version="1.0" encoding="UTF-8" standalone="no"?>
<!DOCTYPE svg PUBLIC "-//W3C//DTD SVG 1.1//EN" "http://www.w3.org/Graphics/SVG/1.1/DTD/svg11.dtd">
<svg xmlns="http://www.w3.org/2000/svg" version="1.1" viewBox="0 0 768 768" width="768.0pt" height="768.0pt">
<path d="M 0.00 0.00 L 260.75 0.00 C 248.75 4.23 236.86 8.58 225.61 14.59 C 215.41 20.10 205.17 24.25 195.62 30.60 C 181.13 40.21 166.97 49.21 154.69 61.69 C 146.53 68.55 139.58 75.69 132.85 83.97 C 126.06 83.98 119.58 84.10 112.99 85.99 C 101.10 89.41 90.12 96.77 82.87 106.85 C 78.14 113.41 74.56 121.05 73.04 129.01 C 72.07 133.95 72.01 138.98 72.02 144.00 C 72.09 158.33 72.13 172.67 71.85 187.00 C 71.80 274.00 71.81 361.00 71.84 448.00 C 72.24 471.66 71.99 495.33 72.05 519.00 C 72.25 551.00 72.12 583.00 72.16 615.00 C 72.20 621.51 71.86 628.16 72.52 634.63 C 74.30 649.57 82.29 663.61 94.36 672.62 C 100.78 677.45 108.30 680.85 116.14 682.61 C 123.74 684.36 132.18 683.79 140.00 683.84 C 302.67 683.84 465.33 683.84 628.00 683.84 C 634.17 683.82 640.49 684.11 646.63 683.48 C 662.04 681.65 676.48 673.20 685.44 660.51 C 693.08 649.87 696.47 637.03 695.88 624.00 C 695.71 571.66 696.01 519.34 695.93 467.00 C 695.95 460.33 696.16 453.67 696.17 447.00 C 696.17 360.34 696.20 273.66 696.15 187.00 C 695.86 172.33 695.92 157.67 695.98 143.00 C 696.00 137.18 695.76 131.49 694.23 125.84 C 690.89 113.36 683.17 101.89 672.56 94.45 C 666.59 90.25 659.78 87.03 652.65 85.40 C 646.89 84.08 641.12 83.95 635.23 83.94 C 620.65 69.00 605.48 52.53 587.93 41.14 C 582.63 37.77 577.43 34.28 572.21 30.79 C 565.20 26.21 557.86 22.33 550.34 18.66 C 543.85 15.50 537.47 12.04 530.89 9.13 C 523.83 5.97 516.50 3.58 509.33 0.65 L 508.53 0.35 L 507.45 0.00 L 768.00 0.00 L 768.00 768.00 L 0.00 768.00 L 0.00 0.00 Z" fill="#101820" />
<path d="M 260.75 0.00 L 507.45 0.00 L 508.53 0.35 L 509.33 0.65 C 516.50 3.58 523.83 5.97 530.89 9.13 C 537.47 12.04 543.85 15.50 550.34 18.66 C 557.86 22.33 565.20 26.21 572.21 30.79 C 577.43 34.28 582.63 37.77 587.93 41.14 C 605.48 52.53 620.65 69.00 635.23 83.94 C 615.90 84.14 596.58 83.94 577.25 83.83 C 561.92 71.62 545.88 60.47 528.39 51.55 C 519.88 46.52 510.73 43.17 501.69 39.24 C 493.69 35.75 485.34 33.78 477.13 30.85 C 469.04 27.89 460.50 27.43 452.35 24.71 C 444.11 22.01 435.62 21.24 427.00 21.05 C 419.17 20.96 411.75 18.67 403.95 18.29 C 394.76 17.86 386.27 16.25 377.05 17.28 C 368.52 18.17 360.11 18.04 351.67 19.75 C 343.46 21.46 335.21 20.83 326.97 22.10 C 319.01 23.19 311.57 26.25 303.63 27.57 C 294.73 29.05 286.63 32.56 277.99 34.97 C 272.71 36.44 267.70 38.57 262.67 40.70 C 249.00 45.98 235.80 52.63 223.42 60.47 C 212.18 67.73 200.94 75.23 190.74 83.92 C 186.29 83.89 181.83 83.92 177.38 84.08 C 162.53 83.93 147.70 84.07 132.85 83.97 C 139.58 75.69 146.53 68.55 154.69 61.69 C 166.97 49.21 181.13 40.21 195.62 30.60 C 205.17 24.25 215.41 20.10 225.61 14.59 C 236.86 8.58 248.75 4.23 260.75 0.00 Z" fill="#101c23" />
<path d="M 377.05 17.28 C 386.27 16.25 394.76 17.86 403.95 18.29 C 411.75 18.67 419.17 20.96 427.00 21.05 C 435.62 21.24 444.11 22.01 452.35 24.71 C 460.50 27.43 469.04 27.89 477.13 30.85 C 485.34 33.78 493.69 35.75 501.69 39.24 C 510.73 43.17 519.88 46.52 528.39 51.55 C 545.88 60.47 561.92 71.62 577.25 83.83 C 565.77 84.16 554.29 83.79 542.81 84.05 C 535.38 84.23 527.96 84.02 520.53 83.95 C 514.21 79.64 507.48 76.79 500.67 73.33 C 485.42 66.34 469.58 60.92 453.38 56.61 C 446.59 54.21 439.51 54.24 432.61 52.42 C 424.28 50.24 415.59 49.27 407.00 48.97 C 394.00 48.99 381.00 49.01 368.00 48.96 C 356.55 48.72 344.92 49.82 333.85 52.80 C 328.20 54.20 322.47 54.08 316.88 55.87 C 309.49 58.24 301.92 59.88 294.60 62.46 C 278.23 68.18 262.33 74.96 247.38 83.79 L 246.38 84.06 C 227.85 83.38 209.30 84.42 190.74 83.92 C 200.94 75.23 212.18 67.73 223.42 60.47 C 235.80 52.63 249.00 45.98 262.67 40.70 C 267.70 38.57 272.71 36.44 277.99 34.97 C 286.63 32.56 294.73 29.05 303.63 27.57 C 311.57 26.25 319.01 23.19 326.97 22.10 C 335.21 20.83 343.46 21.46 351.67 19.75 C 360.11 18.04 368.52 18.17 377.05 17.28 Z" fill="#122028" />
<path d="M 368.00 48.96 C 381.00 49.01 394.00 48.99 407.00 48.97 C 415.59 49.27 424.28 50.24 432.61 52.42 C 439.51 54.24 446.59 54.21 453.38 56.61 C 469.58 60.92 485.42 66.34 500.67 73.33 C 507.48 76.79 514.21 79.64 520.53 83.95 C 488.92 84.58 457.23 83.10 425.63 84.11 C 415.06 83.49 404.59 83.80 394.00 83.73 C 376.81 83.90 359.58 83.35 342.41 84.09 C 316.96 83.33 291.46 84.08 266.00 84.10 C 259.78 84.25 253.59 84.05 247.38 83.79 C 262.33 74.96 278.23 68.18 294.60 62.46 C 301.92 59.88 309.49 58.24 316.88 55.87 C 322.47 54.08 328.20 54.20 333.85 52.80 C 344.92 49.82 356.55 48.72 368.00 48.96 Z" fill="#15262d" />
<path d="M 132.85 83.97 C 147.70 84.07 162.53 83.93 177.38 84.08 C 170.85 90.64 164.28 97.19 157.77 103.77 C 140.82 122.50 125.36 143.10 113.48 165.43 C 107.05 176.44 101.99 188.28 97.01 200.00 C 92.13 212.96 87.25 225.53 84.05 239.03 C 80.35 254.50 76.92 270.33 75.40 286.18 C 74.78 294.92 73.77 303.27 73.97 312.00 C 74.15 320.83 73.60 329.57 74.49 338.39 C 75.79 359.90 79.93 380.81 85.32 401.64 C 98.78 448.57 122.07 492.78 155.18 528.83 C 167.34 543.17 181.92 555.75 196.72 567.29 C 206.80 574.29 216.94 581.43 227.79 587.20 C 240.62 594.86 254.47 600.88 268.50 605.94 C 268.50 609.63 268.50 613.31 268.49 617.00 C 273.08 617.00 277.66 617.00 282.25 617.00 C 282.28 610.83 282.20 604.66 282.34 598.50 C 284.43 599.31 287.00 599.60 288.26 601.68 C 291.41 606.59 293.82 611.98 296.79 617.02 C 301.94 616.99 307.10 617.00 312.25 617.01 C 308.19 610.28 305.91 600.85 298.49 597.38 C 303.13 595.82 305.67 593.98 308.00 589.64 C 311.49 590.50 314.99 591.36 318.50 592.20 C 318.48 600.47 318.49 608.74 318.49 617.00 C 330.91 617.02 343.34 617.01 355.76 617.01 C 355.76 613.67 355.76 610.32 355.76 606.98 C 347.92 606.98 340.09 606.98 332.26 606.98 C 332.26 604.08 332.27 601.17 332.27 598.26 C 339.33 598.10 346.56 598.76 353.56 597.78 C 358.41 596.72 362.80 597.07 367.59 598.17 C 365.22 604.45 362.83 610.72 360.48 617.01 C 365.17 617.02 369.85 617.02 374.54 617.02 C 375.25 614.59 375.96 612.17 376.67 609.75 C 381.88 609.76 387.09 609.76 392.30 609.76 C 393.01 612.18 393.74 614.59 394.45 617.01 C 399.24 617.02 404.04 617.02 408.83 617.01 C 406.45 610.69 404.10 604.36 401.71 598.04 C 405.24 597.56 408.78 597.11 412.32 596.68 C 412.68 602.76 414.73 608.55 419.28 612.75 C 423.11 616.45 428.88 617.52 434.01 617.70 C 439.56 617.86 444.98 617.11 449.31 613.35 C 452.74 610.41 454.04 606.63 455.62 602.56 C 451.64 601.32 447.64 600.12 443.64 598.92 C 442.56 601.34 441.56 604.74 439.17 606.20 C 435.66 608.30 430.26 607.64 427.90 604.08 C 426.54 601.86 426.26 598.82 425.96 596.28 C 433.95 596.04 441.12 592.73 449.00 592.03 C 452.72 591.65 456.12 590.91 459.65 589.68 C 464.96 587.83 469.87 587.11 474.81 584.55 C 474.60 595.36 474.80 606.19 474.75 617.00 C 479.33 617.00 483.92 617.00 488.50 617.00 C 488.50 605.84 488.51 594.68 488.52 583.52 C 493.18 583.51 497.85 583.51 502.52 583.51 C 502.51 580.45 502.52 577.39 502.51 574.33 C 512.93 569.98 523.05 564.60 532.72 558.77 C 542.30 553.42 551.11 546.52 559.88 539.93 C 571.67 530.17 583.04 520.66 592.90 508.88 C 608.92 491.02 622.74 471.03 633.70 449.68 C 648.74 420.82 658.38 389.16 663.11 357.00 C 664.79 345.37 664.84 333.67 665.96 322.00 C 666.49 315.34 665.12 308.76 665.03 302.00 C 664.48 282.75 660.78 264.47 656.21 245.84 C 651.69 228.95 645.96 212.41 638.40 196.63 C 632.53 183.28 624.60 170.53 616.75 158.24 C 606.70 143.45 595.75 129.57 582.75 117.25 C 570.76 104.61 557.23 93.78 542.81 84.05 C 554.29 83.79 565.77 84.16 577.25 83.83 C 596.58 83.94 615.90 84.14 635.23 83.94 C 641.12 83.95 646.89 84.08 652.65 85.40 C 659.78 87.03 666.59 90.25 672.56 94.45 C 683.17 101.89 690.89 113.36 694.23 125.84 C 695.76 131.49 696.00 137.18 695.98 143.00 C 695.92 157.67 695.86 172.33 696.15 187.00 C 696.20 273.66 696.17 360.34 696.17 447.00 C 696.16 453.67 695.95 460.33 695.93 467.00 C 696.01 519.34 695.71 571.66 695.88 624.00 C 696.47 637.03 693.08 649.87 685.44 660.51 C 676.48 673.20 662.04 681.65 646.63 683.48 C 640.49 684.11 634.17 683.82 628.00 683.84 C 465.33 683.84 302.67 683.84 140.00 683.84 C 132.18 683.79 123.74 684.36 116.14 682.61 C 108.30 680.85 100.78 677.45 94.36 672.62 C 82.29 663.61 74.30 649.57 72.52 634.63 C 71.86 628.16 72.20 621.51 72.16 615.00 C 72.12 583.00 72.25 551.00 72.05 519.00 C 71.99 495.33 72.24 471.66 71.84 448.00 C 71.81 361.00 71.80 274.00 71.85 187.00 C 72.13 172.67 72.09 158.33 72.02 144.00 C 72.01 138.98 72.07 133.95 73.04 129.01 C 74.56 121.05 78.14 113.41 82.87 106.85 C 90.12 96.77 101.10 89.41 112.99 85.99 C 119.58 84.10 126.06 83.98 132.85 83.97 Z" fill="#18232b" />
<path d="M 177.38 84.08 C 181.83 83.92 186.29 83.89 190.74 83.92 C 209.30 84.42 227.85 83.38 246.38 84.06 C 239.59 87.87 233.05 92.17 226.77 96.78 C 216.87 103.98 207.26 110.88 198.73 119.73 C 193.83 124.82 188.63 129.64 183.79 134.79 C 167.65 153.03 153.63 173.05 142.97 194.99 C 136.70 207.08 131.62 219.63 127.52 232.62 C 121.91 249.64 117.83 267.15 115.74 284.96 C 114.72 292.96 113.73 300.91 113.95 309.00 C 114.22 319.50 113.45 329.85 114.56 340.18 C 115.62 350.58 116.73 360.78 119.02 370.99 C 121.50 381.65 123.63 392.31 127.35 402.64 C 139.46 440.75 160.44 476.07 187.74 505.26 C 192.94 510.38 197.94 515.72 203.35 520.61 C 226.45 541.00 253.29 557.90 282.13 568.84 C 284.68 569.94 287.10 571.26 289.60 572.46 C 282.59 572.53 275.57 572.39 268.57 572.57 C 268.38 583.69 268.56 594.82 268.50 605.94 C 254.47 600.88 240.62 594.86 227.79 587.20 C 216.94 581.43 206.80 574.29 196.72 567.29 C 181.92 555.75 167.34 543.17 155.18 528.83 C 122.07 492.78 98.78 448.57 85.32 401.64 C 79.93 380.81 75.79 359.90 74.49 338.39 C 73.60 329.57 74.15 320.83 73.97 312.00 C 73.77 303.27 74.78 294.92 75.40 286.18 C 76.92 270.33 80.35 254.50 84.05 239.03 C 87.25 225.53 92.13 212.96 97.01 200.00 C 101.99 188.28 107.05 176.44 113.48 165.43 C 125.36 143.10 140.82 122.50 157.77 103.77 C 164.28 97.19 170.85 90.64 177.38 84.08 Z" fill="#1a272f" />
<path d="M 246.38 84.06 L 247.38 83.79 C 253.59 84.05 259.78 84.25 266.00 84.10 C 291.46 84.08 316.96 83.33 342.41 84.09 C 322.79 88.13 303.64 93.05 285.30 101.26 C 263.47 110.64 243.06 123.50 225.31 139.32 C 220.46 143.79 215.97 148.64 211.22 153.22 C 200.66 163.89 191.90 176.11 183.60 188.62 C 170.74 209.79 160.81 232.61 154.64 256.63 C 150.51 273.93 147.16 292.18 146.93 310.00 C 147.11 318.90 146.57 327.81 147.40 336.63 C 150.14 367.74 158.35 398.69 172.30 426.68 C 177.02 435.51 181.81 444.35 187.24 452.76 C 197.72 468.29 210.08 482.45 223.83 495.15 C 234.53 504.41 245.35 513.26 257.66 520.34 C 283.32 535.96 312.03 546.38 341.63 551.41 C 352.64 552.58 362.95 555.05 374.00 555.05 C 380.67 555.04 387.33 555.05 394.00 555.06 C 403.90 555.03 413.23 553.06 423.01 551.98 C 429.49 551.30 435.69 549.65 442.04 548.33 C 450.76 546.54 459.32 543.80 467.66 540.71 C 495.41 531.04 521.36 515.87 543.25 496.25 C 551.59 487.78 560.26 479.89 567.72 470.72 C 588.80 445.14 603.48 415.22 612.42 383.38 C 617.35 364.74 620.76 345.30 621.07 326.00 C 620.88 316.78 621.45 307.71 620.53 298.61 C 617.29 263.00 606.85 227.23 588.61 196.36 C 580.95 182.17 571.26 169.42 560.54 157.41 C 548.37 143.85 534.64 131.72 519.57 121.46 C 500.09 108.51 478.77 98.43 456.37 91.68 C 446.30 88.30 435.93 86.66 425.63 84.11 C 457.23 83.10 488.92 84.58 520.53 83.95 C 527.96 84.02 535.38 84.23 542.81 84.05 C 557.23 93.78 570.76 104.61 582.75 117.25 C 595.75 129.57 606.70 143.45 616.75 158.24 C 624.60 170.53 632.53 183.28 638.40 196.63 C 645.96 212.41 651.69 228.95 656.21 245.84 C 660.78 264.47 664.48 282.75 665.03 302.00 C 665.12 308.76 666.49 315.34 665.96 322.00 C 664.84 333.67 664.79 345.37 663.11 357.00 C 658.38 389.16 648.74 420.82 633.70 449.68 C 622.74 471.03 608.92 491.02 592.90 508.88 C 583.04 520.66 571.67 530.17 559.88 539.93 C 551.11 546.52 542.30 553.42 532.72 558.77 C 523.05 564.60 512.93 569.98 502.51 574.33 L 502.51 572.51 C 488.59 572.52 474.67 572.49 460.75 572.52 C 460.76 576.17 460.76 579.83 460.77 583.49 C 465.48 583.49 470.20 583.48 474.91 583.52 L 474.81 584.55 C 469.87 587.11 464.96 587.83 459.65 589.68 C 456.12 590.91 452.72 591.65 449.00 592.03 C 441.12 592.73 433.95 596.04 425.96 596.28 C 425.98 592.66 426.08 588.38 428.32 585.34 C 430.81 581.93 436.06 581.22 439.53 583.44 C 441.11 584.67 442.23 586.63 443.39 588.23 C 447.32 587.36 451.25 586.51 455.16 585.59 C 453.36 581.79 451.84 578.26 448.35 575.65 C 443.49 571.95 436.83 571.58 430.98 572.12 C 425.36 572.67 420.07 575.04 416.65 579.64 C 412.95 584.54 412.22 590.71 412.32 596.68 C 408.78 597.11 405.24 597.56 401.71 598.04 C 398.47 589.54 395.28 581.02 392.09 572.50 C 387.14 572.50 382.18 572.50 377.22 572.51 C 374.00 581.06 370.83 589.62 367.59 598.17 C 362.80 597.07 358.41 596.72 353.56 597.78 C 353.52 594.94 353.48 592.10 353.46 589.25 C 346.39 589.26 339.32 589.25 332.24 589.25 C 332.24 586.84 332.24 584.42 332.24 582.00 C 339.91 582.00 347.58 582.00 355.25 582.00 C 355.25 578.84 355.25 575.67 355.25 572.51 C 343.03 572.56 330.79 572.39 318.58 572.58 C 318.37 579.12 318.58 585.67 318.50 592.20 C 314.99 591.36 311.49 590.50 308.00 589.64 C 308.89 584.64 308.87 579.75 304.95 576.03 C 301.16 572.39 294.50 572.91 289.60 572.46 C 287.10 571.26 284.68 569.94 282.13 568.84 C 253.29 557.90 226.45 541.00 203.35 520.61 C 197.94 515.72 192.94 510.38 187.74 505.26 C 160.44 476.07 139.46 440.75 127.35 402.64 C 123.63 392.31 121.50 381.65 119.02 370.99 C 116.73 360.78 115.62 350.58 114.56 340.18 C 113.45 329.85 114.22 319.50 113.95 309.00 C 113.73 300.91 114.72 292.96 115.74 284.96 C 117.83 267.15 121.91 249.64 127.52 232.62 C 131.62 219.63 136.70 207.08 142.97 194.99 C 153.63 173.05 167.65 153.03 183.79 134.79 C 188.63 129.64 193.83 124.82 198.73 119.73 C 207.26 110.88 216.87 103.98 226.77 96.78 C 233.05 92.17 239.59 87.87 246.38 84.06 Z" fill="#1d2d35" />
<path d="M 342.41 84.09 C 359.58 83.35 376.81 83.90 394.00 83.73 C 404.59 83.80 415.06 83.49 425.63 84.11 C 435.93 86.66 446.30 88.30 456.37 91.68 C 478.77 98.43 500.09 108.51 519.57 121.46 C 534.64 131.72 548.37 143.85 560.54 157.41 C 571.26 169.42 580.95 182.17 588.61 196.36 C 606.85 227.23 617.29 263.00 620.53 298.61 C 621.45 307.71 620.88 316.78 621.07 326.00 C 620.76 345.30 617.35 364.74 612.42 383.38 C 603.48 415.22 588.80 445.14 567.72 470.72 C 560.26 479.89 551.59 487.78 543.25 496.25 C 521.36 515.87 495.41 531.04 467.66 540.71 C 459.32 543.80 450.76 546.54 442.04 548.33 C 435.69 549.65 429.49 551.30 423.01 551.98 C 413.23 553.06 403.90 555.03 394.00 555.06 C 387.33 555.05 380.67 555.04 374.00 555.05 C 362.95 555.05 352.64 552.58 341.63 551.41 C 312.03 546.38 283.32 535.96 257.66 520.34 C 245.35 513.26 234.53 504.41 223.83 495.15 C 210.08 482.45 197.72 468.29 187.24 452.76 C 181.81 444.35 177.02 435.51 172.30 426.68 C 158.35 398.69 150.14 367.74 147.40 336.63 C 146.57 327.81 147.11 318.90 146.93 310.00 C 147.16 292.18 150.51 273.93 154.64 256.63 C 160.81 232.61 170.74 209.79 183.60 188.62 C 191.90 176.11 200.66 163.89 211.22 153.22 C 215.97 148.64 220.46 143.79 225.31 139.32 C 243.06 123.50 263.47 110.64 285.30 101.26 C 303.64 93.05 322.79 88.13 342.41 84.09 Z" fill="#1f343b" />
<path d="M 403.00 106.86 C 412.82 107.28 422.22 109.37 431.84 111.23 C 453.92 116.29 475.16 124.79 494.61 136.41 C 530.07 157.95 558.70 190.12 576.22 227.70 C 589.07 255.75 596.55 287.08 595.98 318.00 C 596.39 329.04 595.25 339.93 593.68 350.84 C 587.43 391.61 569.19 430.81 541.23 461.23 C 513.51 492.16 476.23 514.15 435.91 523.97 C 424.82 526.57 413.39 528.77 402.01 529.29 C 387.08 530.76 372.26 529.94 357.38 528.51 C 310.37 522.67 265.16 501.00 232.24 466.77 C 216.77 451.21 204.33 433.15 194.32 413.68 C 181.12 386.63 173.33 357.09 172.04 327.00 C 172.00 320.01 171.91 312.99 172.10 306.00 C 174.02 273.67 183.12 241.38 199.18 213.20 C 205.92 201.71 213.36 190.18 222.12 180.13 C 227.59 173.55 233.74 167.82 239.75 161.75 C 248.87 153.10 259.10 145.48 269.61 138.60 C 277.52 133.37 286.43 129.30 295.01 125.03 C 308.65 118.43 323.09 114.08 337.85 110.78 C 346.89 109.10 355.76 107.08 365.00 106.84 C 377.76 105.65 390.24 105.60 403.00 106.86 Z" fill="#223d44" />
<path d="M 316.00 145.90 C 334.03 146.70 350.76 154.29 367.32 160.73 C 372.18 162.49 377.02 161.05 382.01 160.88 C 386.43 160.63 390.67 161.64 395.04 161.61 C 398.81 161.62 402.39 160.08 405.83 158.70 C 413.43 155.51 421.16 152.54 428.99 149.95 C 438.94 146.51 449.51 145.22 460.01 145.88 C 472.61 146.87 483.99 153.35 492.23 162.78 C 496.11 167.32 498.78 173.28 501.27 178.68 C 504.22 184.98 505.86 192.09 507.45 198.88 C 509.43 207.68 509.57 216.87 511.66 225.60 C 513.65 230.46 517.35 234.60 519.81 239.26 C 523.28 245.03 525.42 251.99 530.92 256.08 C 541.78 264.19 551.93 272.97 560.97 283.09 C 564.58 287.59 567.66 292.59 570.44 297.63 C 576.87 310.11 576.91 325.90 570.44 338.37 C 566.46 345.61 562.37 352.55 556.20 358.17 C 548.18 366.66 538.93 373.52 530.18 381.18 C 524.07 386.61 522.26 393.39 518.00 400.00 C 515.50 404.02 512.64 407.11 511.91 411.99 C 509.21 428.24 506.93 446.58 499.54 461.44 C 495.28 470.20 489.44 477.90 481.00 483.00 C 471.38 488.81 460.12 490.81 449.01 489.65 C 434.92 488.07 421.92 483.57 408.95 478.09 C 403.88 475.89 399.31 476.97 394.00 477.01 C 386.00 477.12 377.99 477.14 369.99 476.91 C 363.11 476.70 357.75 479.47 351.43 481.66 C 343.17 484.82 334.65 487.25 326.00 489.07 C 316.39 490.93 305.90 490.83 296.61 487.49 C 287.10 484.18 278.24 477.60 273.10 468.84 C 270.44 464.42 267.86 459.82 266.04 454.98 C 261.39 441.73 258.77 427.87 257.18 413.95 C 256.54 408.40 252.88 404.60 250.11 399.95 C 247.13 395.38 245.03 390.35 242.19 385.72 C 239.18 380.77 234.10 378.00 229.76 374.26 C 225.09 370.26 220.13 366.54 215.83 362.20 C 211.77 358.05 207.65 354.49 204.44 349.59 C 201.40 344.91 198.14 340.15 195.98 334.99 C 192.69 326.77 191.81 317.50 193.69 308.83 C 195.55 299.54 200.96 291.11 206.59 283.63 C 214.56 274.46 223.57 266.65 233.03 259.08 C 236.22 256.57 239.59 254.39 241.82 250.92 C 244.23 247.19 245.85 242.99 248.13 239.17 C 250.18 235.60 252.79 232.34 254.66 228.70 C 256.72 224.63 257.06 220.40 257.66 215.96 C 258.87 207.01 259.79 198.28 262.47 189.61 C 265.96 177.59 271.42 165.40 281.24 157.23 C 290.71 149.23 303.61 144.94 316.00 145.90 Z" fill="#284e55" />
<path d="M 312.99 151.79 C 324.61 152.57 335.52 156.10 345.98 161.09 C 355.12 165.20 363.50 170.56 371.56 176.49 C 375.10 178.97 379.56 182.16 384.01 182.33 C 388.39 182.11 392.77 178.71 396.26 176.26 C 404.28 170.24 412.78 164.98 421.95 160.87 C 430.25 156.75 438.95 153.69 448.12 152.25 C 456.46 150.77 464.98 151.72 472.72 155.19 C 482.75 159.47 490.33 168.70 494.35 178.66 C 499.22 190.40 500.45 202.43 501.07 215.01 C 501.02 224.01 500.44 233.03 499.69 242.00 C 499.58 245.47 499.45 249.23 502.21 251.78 C 506.57 255.80 513.06 257.99 518.33 260.65 C 534.67 268.87 549.65 278.33 560.93 293.04 C 567.78 302.54 571.49 314.21 568.83 325.88 C 565.89 339.09 556.17 350.57 545.60 358.58 C 534.72 366.88 522.86 373.85 510.30 379.28 C 506.83 381.03 501.40 383.27 500.69 387.60 C 499.64 393.49 500.80 400.05 501.17 406.00 C 501.98 418.63 501.57 431.59 499.05 444.00 C 497.23 451.86 494.53 460.18 489.87 466.84 C 484.22 474.97 475.72 481.01 465.98 483.07 C 455.90 485.74 445.42 483.12 435.67 480.31 C 421.37 475.34 408.13 468.05 395.97 459.08 C 392.43 456.65 387.47 452.98 382.96 453.74 C 377.23 454.95 372.09 460.06 367.19 463.16 C 352.83 472.71 336.11 481.39 318.88 483.86 C 305.93 485.97 291.84 482.01 282.90 472.13 C 275.05 463.95 271.77 453.77 269.20 442.98 C 266.26 427.69 266.68 412.42 268.10 397.00 C 268.40 392.72 268.99 387.63 265.74 384.26 C 262.73 381.24 258.15 379.46 254.35 377.64 C 243.86 372.98 233.96 367.10 224.70 360.32 C 217.81 355.32 211.63 349.25 206.61 342.38 C 201.23 334.57 197.54 324.96 198.40 315.35 C 199.26 304.95 204.45 295.09 211.61 287.63 C 221.57 276.67 234.57 268.37 247.66 261.65 C 252.70 259.03 258.26 257.04 263.01 253.95 C 265.25 252.41 267.27 250.81 267.53 247.90 C 268.38 239.49 266.62 230.60 266.48 222.14 C 266.29 213.20 267.17 204.20 268.44 195.36 C 270.45 184.65 274.41 173.02 281.82 164.81 C 289.60 156.23 301.44 151.35 312.99 151.79 Z" fill="#326c72" />
<path d="M 302.04 157.02 C 312.54 154.80 323.80 157.52 333.57 161.45 C 349.91 168.07 365.06 179.09 378.35 190.55 C 380.19 192.23 382.01 193.94 383.84 195.64 C 385.53 194.05 387.23 192.46 388.94 190.90 C 401.48 179.94 415.47 169.57 430.69 162.68 C 440.73 158.19 452.42 154.70 463.49 156.34 C 471.55 157.46 478.80 161.85 483.71 168.32 C 489.90 176.39 492.81 187.02 494.11 196.96 C 496.28 213.69 494.56 231.27 491.45 247.79 C 490.86 250.84 490.18 253.88 489.55 256.92 C 491.68 257.59 493.81 258.25 495.93 258.93 C 509.60 263.37 522.95 269.24 535.20 276.78 C 545.74 283.39 556.72 292.31 562.39 303.62 C 566.66 311.89 567.18 321.70 563.43 330.26 C 558.72 341.30 549.19 349.81 539.53 356.54 C 526.48 365.35 511.86 371.94 496.94 376.86 C 494.61 377.61 492.28 378.36 489.95 379.12 C 490.50 381.72 491.04 384.33 491.60 386.93 C 494.97 402.95 496.53 419.64 495.02 435.97 C 493.79 448.08 490.41 461.67 481.61 470.61 C 476.70 475.83 470.22 478.40 463.30 479.68 C 451.15 480.52 439.82 477.15 428.95 472.01 C 415.89 465.77 404.03 457.33 392.98 448.04 C 390.44 445.94 388.09 443.47 385.32 441.69 C 383.98 440.53 382.38 442.56 381.25 443.23 C 366.70 456.11 349.97 468.75 331.67 475.68 C 322.76 479.11 313.37 480.81 303.83 479.73 C 296.56 478.33 289.86 474.63 285.15 468.86 C 278.07 460.33 275.05 448.80 273.73 438.00 C 271.79 421.58 273.50 404.33 276.56 388.14 C 277.14 385.20 277.84 382.31 278.51 379.39 C 275.78 378.41 273.04 377.43 270.28 376.53 C 254.14 371.11 238.12 363.81 224.43 353.60 C 216.62 347.63 208.95 340.08 204.89 331.00 C 201.92 324.51 201.18 317.08 203.09 310.18 C 205.32 301.91 210.80 294.74 216.91 288.90 C 226.32 279.96 238.04 273.18 249.74 267.71 C 257.01 264.35 264.47 261.32 272.13 258.96 C 274.17 258.32 276.21 257.66 278.25 257.01 C 277.58 253.96 276.89 250.91 276.27 247.84 C 273.21 232.74 271.89 217.43 272.95 202.03 C 273.85 191.08 276.44 179.03 282.86 169.90 C 287.39 163.34 294.19 158.59 302.04 157.02 Z" fill="#60dafb" />
<path d="M 327.87 177.03 C 344.16 184.02 358.92 195.22 371.72 207.37 C 360.88 219.14 350.84 231.48 341.22 244.27 C 331.52 245.39 321.89 246.81 312.28 248.55 C 307.79 248.66 302.90 248.81 298.57 247.50 C 295.17 246.17 293.60 241.05 291.80 238.11 L 291.87 240.17 C 290.40 231.84 289.34 223.47 289.27 215.00 C 289.10 205.00 289.78 193.98 293.65 184.63 C 295.73 179.85 298.58 175.36 303.87 173.80 C 311.48 171.35 320.70 174.12 327.87 177.03 Z" fill="#367b80" />
<path d="M 453.98 172.77 C 459.03 172.19 464.79 172.64 468.66 176.32 C 473.64 180.87 475.86 188.52 477.09 194.95 C 479.62 209.31 478.49 224.61 476.22 238.95 C 474.81 241.87 472.97 245.32 470.22 247.19 C 467.05 249.17 462.48 249.19 458.86 249.23 C 448.24 247.10 437.52 245.58 426.77 244.28 C 421.71 237.98 416.91 231.49 411.73 225.29 C 406.67 219.12 401.24 213.28 396.06 207.22 C 406.73 197.04 418.66 187.68 431.66 180.65 C 438.54 177.01 446.21 173.76 453.98 172.77 Z" fill="#367b80" />
<path d="M 463.06 177.85 C 468.53 180.45 471.29 185.53 472.87 191.14 C 476.21 204.21 475.20 216.84 473.31 230.03 C 472.72 233.45 471.96 237.21 470.22 240.24 C 468.90 242.52 466.74 244.15 464.05 244.33 C 458.45 244.67 452.52 242.95 447.02 241.97 C 440.46 240.55 432.93 239.91 427.68 235.35 C 422.37 230.72 418.04 224.89 413.33 219.65 C 410.69 216.46 406.88 212.30 406.67 207.99 C 406.71 204.10 410.43 200.56 413.10 198.09 C 421.61 190.62 431.30 184.20 441.66 179.60 C 448.13 176.93 456.38 174.58 463.06 177.85 Z" fill="#2f656b" />
<path d="M 319.18 177.57 C 328.41 180.07 337.26 185.58 345.17 190.85 C 349.87 194.20 355.17 197.71 358.68 202.35 C 360.54 205.04 362.13 208.14 360.39 211.34 C 357.84 216.35 353.54 220.65 349.92 224.92 C 346.25 229.00 342.53 234.02 337.90 236.99 C 333.09 240.09 326.40 240.75 320.87 241.93 C 316.01 242.84 310.92 244.24 305.99 244.41 C 303.61 244.48 301.35 244.15 299.54 242.48 C 296.27 239.59 295.22 234.49 294.48 230.38 C 292.56 218.11 291.47 204.78 294.57 192.62 C 295.95 187.51 298.34 181.87 303.06 178.99 C 308.01 175.94 313.74 176.14 319.18 177.57 Z" fill="#2f656b" />
<path d="M 322.61 182.61 C 330.66 185.82 338.26 190.62 345.05 195.97 C 348.10 198.40 351.55 200.93 353.88 204.08 C 355.18 205.95 356.21 208.02 355.24 210.29 C 353.45 214.27 349.67 217.55 346.87 220.85 C 342.51 225.61 338.35 231.65 332.10 233.97 C 326.36 236.07 320.10 236.88 314.16 238.25 C 311.15 238.77 307.72 239.77 304.68 239.21 C 301.28 238.18 300.19 234.74 299.37 231.66 C 297.76 224.59 297.22 217.23 296.97 210.00 C 296.88 203.51 297.00 196.30 299.23 190.14 C 300.54 186.65 302.74 182.95 306.35 181.50 C 311.68 179.31 317.45 180.60 322.61 182.61 Z" fill="#295359" />
<path d="M 451.17 180.47 C 455.95 179.77 461.59 180.03 465.06 183.87 C 469.68 188.86 470.40 196.51 470.70 202.99 C 471.11 212.87 470.56 222.94 468.37 232.60 C 467.61 235.65 466.10 238.72 462.69 239.31 C 459.40 239.63 455.92 238.80 452.67 238.29 C 446.85 237.15 440.48 236.25 435.04 233.83 C 428.78 231.01 424.51 224.91 420.05 219.90 C 417.58 216.93 414.30 214.04 412.63 210.54 C 411.12 206.71 413.71 203.77 416.22 201.23 C 421.74 196.02 427.97 191.46 434.46 187.54 C 439.59 184.59 445.30 181.53 451.17 180.47 Z" fill="#295359" />
<path d="M 378.35 190.55 C 381.89 190.53 385.41 190.65 388.94 190.90 C 387.23 192.46 385.53 194.05 383.84 195.64 C 382.01 193.94 380.19 192.23 378.35 190.55 Z" fill="#3b8e92" />
<path d="M 383.75 219.17 C 391.09 226.44 397.76 234.32 404.00 242.55 C 390.59 242.15 377.24 242.17 363.83 242.52 C 369.93 234.17 376.47 226.51 383.75 219.17 Z" fill="#3e9599" />
<path d="M 380.31 226.31 C 384.50 224.67 388.83 226.02 391.49 229.57 C 393.59 232.40 394.83 236.07 391.76 238.75 C 387.59 242.30 378.81 241.83 374.96 238.00 C 372.56 233.23 375.65 228.08 380.31 226.31 Z" fill="#367e82" />
<path d="M 291.80 238.11 C 293.60 241.05 295.17 246.17 298.57 247.50 C 302.90 248.81 307.79 248.66 312.28 248.55 C 306.63 249.46 299.95 251.82 294.40 251.97 C 292.97 248.24 292.43 244.11 291.87 240.17 L 291.80 238.11 Z" fill="#3d8f93" />
<path d="M 476.22 238.95 C 475.52 243.49 474.57 247.98 473.48 252.44 C 468.61 251.35 463.75 250.20 458.86 249.23 C 462.48 249.19 467.05 249.17 470.22 247.19 C 472.97 245.32 474.81 241.87 476.22 238.95 Z" fill="#3e9094" />
<path d="M 276.27 247.84 C 276.89 250.91 277.58 253.96 278.25 257.01 C 276.21 257.66 274.17 258.32 272.13 258.96 C 274.34 255.48 275.90 252.01 276.27 247.84 Z" fill="#429ba3" />
<path d="M 491.45 247.79 C 492.48 251.69 494.15 255.32 495.93 258.93 C 493.81 258.25 491.68 257.59 489.55 256.92 C 490.18 253.88 490.86 250.84 491.45 247.79 Z" fill="#3c9296" />
<path d="M 417.44 260.43 C 430.10 278.61 441.35 297.87 450.67 317.98 C 441.34 338.16 430.19 357.45 417.60 375.77 C 395.42 377.89 372.65 377.93 350.47 375.80 C 337.91 357.52 326.63 338.42 317.32 318.28 C 326.62 298.08 337.77 278.67 350.48 260.43 C 372.71 258.29 395.21 258.36 417.44 260.43 Z" fill="#3c8b8f" />
<path d="M 395.00 261.70 C 400.58 262.02 407.07 261.76 412.33 263.78 C 417.15 265.67 420.35 269.65 423.22 273.78 C 429.43 283.01 434.93 292.92 440.28 302.67 C 442.72 307.25 444.96 311.71 445.23 317.00 C 445.48 321.68 444.01 325.88 442.00 330.03 C 438.53 337.06 434.49 343.83 430.60 350.64 C 426.98 356.82 423.13 363.96 417.79 368.81 C 414.54 371.88 410.44 373.39 406.03 373.85 C 394.45 375.12 382.65 374.81 371.01 374.60 C 365.04 374.24 357.44 374.19 352.43 370.56 C 346.71 366.56 342.74 359.67 339.20 353.79 C 334.58 346.05 329.94 338.12 325.97 330.02 C 323.97 325.86 322.48 321.70 322.78 317.00 C 323.13 311.05 326.39 305.22 329.16 300.05 C 334.56 290.34 339.98 280.46 346.47 271.43 C 350.06 266.44 354.88 263.03 361.12 262.43 C 372.37 261.42 383.72 261.04 395.00 261.70 Z" fill="#35797e" />
<path d="M 328.50 263.00 C 326.14 266.93 323.78 270.86 321.43 274.80 C 320.96 272.65 320.71 270.24 319.72 268.26 C 318.28 265.90 314.33 265.90 311.91 265.64 C 317.42 264.51 322.91 263.62 328.50 263.00 Z" fill="#419b9f" />
<path d="M 439.50 263.08 C 445.03 263.44 450.64 264.61 456.09 265.65 C 453.56 265.91 449.90 266.00 447.95 267.86 C 447.13 270.09 446.94 272.60 446.59 274.94 C 444.25 270.97 441.65 267.14 439.50 263.08 Z" fill="#419b9f" />
<path d="M 311.91 265.64 C 314.33 265.90 318.28 265.90 319.72 268.26 C 320.71 270.24 320.96 272.65 321.43 274.80 C 318.86 278.96 316.42 283.18 314.15 287.51 C 310.15 287.68 307.43 287.18 303.79 285.59 C 301.87 280.02 300.04 274.45 298.90 268.65 C 303.23 267.64 307.54 266.49 311.91 265.64 Z" fill="#378387" />
<path d="M 383.00 266.00 C 390.83 266.00 399.35 265.31 407.06 266.81 C 410.87 267.52 414.21 269.29 416.77 272.22 C 421.47 277.58 424.85 284.47 428.43 290.62 C 432.59 297.73 437.30 305.14 440.14 312.89 C 441.57 316.80 441.20 320.84 439.59 324.62 C 435.41 334.59 429.01 344.22 423.74 353.70 C 420.89 358.58 417.53 364.48 412.54 367.42 C 407.76 370.28 401.40 370.13 396.00 370.21 C 386.66 370.09 377.33 370.26 368.00 370.17 C 362.37 369.97 356.94 369.42 352.69 365.32 C 347.36 360.01 343.59 352.56 339.81 346.09 C 335.97 339.33 331.45 332.62 328.54 325.40 C 326.81 321.11 326.36 316.48 328.14 312.12 C 332.03 302.46 338.07 293.28 343.18 284.20 C 346.59 278.57 350.61 270.62 356.99 268.00 C 364.73 264.90 374.77 266.12 383.00 266.00 Z" fill="#30696e" />
<path d="M 456.09 265.65 C 460.44 266.49 464.73 267.66 469.04 268.70 C 467.50 275.05 465.42 281.22 463.29 287.39 C 460.18 287.41 457.05 287.41 453.94 287.56 C 451.67 283.24 449.16 279.08 446.59 274.94 C 446.94 272.60 447.13 270.09 447.95 267.86 C 449.90 266.00 453.56 265.91 456.09 265.65 Z" fill="#388388" />
<path d="M 485.69 273.44 C 488.82 273.93 491.88 275.14 494.86 276.16 C 508.90 281.12 523.28 287.70 535.07 296.91 C 540.50 301.22 546.33 306.77 548.67 313.46 C 550.31 318.04 549.17 322.68 546.72 326.71 C 542.97 332.89 536.94 338.00 531.07 342.10 C 517.43 351.58 501.61 358.05 485.77 362.84 C 481.01 347.53 475.51 332.63 469.11 317.93 C 474.07 306.02 478.87 294.09 482.74 281.77 C 483.63 279.01 484.43 276.06 485.69 273.44 Z" fill="#388085" />
<path d="M 282.16 273.21 C 286.93 288.53 292.43 303.45 298.84 318.17 C 292.53 332.85 287.07 347.66 282.39 362.95 C 269.06 359.05 256.20 353.74 244.16 346.79 C 236.73 342.42 229.20 337.01 223.71 330.29 C 220.04 325.72 217.30 320.16 219.08 314.18 C 221.21 307.03 227.71 300.95 233.43 296.45 C 247.64 285.63 265.15 278.33 282.16 273.21 Z" fill="#398488" />
<path d="M 378.35 279.30 C 386.57 277.62 395.70 280.14 403.00 283.98 C 411.38 289.01 418.72 297.26 421.28 306.86 C 423.37 313.42 423.81 320.20 421.91 326.87 C 418.36 342.93 403.38 355.81 387.01 357.14 C 377.54 357.98 367.65 354.61 360.07 348.99 C 353.39 344.12 348.73 336.46 346.30 328.65 C 342.44 316.87 345.87 303.09 353.52 293.56 C 359.74 285.82 368.68 281.12 378.35 279.30 Z" fill="#378185" />
<path d="M 275.68 280.23 C 278.46 280.78 280.62 282.57 282.01 285.00 C 284.55 289.40 286.00 294.56 287.79 299.31 C 290.01 305.66 293.05 312.16 292.83 319.01 C 292.79 324.64 290.30 330.11 288.51 335.39 C 286.54 340.81 285.00 346.98 281.90 351.86 C 280.32 354.36 278.08 356.05 275.03 356.15 C 268.74 356.48 261.95 353.35 256.29 350.83 C 245.43 345.62 234.31 339.96 226.29 330.71 C 222.97 326.92 220.88 322.25 221.33 317.13 C 221.90 309.94 226.97 303.74 232.40 299.39 C 242.25 291.75 253.35 286.25 264.99 281.90 C 268.36 280.71 272.09 279.57 275.68 280.23 Z" fill="#326d73" />
<path d="M 491.98 280.87 C 495.17 280.26 498.80 281.20 501.85 282.19 C 512.70 285.86 522.86 291.21 532.25 297.74 C 537.92 301.76 543.18 306.87 545.45 313.62 C 546.94 318.08 545.94 322.65 543.63 326.63 C 540.37 332.26 534.67 336.78 529.33 340.36 C 521.42 345.47 512.93 349.82 504.10 353.11 C 500.41 354.42 495.91 355.83 491.97 355.13 C 488.96 354.49 487.07 351.88 485.68 349.34 C 483.20 344.57 481.69 339.18 479.87 334.12 C 478.17 329.04 475.77 323.38 475.72 318.00 C 475.70 312.38 478.34 306.43 480.07 301.11 C 481.75 296.31 483.16 291.11 485.59 286.64 C 487.03 284.10 488.95 281.50 491.98 280.87 Z" fill="#30696f" />
<path d="M 378.45 284.55 C 385.55 283.50 392.83 284.45 399.24 287.76 C 409.00 292.63 416.02 302.37 417.52 313.19 C 419.18 324.65 414.78 336.41 405.94 343.90 C 396.57 352.02 382.87 354.21 371.37 349.63 C 358.24 344.46 349.40 331.14 349.99 316.99 C 350.29 301.03 362.67 286.93 378.45 284.55 Z" fill="#60dafb" />
<path d="M 276.60 286.38 C 280.54 289.87 281.89 296.56 283.68 301.35 C 285.84 307.94 288.61 313.69 287.73 320.84 C 286.81 327.66 283.91 334.32 281.91 340.90 C 280.77 344.01 279.52 348.72 276.40 350.39 C 272.34 352.69 267.63 350.78 263.62 349.36 C 252.01 344.63 240.46 339.50 231.31 330.68 C 227.35 326.73 224.13 321.13 225.44 315.36 C 226.86 309.79 231.18 305.01 235.65 301.61 C 244.00 295.16 254.14 290.74 263.89 286.87 C 267.46 285.64 273.34 283.59 276.60 286.38 Z" fill="#2b5b61" />
<path d="M 303.79 285.59 C 307.43 287.18 310.15 287.68 314.15 287.51 C 312.33 290.88 310.49 294.24 308.64 297.59 C 306.89 293.62 305.19 289.70 303.79 285.59 Z" fill="#419b9f" />
<path d="M 498.63 286.37 C 503.19 287.20 507.65 289.25 511.90 291.09 C 519.79 294.64 527.87 298.85 534.44 304.55 C 538.62 308.35 542.43 313.00 541.89 319.03 C 541.43 325.28 536.14 330.80 531.30 334.31 C 522.11 340.74 511.90 345.93 501.17 349.22 C 497.82 350.10 492.78 350.96 490.49 347.60 C 487.98 343.79 486.87 338.91 485.38 334.64 C 483.61 328.87 480.90 322.24 481.39 316.16 C 481.84 310.70 484.19 305.08 485.89 299.88 C 487.17 296.32 488.12 292.31 490.14 289.09 C 492.09 286.30 495.48 285.85 498.63 286.37 Z" fill="#2a575d" />
<path d="M 453.94 287.56 C 457.05 287.41 460.18 287.41 463.29 287.39 C 462.12 290.78 460.73 294.07 459.30 297.36 C 457.47 294.11 455.66 290.87 453.94 287.56 Z" fill="#419b9f" />
<path d="M 274.89 294.25 C 276.09 298.12 277.14 302.02 277.75 306.02 C 278.59 311.87 279.99 317.05 279.01 322.98 C 278.20 328.00 277.57 333.16 276.12 338.04 C 275.21 340.85 273.81 343.88 270.65 344.63 C 267.55 345.07 264.06 343.83 261.09 342.96 C 252.02 340.19 243.48 335.83 235.94 330.08 C 232.32 327.21 229.26 323.86 228.93 319.02 C 228.50 314.30 230.81 310.32 234.28 307.32 C 240.56 301.87 248.27 297.94 255.97 294.92 C 262.09 292.50 268.44 294.01 274.89 294.25 Z" fill="#295157" />
<path d="M 504.95 296.52 C 505.93 296.34 507.00 296.49 507.98 296.61 C 518.02 298.43 527.41 303.15 534.66 310.34 C 538.18 313.95 539.53 320.01 536.17 324.17 C 532.82 328.40 528.14 331.68 523.56 334.47 C 515.94 338.74 507.23 342.00 498.39 342.00 C 496.74 336.26 494.98 329.98 494.97 323.97 C 494.67 320.33 498.17 317.88 499.61 314.76 C 500.16 311.78 499.28 308.56 499.83 305.60 C 501.03 303.37 502.86 301.74 503.73 299.24 C 504.14 298.39 504.30 297.23 504.95 296.52 Z" fill="#284f56" />
<path d="M 308.49 338.65 C 310.39 341.92 312.25 345.21 314.02 348.54 C 310.92 348.56 307.82 348.57 304.72 348.58 C 305.88 345.24 307.18 341.94 308.49 338.65 Z" fill="#419ca0" />
<path d="M 459.31 338.68 C 461.30 342.45 462.76 346.55 464.19 350.56 C 460.62 348.94 457.79 348.40 453.87 348.45 C 455.62 345.18 457.30 341.79 459.31 338.68 Z" fill="#409b9f" />
<path d="M 314.02 348.54 C 316.28 352.85 318.73 357.03 321.34 361.13 C 321.00 363.44 320.81 365.91 320.04 368.12 C 318.03 369.95 314.44 370.12 311.88 370.42 C 307.53 369.57 303.22 368.45 298.91 367.43 C 300.45 361.02 302.54 354.80 304.72 348.58 C 307.82 348.57 310.92 348.56 314.02 348.54 Z" fill="#388388" />
<path d="M 464.19 350.56 C 466.11 356.10 467.87 361.67 469.12 367.40 C 463.74 368.70 458.36 369.96 452.94 371.08 C 451.35 370.08 449.56 369.14 448.21 367.81 C 447.21 365.80 447.05 363.32 446.61 361.14 C 449.19 357.00 451.62 352.78 453.87 348.45 C 457.79 348.40 460.62 348.94 464.19 350.56 Z" fill="#378387" />
<path d="M 321.34 361.13 C 323.76 365.08 326.16 369.05 328.53 373.03 C 322.91 372.44 317.41 371.58 311.88 370.42 C 314.44 370.12 318.03 369.95 320.04 368.12 C 320.81 365.91 321.00 363.44 321.34 361.13 Z" fill="#419a9e" />
<path d="M 446.61 361.14 C 447.05 363.32 447.21 365.80 448.21 367.81 C 449.56 369.14 451.35 370.08 452.94 371.08 C 448.49 371.95 444.01 372.52 439.51 373.02 C 441.86 369.05 444.23 365.09 446.61 361.14 Z" fill="#409a9e" />
<path d="M 270.28 376.53 C 273.04 377.43 275.78 378.41 278.51 379.39 C 277.84 382.31 277.14 385.20 276.56 388.14 C 275.34 383.77 272.91 380.15 270.28 376.53 Z" fill="#3c9094" />
<path d="M 496.94 376.86 C 494.78 380.07 493.06 383.35 491.60 386.93 C 491.04 384.33 490.50 381.72 489.95 379.12 C 492.28 378.36 494.61 377.61 496.94 376.86 Z" fill="#4199a0" />
<path d="M 294.33 383.81 C 297.26 384.42 300.17 385.05 303.10 385.65 C 299.40 386.82 296.12 388.75 292.88 390.84 C 293.33 388.49 293.84 386.15 294.33 383.81 Z" fill="#3f9699" />
<path d="M 473.79 384.01 C 476.36 395.56 478.36 407.14 478.67 419.00 C 478.99 429.42 478.45 440.86 474.69 450.68 C 472.53 456.13 468.97 461.44 462.89 462.78 C 456.17 464.18 448.49 462.18 442.17 459.82 C 429.85 455.08 418.45 447.33 408.16 439.15 C 405.80 436.05 402.73 432.02 402.57 428.00 C 403.00 423.65 405.76 419.37 407.87 415.61 C 414.42 407.86 420.63 399.86 426.77 391.78 C 435.53 390.76 444.26 389.54 452.95 387.98 C 459.92 386.76 466.79 385.08 473.79 384.01 Z" fill="#367b80" />
<path d="M 303.10 385.65 C 315.70 388.42 328.46 390.33 341.27 391.82 C 351.03 404.73 361.18 416.92 372.04 428.92 C 360.72 439.48 348.88 448.91 335.11 456.13 C 328.05 459.75 319.98 463.01 312.00 463.52 C 306.84 463.79 301.79 462.79 298.24 458.77 C 293.39 453.33 291.39 445.02 290.36 437.98 C 288.32 422.16 289.99 406.43 292.88 390.84 C 296.12 388.75 299.40 386.82 303.10 385.65 Z" fill="#377e83" />
<path d="M 302.09 391.19 C 307.98 390.11 314.82 392.24 320.65 393.31 C 327.51 394.93 335.41 395.14 340.81 400.17 C 346.54 405.39 351.48 411.55 356.57 417.39 C 359.06 420.47 362.58 424.80 362.08 428.98 C 361.40 433.85 356.99 437.52 353.39 440.43 C 344.33 447.53 334.25 454.44 323.37 458.36 C 317.62 460.22 310.65 461.98 304.95 459.09 C 299.84 456.73 296.56 452.23 295.04 446.90 C 290.87 433.23 292.25 417.29 294.41 403.35 C 295.31 398.91 296.92 392.34 302.09 391.19 Z" fill="#30686d" />
<path d="M 465.74 392.17 C 470.99 394.07 472.20 399.07 473.13 404.01 C 475.17 417.92 476.90 431.11 473.05 444.92 C 471.39 450.52 468.14 456.32 462.39 458.49 C 456.64 460.52 449.64 459.20 444.09 457.00 C 433.13 452.55 423.41 446.17 414.26 438.74 C 411.19 436.17 407.98 432.88 407.00 428.87 C 406.28 426.45 407.88 424.13 409.12 422.17 C 412.61 417.15 416.98 412.61 420.96 407.97 C 424.00 404.51 426.71 400.94 430.87 398.74 C 436.22 395.89 443.12 395.09 449.02 393.85 C 454.20 392.97 460.59 390.74 465.74 392.17 Z" fill="#2f656b" />
<path d="M 363.93 393.60 C 377.33 393.85 390.69 393.85 404.10 393.60 C 397.99 401.95 391.42 409.64 384.14 416.97 C 376.82 409.69 370.16 401.82 363.93 393.60 Z" fill="#3f979b" />
<path d="M 379.32 395.34 C 383.00 394.23 387.26 394.43 390.72 396.17 C 392.98 397.28 394.46 399.40 394.14 401.98 C 393.22 406.84 388.38 411.58 383.13 410.74 C 377.63 410.25 373.23 404.83 374.35 399.32 C 374.78 397.21 377.46 395.95 379.32 395.34 Z" fill="#367e83" />
<path d="M 305.12 396.40 C 310.28 396.00 315.77 397.58 320.83 398.49 C 326.21 399.65 332.58 400.63 337.05 404.00 C 340.93 406.91 344.15 411.01 347.40 414.60 C 350.49 418.35 355.42 422.52 356.47 427.38 C 356.70 430.66 353.41 434.07 351.18 436.18 C 344.06 442.40 335.78 448.03 327.33 452.29 C 322.49 454.69 316.62 456.92 311.15 456.52 C 305.44 456.04 300.71 451.40 298.99 446.11 C 296.73 439.08 296.20 431.33 296.85 424.00 C 297.51 416.54 297.68 408.19 300.19 401.11 C 301.09 398.70 302.29 396.62 305.12 396.40 Z" fill="#295359" />
<path d="M 463.32 396.79 C 467.45 398.00 468.39 403.21 469.17 406.84 C 470.87 416.71 471.45 427.01 470.66 436.99 C 470.10 442.45 468.61 449.47 464.13 453.11 C 459.52 456.77 452.86 456.07 447.64 454.28 C 436.33 450.25 425.85 443.06 416.95 435.08 C 414.67 432.84 411.19 429.18 412.77 425.71 C 414.56 421.74 418.34 418.46 421.14 415.16 C 424.86 411.07 428.44 406.05 433.33 403.36 C 438.84 400.35 445.92 399.53 452.02 398.14 C 455.61 397.53 459.69 396.19 463.32 396.79 Z" fill="#295359" />
<path d="M 407.87 415.61 C 405.76 419.37 403.00 423.65 402.57 428.00 C 402.73 432.02 405.80 436.05 408.16 439.15 C 403.95 435.86 400.00 432.41 396.14 428.72 C 399.98 424.28 403.95 419.97 407.87 415.61 Z" fill="#3c8d91" />
<path d="M 385.32 441.69 C 388.09 443.47 390.44 445.94 392.98 448.04 C 404.03 457.33 415.89 465.77 428.95 472.01 C 439.82 477.15 451.15 480.52 463.30 479.68 C 454.26 481.90 444.58 479.82 435.96 476.83 C 424.17 472.41 413.01 466.45 402.69 459.25 C 398.78 456.54 394.96 453.35 390.79 451.06 C 388.17 449.70 385.56 448.58 382.55 449.32 C 376.61 450.79 371.19 455.69 366.22 459.14 C 355.33 466.63 343.42 473.50 330.82 477.63 C 322.01 480.48 312.98 481.84 303.83 479.73 C 313.37 480.81 322.76 479.11 331.67 475.68 C 349.97 468.75 366.70 456.11 381.25 443.23 C 382.38 442.56 383.98 440.53 385.32 441.69 Z" fill="#377d82" />
<path d="M 268.57 572.57 C 275.57 572.39 282.59 572.53 289.60 572.46 C 294.50 572.91 301.16 572.39 304.95 576.03 C 308.87 579.75 308.89 584.64 308.00 589.64 C 305.67 593.98 303.13 595.82 298.49 597.38 C 305.91 600.85 308.19 610.28 312.25 617.01 C 307.10 617.00 301.94 616.99 296.79 617.02 C 293.82 611.98 291.41 606.59 288.26 601.68 C 287.00 599.60 284.43 599.31 282.34 598.50 C 282.20 604.66 282.28 610.83 282.25 617.00 C 277.66 617.00 273.08 617.00 268.49 617.00 C 268.50 613.31 268.50 609.63 268.50 605.94 C 268.56 594.82 268.38 583.69 268.57 572.57 Z" fill="#61dafb" />
<path d="M 318.58 572.58 C 330.79 572.39 343.03 572.56 355.25 572.51 C 355.25 575.67 355.25 578.84 355.25 582.00 C 347.58 582.00 339.91 582.00 332.24 582.00 C 332.24 584.42 332.24 586.84 332.24 589.25 C 339.32 589.25 346.39 589.26 353.46 589.25 C 353.48 592.10 353.52 594.94 353.56 597.78 C 346.56 598.76 339.33 598.10 332.27 598.26 C 332.27 601.17 332.26 604.08 332.26 606.98 C 340.09 606.98 347.92 606.98 355.76 606.98 C 355.76 610.32 355.76 613.67 355.76 617.01 C 343.34 617.01 330.91 617.02 318.49 617.00 C 318.49 608.74 318.48 600.47 318.50 592.20 C 318.58 585.67 318.37 579.12 318.58 572.58 Z" fill="#61dafb" />
<path d="M 430.98 572.12 C 436.83 571.58 443.49 571.95 448.35 575.65 C 451.84 578.26 453.36 581.79 455.16 585.59 C 451.25 586.51 447.32 587.36 443.39 588.23 C 442.23 586.63 441.11 584.67 439.53 583.44 C 436.06 581.22 430.81 581.93 428.32 585.34 C 426.08 588.38 425.98 592.66 425.96 596.28 C 426.26 598.82 426.54 601.86 427.90 604.08 C 430.26 607.64 435.66 608.30 439.17 606.20 C 441.56 604.74 442.56 601.34 443.64 598.92 C 447.64 600.12 451.64 601.32 455.62 602.56 C 454.04 606.63 452.74 610.41 449.31 613.35 C 444.98 617.11 439.56 617.86 434.01 617.70 C 428.88 617.52 423.11 616.45 419.28 612.75 C 414.73 608.55 412.68 602.76 412.32 596.68 C 412.22 590.71 412.95 584.54 416.65 579.64 C 420.07 575.04 425.36 572.67 430.98 572.12 Z" fill="#61dafb" />
<path d="M 502.51 572.51 L 502.51 574.33 C 502.52 577.39 502.51 580.45 502.52 583.51 C 497.85 583.51 493.18 583.51 488.52 583.52 C 488.51 594.68 488.50 605.84 488.50 617.00 C 483.92 617.00 479.33 617.00 474.75 617.00 C 474.80 606.19 474.60 595.36 474.81 584.55 L 474.91 583.52 C 470.20 583.48 465.48 583.49 460.77 583.49 C 460.76 579.83 460.76 576.17 460.75 572.52 C 474.67 572.49 488.59 572.52 502.51 572.51 Z" fill="#61dafb" />
<path d="M 377.22 572.51 C 382.18 572.50 387.14 572.50 392.09 572.50 C 395.28 581.02 398.47 589.54 401.71 598.04 C 404.10 604.36 406.45 610.69 408.83 617.01 C 404.04 617.02 399.24 617.02 394.45 617.01 C 393.74 614.59 393.01 612.18 392.30 609.76 C 387.09 609.76 381.88 609.76 376.67 609.75 C 375.96 612.17 375.25 614.59 374.54 617.02 C 369.85 617.02 365.17 617.02 360.48 617.01 C 362.83 610.72 365.22 604.45 367.59 598.17 C 370.83 589.62 374.00 581.06 377.22 572.51 Z" fill="#61dafb" />
<path d="M 282.43 581.61 C 285.72 581.37 289.50 581.21 292.64 582.37 C 295.54 583.48 295.49 588.49 292.64 589.63 C 289.50 590.86 285.57 590.44 282.24 590.57 C 282.24 587.60 282.10 584.57 282.43 581.61 Z" fill="#1a2830" />
<path d="M 384.50 584.25 C 386.20 589.47 387.79 594.73 389.36 600.00 C 386.13 600.00 382.90 600.00 379.67 600.00 C 380.94 595.83 382.20 591.65 383.49 587.48 C 383.82 586.40 384.16 585.32 384.50 584.25 Z" fill="#1c2a31" />
</svg>