<?xml version="1.0" encoding="UTF-8" standalone="no"?>
<!DOCTYPE svg PUBLIC "-//W3C//DTD SVG 1.1//EN" "http://www.w3.org/Graphics/SVG/1.1/DTD/svg11.dtd">
<svg xmlns="http://www.w3.org/2000/svg" version="1.1" viewBox="0 0 768 768" width="768.0pt" height="768.0pt">
<path d="M 0.00 0.00 L 288.56 0.00 C 251.03 22.63 218.48 52.79 187.85 83.92 C 167.90 84.10 147.94 83.98 128.00 83.97 C 111.72 84.38 96.15 91.13 85.62 103.65 C 75.85 114.81 71.55 129.31 71.98 144.00 C 71.94 170.93 72.16 197.89 71.87 224.82 C 56.59 253.22 45.66 284.24 40.16 316.04 C 39.33 333.28 41.13 350.86 39.00 367.99 C 38.99 379.97 38.99 392.03 39.00 404.01 C 41.21 421.44 39.18 439.33 40.28 456.84 C 45.96 487.76 56.27 518.81 71.87 546.14 L 72.15 547.84 C 71.81 570.55 72.09 593.28 72.00 616.00 C 71.34 630.78 72.28 644.67 80.50 657.44 C 88.81 671.14 103.18 680.55 118.93 683.22 C 135.07 684.96 151.74 683.54 168.00 684.00 C 195.06 683.89 222.14 684.21 249.19 683.83 C 309.36 684.11 369.64 684.11 429.81 683.84 C 494.84 684.22 559.96 683.89 625.00 684.00 C 640.46 684.38 654.55 684.62 668.23 676.23 C 682.01 668.35 691.67 654.45 694.89 638.95 C 697.27 622.96 695.41 606.19 696.00 590.00 C 695.87 521.30 696.26 452.48 695.80 383.81 C 695.94 382.61 696.08 381.41 696.22 380.20 C 707.40 347.65 714.09 313.26 717.04 279.00 C 715.85 267.80 719.19 256.79 717.32 245.83 C 717.02 209.19 709.37 171.99 696.22 137.80 C 694.37 121.28 688.90 109.58 677.21 97.82 C 653.88 57.71 619.71 23.59 579.80 0.00 L 768.00 0.00 L 768.00 768.00 L 0.00 768.00 L 0.00 0.00 Z" fill="#050505" />
<path d="M 288.56 0.00 L 365.56 0.00 C 312.89 15.31 267.87 45.92 228.91 83.86 L 228.16 84.20 C 214.74 83.72 201.28 84.21 187.85 83.92 C 218.48 52.79 251.03 22.63 288.56 0.00 Z" fill="#060909" />
<path d="M 365.56 0.00 L 502.70 0.00 C 533.24 9.19 563.96 23.04 589.16 42.87 C 605.04 54.51 619.40 68.90 632.01 84.00 C 622.68 83.97 613.35 84.04 604.01 83.99 C 574.65 52.96 536.91 31.56 495.89 20.12 C 479.61 16.93 464.90 12.36 448.00 13.00 C 427.88 13.42 409.13 11.26 389.41 16.58 C 341.01 25.34 295.37 51.40 258.83 83.88 L 257.15 84.11 C 247.74 83.84 238.32 84.18 228.91 83.86 C 267.87 45.92 312.89 15.31 365.56 0.00 Z" fill="#080c0c" />
<path d="M 502.70 0.00 L 579.80 0.00 C 619.71 23.59 653.88 57.71 677.21 97.82 C 662.76 86.94 650.25 82.97 632.01 84.00 C 619.40 68.90 605.04 54.51 589.16 42.87 C 563.96 23.04 533.24 9.19 502.70 0.00 Z" fill="#060909" />
<path d="M 448.00 13.00 C 464.90 12.36 479.61 16.93 495.89 20.12 C 536.91 31.56 574.65 52.96 604.01 83.99 C 595.97 84.05 587.92 83.85 579.89 84.18 L 579.16 83.81 C 548.22 55.43 507.01 37.09 465.62 31.45 C 449.92 28.11 433.32 28.73 417.37 29.42 C 408.35 29.73 400.11 32.92 391.16 33.31 C 351.68 41.22 315.75 59.51 283.82 83.79 L 283.06 84.11 C 274.98 83.88 266.91 84.13 258.83 83.88 C 295.37 51.40 341.01 25.34 389.41 16.58 C 409.13 11.26 427.88 13.42 448.00 13.00 Z" fill="#0b0f0f" />
<path d="M 417.37 29.42 C 433.32 28.73 449.92 28.11 465.62 31.45 C 507.01 37.09 548.22 55.43 579.16 83.81 C 572.04 84.18 564.92 83.86 557.80 84.12 C 549.90 83.81 542.07 84.20 534.16 83.87 C 485.08 53.96 423.99 48.45 369.80 66.80 C 356.40 71.31 343.11 76.80 330.82 83.85 C 325.26 84.13 319.71 83.90 314.14 84.09 C 304.04 83.81 293.92 84.26 283.82 83.79 C 315.75 59.51 351.68 41.22 391.16 33.31 C 400.11 32.92 408.35 29.73 417.37 29.42 Z" fill="#0e1414" />
<path d="M 534.16 83.87 C 531.72 83.94 529.28 84.07 526.83 84.13 C 511.21 83.93 495.42 83.88 479.80 84.17 C 448.62 83.88 417.38 83.89 386.20 84.17 C 370.57 83.89 354.81 83.90 339.18 84.15 C 336.39 84.07 333.61 83.93 330.82 83.85 C 343.11 76.80 356.40 71.31 369.80 66.80 C 423.99 48.45 485.08 53.96 534.16 83.87 Z" fill="#101b1b" />
<path d="M 128.00 83.97 C 147.94 83.98 167.90 84.10 187.85 83.92 C 201.28 84.21 214.74 83.72 228.16 84.20 C 217.37 93.30 207.90 103.94 197.75 113.75 C 175.64 135.52 153.76 158.12 134.27 182.27 C 105.66 216.17 85.30 255.95 72.16 298.19 C 71.71 273.74 72.27 249.27 71.87 224.82 C 72.16 197.89 71.94 170.93 71.98 144.00 C 71.55 129.31 75.85 114.81 85.62 103.65 C 96.15 91.13 111.72 84.38 128.00 83.97 Z" fill="#0f1010" />
<path d="M 228.16 84.20 L 228.91 83.86 C 238.32 84.18 247.74 83.84 257.15 84.11 C 226.48 111.59 197.17 139.95 169.78 170.78 C 149.59 193.53 130.38 217.97 115.67 244.67 C 81.39 307.07 70.92 382.54 87.31 451.82 C 94.70 483.15 107.33 514.54 126.28 540.72 C 161.37 591.08 216.58 626.01 276.04 639.81 C 284.72 640.27 292.66 643.98 301.37 644.60 C 325.69 646.79 350.66 646.50 375.01 644.88 C 410.19 639.54 443.02 630.07 473.91 611.93 C 474.22 612.91 473.42 617.33 475.06 616.86 C 479.25 617.15 483.76 617.15 487.95 616.86 C 490.11 616.32 488.53 608.15 488.87 605.90 C 490.67 603.51 493.23 601.00 495.65 599.24 C 498.74 605.27 501.35 611.46 505.24 617.06 C 478.38 634.91 448.86 648.42 417.64 656.54 C 409.71 657.09 402.94 661.33 395.02 662.12 C 389.00 663.36 383.06 662.86 376.98 663.06 C 352.58 668.20 326.42 668.20 302.02 663.06 C 291.06 663.17 280.68 662.80 270.40 658.52 C 209.17 645.74 153.31 610.52 115.19 560.80 C 95.62 534.10 81.62 504.49 72.17 472.81 C 71.89 414.64 71.90 356.36 72.16 298.19 C 85.30 255.95 105.66 216.17 134.27 182.27 C 153.76 158.12 175.64 135.52 197.75 113.75 C 207.90 103.94 217.37 93.30 228.16 84.20 Z" fill="#111515" />
<path d="M 257.15 84.11 L 258.83 83.88 C 266.91 84.13 274.98 83.88 283.06 84.11 C 258.93 102.64 236.29 123.31 215.26 145.25 C 193.34 166.51 173.65 188.88 155.13 213.15 C 137.01 237.96 120.11 265.27 110.52 294.60 C 89.63 354.41 89.72 420.50 112.12 479.89 C 134.13 537.94 180.42 585.19 237.29 609.78 C 297.78 636.41 367.31 637.81 429.22 614.91 C 431.68 615.90 434.12 616.88 436.74 617.36 C 440.55 618.33 444.45 618.29 448.26 617.37 C 457.84 615.68 464.10 608.88 465.35 599.25 C 465.89 596.89 466.05 594.49 466.13 592.07 C 468.69 590.60 471.28 589.17 473.92 587.82 C 474.03 595.85 474.08 603.90 473.91 611.93 C 443.02 630.07 410.19 639.54 375.01 644.88 C 350.66 646.50 325.69 646.79 301.37 644.60 C 292.66 643.98 284.72 640.27 276.04 639.81 C 216.58 626.01 161.37 591.08 126.28 540.72 C 107.33 514.54 94.70 483.15 87.31 451.82 C 70.92 382.54 81.39 307.07 115.67 244.67 C 130.38 217.97 149.59 193.53 169.78 170.78 C 197.17 139.95 226.48 111.59 257.15 84.11 Z" fill="#131818" />
<path d="M 283.06 84.11 L 283.82 83.79 C 293.92 84.26 304.04 83.81 314.14 84.09 C 267.50 114.55 225.80 155.54 189.53 197.55 C 169.21 221.77 149.77 248.63 136.46 277.40 C 107.67 337.53 103.65 409.63 128.13 471.88 C 150.27 529.17 197.25 575.62 254.70 597.26 C 256.83 598.08 258.94 598.97 260.99 599.99 C 261.63 604.05 259.70 614.64 262.06 616.86 C 266.24 617.15 270.76 617.15 274.94 616.86 L 275.80 616.75 C 276.31 608.22 275.84 599.60 276.00 591.05 C 283.14 593.63 290.50 594.79 297.94 596.06 C 298.20 602.96 297.67 609.91 298.21 616.79 C 302.40 617.19 306.74 617.15 310.94 616.86 C 313.26 615.18 311.39 602.81 312.04 599.00 C 315.68 599.00 319.32 599.00 322.96 599.00 C 323.61 602.81 321.74 615.19 324.06 616.86 C 328.26 617.15 332.61 617.19 336.80 616.79 C 337.30 613.43 336.52 609.62 337.44 606.40 C 339.36 603.96 341.47 601.68 343.36 599.21 C 348.19 603.28 349.84 611.38 353.41 616.64 C 358.80 617.40 364.55 617.05 369.99 616.79 C 367.08 610.77 362.93 605.24 359.73 599.32 C 368.95 598.60 378.05 597.60 386.92 594.86 C 387.72 600.36 385.63 613.37 388.06 616.86 C 392.24 617.15 396.76 617.15 400.94 616.86 C 403.35 613.82 401.31 601.23 402.06 596.17 C 407.88 595.39 413.31 592.64 419.00 591.17 C 418.91 594.26 418.83 597.24 419.69 600.24 C 420.86 606.44 424.29 611.14 429.22 614.91 C 367.31 637.81 297.78 636.41 237.29 609.78 C 180.42 585.19 134.13 537.94 112.12 479.89 C 89.72 420.50 89.63 354.41 110.52 294.60 C 120.11 265.27 137.01 237.96 155.13 213.15 C 173.65 188.88 193.34 166.51 215.26 145.25 C 236.29 123.31 258.93 102.64 283.06 84.11 Z" fill="#161c1c" />
<path d="M 314.14 84.09 C 319.71 83.90 325.26 84.13 330.82 83.85 C 333.61 83.93 336.39 84.07 339.18 84.15 C 288.85 110.45 244.61 151.99 207.26 194.26 C 188.06 216.34 169.69 240.05 156.00 266.00 C 139.69 295.88 128.87 328.67 125.52 362.62 C 121.19 401.52 128.59 441.10 143.94 477.02 C 163.89 522.97 200.62 560.44 246.79 580.18 C 247.15 581.07 246.65 584.18 248.10 583.86 C 252.36 584.21 256.68 583.91 260.96 584.07 C 261.03 589.38 261.00 594.68 260.99 599.99 C 258.94 598.97 256.83 598.08 254.70 597.26 C 197.25 575.62 150.27 529.17 128.13 471.88 C 103.65 409.63 107.67 337.53 136.46 277.40 C 149.77 248.63 169.21 221.77 189.53 197.55 C 225.80 155.54 267.50 114.55 314.14 84.09 Z" fill="#161f1f" />
<path d="M 339.18 84.15 C 354.81 83.90 370.57 83.89 386.20 84.17 C 355.26 93.17 327.11 108.06 301.41 127.43 C 276.79 145.47 255.59 166.57 234.25 188.24 C 214.55 209.33 195.58 231.75 180.30 256.31 C 161.42 285.33 148.17 318.72 143.04 353.00 C 138.15 386.94 141.17 422.62 153.12 454.89 C 163.46 484.38 181.30 510.62 204.23 531.77 C 222.94 549.78 245.51 561.81 269.20 571.84 C 262.16 572.23 255.11 571.73 248.08 572.14 C 246.20 572.08 247.23 578.64 246.79 580.18 C 200.62 560.44 163.89 522.97 143.94 477.02 C 128.59 441.10 121.19 401.52 125.52 362.62 C 128.87 328.67 139.69 295.88 156.00 266.00 C 169.69 240.05 188.06 216.34 207.26 194.26 C 244.61 151.99 288.85 110.45 339.18 84.15 Z" fill="#192323" />
<path d="M 386.20 84.17 C 417.38 83.89 448.62 83.88 479.80 84.17 C 509.13 93.20 536.11 108.27 557.26 130.74 C 580.83 154.87 596.34 185.56 603.65 218.38 C 618.08 281.70 600.27 348.36 572.68 405.68 C 545.82 460.50 509.82 512.93 458.59 547.55 C 443.62 557.49 427.47 565.09 410.84 571.79 C 398.33 572.42 385.71 571.57 373.22 572.21 C 372.94 575.69 372.37 579.95 373.77 583.23 C 377.78 584.82 382.97 583.79 387.23 583.77 C 387.00 587.46 386.98 591.16 386.92 594.86 C 378.05 597.60 368.95 598.60 359.73 599.32 C 357.69 596.15 354.86 592.76 353.96 589.07 C 358.29 583.28 364.44 578.80 369.04 573.17 C 371.55 571.22 367.01 572.37 366.01 572.00 C 361.71 572.52 354.61 570.74 351.12 573.06 C 346.31 578.20 342.15 584.01 337.20 589.02 C 336.70 583.70 337.29 578.36 336.86 573.06 C 336.00 571.33 323.97 571.33 323.13 573.08 C 322.75 581.70 323.16 590.37 322.96 599.00 C 319.32 599.00 315.68 599.00 312.04 599.00 C 311.84 590.37 312.25 581.70 311.87 573.08 C 311.03 571.33 299.00 571.33 298.14 573.06 C 297.74 580.70 298.18 588.40 297.94 596.06 C 290.50 594.79 283.14 593.63 276.00 591.05 C 275.98 588.72 276.00 586.40 276.04 584.07 C 280.33 583.92 284.65 584.19 288.93 583.87 C 290.65 583.69 290.65 572.32 288.93 572.13 C 282.37 571.71 275.77 572.26 269.20 571.84 C 245.51 561.81 222.94 549.78 204.23 531.77 C 181.30 510.62 163.46 484.38 153.12 454.89 C 141.17 422.62 138.15 386.94 143.04 353.00 C 148.17 318.72 161.42 285.33 180.30 256.31 C 195.58 231.75 214.55 209.33 234.25 188.24 C 255.59 166.57 276.79 145.47 301.41 127.43 C 327.11 108.06 355.26 93.17 386.20 84.17 Z" fill="#1c2727" />
<path d="M 479.80 84.17 C 495.42 83.88 511.21 83.93 526.83 84.13 C 553.93 99.32 576.95 121.27 593.46 147.58 C 624.17 195.02 631.83 255.54 621.44 310.38 C 615.62 344.76 602.83 378.72 588.32 410.33 C 562.59 463.21 527.38 517.12 480.17 553.15 C 470.80 560.33 460.73 566.28 450.85 572.65 C 442.43 571.50 433.69 570.92 426.80 576.81 C 422.46 580.09 421.03 584.73 419.78 589.79 L 419.00 591.17 C 413.31 592.64 407.88 595.39 402.06 596.17 C 401.99 592.13 401.98 588.10 402.04 584.07 C 406.33 583.92 410.65 584.19 414.93 583.87 C 416.65 583.68 416.65 572.41 414.93 572.13 C 413.57 571.97 412.21 571.85 410.84 571.79 C 427.47 565.09 443.62 557.49 458.59 547.55 C 509.82 512.93 545.82 460.50 572.68 405.68 C 600.27 348.36 618.08 281.70 603.65 218.38 C 596.34 185.56 580.83 154.87 557.26 130.74 C 536.11 108.27 509.13 93.20 479.80 84.17 Z" fill="#192323" />
<path d="M 526.83 84.13 C 529.28 84.07 531.72 83.94 534.16 83.87 C 542.07 84.20 549.90 83.81 557.80 84.12 C 581.22 103.09 601.14 125.04 615.01 151.99 C 631.57 183.55 641.20 220.34 641.00 256.00 C 642.45 291.61 634.96 328.16 623.89 361.89 C 603.40 420.23 573.33 476.95 533.23 524.23 C 517.86 542.05 500.69 557.75 481.81 571.82 C 479.57 571.92 477.31 571.94 475.07 572.15 C 472.73 574.00 474.62 584.10 473.92 587.82 C 471.28 589.17 468.69 590.60 466.13 592.07 C 465.84 591.30 465.55 590.53 465.26 589.76 C 463.59 581.44 459.14 575.27 450.85 572.65 C 460.73 566.28 470.80 560.33 480.17 553.15 C 527.38 517.12 562.59 463.21 588.32 410.33 C 602.83 378.72 615.62 344.76 621.44 310.38 C 631.83 255.54 624.17 195.02 593.46 147.58 C 576.95 121.27 553.93 99.32 526.83 84.13 Z" fill="#161f1f" />
<path d="M 557.80 84.12 C 564.92 83.86 572.04 84.18 579.16 83.81 L 579.89 84.18 C 602.58 103.87 620.60 129.66 633.17 156.87 C 661.54 219.25 660.05 288.52 640.13 353.12 C 630.43 385.22 617.00 416.55 601.00 446.00 C 575.96 493.58 545.48 537.20 504.01 571.92 L 502.88 572.87 C 497.86 577.42 494.21 583.51 489.18 588.06 C 488.82 582.79 489.28 577.48 488.79 572.23 C 486.49 571.92 484.13 571.89 481.81 571.82 C 500.69 557.75 517.86 542.05 533.23 524.23 C 573.33 476.95 603.40 420.23 623.89 361.89 C 634.96 328.16 642.45 291.61 641.00 256.00 C 641.20 220.34 631.57 183.55 615.01 151.99 C 601.14 125.04 581.22 103.09 557.80 84.12 Z" fill="#151b1b" />
<path d="M 579.89 84.18 C 587.92 83.85 595.97 84.05 604.01 83.99 C 650.36 132.39 672.00 198.59 670.00 265.00 C 669.77 300.35 661.82 336.35 650.89 369.89 C 631.60 424.67 604.55 477.33 570.29 524.28 C 553.04 548.10 532.95 569.66 509.83 587.86 C 508.34 588.98 507.38 590.41 506.55 592.05 C 506.09 591.16 505.65 590.25 505.38 589.27 C 510.27 583.87 514.96 578.40 520.04 573.16 L 520.91 572.11 C 515.29 571.87 509.65 572.06 504.01 571.92 C 545.48 537.20 575.96 493.58 601.00 446.00 C 617.00 416.55 630.43 385.22 640.13 353.12 C 660.05 288.52 661.54 219.25 633.17 156.87 C 620.60 129.66 602.58 103.87 579.89 84.18 Z" fill="#131818" />
<path d="M 604.01 83.99 C 613.35 84.04 622.68 83.97 632.01 84.00 C 673.72 134.33 691.87 204.52 689.79 268.96 C 686.40 335.59 665.10 396.81 634.66 455.67 C 604.81 513.86 569.78 568.72 516.73 608.43 C 513.28 603.01 509.71 597.64 506.55 592.05 C 507.38 590.41 508.34 588.98 509.83 587.86 C 532.95 569.66 553.04 548.10 570.29 524.28 C 604.55 477.33 631.60 424.67 650.89 369.89 C 661.82 336.35 669.77 300.35 670.00 265.00 C 672.00 198.59 650.36 132.39 604.01 83.99 Z" fill="#111515" />
<path d="M 632.01 84.00 C 650.25 82.97 662.76 86.94 677.21 97.82 C 688.90 109.58 694.37 121.28 696.22 137.80 C 695.86 218.54 695.86 299.46 696.22 380.20 C 696.08 381.41 695.94 382.61 695.80 383.81 C 673.67 442.39 645.53 499.47 610.29 551.28 C 592.51 577.13 571.47 601.21 547.76 621.76 C 525.45 641.90 498.83 656.56 471.41 668.48 C 457.92 674.67 443.47 677.97 429.81 683.84 C 369.64 684.11 309.36 684.11 249.19 683.83 C 232.71 677.11 215.61 673.24 200.00 665.01 C 145.45 641.66 100.63 599.70 72.15 547.84 L 71.87 546.14 C 72.27 521.70 71.70 497.24 72.17 472.81 C 81.62 504.49 95.62 534.10 115.19 560.80 C 153.31 610.52 209.17 645.74 270.40 658.52 C 280.68 662.80 291.06 663.17 302.02 663.06 C 326.42 668.20 352.58 668.20 376.98 663.06 C 383.06 662.86 389.00 663.36 395.02 662.12 C 402.94 661.33 409.71 657.09 417.64 656.54 C 448.86 648.42 478.38 634.91 505.24 617.06 C 510.48 616.87 515.77 617.25 520.99 616.80 C 520.22 613.84 518.13 611.16 516.73 608.43 C 569.78 568.72 604.81 513.86 634.66 455.67 C 665.10 396.81 686.40 335.59 689.79 268.96 C 691.87 204.52 673.72 134.33 632.01 84.00 Z" fill="#0f1212" />
<path d="M 513.81 117.17 C 541.02 132.97 561.89 157.22 575.64 185.34 C 588.63 212.99 594.87 244.57 593.05 274.98 C 593.19 301.09 586.72 328.08 578.90 352.89 C 558.64 410.93 526.22 467.82 481.27 510.27 C 458.37 531.79 431.23 548.44 401.37 558.40 C 367.73 569.40 331.33 571.34 296.82 563.30 C 265.54 556.17 236.76 540.49 213.27 518.73 C 167.31 475.61 147.58 409.13 159.55 347.62 C 165.44 314.02 180.32 281.61 199.59 253.61 C 216.26 228.78 236.95 205.19 258.25 184.25 C 279.51 163.18 302.79 143.14 328.21 127.21 C 355.16 110.32 384.91 98.20 416.83 95.64 C 450.51 92.26 484.87 99.40 513.81 117.17 Z" fill="#1d2c2c" />
<path d="M 424.00 106.97 C 457.76 105.37 491.58 115.02 518.80 135.19 C 543.20 153.66 562.24 178.86 572.02 207.99 C 583.95 241.41 584.71 279.36 577.85 313.94 C 571.89 345.98 559.92 375.54 545.68 404.68 C 530.96 432.39 513.57 460.08 492.33 483.32 C 452.26 529.41 392.95 560.40 330.96 556.24 C 270.77 553.96 213.92 518.03 186.99 464.01 C 170.45 432.31 165.09 396.35 168.98 361.00 C 172.78 328.38 184.71 297.75 201.92 269.95 C 217.82 244.09 237.41 220.27 258.75 198.75 C 280.70 176.21 305.30 154.74 332.00 138.00 C 359.93 120.56 390.89 108.70 424.00 106.97 Z" fill="#1f2f2f" />
<path d="M 538.74 166.26 C 559.69 191.52 571.07 223.04 573.47 255.62 C 576.41 289.09 569.61 324.04 558.54 355.61 C 547.75 385.60 533.53 414.23 515.60 440.61 C 498.73 465.99 479.05 489.21 454.78 507.79 C 428.37 528.43 396.28 542.60 363.00 546.96 C 329.29 550.96 295.00 545.95 264.66 530.35 C 236.29 515.67 211.81 492.54 196.66 464.33 C 180.65 435.16 173.84 401.48 176.42 368.37 C 179.21 335.23 190.95 302.59 208.30 274.31 C 224.67 247.41 245.09 222.58 267.75 200.75 C 288.90 178.77 312.87 158.81 339.04 143.06 C 352.76 134.39 367.78 129.17 382.34 122.35 C 395.78 115.65 408.52 117.34 422.96 115.77 C 466.64 113.09 511.11 131.96 538.74 166.26 Z" fill="#203232" />
<path d="M 423.00 121.00 C 435.64 121.18 454.34 119.25 464.46 128.44 C 494.05 136.53 521.37 154.86 538.60 180.39 C 557.98 207.43 567.04 241.95 566.00 275.00 C 566.40 307.90 556.53 341.98 544.25 372.30 C 522.08 424.21 487.73 476.24 440.62 508.61 C 412.85 527.34 378.68 539.99 345.00 540.00 C 311.05 541.49 276.59 530.72 248.96 511.06 C 225.88 494.73 207.94 472.14 196.84 446.13 C 183.27 414.59 180.50 378.37 187.90 344.95 C 194.87 311.44 210.72 281.24 230.87 253.85 C 248.88 229.65 269.69 207.24 292.26 187.26 C 315.22 166.85 341.66 147.73 370.38 136.41 C 375.87 135.08 378.73 131.16 383.12 128.08 C 393.20 119.05 410.48 121.33 423.00 121.00 Z" fill="#223535" />
<path d="M 412.00 122.97 C 428.19 123.67 443.44 120.59 458.18 127.86 C 462.72 131.58 466.07 136.19 468.50 141.49 C 488.81 148.86 509.15 161.24 522.73 178.26 C 531.64 188.09 537.60 199.62 543.92 211.07 C 552.24 216.06 554.45 223.66 556.42 232.61 C 558.74 248.34 558.01 264.03 557.85 279.97 C 553.96 297.00 553.33 314.35 548.20 331.17 C 539.48 363.84 524.86 395.22 506.70 423.68 C 490.82 448.86 471.14 472.25 447.78 490.79 C 422.71 510.66 393.29 524.45 361.37 528.47 C 327.07 533.49 290.66 525.04 261.41 506.56 C 235.36 489.82 215.16 464.83 204.16 435.88 C 192.78 405.85 191.26 373.09 198.99 342.00 C 205.98 311.75 220.37 284.52 238.55 259.58 C 255.15 236.93 274.24 215.85 295.25 197.25 C 314.17 180.79 334.91 164.07 357.90 153.76 C 358.06 161.76 358.06 169.80 357.91 177.79 C 330.70 191.73 308.97 211.15 287.28 232.27 C 272.21 249.16 255.98 266.37 245.03 287.08 C 237.84 296.75 231.80 305.87 227.11 317.07 C 217.94 330.63 215.12 347.05 212.68 362.83 C 211.03 370.32 212.20 377.45 212.01 385.00 C 210.49 419.26 225.51 452.49 249.21 476.79 C 271.14 498.23 300.53 511.57 331.16 513.69 C 365.14 516.44 399.47 503.34 426.75 483.76 C 446.78 463.00 467.98 445.30 483.97 420.98 C 506.80 386.93 525.55 349.88 532.04 309.02 C 535.64 301.51 543.49 299.38 547.60 293.62 C 556.44 282.56 552.08 271.92 553.00 259.00 C 552.74 247.07 554.33 230.37 546.51 220.48 C 539.89 212.47 526.88 211.46 519.00 205.01 C 515.03 200.35 509.22 198.44 505.23 193.77 C 496.48 184.18 485.00 177.22 476.73 167.28 C 470.66 163.05 467.97 154.55 465.04 148.00 C 461.28 136.55 455.65 127.26 442.38 126.50 C 426.99 126.02 410.40 124.50 395.36 128.37 C 387.55 130.18 383.77 136.63 381.88 143.90 C 379.93 143.98 377.98 144.05 376.03 144.19 C 377.40 140.10 379.38 135.56 382.45 132.47 C 389.85 124.18 401.66 123.65 412.00 122.97 Z" fill="#253b3b" />
<path d="M 442.38 126.50 C 455.65 127.26 461.28 136.55 465.04 148.00 C 467.97 154.55 470.66 163.05 476.73 167.28 C 485.00 177.22 496.48 184.18 505.23 193.77 C 509.22 198.44 515.03 200.35 519.00 205.01 C 526.88 211.46 539.89 212.47 546.51 220.48 C 554.33 230.37 552.74 247.07 553.00 259.00 C 552.08 271.92 556.44 282.56 547.60 293.62 C 543.49 299.38 535.64 301.51 532.04 309.02 C 525.55 349.88 506.80 386.93 483.97 420.98 C 467.98 445.30 446.78 463.00 426.75 483.76 C 399.47 503.34 365.14 516.44 331.16 513.69 C 300.53 511.57 271.14 498.23 249.21 476.79 C 225.51 452.49 210.49 419.26 212.01 385.00 C 212.20 377.45 211.03 370.32 212.68 362.83 C 215.12 347.05 217.94 330.63 227.11 317.07 C 224.92 324.70 222.89 331.88 221.68 339.76 C 221.43 350.63 216.94 360.09 217.08 370.98 C 213.68 399.34 220.09 429.09 235.98 453.01 C 253.60 479.90 281.12 499.50 312.61 506.44 C 346.48 513.84 382.61 506.86 411.21 487.21 C 431.38 473.65 446.39 454.69 456.93 432.96 C 461.03 425.98 462.43 417.63 466.43 410.52 C 469.38 404.87 469.04 398.63 472.41 393.39 C 488.29 368.23 499.31 339.70 504.47 310.39 C 508.36 306.03 512.82 300.95 517.64 297.68 C 527.40 297.23 539.74 298.31 546.19 289.20 C 552.31 280.11 549.29 266.75 550.00 256.00 C 549.53 244.27 552.58 229.30 542.20 220.83 C 529.24 212.83 509.27 210.41 496.67 199.36 C 483.83 190.18 474.26 178.84 467.43 164.61 C 461.69 154.05 462.31 143.02 454.44 134.55 C 450.76 130.31 444.36 129.14 439.01 128.98 C 427.67 129.03 416.32 128.96 404.98 129.00 C 395.18 129.48 386.93 133.61 384.87 143.91 C 383.88 143.91 382.88 143.91 381.88 143.90 C 383.77 136.63 387.55 130.18 395.36 128.37 C 410.40 124.50 426.99 126.02 442.38 126.50 Z" fill="#294444" />
<path d="M 404.98 129.00 C 416.32 128.96 427.67 129.03 439.01 128.98 C 444.36 129.14 450.76 130.31 454.44 134.55 C 462.31 143.02 461.69 154.05 467.43 164.61 C 474.26 178.84 483.83 190.18 496.67 199.36 C 509.27 210.41 529.24 212.83 542.20 220.83 C 552.58 229.30 549.53 244.27 550.00 256.00 C 549.29 266.75 552.31 280.11 546.19 289.20 C 539.74 298.31 527.40 297.23 517.64 297.68 C 512.82 300.95 508.36 306.03 504.47 310.39 C 499.31 339.70 488.29 368.23 472.41 393.39 C 469.04 398.63 469.38 404.87 466.43 410.52 C 462.43 417.63 461.03 425.98 456.93 432.96 C 446.39 454.69 431.38 473.65 411.21 487.21 C 382.61 506.86 346.48 513.84 312.61 506.44 C 281.12 499.50 253.60 479.90 235.98 453.01 C 220.09 429.09 213.68 399.34 217.08 370.98 C 216.94 360.09 221.43 350.63 221.68 339.76 C 221.90 342.90 222.11 346.04 222.18 349.18 C 221.90 353.97 222.06 358.75 221.90 363.54 C 215.33 396.88 223.84 432.42 244.88 459.14 C 263.49 483.39 291.33 500.06 321.63 504.45 C 354.30 509.62 389.59 500.27 415.24 479.24 C 439.40 460.46 454.54 432.59 461.04 403.01 C 463.17 387.41 465.17 371.91 465.32 356.17 C 466.85 347.90 464.80 340.08 467.86 331.97 C 467.67 320.96 469.00 310.25 470.42 299.36 C 474.29 295.16 478.48 290.35 483.11 287.05 C 494.74 289.01 506.80 292.13 519.01 292.13 C 524.97 293.36 538.41 293.92 541.73 287.79 L 541.94 287.23 L 542.28 286.40 C 546.98 280.87 545.51 275.39 546.69 268.84 C 547.87 262.96 545.78 257.82 545.96 252.00 C 545.51 243.38 548.01 234.16 542.12 226.99 C 541.51 226.55 540.89 226.14 540.24 225.76 C 533.78 220.95 524.72 219.32 517.11 216.88 C 503.32 211.86 489.57 204.34 479.22 193.78 C 469.45 182.80 462.36 169.97 458.19 155.87 C 456.24 150.24 455.67 144.86 452.06 139.89 C 452.34 138.37 452.62 136.91 450.97 136.12 L 450.29 135.70 C 446.70 133.23 442.38 131.88 438.01 131.97 C 428.34 132.01 418.67 132.02 409.00 131.97 C 403.90 132.02 398.10 132.78 393.81 135.74 C 393.20 136.12 392.61 136.55 392.04 137.02 C 391.90 139.34 391.97 141.69 391.96 144.02 C 389.60 144.00 387.23 143.97 384.87 143.91 C 386.93 133.61 395.18 129.48 404.98 129.00 Z" fill="#304f4f" />
<path d="M 409.00 131.97 C 418.67 132.02 428.34 132.01 438.01 131.97 C 442.38 131.88 446.70 133.23 450.29 135.70 C 439.30 136.50 428.21 135.51 417.23 136.27 C 409.42 135.67 401.62 136.32 393.81 135.74 C 398.10 132.78 403.90 132.02 409.00 131.97 Z" fill="#3d6565" />
<path d="M 393.81 135.74 C 401.62 136.32 409.42 135.67 417.23 136.27 C 409.09 137.88 400.34 136.58 392.04 137.02 C 392.61 136.55 393.20 136.12 393.81 135.74 Z" fill="#d3dbdb" />
<path d="M 417.23 136.27 C 428.21 135.51 439.30 136.50 450.29 135.70 L 450.97 136.12 C 450.57 137.74 450.54 138.89 452.06 139.89 C 453.34 170.54 470.72 200.58 498.83 214.11 C 511.54 220.35 526.09 224.97 540.24 225.76 C 540.89 226.14 541.51 226.55 542.12 226.99 C 542.02 246.78 541.72 266.63 542.28 286.40 L 541.94 287.23 C 539.56 286.53 537.45 286.72 535.09 287.39 L 534.29 287.46 C 523.49 286.18 513.12 284.24 502.51 281.93 C 489.64 278.16 478.17 272.83 466.26 266.78 C 462.29 264.12 458.33 261.16 454.00 259.13 L 453.19 259.18 C 452.76 298.59 453.09 338.52 453.03 378.00 C 453.02 384.15 452.77 390.11 453.35 396.23 C 449.83 429.57 432.66 459.85 405.22 479.21 C 378.42 498.52 342.48 504.97 310.61 496.43 C 264.43 484.56 229.16 442.66 225.97 395.00 C 225.94 389.38 226.18 383.81 225.80 378.18 C 228.15 339.15 251.88 303.73 286.05 285.13 C 301.12 277.95 314.36 274.02 330.97 271.94 C 337.62 272.07 344.26 271.92 350.91 272.03 C 352.95 272.91 355.07 273.09 357.24 273.32 L 357.98 274.19 C 358.19 287.86 357.66 301.57 358.26 315.23 C 357.68 323.80 358.16 332.45 357.97 341.04 L 356.21 340.68 C 352.89 339.63 349.70 338.98 346.23 338.64 C 341.91 337.69 338.08 337.67 333.76 338.64 C 316.74 340.70 300.92 352.26 293.75 367.81 C 291.07 373.58 289.06 379.42 289.04 385.85 C 286.11 414.70 311.49 442.93 340.80 440.90 C 358.65 441.76 377.22 430.64 385.37 414.79 C 392.82 403.79 390.38 392.53 391.26 380.23 C 392.96 363.14 391.52 345.26 392.00 328.00 C 391.83 269.65 392.34 211.10 391.74 152.78 C 391.99 149.86 392.04 146.94 391.96 144.02 C 391.97 141.69 391.90 139.34 392.04 137.02 C 400.34 136.58 409.09 137.88 417.23 136.27 Z" fill="#ffffff" />
<path d="M 450.97 136.12 C 452.62 136.91 452.34 138.37 452.06 139.89 C 450.54 138.89 450.57 137.74 450.97 136.12 Z" fill="#91a2a2" />
<path d="M 696.22 137.80 C 709.37 171.99 717.02 209.19 717.32 245.83 C 719.19 256.79 715.85 267.80 717.04 279.00 C 714.09 313.26 707.40 347.65 696.22 380.20 C 695.86 299.46 695.86 218.54 696.22 137.80 Z" fill="#060808" />
<path d="M 452.06 139.89 C 455.67 144.86 456.24 150.24 458.19 155.87 C 462.36 169.97 469.45 182.80 479.22 193.78 C 489.57 204.34 503.32 211.86 517.11 216.88 C 524.72 219.32 533.78 220.95 540.24 225.76 C 526.09 224.97 511.54 220.35 498.83 214.11 C 470.72 200.58 453.34 170.54 452.06 139.89 Z" fill="#487272" />
<path d="M 358.21 144.21 C 364.11 143.73 370.12 144.00 376.03 144.19 C 370.81 145.91 364.70 144.42 359.21 145.20 C 358.24 166.02 360.10 187.56 358.28 208.23 C 358.12 205.75 357.96 203.28 357.88 200.80 C 358.10 193.13 358.03 185.46 357.91 177.79 C 358.06 169.80 358.06 161.76 357.90 153.76 C 357.99 150.59 357.86 147.36 358.21 144.21 Z" fill="#2e7775" />
<path d="M 376.03 144.19 C 377.98 144.05 379.93 143.98 381.88 143.90 C 382.88 143.91 383.88 143.91 384.87 143.91 C 387.23 143.97 389.60 144.00 391.96 144.02 C 392.04 146.94 391.99 149.86 391.74 152.78 C 391.37 154.50 391.08 156.23 390.88 157.99 L 389.99 158.04 C 386.08 158.04 382.09 157.78 378.21 158.20 C 377.58 170.03 378.39 181.96 377.81 193.80 C 376.91 196.60 376.66 200.48 374.76 202.76 C 370.08 206.26 363.89 207.73 359.25 211.28 C 358.69 227.03 359.10 243.05 359.07 258.85 C 358.97 262.90 358.86 266.92 359.35 270.96 C 358.85 271.57 358.33 272.16 357.80 272.73 C 358.00 270.47 358.04 268.21 358.01 265.94 C 357.94 252.89 358.11 239.84 357.91 226.79 C 358.17 220.60 357.72 214.38 358.28 208.23 C 360.10 187.56 358.24 166.02 359.21 145.20 C 364.70 144.42 370.81 145.91 376.03 144.19 Z" fill="#36a7a4" />
<path d="M 391.74 152.78 C 392.34 211.10 391.83 269.65 392.00 328.00 C 391.52 345.26 392.96 363.14 391.26 380.23 C 390.47 320.15 391.53 259.85 390.74 199.77 C 391.27 185.88 390.98 171.89 390.88 157.99 C 391.08 156.23 391.37 154.50 391.74 152.78 Z" fill="#b8c5cc" />
<path d="M 378.21 158.20 C 382.09 157.78 386.08 158.04 389.99 158.04 L 389.96 159.01 C 388.97 159.01 387.98 159.02 386.99 159.02 C 384.42 158.98 381.76 158.89 379.20 159.20 C 378.89 190.47 378.80 221.95 379.26 253.22 C 378.65 275.77 379.17 298.43 379.00 321.00 C 378.55 332.62 379.94 344.77 378.26 356.23 C 377.54 319.10 378.41 281.87 377.82 244.73 C 378.13 227.79 378.12 210.75 377.81 193.80 C 378.39 181.96 377.58 170.03 378.21 158.20 Z" fill="#7a9aa3" />
<path d="M 389.99 158.04 L 390.88 157.99 C 390.98 171.89 391.27 185.88 390.74 199.77 C 388.76 211.33 391.25 223.31 389.04 234.98 C 389.49 254.16 387.23 272.78 388.03 292.00 C 385.44 327.78 388.36 364.38 386.36 400.18 C 386.47 405.52 382.64 410.37 382.76 415.21 C 372.72 426.36 357.45 435.03 343.27 439.75 C 330.14 439.11 318.58 436.45 308.39 427.60 C 297.36 417.50 290.25 403.04 291.12 387.86 C 292.49 388.80 293.87 389.73 295.21 390.72 C 295.92 406.64 302.24 418.59 315.26 427.74 C 336.96 442.64 368.19 434.31 379.70 410.69 C 385.99 397.77 382.04 380.47 383.00 366.00 C 383.09 345.36 382.83 324.61 383.12 303.99 C 385.09 293.96 382.93 283.96 384.79 273.96 C 385.42 252.18 386.41 229.71 388.04 208.00 C 387.92 200.56 387.75 193.39 388.96 186.02 C 388.92 176.84 388.91 168.14 389.96 159.01 L 389.99 158.04 Z" fill="#97a0ac" />
<path d="M 379.20 159.20 C 381.76 158.89 384.42 158.98 386.99 159.02 C 385.89 190.40 383.27 222.03 379.26 253.22 C 378.80 221.95 378.89 190.47 379.20 159.20 Z" fill="#988a99" />
<path d="M 386.99 159.02 C 387.98 159.02 388.97 159.01 389.96 159.01 C 388.91 168.14 388.92 176.84 388.96 186.02 C 387.75 193.39 387.92 200.56 388.04 208.00 C 386.41 229.71 385.42 252.18 384.79 273.96 C 382.93 283.96 385.09 293.96 383.12 303.99 C 382.83 324.61 383.09 345.36 383.00 366.00 C 382.04 380.47 385.99 397.77 379.70 410.69 C 368.19 434.31 336.96 442.64 315.26 427.74 C 302.24 418.59 295.92 406.64 295.21 390.72 C 298.03 392.13 300.09 392.19 300.07 395.98 C 301.99 420.31 328.07 437.29 351.20 429.34 C 364.87 425.21 375.57 414.90 377.47 400.36 C 378.66 394.26 374.70 392.26 374.02 386.57 C 378.73 377.79 377.58 365.92 378.26 356.23 C 379.94 344.77 378.55 332.62 379.00 321.00 C 379.17 298.43 378.65 275.77 379.26 253.22 C 383.27 222.03 385.89 190.40 386.99 159.02 Z" fill="#9797a4" />
<path d="M 357.91 177.79 C 358.03 185.46 358.10 193.13 357.88 200.80 C 343.43 208.04 330.25 218.58 317.86 228.89 C 308.22 238.00 295.35 248.97 287.86 260.04 C 271.36 265.34 257.45 275.21 245.03 287.08 C 255.98 266.37 272.21 249.16 287.28 232.27 C 308.97 211.15 330.70 191.73 357.91 177.79 Z" fill="#284343" />
<path d="M 377.81 193.80 C 378.12 210.75 378.13 227.79 377.82 244.73 C 374.12 248.38 377.17 256.83 372.03 259.03 C 367.27 262.51 364.02 259.89 359.07 258.85 C 359.10 243.05 358.69 227.03 359.25 211.28 C 363.89 207.73 370.08 206.26 374.76 202.76 C 376.66 200.48 376.91 196.60 377.81 193.80 Z" fill="#3dafac" />
<path d="M 390.74 199.77 C 391.53 259.85 390.47 320.15 391.26 380.23 C 390.38 392.53 392.82 403.79 385.37 414.79 C 384.49 414.92 383.62 415.06 382.76 415.21 C 382.64 410.37 386.47 405.52 386.36 400.18 C 388.36 364.38 385.44 327.78 388.03 292.00 C 387.23 272.78 389.49 254.16 389.04 234.98 C 391.25 223.31 388.76 211.33 390.74 199.77 Z" fill="#97abb5" />
<path d="M 357.88 200.80 C 357.96 203.28 358.12 205.75 358.28 208.23 C 357.72 214.38 358.17 220.60 357.91 226.79 C 344.13 234.09 331.07 245.07 319.85 255.86 C 317.97 255.96 316.08 256.06 314.20 256.16 C 305.54 255.62 296.23 258.10 287.86 260.04 C 295.35 248.97 308.22 238.00 317.86 228.89 C 330.25 218.58 343.43 208.04 357.88 200.80 Z" fill="#2d4a4a" />
<path d="M 71.87 224.82 C 72.27 249.27 71.71 273.74 72.16 298.19 C 71.90 356.36 71.89 414.64 72.17 472.81 C 71.70 497.24 72.27 521.70 71.87 546.14 C 56.27 518.81 45.96 487.76 40.28 456.84 C 39.18 439.33 41.21 421.44 39.00 404.01 C 38.99 392.03 38.99 379.97 39.00 367.99 C 41.13 350.86 39.33 333.28 40.16 316.04 C 45.66 284.24 56.59 253.22 71.87 224.82 Z" fill="#060909" />
<path d="M 357.91 226.79 C 358.11 239.84 357.94 252.89 358.01 265.94 C 349.93 262.22 339.53 263.79 331.00 264.84 C 330.73 262.89 331.86 258.27 329.67 257.37 C 326.39 256.85 323.10 256.58 319.85 255.86 C 331.07 245.07 344.13 234.09 357.91 226.79 Z" fill="#325454" />
<path d="M 542.12 226.99 C 548.01 234.16 545.51 243.38 545.96 252.00 C 545.78 257.82 547.87 262.96 546.69 268.84 C 545.51 275.39 546.98 280.87 542.28 286.40 C 541.72 266.63 542.02 246.78 542.12 226.99 Z" fill="#3f6767" />
<path d="M 377.82 244.73 C 378.41 281.87 377.54 319.10 378.26 356.23 C 377.58 365.92 378.73 377.79 374.02 386.57 C 367.98 398.13 356.74 406.37 343.96 408.85 C 329.62 412.29 312.55 405.87 303.68 394.26 C 326.48 400.55 352.53 386.83 357.02 363.01 C 357.44 357.95 358.34 353.06 357.96 347.95 C 358.01 347.01 358.05 346.08 358.10 345.15 C 368.83 338.55 366.72 321.87 366.88 310.99 C 363.91 297.74 370.16 281.50 359.35 270.96 C 358.86 266.92 358.97 262.90 359.07 258.85 C 364.02 259.89 367.27 262.51 372.03 259.03 C 377.17 256.83 374.12 248.38 377.82 244.73 Z" fill="#44b5b3" />
<path d="M 314.20 256.16 C 307.22 257.10 303.13 262.54 296.41 264.49 C 290.19 269.66 282.66 272.32 276.26 277.27 C 269.14 283.16 259.98 288.23 255.21 296.22 C 250.58 301.38 244.64 306.00 240.67 311.69 C 233.10 323.63 226.13 335.48 222.18 349.18 C 222.11 346.04 221.90 342.90 221.68 339.76 C 222.89 331.88 224.92 324.70 227.11 317.07 C 231.80 305.87 237.84 296.75 245.03 287.08 C 257.45 275.21 271.36 265.34 287.86 260.04 C 296.23 258.10 305.54 255.62 314.20 256.16 Z" fill="#37a7a5" />
<path d="M 314.20 256.16 C 316.08 256.06 317.97 255.96 319.85 255.86 C 323.10 256.58 326.39 256.85 329.67 257.37 C 331.86 258.27 330.73 262.89 331.00 264.84 L 330.96 265.84 C 277.60 270.15 232.08 313.78 223.22 366.23 C 222.79 365.33 222.35 364.43 221.90 363.54 C 222.06 358.75 221.90 353.97 222.18 349.18 C 226.13 335.48 233.10 323.63 240.67 311.69 C 244.64 306.00 250.58 301.38 255.21 296.22 C 259.98 288.23 269.14 283.16 276.26 277.27 C 282.66 272.32 290.19 269.66 296.41 264.49 C 303.13 262.54 307.22 257.10 314.20 256.16 Z" fill="#40b0ae" />
<path d="M 453.19 259.18 L 454.00 259.13 C 454.01 261.39 454.01 263.64 454.04 265.90 C 454.01 268.23 454.01 270.57 454.05 272.91 C 453.91 307.94 454.07 342.97 453.97 378.00 L 453.03 378.00 C 453.09 338.52 452.76 298.59 453.19 259.18 Z" fill="#dae4e4" />
<path d="M 454.00 259.13 C 458.33 261.16 462.29 264.12 466.26 266.78 C 462.10 267.08 458.16 266.11 454.04 265.90 C 454.01 263.64 454.01 261.39 454.00 259.13 Z" fill="#9cb8c1" />
<path d="M 358.01 265.94 C 358.04 268.21 358.00 270.47 357.80 272.73 L 357.24 273.32 C 355.07 273.09 352.95 272.91 350.91 272.03 C 344.50 269.31 337.78 270.14 331.00 269.92 C 330.98 268.56 330.97 267.20 330.96 265.84 L 331.00 264.84 C 339.53 263.79 349.93 262.22 358.01 265.94 Z" fill="#426e6e" />
<path d="M 330.96 265.84 C 330.97 267.20 330.98 268.56 331.00 269.92 C 316.19 271.61 297.65 275.32 286.05 285.13 C 251.88 303.73 228.15 339.15 225.80 378.18 C 225.30 376.72 224.78 375.27 224.28 373.81 C 223.74 371.30 223.22 368.81 223.22 366.23 C 232.08 313.78 277.60 270.15 330.96 265.84 Z" fill="#50bcbb" />
<path d="M 454.04 265.90 C 458.16 266.11 462.10 267.08 466.26 266.78 C 478.17 272.83 489.64 278.16 502.51 281.93 C 499.27 283.59 495.42 281.66 491.79 282.22 C 483.13 281.40 474.58 279.10 466.11 277.16 C 462.19 275.45 458.13 274.17 454.05 272.91 C 454.01 270.57 454.01 268.23 454.04 265.90 Z" fill="#938490" />
<path d="M 331.00 269.92 L 330.97 271.94 C 314.36 274.02 301.12 277.95 286.05 285.13 C 297.65 275.32 316.19 271.61 331.00 269.92 Z" fill="#9aafb8" />
<path d="M 331.00 269.92 C 337.78 270.14 344.50 269.31 350.91 272.03 C 344.26 271.92 337.62 272.07 330.97 271.94 L 331.00 269.92 Z" fill="#8a8b95" />
<path d="M 359.35 270.96 C 370.16 281.50 363.91 297.74 366.88 310.99 C 366.72 321.87 368.83 338.55 358.10 345.15 C 358.06 343.78 358.02 342.41 357.97 341.04 C 358.16 332.45 357.68 323.80 358.26 315.23 C 359.95 304.43 358.51 292.96 359.03 282.00 C 358.79 279.72 359.75 275.89 357.98 274.19 L 357.24 273.32 L 357.80 272.73 C 358.33 272.16 358.85 271.57 359.35 270.96 Z" fill="#51c0be" />
<path d="M 454.05 272.91 C 458.13 274.17 462.19 275.45 466.11 277.16 C 464.29 279.41 461.28 281.49 460.16 284.12 C 459.40 300.79 460.85 317.77 459.44 334.37 C 458.08 361.27 460.79 392.35 452.40 418.37 C 442.89 449.46 420.45 475.89 391.35 490.37 C 362.44 504.66 326.63 506.37 296.70 494.25 C 266.62 482.37 241.74 456.91 230.43 426.62 C 224.52 410.13 221.70 391.13 224.28 373.81 C 224.78 375.27 225.30 376.72 225.80 378.18 C 226.18 383.81 225.94 389.38 225.97 395.00 C 229.16 442.66 264.43 484.56 310.61 496.43 C 342.48 504.97 378.42 498.52 405.22 479.21 C 432.66 459.85 449.83 429.57 453.35 396.23 C 454.59 390.36 453.82 384.00 453.97 378.00 C 454.07 342.97 453.91 307.94 454.05 272.91 Z" fill="#4a7878" />
<path d="M 357.98 274.19 C 359.75 275.89 358.79 279.72 359.03 282.00 C 358.51 292.96 359.95 304.43 358.26 315.23 C 357.66 301.57 358.19 287.86 357.98 274.19 Z" fill="#a0d5d4" />
<path d="M 466.11 277.16 C 474.58 279.10 483.13 281.40 491.79 282.22 C 505.80 285.58 519.79 289.71 534.29 287.46 L 535.09 287.39 C 537.47 288.37 539.23 288.53 541.73 287.79 C 538.41 293.92 524.97 293.36 519.01 292.13 C 506.80 292.13 494.74 289.01 483.11 287.05 C 478.48 290.35 474.29 295.16 470.42 299.36 C 469.00 310.25 467.67 320.96 467.86 331.97 C 464.80 340.08 466.85 347.90 465.32 356.17 C 465.17 371.91 463.17 387.41 461.04 403.01 C 454.54 432.59 439.40 460.46 415.24 479.24 C 389.59 500.27 354.30 509.62 321.63 504.45 C 291.33 500.06 263.49 483.39 244.88 459.14 C 223.84 432.42 215.33 396.88 221.90 363.54 C 222.35 364.43 222.79 365.33 223.22 366.23 C 223.22 368.81 223.74 371.30 224.28 373.81 C 221.70 391.13 224.52 410.13 230.43 426.62 C 241.74 456.91 266.62 482.37 296.70 494.25 C 326.63 506.37 362.44 504.66 391.35 490.37 C 420.45 475.89 442.89 449.46 452.40 418.37 C 460.79 392.35 458.08 361.27 459.44 334.37 C 460.85 317.77 459.40 300.79 460.16 284.12 C 461.28 281.49 464.29 279.41 466.11 277.16 Z" fill="#395f5f" />
<path d="M 491.79 282.22 C 495.42 281.66 499.27 283.59 502.51 281.93 C 513.12 284.24 523.49 286.18 534.29 287.46 C 519.79 289.71 505.80 285.58 491.79 282.22 Z" fill="#4f797a" />
<path d="M 535.09 287.39 C 537.45 286.72 539.56 286.53 541.94 287.23 L 541.73 287.79 C 539.23 288.53 537.47 288.37 535.09 287.39 Z" fill="#819797" />
<path d="M 346.23 338.64 C 341.98 339.13 338.01 339.11 333.76 338.64 C 338.08 337.67 341.91 337.69 346.23 338.64 Z" fill="#a2bebe" />
<path d="M 333.76 338.64 C 338.01 339.11 341.98 339.13 346.23 338.64 C 349.70 338.98 352.89 339.63 356.21 340.68 C 350.22 343.19 344.38 343.25 338.00 342.96 C 318.34 342.64 298.01 357.58 294.55 377.21 C 293.92 374.17 293.88 370.91 293.75 367.81 C 300.92 352.26 316.74 340.70 333.76 338.64 Z" fill="#528686" />
<path d="M 356.21 340.68 L 357.97 341.04 C 358.02 342.41 358.06 343.78 358.10 345.15 C 358.05 346.08 358.01 347.01 357.96 347.95 C 344.40 350.92 332.37 345.98 319.30 353.27 C 306.91 359.14 300.15 370.38 296.66 383.21 C 295.71 381.29 294.93 379.33 294.55 377.21 C 298.01 357.58 318.34 342.64 338.00 342.96 C 344.38 343.25 350.22 343.19 356.21 340.68 Z" fill="#427070" />
<path d="M 357.96 347.95 C 358.34 353.06 357.44 357.95 357.02 363.01 C 352.53 386.83 326.48 400.55 303.68 394.26 C 300.27 391.20 298.48 387.31 296.66 383.21 C 300.15 370.38 306.91 359.14 319.30 353.27 C 332.37 345.98 344.40 350.92 357.96 347.95 Z" fill="#385f5f" />
<path d="M 293.75 367.81 C 293.88 370.91 293.92 374.17 294.55 377.21 C 294.93 379.33 295.71 381.29 296.66 383.21 C 298.48 387.31 300.27 391.20 303.68 394.26 C 312.55 405.87 329.62 412.29 343.96 408.85 C 356.74 406.37 367.98 398.13 374.02 386.57 C 374.70 392.26 378.66 394.26 377.47 400.36 C 375.57 414.90 364.87 425.21 351.20 429.34 C 328.07 437.29 301.99 420.31 300.07 395.98 C 300.09 392.19 298.03 392.13 295.21 390.72 C 293.87 389.73 292.49 388.80 291.12 387.86 C 290.43 387.19 289.73 386.52 289.04 385.85 C 289.06 379.42 291.07 373.58 293.75 367.81 Z" fill="#96909e" />
<path d="M 453.03 378.00 L 453.97 378.00 C 453.82 384.00 454.59 390.36 453.35 396.23 C 452.77 390.11 453.02 384.15 453.03 378.00 Z" fill="#a7bdbd" />
<path d="M 695.80 383.81 C 696.26 452.48 695.87 521.30 696.00 590.00 C 695.41 606.19 697.27 622.96 694.89 638.95 C 691.67 654.45 682.01 668.35 668.23 676.23 C 654.55 684.62 640.46 684.38 625.00 684.00 C 559.96 683.89 494.84 684.22 429.81 683.84 C 443.47 677.97 457.92 674.67 471.41 668.48 C 498.83 656.56 525.45 641.90 547.76 621.76 C 571.47 601.21 592.51 577.13 610.29 551.28 C 645.53 499.47 673.67 442.39 695.80 383.81 Z" fill="#0e0e0e" />
<path d="M 289.04 385.85 C 289.73 386.52 290.43 387.19 291.12 387.86 C 290.25 403.04 297.36 417.50 308.39 427.60 C 318.58 436.45 330.14 439.11 343.27 439.75 C 342.45 440.13 341.62 440.51 340.80 440.90 C 311.49 442.93 286.11 414.70 289.04 385.85 Z" fill="#9db0ba" />
<path d="M 385.37 414.79 C 377.22 430.64 358.65 441.76 340.80 440.90 C 341.62 440.51 342.45 440.13 343.27 439.75 C 357.45 435.03 372.72 426.36 382.76 415.21 C 383.62 415.06 384.49 414.92 385.37 414.79 Z" fill="#97919c" />
<path d="M 72.15 547.84 C 100.63 599.70 145.45 641.66 200.00 665.01 C 215.61 673.24 232.71 677.11 249.19 683.83 C 222.14 684.21 195.06 683.89 168.00 684.00 C 151.74 683.54 135.07 684.96 118.93 683.22 C 103.18 680.55 88.81 671.14 80.50 657.44 C 72.28 644.67 71.34 630.78 72.00 616.00 C 72.09 593.28 71.81 570.55 72.15 547.84 Z" fill="#0e0f0f" />
<path d="M 248.08 572.14 L 248.08 573.04 C 247.97 576.35 247.97 579.66 248.09 582.97 L 248.10 583.86 C 246.65 584.18 247.15 581.07 246.79 580.18 C 247.23 578.64 246.20 572.08 248.08 572.14 Z" fill="#4d5555" />
<path d="M 248.08 572.14 C 255.11 571.73 262.16 572.23 269.20 571.84 C 275.77 572.26 282.37 571.71 288.93 572.13 L 288.93 573.04 C 275.32 572.97 261.69 572.98 248.08 573.04 L 248.08 572.14 Z" fill="#8c9191" />
<path d="M 288.93 572.13 C 290.65 572.32 290.65 583.69 288.93 583.87 L 288.93 582.97 C 289.02 579.66 289.02 576.35 288.93 573.04 L 288.93 572.13 Z" fill="#4f5757" />
<path d="M 311.87 573.08 L 310.96 573.08 C 306.69 572.96 302.41 572.96 298.14 573.06 C 299.00 571.33 311.03 571.33 311.87 573.08 Z" fill="#8b9191" />
<path d="M 336.86 573.06 C 332.59 572.96 328.31 572.96 324.04 573.07 L 323.13 573.08 C 323.97 571.33 336.00 571.33 336.86 573.06 Z" fill="#8b9191" />
<path d="M 366.01 572.00 C 367.01 572.37 371.55 571.22 369.04 573.17 C 363.07 572.95 357.08 572.92 351.12 573.06 C 354.61 570.74 361.71 572.52 366.01 572.00 Z" fill="#898f8f" />
<path d="M 373.22 572.21 C 385.71 571.57 398.33 572.42 410.84 571.79 C 412.21 571.85 413.57 571.97 414.93 572.13 L 414.93 573.04 C 401.39 573.10 387.74 572.72 374.22 573.21 C 373.87 576.53 373.97 579.90 373.77 583.23 C 372.37 579.95 372.94 575.69 373.22 572.21 Z" fill="#8c9191" />
<path d="M 414.93 572.13 C 416.65 572.41 416.65 583.68 414.93 583.87 L 414.93 582.97 C 415.02 579.66 415.02 576.35 414.93 573.04 L 414.93 572.13 Z" fill="#4e5656" />
<path d="M 450.85 572.65 C 459.14 575.27 463.59 581.44 465.26 589.76 C 465.00 592.99 465.02 596.03 465.35 599.25 C 464.10 608.88 457.84 615.68 448.26 617.37 C 444.32 616.90 440.69 616.91 436.74 617.36 C 434.12 616.88 431.68 615.90 429.22 614.91 C 424.29 611.14 420.86 606.44 419.69 600.24 C 420.01 596.71 420.03 593.33 419.78 589.79 C 421.03 584.73 422.46 580.09 426.80 576.81 C 433.69 570.92 442.43 571.50 450.85 572.65 Z" fill="#fbfbfb" />
<path d="M 475.07 572.15 L 475.07 573.05 C 474.94 587.64 474.97 602.26 475.06 616.86 C 473.42 617.33 474.22 612.91 473.91 611.93 C 474.08 603.90 474.03 595.85 473.92 587.82 C 474.62 584.10 472.73 574.00 475.07 572.15 Z" fill="#4e5252" />
<path d="M 475.07 572.15 C 477.31 571.94 479.57 571.92 481.81 571.82 C 484.13 571.89 486.49 571.92 488.79 572.23 C 489.28 577.48 488.82 582.79 489.18 588.06 L 488.12 588.94 C 487.75 583.71 488.33 578.41 487.80 573.21 C 483.59 572.77 479.30 573.02 475.07 573.05 L 475.07 572.15 Z" fill="#898c8c" />
<path d="M 504.01 571.92 C 509.65 572.06 515.29 571.87 520.91 572.11 L 520.04 573.16 C 514.32 572.93 508.60 573.05 502.88 572.87 L 504.01 571.92 Z" fill="#888a8a" />
<path d="M 248.08 573.04 C 261.69 572.98 275.32 572.97 288.93 573.04 C 289.02 576.35 289.02 579.66 288.93 582.97 C 285.81 583.53 276.43 581.81 275.13 584.07 C 274.75 594.98 275.18 605.94 274.94 616.86 C 270.76 617.15 266.24 617.15 262.06 616.86 C 261.82 605.94 262.25 594.98 261.87 584.07 C 260.57 581.81 251.20 583.53 248.09 582.97 C 247.97 579.66 247.97 576.35 248.08 573.04 Z" fill="#ffffff" />
<path d="M 298.14 573.06 C 302.41 572.96 306.69 572.96 310.96 573.08 C 311.01 587.67 311.05 602.26 310.94 616.86 C 306.74 617.15 302.40 617.19 298.21 616.79 C 297.67 609.91 298.20 602.96 297.94 596.06 C 298.18 588.40 297.74 580.70 298.14 573.06 Z" fill="#ffffff" />
<path d="M 310.96 573.08 L 311.87 573.08 C 312.25 581.70 311.84 590.37 312.04 599.00 C 311.39 602.81 313.26 615.18 310.94 616.86 C 311.05 602.26 311.01 587.67 310.96 573.08 Z" fill="#c6c8c8" />
<path d="M 323.13 573.08 L 324.04 573.07 C 323.99 587.67 323.95 602.26 324.06 616.86 C 321.74 615.19 323.61 602.81 322.96 599.00 C 323.16 590.37 322.75 581.70 323.13 573.08 Z" fill="#c6c8c8" />
<path d="M 324.04 573.07 C 328.31 572.96 332.59 572.96 336.86 573.06 C 337.29 578.36 336.70 583.70 337.20 589.02 C 342.15 584.01 346.31 578.20 351.12 573.06 C 357.08 572.92 363.07 572.95 369.04 573.17 C 364.44 578.80 358.29 583.28 353.96 589.07 C 354.86 592.76 357.69 596.15 359.73 599.32 C 362.93 605.24 367.08 610.77 369.99 616.79 C 364.55 617.05 358.80 617.40 353.41 616.64 C 349.84 611.38 348.19 603.28 343.36 599.21 C 341.47 601.68 339.36 603.96 337.44 606.40 C 336.52 609.62 337.30 613.43 336.80 616.79 C 332.61 617.19 328.26 617.15 324.06 616.86 C 323.95 602.26 323.99 587.67 324.04 573.07 Z" fill="#fdfdfd" />
<path d="M 374.22 573.21 C 387.74 572.72 401.39 573.10 414.93 573.04 C 415.02 576.35 415.02 579.66 414.93 582.97 C 411.81 583.53 402.43 581.81 401.13 584.07 C 400.75 594.98 401.18 605.94 400.94 616.86 C 396.76 617.15 392.24 617.15 388.06 616.86 C 387.41 606.13 389.08 594.17 387.23 583.77 C 383.22 582.18 378.02 583.21 373.77 583.23 C 373.97 579.90 373.87 576.53 374.22 573.21 Z" fill="#ffffff" />
<path d="M 475.07 573.05 C 479.30 573.02 483.59 572.77 487.80 573.21 C 488.33 578.41 487.75 583.71 488.12 588.94 L 489.18 588.06 C 494.21 583.51 497.86 577.42 502.88 572.87 C 508.60 573.05 514.32 572.93 520.04 573.16 C 514.96 578.40 510.27 583.87 505.38 589.27 C 505.65 590.25 506.09 591.16 506.55 592.05 C 509.71 597.64 513.28 603.01 516.73 608.43 C 518.13 611.16 520.22 613.84 520.99 616.80 C 515.77 617.25 510.48 616.87 505.24 617.06 C 501.35 611.46 498.74 605.27 495.65 599.24 C 493.23 601.00 490.67 603.51 488.87 605.90 C 487.21 608.92 488.25 613.46 487.95 616.86 C 483.76 617.15 479.25 617.15 475.06 616.86 C 474.97 602.26 474.94 587.64 475.07 573.05 Z" fill="#fdfdfd" />
<path d="M 445.06 582.63 C 442.81 583.32 441.26 583.33 438.99 582.75 C 440.92 581.19 443.02 581.47 445.06 582.63 Z" fill="#787c7c" />
<path d="M 248.09 582.97 C 251.20 583.53 260.57 581.81 261.87 584.07 L 260.96 584.07 C 256.68 583.91 252.36 584.21 248.10 583.86 L 248.09 582.97 Z" fill="#8e9292" />
<path d="M 288.93 582.97 L 288.93 583.87 C 284.65 584.19 280.33 583.92 276.04 584.07 L 275.13 584.07 C 276.43 581.81 285.81 583.53 288.93 582.97 Z" fill="#8e9494" />
<path d="M 373.77 583.23 C 378.02 583.21 383.22 582.18 387.23 583.77 C 382.97 583.79 377.78 584.82 373.77 583.23 Z" fill="#8c9292" />
<path d="M 414.93 582.97 L 414.93 583.87 C 410.65 584.19 406.33 583.92 402.04 584.07 L 401.13 584.07 C 402.43 581.81 411.81 583.53 414.93 582.97 Z" fill="#8e9393" />
<path d="M 438.99 582.75 C 441.26 583.33 442.81 583.32 445.06 582.63 C 448.70 583.95 450.41 586.01 451.32 589.74 C 450.99 592.99 450.99 596.02 451.38 599.26 C 451.09 603.39 448.53 605.54 445.11 607.36 C 443.10 606.70 441.90 606.70 439.89 607.36 C 436.93 605.73 434.28 603.82 433.67 600.26 C 434.04 596.67 434.04 593.33 433.67 589.74 C 434.32 586.57 436.23 584.33 438.99 582.75 Z" fill="#181f1f" />
<path d="M 260.96 584.07 L 261.87 584.07 C 262.25 594.98 261.82 605.94 262.06 616.86 C 259.70 614.64 261.63 604.05 260.99 599.99 C 261.00 594.68 261.03 589.38 260.96 584.07 Z" fill="#515656" />
<path d="M 275.13 584.07 L 276.04 584.07 C 276.00 586.40 275.98 588.72 276.00 591.05 C 275.84 599.60 276.31 608.22 275.80 616.75 L 274.94 616.86 C 275.18 605.94 274.75 594.98 275.13 584.07 Z" fill="#515757" />
<path d="M 387.23 583.77 C 389.08 594.17 387.41 606.13 388.06 616.86 C 385.63 613.37 387.72 600.36 386.92 594.86 C 386.98 591.16 387.00 587.46 387.23 583.77 Z" fill="#8b9090" />
<path d="M 401.13 584.07 L 402.04 584.07 C 401.98 588.10 401.99 592.13 402.06 596.17 C 401.31 601.23 403.35 613.82 400.94 616.86 C 401.18 605.94 400.75 594.98 401.13 584.07 Z" fill="#515757" />
<path d="M 419.78 589.79 C 420.03 593.33 420.01 596.71 419.69 600.24 C 418.83 597.24 418.91 594.26 419.00 591.17 L 419.78 589.79 Z" fill="#6e7373" />
<path d="M 433.67 589.74 C 434.04 593.33 434.04 596.67 433.67 600.26 C 432.67 596.84 432.65 593.16 433.67 589.74 Z" fill="#656a6a" />
<path d="M 451.32 589.74 C 452.38 592.89 452.16 596.08 451.38 599.26 C 450.99 596.02 450.99 592.99 451.32 589.74 Z" fill="#6e7171" />
<path d="M 465.26 589.76 C 465.55 590.53 465.84 591.30 466.13 592.07 C 466.05 594.49 465.89 596.89 465.35 599.25 C 465.02 596.03 465.00 592.99 465.26 589.76 Z" fill="#626565" />
<path d="M 488.87 605.90 C 488.53 608.15 490.11 616.32 487.95 616.86 C 488.25 613.46 487.21 608.92 488.87 605.90 Z" fill="#888b8b" />
<path d="M 439.89 607.36 C 441.90 606.70 443.10 606.70 445.11 607.36 C 443.23 608.65 441.77 608.65 439.89 607.36 Z" fill="#a7a8a8" />
<path d="M 436.74 617.36 C 440.69 616.91 444.32 616.90 448.26 617.37 C 444.45 618.29 440.55 618.33 436.74 617.36 Z" fill="#a1a4a4" />
</svg>