<?xml version="1.0" encoding="UTF-8" standalone="no"?>
<!DOCTYPE svg PUBLIC "-//W3C//DTD SVG 1.1//EN" "http://www.w3.org/Graphics/SVG/1.1/DTD/svg11.dtd">
<svg xmlns="http://www.w3.org/2000/svg" version="1.1" viewBox="0 0 192 192" width="192.0pt" height="192.0pt">
<path d="M 0.00 0.00 L 192.00 0.00 L 192.00 192.00 L 0.00 192.00 L 0.00 0.00 Z" fill="#ffffff" />
<path d="M 28.49 27.01 C 41.90 26.99 55.31 27.01 68.72 27.00 C 80.43 43.88 91.97 60.88 103.68 77.76 C 118.35 60.92 132.82 43.89 147.43 27.00 C 151.40 27.01 155.36 26.95 159.32 27.07 C 142.52 46.51 125.83 66.05 109.01 85.47 C 127.17 112.12 145.53 138.66 163.77 165.26 C 150.35 165.23 136.92 165.27 123.50 165.24 C 111.19 147.36 98.83 129.50 86.63 111.54 C 71.24 129.45 55.81 147.31 40.46 165.24 C 36.46 165.26 32.46 165.24 28.47 165.26 C 46.08 144.80 63.68 124.33 81.29 103.87 C 63.71 78.24 46.07 52.64 28.49 27.01 Z" fill="#111111" />
<path d="M 44.72 36.02 C 50.84 35.99 56.96 36.00 63.08 36.01 C 91.18 76.29 119.36 116.51 147.49 156.77 C 141.40 156.75 135.31 156.73 129.22 156.78 C 100.99 116.59 72.93 76.23 44.72 36.02 Z" fill="#ffffff" />
</svg>