<?xml version="1.0" encoding="UTF-8" standalone="no"?>
<!DOCTYPE svg PUBLIC "-//W3C//DTD SVG 1.1//EN" "http://www.w3.org/Graphics/SVG/1.1/DTD/svg11.dtd">
<svg xmlns="http://www.w3.org/2000/svg" version="1.1" viewBox="0 0 720 520" width="720.0pt" height="520.0pt">
<path d="M 0.00 0.00 L 720.00 0.00 L 720.00 33.11 C 672.01 32.83 623.99 33.03 576.00 32.99 C 404.33 32.96 232.67 33.02 61.00 32.99 C 40.67 32.89 20.33 33.11 0.00 32.89 L 0.00 0.00 Z" fill="#eef1f4" />
<path d="M 0.00 32.89 C 20.33 33.11 40.67 32.89 61.00 32.99 C 232.67 33.02 404.33 32.96 576.00 32.99 C 623.99 33.03 672.01 32.83 720.00 33.11 L 720.00 60.12 C 647.76 59.88 574.33 60.19 501.97 59.99 C 498.54 60.15 495.46 62.86 492.03 63.02 C 354.69 63.04 217.34 62.98 80.00 63.03 C 53.34 62.88 26.66 63.16 0.00 62.89 L 0.00 32.89 Z" fill="#e7ebef" />
<path d="M 501.97 59.99 C 574.33 60.19 647.76 59.88 720.00 60.12 L 720.00 96.11 C 696.34 95.80 672.66 96.11 649.00 96.00 C 461.00 96.00 273.00 96.01 85.00 96.00 C 56.67 95.88 28.33 96.18 0.00 95.89 L 0.00 62.89 C 26.66 63.16 53.34 62.88 80.00 63.03 C 217.34 62.98 354.69 63.04 492.03 63.02 C 495.46 62.86 498.54 60.15 501.97 59.99 Z" fill="#e0e4e9" />
<path d="M 0.00 95.89 C 28.33 96.18 56.67 95.88 85.00 96.00 C 273.00 96.01 461.00 96.00 649.00 96.00 C 672.66 96.11 696.34 95.80 720.00 96.11 L 720.00 126.11 C 588.40 125.81 456.62 126.12 325.00 125.97 C 309.71 126.04 294.29 126.08 279.00 125.90 C 274.44 125.81 270.46 127.62 266.01 128.00 C 178.00 127.87 87.84 128.11 0.00 127.89 L 0.00 95.89 Z" fill="#d9dee4" />
<path d="M 279.00 125.90 C 294.29 126.08 309.71 126.04 325.00 125.97 C 456.62 126.12 588.40 125.81 720.00 126.11 L 720.00 149.11 C 713.33 148.95 706.67 149.01 700.00 149.04 C 618.00 149.03 536.00 149.04 454.00 149.02 C 448.77 148.81 443.78 148.93 438.58 149.56 C 414.87 145.79 391.03 143.19 367.00 142.99 C 328.30 142.48 289.00 146.38 251.56 156.43 C 248.49 157.07 245.44 157.81 242.38 158.51 C 236.56 157.88 230.84 157.84 225.00 157.98 C 150.01 157.90 74.98 158.08 0.00 157.89 L 0.00 127.89 C 87.84 128.11 178.00 127.87 266.01 128.00 C 270.46 127.62 274.44 125.81 279.00 125.90 Z" fill="#d3d8df" />
<path d="M 367.00 142.99 C 391.03 143.19 414.87 145.79 438.58 149.56 C 448.62 151.52 458.62 153.60 468.49 156.32 C 460.97 157.64 453.58 156.92 446.00 157.07 C 429.66 157.17 413.34 156.84 397.00 157.09 C 364.33 156.94 331.67 157.21 299.00 156.93 C 286.33 157.17 273.67 157.02 261.00 157.12 C 257.83 157.13 254.71 156.72 251.56 156.43 C 289.00 146.38 328.30 142.48 367.00 142.99 Z" fill="#f0f5fb" />
<path d="M 454.00 149.02 C 536.00 149.04 618.00 149.03 700.00 149.04 C 706.67 149.01 713.33 148.95 720.00 149.11 L 720.00 189.10 C 713.66 188.94 707.34 188.91 701.00 188.99 C 654.67 188.91 608.33 188.98 562.00 188.95 C 556.88 188.89 551.78 188.97 546.66 189.25 C 544.41 187.83 542.05 186.55 539.69 185.33 C 529.49 179.28 518.90 173.32 507.72 169.28 C 495.02 164.03 481.90 159.37 468.49 156.32 C 458.62 153.60 448.62 151.52 438.58 149.56 C 443.78 148.93 448.77 148.81 454.00 149.02 Z" fill="#ccd3da" />
<path d="M 251.56 156.43 C 254.71 156.72 257.83 157.13 261.00 157.12 C 273.67 157.02 286.33 157.17 299.00 156.93 C 331.67 157.21 364.33 156.94 397.00 157.09 C 413.34 156.84 429.66 157.17 446.00 157.07 C 453.58 156.92 460.97 157.64 468.49 156.32 C 481.90 159.37 495.02 164.03 507.72 169.28 C 500.44 170.70 493.33 169.73 486.00 169.96 C 476.00 170.15 466.00 169.95 456.00 169.94 C 433.67 170.28 411.34 169.74 389.00 170.07 C 337.34 169.89 285.64 170.20 234.00 169.97 C 226.70 169.98 219.56 170.57 212.31 169.28 C 222.12 165.07 232.23 161.77 242.38 158.51 C 245.44 157.81 248.49 157.07 251.56 156.43 Z" fill="#e6ecf2" />
<path d="M 0.00 157.89 C 74.98 158.08 150.01 157.90 225.00 157.98 C 230.84 157.84 236.56 157.88 242.38 158.51 C 232.23 161.77 222.12 165.07 212.31 169.28 C 206.55 171.23 201.04 174.12 195.48 176.62 C 188.62 175.54 181.89 176.10 175.00 176.04 C 116.68 175.92 58.32 176.19 0.00 175.90 L 0.00 157.89 Z" fill="#cdd3db" />
<path d="M 212.31 169.28 C 219.56 170.57 226.70 169.98 234.00 169.97 C 285.64 170.20 337.34 169.89 389.00 170.07 C 411.34 169.74 433.67 170.28 456.00 169.94 C 466.00 169.95 476.00 170.15 486.00 169.96 C 493.33 169.73 500.44 170.70 507.72 169.28 C 518.90 173.32 529.49 179.28 539.69 185.33 C 535.12 185.72 530.59 186.04 526.00 185.86 C 504.67 185.76 483.33 185.92 462.00 185.78 C 458.49 185.78 455.04 186.24 451.56 186.59 C 415.35 178.65 377.95 175.87 340.95 177.39 C 317.94 178.34 295.02 181.02 272.47 185.71 C 264.30 184.37 256.22 185.02 248.00 184.90 C 231.00 184.90 213.99 184.88 197.00 184.91 C 191.74 185.15 186.69 185.09 181.46 184.42 C 186.16 181.83 190.66 178.99 195.48 176.62 C 201.04 174.12 206.55 171.23 212.31 169.28 Z" fill="#dce3ea" />
<path d="M 0.00 175.90 C 58.32 176.19 116.68 175.92 175.00 176.04 C 181.89 176.10 188.62 175.54 195.48 176.62 C 190.66 178.99 186.16 181.83 181.46 184.42 C 174.91 188.04 168.43 192.72 162.92 197.78 C 178.92 198.25 194.98 197.86 211.00 198.06 C 216.91 197.85 222.67 197.86 228.55 198.62 C 220.69 201.84 212.99 205.33 205.60 209.53 C 197.71 208.61 189.91 209.09 182.00 208.97 C 173.33 208.91 164.67 209.00 156.00 209.13 C 151.94 209.41 149.06 206.59 145.00 206.89 C 129.01 207.19 113.00 206.91 97.00 207.03 C 64.67 206.95 32.33 207.18 0.00 206.89 L 0.00 175.90 Z" fill="#c7ced6" />
<path d="M 340.95 177.39 C 377.95 175.87 415.35 178.65 451.56 186.59 C 462.05 189.06 472.45 191.89 482.66 195.39 C 494.78 199.73 506.53 204.73 517.57 211.41 C 522.81 214.50 527.61 218.18 532.33 222.00 C 504.88 222.00 477.44 222.00 450.00 222.00 C 450.00 228.67 450.00 235.33 450.00 242.00 C 463.33 242.00 476.67 242.00 490.00 242.00 C 490.00 262.54 490.00 283.09 490.00 303.63 C 443.34 307.89 396.66 312.09 350.00 316.38 C 350.00 311.59 350.00 306.79 350.00 302.00 C 370.00 302.00 390.00 302.00 410.00 302.00 C 410.00 295.33 410.00 288.67 410.00 282.00 C 390.00 282.00 370.00 282.00 350.00 282.00 C 350.00 268.67 350.00 255.33 350.00 242.00 C 376.67 242.00 403.33 242.00 430.00 242.00 C 430.00 235.33 430.00 228.67 430.00 222.00 C 396.67 222.00 363.33 222.00 330.00 222.00 C 330.00 254.07 330.00 286.15 330.00 318.22 C 323.33 318.77 316.66 319.34 310.01 320.05 C 309.99 287.37 310.01 254.68 310.00 222.00 C 303.33 222.00 296.67 222.00 290.00 222.00 C 290.00 228.67 290.00 235.33 290.00 242.00 C 283.33 242.00 276.67 242.00 270.00 242.00 C 270.04 247.85 269.95 253.70 269.98 259.54 C 270.12 260.54 269.67 261.90 271.10 261.97 C 277.39 262.12 283.70 261.93 290.00 262.00 C 290.00 281.96 290.00 301.93 290.00 321.89 C 282.98 322.33 276.00 323.22 268.98 323.63 C 255.78 320.37 242.70 316.80 230.01 311.88 C 229.98 295.25 230.01 278.63 230.00 262.00 C 235.85 261.96 241.70 262.04 247.54 262.02 C 248.53 261.88 249.90 262.33 249.97 260.90 C 250.12 254.61 249.93 248.30 250.00 242.00 C 243.33 242.00 236.67 242.00 230.00 242.00 C 230.00 235.33 230.00 228.67 230.00 222.00 C 223.33 222.00 216.67 222.00 210.00 222.00 C 209.99 248.96 210.01 275.92 209.99 302.88 C 204.62 300.03 199.53 296.87 194.54 293.41 C 188.61 289.05 183.25 284.16 178.66 278.39 C 176.66 275.64 174.87 272.77 173.36 269.73 C 171.24 264.99 170.10 260.21 169.90 255.01 C 170.04 249.87 171.31 244.93 173.38 240.24 C 174.96 237.00 176.92 233.97 179.11 231.10 C 181.61 227.93 184.41 225.00 187.44 222.32 C 193.02 217.41 199.15 213.23 205.60 209.53 C 212.99 205.33 220.69 201.84 228.55 198.62 C 242.82 193.10 257.53 189.00 272.47 185.71 C 295.02 181.02 317.94 178.34 340.95 177.39 Z" fill="#121922" />
<path d="M 181.46 184.42 C 186.69 185.09 191.74 185.15 197.00 184.91 C 213.99 184.88 231.00 184.90 248.00 184.90 C 256.22 185.02 264.30 184.37 272.47 185.71 C 257.53 189.00 242.82 193.10 228.55 198.62 C 222.67 197.86 216.91 197.85 211.00 198.06 C 194.98 197.86 178.92 198.25 162.92 197.78 C 168.43 192.72 174.91 188.04 181.46 184.42 Z" fill="#d1d8e0" />
<path d="M 539.69 185.33 C 542.05 186.55 544.41 187.83 546.66 189.25 C 549.08 190.93 551.19 192.92 553.30 194.95 C 550.86 195.11 548.44 195.26 546.00 195.30 C 524.89 195.31 503.77 195.15 482.66 195.39 C 472.45 191.89 462.05 189.06 451.56 186.59 C 455.04 186.24 458.49 185.78 462.00 185.78 C 483.33 185.92 504.67 185.76 526.00 185.86 C 530.59 186.04 535.12 185.72 539.69 185.33 Z" fill="#d1d8e1" />
<path d="M 546.66 189.25 C 551.78 188.97 556.88 188.89 562.00 188.95 C 608.33 188.98 654.67 188.91 701.00 188.99 C 707.34 188.91 713.66 188.94 720.00 189.10 L 720.00 213.10 C 672.83 212.86 625.20 213.07 577.99 213.01 C 573.20 212.56 568.93 210.60 564.00 210.89 C 548.54 211.37 533.00 210.44 517.57 211.41 C 506.53 204.73 494.78 199.73 482.66 195.39 C 503.77 195.15 524.89 195.31 546.00 195.30 C 548.44 195.26 550.86 195.11 553.30 194.95 C 551.19 192.92 549.08 190.93 546.66 189.25 Z" fill="#c5ccd5" />
<path d="M 0.00 206.89 C 32.33 207.18 64.67 206.95 97.00 207.03 C 113.00 206.91 129.01 207.19 145.00 206.89 C 149.06 206.59 151.94 209.41 156.00 209.13 C 164.67 209.00 173.33 208.91 182.00 208.97 C 189.91 209.09 197.71 208.61 205.60 209.53 C 199.15 213.23 193.02 217.41 187.44 222.32 C 177.93 221.62 168.53 221.99 159.00 221.93 C 152.67 222.02 146.46 221.56 140.33 222.27 C 138.20 225.16 136.42 228.32 134.95 231.59 C 133.78 234.36 132.85 237.21 132.10 240.12 L 131.76 241.40 C 127.84 241.83 123.95 242.24 120.00 242.05 C 80.00 241.85 39.99 242.18 0.00 241.89 L 0.00 206.89 Z" fill="#bfc7d1" />
<path d="M 517.57 211.41 C 533.00 210.44 548.54 211.37 564.00 210.89 C 568.93 210.60 573.20 212.56 577.99 213.01 C 625.20 213.07 672.83 212.86 720.00 213.10 L 720.00 238.11 C 716.67 238.05 713.35 238.00 710.02 237.94 C 710.00 232.63 710.01 227.32 709.98 222.01 C 703.33 221.94 696.68 221.94 690.02 222.01 C 689.95 231.65 690.05 241.29 689.99 250.94 C 683.33 250.99 676.68 250.98 670.02 250.93 C 670.00 247.97 669.98 245.00 669.96 242.04 C 663.31 241.97 656.66 242.03 650.00 242.00 C 649.96 235.34 650.05 228.68 649.98 222.02 C 629.99 221.95 610.01 221.95 590.02 222.01 C 589.95 228.70 590.07 235.38 589.97 242.06 L 588.62 242.00 C 586.84 236.26 584.81 228.90 580.51 224.51 C 577.55 223.57 574.07 223.93 570.99 223.89 C 564.10 223.88 557.07 224.45 550.22 223.67 L 549.46 222.14 C 543.76 221.82 538.03 222.09 532.33 222.00 C 527.61 218.18 522.81 214.50 517.57 211.41 Z" fill="#bfc7d0" />
<path d="M 140.33 222.27 C 146.46 221.56 152.67 222.02 159.00 221.93 C 168.53 221.99 177.93 221.62 187.44 222.32 C 184.41 225.00 181.61 227.93 179.11 231.10 C 169.74 230.88 160.37 231.02 151.00 231.02 C 145.62 230.86 140.30 230.84 134.95 231.59 C 136.42 228.32 138.20 225.16 140.33 222.27 Z" fill="#b5bec9" />
<path d="M 210.00 222.00 C 216.67 222.00 223.33 222.00 230.00 222.00 C 230.00 228.67 230.00 235.33 230.00 242.00 C 236.67 242.00 243.33 242.00 250.00 242.00 C 249.93 248.30 250.12 254.61 249.97 260.90 C 249.90 262.33 248.53 261.88 247.54 262.02 C 241.70 262.04 235.85 261.96 230.00 262.00 C 230.01 278.63 229.98 295.25 230.01 311.88 C 230.04 317.01 229.99 322.14 230.00 327.27 C 230.00 338.85 230.00 350.42 230.00 362.00 C 223.33 362.00 216.67 362.00 210.00 362.00 C 210.00 351.01 210.00 340.03 210.00 329.04 C 210.03 321.67 209.96 314.31 209.98 306.94 C 209.98 305.58 209.99 304.23 209.99 302.88 C 210.01 275.92 209.99 248.96 210.00 222.00 Z" fill="#ecf0f4" />
<path d="M 290.00 222.00 C 296.67 222.00 303.33 222.00 310.00 222.00 C 310.01 254.68 309.99 287.37 310.01 320.05 C 310.04 323.37 310.12 326.65 309.74 329.96 C 309.33 332.98 308.82 335.93 308.90 339.00 C 309.09 346.66 308.97 354.33 309.00 362.00 C 302.97 362.00 296.94 361.99 290.90 362.00 C 290.71 360.32 290.43 358.65 290.21 356.97 C 289.74 351.02 290.11 345.00 290.00 339.03 C 293.32 339.04 296.64 338.97 299.97 338.88 C 299.97 335.96 299.97 333.04 299.97 330.12 C 296.65 330.03 293.32 329.96 290.00 329.97 C 290.00 327.28 290.00 324.58 290.00 321.89 C 290.00 301.93 290.00 281.96 290.00 262.00 C 283.70 261.93 277.39 262.12 271.10 261.97 C 269.67 261.90 270.12 260.54 269.98 259.54 C 269.95 253.70 270.04 247.85 270.00 242.00 C 276.67 242.00 283.33 242.00 290.00 242.00 C 290.00 235.33 290.00 228.67 290.00 222.00 Z" fill="#ecf0f4" />
<path d="M 330.00 222.00 C 363.33 222.00 396.67 222.00 430.00 222.00 C 430.00 228.67 430.00 235.33 430.00 242.00 C 403.33 242.00 376.67 242.00 350.00 242.00 C 350.00 255.33 350.00 268.67 350.00 282.00 C 370.00 282.00 390.00 282.00 410.00 282.00 C 410.00 288.67 410.00 295.33 410.00 302.00 C 390.00 302.00 370.00 302.00 350.00 302.00 C 350.00 306.79 350.00 311.59 350.00 316.38 C 350.00 320.93 350.00 325.48 350.00 330.04 C 348.38 330.07 346.75 330.11 345.13 330.15 C 344.73 339.06 345.27 347.96 344.87 356.88 C 339.91 357.05 334.96 357.07 330.00 357.00 C 330.00 344.08 330.00 331.15 330.00 318.22 C 330.00 286.15 330.00 254.07 330.00 222.00 Z" fill="#ecf0f4" />
<path d="M 450.00 222.00 C 477.44 222.00 504.88 222.00 532.33 222.00 C 538.03 222.09 543.76 221.82 549.46 222.14 L 550.22 223.67 C 550.06 229.78 549.96 235.87 549.98 241.97 L 547.48 241.99 C 534.99 242.02 522.49 241.99 510.00 242.00 C 510.01 262.02 509.98 282.03 510.01 302.05 C 509.98 311.36 510.01 320.68 510.00 330.00 C 503.33 330.01 496.67 330.00 490.00 330.00 C 490.00 321.21 490.00 312.42 490.00 303.63 C 490.00 283.09 490.00 262.54 490.00 242.00 C 476.67 242.00 463.33 242.00 450.00 242.00 C 450.00 235.33 450.00 228.67 450.00 222.00 Z" fill="#ecf0f4" />
<path d="M 590.02 222.01 C 610.01 221.95 629.99 221.95 649.98 222.02 C 650.05 228.68 649.96 235.34 650.00 242.00 C 656.66 242.03 663.31 241.97 669.96 242.04 C 669.98 245.00 670.00 247.97 670.02 250.93 C 670.06 259.96 669.95 268.98 670.01 278.00 C 670.05 285.34 669.97 292.67 670.01 300.01 C 670.03 307.68 669.97 315.35 670.01 323.01 C 670.03 331.35 669.97 339.68 670.01 348.01 C 670.04 352.67 670.02 357.33 669.99 361.99 C 663.33 362.01 656.67 362.01 650.01 361.99 C 649.99 351.32 649.88 340.65 649.96 329.99 C 650.05 320.67 649.98 311.36 649.96 302.05 C 629.99 302.05 610.01 302.05 590.04 302.05 C 590.02 311.35 589.95 320.66 590.04 329.97 C 590.12 340.64 590.01 351.32 589.99 361.99 C 583.33 362.01 576.67 362.01 570.01 361.99 C 569.98 357.32 569.96 352.65 569.99 347.98 C 570.06 335.74 569.89 323.50 569.95 311.26 C 570.01 306.29 570.01 301.31 570.00 296.33 C 570.04 289.27 569.90 282.22 569.96 275.17 C 569.99 271.76 570.00 268.36 570.00 264.95 C 569.99 261.62 569.99 258.30 569.99 254.97 C 569.99 251.92 569.98 248.88 570.01 245.83 C 570.02 244.56 570.02 243.29 570.03 242.02 C 576.23 242.02 582.42 241.97 588.62 242.00 L 589.97 242.06 C 590.07 235.38 589.95 228.70 590.02 222.01 Z" fill="#ecf0f4" />
<path d="M 690.02 222.01 C 696.68 221.94 703.33 221.94 709.98 222.01 C 710.01 227.32 710.00 232.63 710.02 237.94 C 710.08 249.60 709.93 261.27 710.02 272.93 C 710.08 284.59 709.94 296.26 710.02 307.93 C 710.06 319.29 709.96 330.64 710.00 342.00 C 713.33 342.01 716.67 342.00 720.00 342.01 L 720.00 362.00 C 710.00 361.99 700.01 362.01 690.01 361.99 C 689.98 357.32 689.96 352.65 689.99 347.98 C 690.03 339.65 689.97 331.32 689.99 322.98 C 690.03 315.32 689.97 307.66 689.99 299.99 C 690.03 292.66 689.95 285.32 689.99 277.99 C 690.05 268.97 689.93 259.95 689.99 250.94 C 690.05 241.29 689.95 231.65 690.02 222.01 Z" fill="#ecf0f4" />
<path d="M 550.22 223.67 C 557.07 224.45 564.10 223.88 570.99 223.89 C 574.07 223.93 577.55 223.57 580.51 224.51 C 584.81 228.90 586.84 236.26 588.62 242.00 C 582.42 241.97 576.23 242.02 570.03 242.02 C 570.02 243.29 570.02 244.56 570.01 245.83 C 562.91 245.70 555.82 245.61 548.73 246.01 C 548.34 244.66 547.90 243.32 547.48 241.99 L 549.98 241.97 C 549.96 235.87 550.06 229.78 550.22 223.67 Z" fill="#afb8c3" />
<path d="M 151.00 231.02 C 160.37 231.02 169.74 230.88 179.11 231.10 C 176.92 233.97 174.96 237.00 173.38 240.24 C 164.57 239.81 155.80 240.17 147.00 240.08 C 142.05 240.09 137.04 239.84 132.10 240.12 C 132.85 237.21 133.78 234.36 134.95 231.59 C 140.30 230.84 145.62 230.86 151.00 231.02 Z" fill="#aeb7c3" />
<path d="M 710.02 237.94 C 713.35 238.00 716.67 238.05 720.00 238.11 L 720.00 273.12 C 716.67 273.05 713.35 272.98 710.02 272.93 C 709.93 261.27 710.08 249.60 710.02 237.94 Z" fill="#b9c1cb" />
<path d="M 132.10 240.12 C 137.04 239.84 142.05 240.09 147.00 240.08 C 155.80 240.17 164.57 239.81 173.38 240.24 C 171.31 244.93 170.04 249.87 169.90 255.01 C 156.60 255.18 143.29 255.17 129.98 254.87 C 129.97 250.29 130.78 245.85 131.76 241.40 L 132.10 240.12 Z" fill="#a4afbb" />
<path d="M 131.76 241.40 C 130.78 245.85 129.97 250.29 129.98 254.87 C 129.97 260.47 131.03 265.84 132.16 271.29 C 131.16 272.14 130.47 272.92 129.05 272.94 C 125.40 273.28 121.66 272.99 118.00 272.98 C 78.67 272.96 39.33 273.10 0.00 272.89 L 0.00 241.89 C 39.99 242.18 80.00 241.85 120.00 242.05 C 123.95 242.24 127.84 241.83 131.76 241.40 Z" fill="#b8c1cb" />
<path d="M 510.00 242.00 C 522.49 241.99 534.99 242.02 547.48 241.99 C 547.90 243.32 548.34 244.66 548.73 246.01 C 549.54 248.96 549.96 251.99 550.10 255.04 C 549.94 258.35 549.45 261.62 548.51 264.80 C 547.44 268.15 545.96 271.31 544.12 274.31 C 536.73 285.80 526.36 293.25 514.97 300.36 C 513.33 300.96 511.67 301.47 510.01 302.05 C 509.98 282.03 510.01 262.02 510.00 242.00 Z" fill="#121922" />
<path d="M 590.18 242.19 C 593.75 241.82 597.41 242.04 601.00 242.03 C 617.32 242.05 633.64 242.00 649.97 242.04 C 650.03 248.02 650.01 254.01 649.99 259.99 C 630.00 260.01 610.00 260.00 590.01 260.01 C 590.12 254.08 589.70 248.09 590.18 242.19 Z" fill="#bac2cc" />
<path d="M 548.73 246.01 C 555.82 245.61 562.91 245.70 570.01 245.83 C 569.98 248.88 569.99 251.92 569.99 254.97 C 563.36 254.94 556.73 254.97 550.10 255.04 C 549.96 251.99 549.54 248.96 548.73 246.01 Z" fill="#a2acb9" />
<path d="M 670.02 250.93 C 676.68 250.98 683.33 250.99 689.99 250.94 C 689.93 259.95 690.05 268.97 689.99 277.99 C 683.33 278.02 676.67 277.98 670.01 278.00 C 669.95 268.98 670.06 259.96 670.02 250.93 Z" fill="#b6bfca" />
<path d="M 129.98 254.87 C 143.29 255.17 156.60 255.18 169.90 255.01 C 170.10 260.21 171.24 264.99 173.36 269.73 C 164.23 270.24 155.15 269.87 146.00 269.91 C 141.69 269.93 136.64 269.36 132.59 270.97 L 132.16 271.29 C 131.03 265.84 129.97 260.47 129.98 254.87 Z" fill="#99a3b0" />
<path d="M 550.10 255.04 C 556.73 254.97 563.36 254.94 569.99 254.97 C 569.99 258.30 569.99 261.62 570.00 264.95 C 562.83 265.06 555.68 265.13 548.51 264.80 C 549.45 261.62 549.94 258.35 550.10 255.04 Z" fill="#9ba5b2" />
<path d="M 590.01 260.01 C 610.00 260.00 630.00 260.01 649.99 259.99 C 649.96 267.33 650.04 274.66 650.00 282.00 C 630.00 282.00 610.00 282.00 590.00 282.00 C 589.96 274.67 590.04 267.34 590.01 260.01 Z" fill="#b5bec9" />
<path d="M 266.08 261.96 C 267.34 262.18 269.43 261.41 269.95 263.04 C 270.09 276.01 269.95 289.02 270.00 302.00 C 263.33 302.00 256.67 302.00 250.00 302.00 C 250.03 288.85 249.95 275.69 250.03 262.54 C 255.11 261.37 260.84 262.27 266.08 261.96 Z" fill="#ecf0f4" />
<path d="M 548.51 264.80 C 555.68 265.13 562.83 265.06 570.00 264.95 C 570.00 268.36 569.99 271.76 569.96 275.17 C 561.46 275.05 552.41 276.26 544.12 274.31 C 545.96 271.31 547.44 268.15 548.51 264.80 Z" fill="#939eab" />
<path d="M 146.00 269.91 C 155.15 269.87 164.23 270.24 173.36 269.73 C 174.87 272.77 176.66 275.64 178.66 278.39 C 164.39 280.03 149.85 278.39 135.51 279.28 C 134.26 276.60 133.35 273.82 132.59 270.97 C 136.64 269.36 141.69 269.93 146.00 269.91 Z" fill="#8f9ba8" />
<path d="M 132.16 271.29 L 132.59 270.97 C 133.35 273.82 134.26 276.60 135.51 279.28 C 138.00 284.59 140.95 289.66 144.59 294.27 C 146.81 297.08 149.11 299.83 151.54 302.46 C 147.02 302.86 142.54 303.25 138.00 303.06 C 92.01 302.90 45.98 303.20 0.00 302.89 L 0.00 272.89 C 39.33 273.10 78.67 272.96 118.00 272.98 C 121.66 272.99 125.40 273.28 129.05 272.94 C 130.47 272.92 131.16 272.14 132.16 271.29 Z" fill="#b1bac6" />
<path d="M 710.02 272.93 C 713.35 272.98 716.67 273.05 720.00 273.12 L 720.00 308.12 C 716.67 308.05 713.35 307.99 710.02 307.93 C 709.94 296.26 710.08 284.59 710.02 272.93 Z" fill="#b1bac5" />
<path d="M 544.12 274.31 C 552.41 276.26 561.46 275.05 569.96 275.17 C 569.90 282.22 570.04 289.27 570.00 296.33 C 551.98 298.01 533.95 299.59 515.92 301.26 C 515.60 300.96 515.29 300.66 514.97 300.36 C 526.36 293.25 536.73 285.80 544.12 274.31 Z" fill="#84919f" />
<path d="M 178.66 278.39 C 183.25 284.16 188.61 289.05 194.54 293.41 C 186.67 294.53 178.90 293.74 171.00 293.91 C 162.18 293.99 153.40 293.69 144.59 294.27 C 140.95 289.66 138.00 284.59 135.51 279.28 C 149.85 278.39 164.39 280.03 178.66 278.39 Z" fill="#8692a0" />
<path d="M 670.01 278.00 C 676.67 277.98 683.33 278.02 689.99 277.99 C 689.95 285.32 690.03 292.66 689.99 299.99 C 683.33 299.99 676.67 299.99 670.01 300.01 C 669.97 292.67 670.05 285.34 670.01 278.00 Z" fill="#b1bac5" />
<path d="M 194.54 293.41 C 199.53 296.87 204.62 300.03 209.99 302.88 C 209.99 304.23 209.98 305.58 209.98 306.94 C 194.99 306.91 179.99 307.17 165.00 306.96 C 162.38 306.97 159.82 307.35 157.24 307.77 C 155.31 306.04 153.42 304.25 151.54 302.46 C 149.11 299.83 146.81 297.08 144.59 294.27 C 153.40 293.69 162.18 293.99 171.00 293.91 C 178.90 293.74 186.67 294.53 194.54 293.41 Z" fill="#7b8797" />
<path d="M 570.00 296.33 C 570.01 301.31 570.01 306.29 569.95 311.26 C 558.68 323.21 547.60 335.34 536.40 347.35 C 531.88 352.19 527.38 357.03 522.92 361.92 C 521.51 363.30 520.35 364.92 518.23 365.08 C 514.53 365.61 510.75 365.63 507.02 365.89 C 507.00 364.60 506.98 363.30 506.96 362.01 C 507.98 362.00 508.99 362.00 510.00 361.99 C 510.00 354.33 510.00 346.66 510.00 339.00 C 512.00 339.00 514.00 339.00 516.00 339.00 C 516.00 336.00 516.00 333.00 516.00 330.00 C 514.00 330.00 512.00 330.00 510.00 330.00 C 510.01 320.68 509.98 311.36 510.01 302.05 C 511.67 301.47 513.33 300.96 514.97 300.36 C 515.29 300.66 515.60 300.96 515.92 301.26 C 533.95 299.59 551.98 298.01 570.00 296.33 Z" fill="#0087d2" />
<path d="M 670.01 300.01 C 676.67 299.99 683.33 299.99 689.99 299.99 C 689.97 307.66 690.03 315.32 689.99 322.98 C 683.33 322.97 676.67 322.98 670.01 323.01 C 669.97 315.35 670.03 307.68 670.01 300.01 Z" fill="#acb6c2" />
<path d="M 151.54 302.46 C 153.42 304.25 155.31 306.04 157.24 307.77 C 167.24 316.99 178.56 324.33 190.44 330.85 C 175.32 332.39 160.09 333.29 145.03 335.23 C 140.70 336.05 136.39 336.20 132.00 336.03 C 88.00 335.90 43.99 336.13 0.00 335.89 L 0.00 302.89 C 45.98 303.20 92.01 302.90 138.00 303.06 C 142.54 303.25 147.02 302.86 151.54 302.46 Z" fill="#aab4c0" />
<path d="M 590.04 302.05 C 610.01 302.05 629.99 302.05 649.96 302.05 C 649.98 311.36 650.05 320.67 649.96 329.99 C 630.01 330.16 609.99 330.18 590.04 329.97 C 589.95 320.66 590.02 311.35 590.04 302.05 Z" fill="#abb5c1" />
<path d="M 490.00 303.63 C 490.00 312.42 490.00 321.21 490.00 330.00 C 483.67 330.00 477.33 330.00 471.00 330.00 C 470.98 342.83 471.04 355.66 470.96 368.49 C 467.99 368.68 465.01 368.87 462.03 369.06 C 461.97 359.04 462.02 349.02 462.00 339.00 C 459.00 339.00 456.00 339.00 453.00 339.00 C 453.00 336.00 453.00 333.00 453.00 330.00 C 441.00 330.00 429.00 330.00 417.00 330.00 C 417.00 334.00 417.00 338.00 417.00 342.00 C 414.00 342.00 411.00 342.00 408.00 342.00 C 408.00 341.00 408.00 340.00 408.00 339.00 C 405.00 339.00 402.00 339.00 399.00 339.00 C 399.00 336.00 399.00 333.00 399.00 330.00 C 390.00 330.00 381.00 330.00 372.00 330.00 C 372.00 333.00 372.00 336.00 372.00 339.00 C 369.00 339.00 366.00 339.00 363.00 339.00 C 363.00 340.00 363.00 341.00 363.00 342.00 C 360.00 342.00 357.00 342.00 354.00 342.00 C 354.00 337.99 354.00 333.98 354.00 329.96 C 352.67 329.99 351.33 330.01 350.00 330.04 C 350.00 325.48 350.00 320.93 350.00 316.38 C 396.66 312.09 443.34 307.89 490.00 303.63 Z" fill="#0087d2" />
<path d="M 165.00 306.96 C 179.99 307.17 194.99 306.91 209.98 306.94 C 209.96 314.31 210.03 321.67 210.00 329.04 C 203.49 329.69 196.96 330.25 190.44 330.85 C 178.56 324.33 167.24 316.99 157.24 307.77 C 159.82 307.35 162.38 306.97 165.00 306.96 Z" fill="#6e7c8c" />
<path d="M 710.02 307.93 C 713.35 307.99 716.67 308.05 720.00 308.12 L 720.00 342.01 C 716.67 342.00 713.33 342.01 710.00 342.00 C 709.96 330.64 710.06 319.29 710.02 307.93 Z" fill="#a9b3bf" />
<path d="M 230.01 311.88 C 242.70 316.80 255.78 320.37 268.98 323.63 C 256.00 325.00 242.99 326.04 230.00 327.27 C 229.99 322.14 230.04 317.01 230.01 311.88 Z" fill="#6a7889" />
<path d="M 569.95 311.26 C 569.89 323.50 570.06 335.74 569.99 347.98 C 558.83 347.73 547.48 348.73 536.40 347.35 C 547.60 335.34 558.68 323.21 569.95 311.26 Z" fill="#a6b1bd" />
<path d="M 330.00 318.22 C 330.00 331.15 330.00 344.08 330.00 357.00 C 326.00 356.99 322.00 357.00 318.00 357.00 C 318.00 348.00 318.00 339.01 318.00 330.01 C 315.25 330.00 312.49 329.99 309.74 329.96 C 310.12 326.65 310.04 323.37 310.01 320.05 C 316.66 319.34 323.33 318.77 330.00 318.22 Z" fill="#0087d2" />
<path d="M 290.00 321.89 C 290.00 324.58 290.00 327.28 290.00 329.97 C 281.33 330.04 272.67 329.98 264.00 330.00 C 264.00 333.00 264.00 336.00 264.00 339.00 C 261.00 339.00 258.00 339.00 255.00 339.00 C 255.00 345.00 255.00 351.00 255.00 357.00 C 258.00 357.00 261.00 357.00 264.00 357.00 C 264.00 360.00 264.00 363.00 264.00 366.00 C 273.02 366.00 282.03 366.00 291.05 366.00 C 290.99 371.07 291.03 376.13 290.90 381.19 C 248.93 384.01 206.97 387.03 165.01 390.03 C 162.30 382.57 159.63 375.10 156.88 367.66 C 152.89 356.87 149.09 346.00 145.03 335.23 C 160.09 333.29 175.32 332.39 190.44 330.85 C 196.96 330.25 203.49 329.69 210.00 329.04 C 210.00 340.03 210.00 351.01 210.00 362.00 C 216.67 362.00 223.33 362.00 230.00 362.00 C 230.00 350.42 230.00 338.85 230.00 327.27 C 242.99 326.04 256.00 325.00 268.98 323.63 C 276.00 323.22 282.98 322.33 290.00 321.89 Z" fill="#0087d2" />
<path d="M 670.01 323.01 C 676.67 322.98 683.33 322.97 689.99 322.98 C 689.97 331.32 690.03 339.65 689.99 347.98 C 683.33 348.02 676.67 348.04 670.01 348.01 C 669.97 339.68 670.03 331.35 670.01 323.01 Z" fill="#a7b1be" />
<path d="M 264.00 330.00 C 272.67 329.98 281.33 330.04 290.00 329.97 C 293.32 329.96 296.65 330.03 299.97 330.12 C 299.97 333.04 299.97 335.96 299.97 338.88 C 296.64 338.97 293.32 339.04 290.00 339.03 C 281.33 338.97 272.67 339.02 264.00 339.00 C 264.00 336.00 264.00 333.00 264.00 330.00 Z" fill="#fafafa" />
<path d="M 309.74 329.96 C 312.49 329.99 315.25 330.00 318.00 330.01 C 318.00 339.01 318.00 348.00 318.00 357.00 C 322.00 357.00 326.00 356.99 330.00 357.00 C 334.96 357.07 339.91 357.05 344.87 356.88 C 345.27 347.96 344.73 339.06 345.13 330.15 C 346.75 330.11 348.38 330.07 350.00 330.04 C 351.33 330.01 352.67 329.99 354.00 329.96 C 354.00 333.98 354.00 337.99 354.00 342.00 C 354.00 348.67 354.00 355.33 354.00 362.00 C 354.00 366.90 353.99 371.81 354.02 376.71 C 354.06 382.14 354.03 387.58 354.00 393.01 C 351.00 393.01 348.00 393.01 345.00 393.01 C 344.96 387.77 344.94 382.53 344.98 377.29 C 345.00 373.53 345.00 369.76 345.00 366.00 C 336.00 366.00 327.00 366.00 318.00 366.00 C 318.00 370.39 317.99 374.78 318.01 379.17 C 318.05 383.78 318.04 388.40 318.00 393.01 C 315.00 393.01 312.00 393.01 309.00 393.01 C 308.96 388.65 308.95 384.29 308.99 379.93 C 309.02 373.95 308.99 367.98 309.00 362.00 C 308.97 354.33 309.09 346.66 308.90 339.00 C 308.82 335.93 309.33 332.98 309.74 329.96 Z" fill="#fafafa" />
<path d="M 372.00 330.00 C 381.00 330.00 390.00 330.00 399.00 330.00 C 399.00 333.00 399.00 336.00 399.00 339.00 C 390.00 339.00 381.00 339.00 372.00 339.00 C 372.00 336.00 372.00 333.00 372.00 330.00 Z" fill="#fafafa" />
<path d="M 417.00 330.00 C 429.00 330.00 441.00 330.00 453.00 330.00 C 453.00 333.00 453.00 336.00 453.00 339.00 C 444.00 339.00 435.00 339.00 426.00 339.00 C 426.00 340.02 426.00 341.04 426.01 342.06 C 427.32 342.06 428.64 342.05 429.96 342.04 C 429.92 348.68 429.92 355.32 429.96 361.96 C 428.64 361.95 427.32 361.94 426.00 361.94 C 426.00 365.17 426.00 368.40 426.00 371.63 C 426.00 375.75 426.00 379.88 426.00 384.00 C 434.57 384.04 443.15 383.91 451.72 384.10 C 452.18 383.64 452.64 383.18 453.10 382.72 C 453.00 378.38 452.96 374.04 452.98 369.70 C 453.02 359.47 452.99 349.23 453.00 339.00 C 456.00 339.00 459.00 339.00 462.00 339.00 C 462.02 349.02 461.97 359.04 462.03 369.06 C 462.09 374.08 462.06 379.10 462.01 384.11 C 459.40 383.99 456.79 383.89 454.17 383.79 C 453.71 384.25 453.25 384.71 452.79 385.17 C 452.89 387.78 452.98 390.39 453.11 393.00 C 441.07 393.02 429.03 393.02 417.00 393.00 C 416.96 386.08 416.92 379.17 416.98 372.26 C 417.00 368.84 417.00 365.42 417.00 362.00 C 417.00 355.33 417.01 348.67 417.00 342.00 C 417.00 338.00 417.00 334.00 417.00 330.00 Z" fill="#fafafa" />
<path d="M 471.00 330.00 C 477.33 330.00 483.67 330.00 490.00 330.00 C 496.67 330.00 503.33 330.01 510.00 330.00 C 512.00 330.00 514.00 330.00 516.00 330.00 C 516.00 333.00 516.00 336.00 516.00 339.00 C 514.00 339.00 512.00 339.00 510.00 339.00 C 503.33 339.00 496.67 339.00 490.00 339.00 C 486.67 339.00 483.33 339.00 480.00 339.00 C 480.00 345.00 480.00 351.00 480.00 357.00 C 483.33 357.00 486.67 357.00 490.00 357.01 C 495.62 356.96 501.23 356.92 506.85 357.12 C 506.89 358.75 506.93 360.38 506.96 362.01 C 506.98 363.30 507.00 364.60 507.02 365.89 C 505.85 365.96 504.69 366.02 503.52 366.09 C 495.68 365.95 487.84 366.01 480.00 366.00 L 480.00 367.89 C 479.99 370.94 480.00 373.99 480.01 377.04 C 480.03 379.35 480.04 381.66 480.05 383.97 C 492.04 383.97 504.03 383.94 516.02 383.98 C 516.02 386.99 516.02 389.99 516.01 393.00 C 501.01 393.02 486.00 393.02 471.00 393.00 C 470.97 384.83 470.91 376.66 470.96 368.49 C 471.04 355.66 470.98 342.83 471.00 330.00 Z" fill="#fafafa" />
<path d="M 590.04 329.97 C 609.99 330.18 630.01 330.16 649.96 329.99 C 649.88 340.65 649.99 351.32 650.01 361.99 C 656.67 362.01 663.33 362.01 669.99 361.99 C 670.02 357.33 670.04 352.67 670.01 348.01 C 676.67 348.04 683.33 348.02 689.99 347.98 C 689.96 352.65 689.98 357.32 690.01 361.99 C 700.01 362.01 710.00 361.99 720.00 362.00 L 720.00 377.13 C 698.00 376.82 676.00 377.13 654.00 377.01 C 596.04 377.11 537.98 376.97 480.01 377.04 C 480.00 373.99 479.99 370.94 480.00 367.89 C 487.85 367.27 495.70 367.04 503.52 366.09 C 504.69 366.02 505.85 365.96 507.02 365.89 C 510.75 365.63 514.53 365.61 518.23 365.08 C 520.35 364.92 521.51 363.30 522.92 361.92 C 527.38 357.03 531.88 352.19 536.40 347.35 C 547.48 348.73 558.83 347.73 569.99 347.98 C 569.96 352.65 569.98 357.32 570.01 361.99 C 576.67 362.01 583.33 362.01 589.99 361.99 C 590.01 351.32 590.12 340.64 590.04 329.97 Z" fill="#a1acb9" />
<path d="M 0.00 335.89 C 43.99 336.13 88.00 335.90 132.00 336.03 C 136.39 336.20 140.70 336.05 145.03 335.23 C 149.09 346.00 152.89 356.87 156.88 367.66 C 153.25 367.90 149.63 368.11 146.00 368.13 C 103.67 368.07 61.33 368.13 19.00 368.10 C 12.66 368.13 6.33 368.14 0.00 367.87 L 0.00 335.89 Z" fill="#a3aebb" />
<path d="M 255.00 339.00 C 258.00 339.00 261.00 339.00 264.00 339.00 C 264.00 345.00 264.00 351.00 264.00 357.00 C 261.00 357.00 258.00 357.00 255.00 357.00 C 255.00 351.00 255.00 345.00 255.00 339.00 Z" fill="#fafafa" />
<path d="M 264.00 339.00 C 272.67 339.02 281.33 338.97 290.00 339.03 C 290.11 345.00 289.74 351.02 290.21 356.97 C 281.47 357.03 272.74 356.98 264.00 357.00 C 264.00 351.00 264.00 345.00 264.00 339.00 Z" fill="#0087d2" />
<path d="M 363.00 339.00 C 366.00 339.00 369.00 339.00 372.00 339.00 C 372.00 340.00 372.00 341.00 372.00 342.00 C 371.93 346.96 371.95 351.92 372.12 356.88 C 381.03 357.11 389.97 357.10 398.87 356.88 C 399.05 351.92 399.08 346.96 399.00 342.00 C 399.00 341.00 399.00 340.00 399.00 339.00 C 402.00 339.00 405.00 339.00 408.00 339.00 C 408.00 340.00 408.00 341.00 408.00 342.00 C 408.01 348.67 407.99 355.33 408.00 362.00 C 408.00 365.62 408.00 369.24 408.02 372.85 C 408.08 379.57 408.04 386.29 408.00 393.01 C 405.00 393.01 402.00 393.01 399.00 393.01 C 398.96 386.54 398.93 380.07 398.98 373.60 C 398.99 371.06 399.00 368.53 399.01 366.00 C 390.00 366.00 381.00 366.00 372.00 366.00 C 372.00 369.13 372.00 372.26 372.02 375.39 C 372.07 381.26 372.03 387.14 372.00 393.01 C 369.00 393.01 366.00 393.01 363.00 393.01 C 362.96 387.33 362.93 381.66 362.98 375.99 C 363.01 371.33 363.00 366.66 363.00 362.00 C 363.01 355.33 362.99 348.67 363.00 342.00 C 363.00 341.00 363.00 340.00 363.00 339.00 Z" fill="#fafafa" />
<path d="M 372.00 339.00 C 381.00 339.00 390.00 339.00 399.00 339.00 C 399.00 340.00 399.00 341.00 399.00 342.00 C 390.00 342.00 381.00 342.00 372.00 342.00 C 372.00 341.00 372.00 340.00 372.00 339.00 Z" fill="#0087d2" />
<path d="M 426.00 339.00 C 435.00 339.00 444.00 339.00 453.00 339.00 C 452.99 349.23 453.02 359.47 452.98 369.70 C 443.99 370.38 434.99 370.96 426.00 371.63 C 426.00 368.40 426.00 365.17 426.00 361.94 C 427.32 361.94 428.64 361.95 429.96 361.96 C 429.92 355.32 429.92 348.68 429.96 342.04 C 428.64 342.05 427.32 342.06 426.01 342.06 C 426.00 341.04 426.00 340.02 426.00 339.00 Z" fill="#0087d2" />
<path d="M 480.00 339.00 C 483.33 339.00 486.67 339.00 490.00 339.00 C 490.00 345.00 490.00 351.00 490.00 357.01 C 486.67 357.00 483.33 357.00 480.00 357.00 C 480.00 351.00 480.00 345.00 480.00 339.00 Z" fill="#0087d2" />
<path d="M 490.00 339.00 C 496.67 339.00 503.33 339.00 510.00 339.00 C 510.00 346.66 510.00 354.33 510.00 361.99 C 508.99 362.00 507.98 362.00 506.96 362.01 C 506.93 360.38 506.89 358.75 506.85 357.12 C 501.23 356.92 495.62 356.96 490.00 357.01 C 490.00 351.00 490.00 345.00 490.00 339.00 Z" fill="#ecf0f4" />
<path d="M 354.00 342.00 C 357.00 342.00 360.00 342.00 363.00 342.00 C 362.99 348.67 363.01 355.33 363.00 362.00 C 360.00 362.00 357.00 362.00 354.00 362.00 C 354.00 355.33 354.00 348.67 354.00 342.00 Z" fill="#ecf0f4" />
<path d="M 372.00 342.00 C 381.00 342.00 390.00 342.00 399.00 342.00 C 399.08 346.96 399.05 351.92 398.87 356.88 C 389.97 357.10 381.03 357.11 372.12 356.88 C 371.95 351.92 371.93 346.96 372.00 342.00 Z" fill="#ecf0f4" />
<path d="M 408.00 342.00 C 411.00 342.00 414.00 342.00 417.00 342.00 C 417.01 348.67 417.00 355.33 417.00 362.00 C 414.00 362.00 411.00 362.00 408.00 362.00 C 407.99 355.33 408.01 348.67 408.00 342.00 Z" fill="#ecf0f4" />
<path d="M 264.00 357.00 C 272.74 356.98 281.47 357.03 290.21 356.97 C 290.43 358.65 290.71 360.32 290.90 362.00 C 290.98 363.33 291.03 364.67 291.05 366.00 C 282.03 366.00 273.02 366.00 264.00 366.00 C 264.00 363.00 264.00 360.00 264.00 357.00 Z" fill="#fafafa" />
<path d="M 290.90 362.00 C 296.94 361.99 302.97 362.00 309.00 362.00 C 308.99 367.98 309.02 373.95 308.99 379.93 C 306.00 380.08 303.01 380.25 300.01 380.39 C 300.00 375.59 299.99 370.80 300.00 366.00 C 297.02 366.00 294.03 366.00 291.05 366.00 C 291.03 364.67 290.98 363.33 290.90 362.00 Z" fill="#0087d2" />
<path d="M 354.00 362.00 C 357.00 362.00 360.00 362.00 363.00 362.00 C 363.00 366.66 363.01 371.33 362.98 375.99 C 359.99 376.24 357.01 376.47 354.02 376.71 C 353.99 371.81 354.00 366.90 354.00 362.00 Z" fill="#0087d2" />
<path d="M 408.00 362.00 C 411.00 362.00 414.00 362.00 417.00 362.00 C 417.00 365.42 417.00 368.84 416.98 372.26 C 413.99 372.44 411.00 372.65 408.02 372.85 C 408.00 369.24 408.00 365.62 408.00 362.00 Z" fill="#0087d2" />
<path d="M 291.05 366.00 C 294.03 366.00 297.02 366.00 300.00 366.00 C 299.99 370.80 300.00 375.59 300.01 380.39 C 300.02 381.56 300.02 382.73 300.03 383.90 C 297.36 384.03 294.70 384.17 292.04 384.35 C 291.65 383.80 291.28 383.24 290.91 382.67 L 290.90 381.19 C 291.03 376.13 290.99 371.07 291.05 366.00 Z" fill="#fafafa" />
<path d="M 318.00 366.00 C 327.00 366.00 336.00 366.00 345.00 366.00 C 345.00 369.76 345.00 373.53 344.98 377.29 C 335.99 377.92 327.01 378.63 318.01 379.17 C 317.99 374.78 318.00 370.39 318.00 366.00 Z" fill="#0087d2" />
<path d="M 372.00 366.00 C 381.00 366.00 390.00 366.00 399.01 366.00 C 399.00 368.53 398.99 371.06 398.98 373.60 C 389.98 374.01 381.02 374.83 372.02 375.39 C 372.00 372.26 372.00 369.13 372.00 366.00 Z" fill="#0087d2" />
<path d="M 480.00 366.00 C 487.84 366.01 495.68 365.95 503.52 366.09 C 495.70 367.04 487.85 367.27 480.00 367.89 L 480.00 366.00 Z" fill="#1f8ecd" />
<path d="M 0.00 367.87 C 6.33 368.14 12.66 368.13 19.00 368.10 C 61.33 368.13 103.67 368.07 146.00 368.13 C 149.63 368.11 153.25 367.90 156.88 367.66 C 159.63 375.10 162.30 382.57 165.01 390.03 C 206.97 387.03 248.93 384.01 290.90 381.19 L 290.91 382.67 C 291.28 383.24 291.65 383.80 292.04 384.35 C 294.70 384.17 297.36 384.03 300.03 383.90 C 300.02 382.73 300.02 381.56 300.01 380.39 C 303.01 380.25 306.00 380.08 308.99 379.93 C 308.95 384.29 308.96 388.65 309.00 393.01 C 312.00 393.01 315.00 393.01 318.00 393.01 C 318.04 388.40 318.05 383.78 318.01 379.17 C 327.01 378.63 335.99 377.92 344.98 377.29 C 344.94 382.53 344.96 387.77 345.00 393.01 C 348.00 393.01 351.00 393.01 354.00 393.01 C 354.03 387.58 354.06 382.14 354.02 376.71 C 357.01 376.47 359.99 376.24 362.98 375.99 C 362.93 381.66 362.96 387.33 363.00 393.01 C 366.00 393.01 369.00 393.01 372.00 393.01 C 372.03 387.14 372.07 381.26 372.02 375.39 C 381.02 374.83 389.98 374.01 398.98 373.60 C 398.93 380.07 398.96 386.54 399.00 393.01 C 402.00 393.01 405.00 393.01 408.00 393.01 C 408.04 386.29 408.08 379.57 408.02 372.85 C 411.00 372.65 413.99 372.44 416.98 372.26 C 416.92 379.17 416.96 386.08 417.00 393.00 C 429.03 393.02 441.07 393.02 453.11 393.00 C 452.98 390.39 452.89 387.78 452.79 385.17 C 453.25 384.71 453.71 384.25 454.17 383.79 C 456.79 383.89 459.40 383.99 462.01 384.11 C 462.06 379.10 462.09 374.08 462.03 369.06 C 465.01 368.87 467.99 368.68 470.96 368.49 C 470.91 376.66 470.97 384.83 471.00 393.00 C 486.00 393.02 501.01 393.02 516.01 393.00 C 516.02 389.99 516.02 386.99 516.02 383.98 C 504.03 383.94 492.04 383.97 480.05 383.97 C 480.04 381.66 480.03 379.35 480.01 377.04 C 537.98 376.97 596.04 377.11 654.00 377.01 C 676.00 377.13 698.00 376.82 720.00 377.13 L 720.00 418.13 C 683.68 417.86 647.32 418.14 611.00 417.98 C 565.01 418.15 519.01 417.83 473.00 418.07 C 368.66 417.99 264.34 417.93 160.00 418.06 C 130.67 417.84 101.33 418.25 72.00 417.98 C 48.00 417.91 23.99 418.28 0.00 417.87 L 0.00 367.87 Z" fill="#98a4b3" />
<path d="M 452.98 369.70 C 452.96 374.04 453.00 378.38 453.10 382.72 C 452.64 383.18 452.18 383.64 451.72 384.10 C 443.15 383.91 434.57 384.04 426.00 384.00 C 426.00 379.88 426.00 375.75 426.00 371.63 C 434.99 370.96 443.99 370.38 452.98 369.70 Z" fill="#9da9b6" />
<path d="M 254.97 384.01 C 266.55 383.85 278.13 384.10 289.71 383.88 C 290.19 384.35 290.66 384.82 291.14 385.29 C 291.07 387.86 291.02 390.43 290.96 393.00 C 278.97 393.02 266.98 393.02 254.99 393.00 C 254.98 390.00 254.98 387.01 254.97 384.01 Z" fill="#fafafa" />
<path d="M 0.00 417.87 C 23.99 418.28 48.00 417.91 72.00 417.98 C 101.33 418.25 130.67 417.84 160.00 418.06 C 264.34 417.93 368.66 417.99 473.00 418.07 C 519.01 417.83 565.01 418.15 611.00 417.98 C 647.32 418.14 683.68 417.86 720.00 418.13 L 720.00 464.12 C 708.66 463.68 697.34 464.18 686.00 463.94 C 578.01 463.96 469.99 463.93 362.00 463.96 C 241.48 463.87 120.48 464.05 0.00 463.87 L 0.00 417.87 Z" fill="#8f9cac" />
<path d="M 0.00 463.87 C 120.48 464.05 241.48 463.87 362.00 463.96 C 469.99 463.93 578.01 463.96 686.00 463.94 C 697.34 464.18 708.66 463.68 720.00 464.12 L 720.00 496.10 C 652.34 495.78 584.66 496.11 517.00 495.98 C 372.33 496.01 227.67 495.95 83.00 496.00 C 55.34 495.90 27.66 496.13 0.00 495.89 L 0.00 463.87 Z" fill="#8694a5" />
<path d="M 0.00 495.89 C 27.66 496.13 55.34 495.90 83.00 496.00 C 227.67 495.95 372.33 496.01 517.00 495.98 C 584.66 496.11 652.34 495.78 720.00 496.10 L 720.00 520.00 L 0.00 520.00 L 0.00 495.89 Z" fill="#808ea0" />
</svg>