<?xml version="1.0" encoding="UTF-8" standalone="no"?>
<!DOCTYPE svg PUBLIC "-//W3C//DTD SVG 1.1//EN" "http://www.w3.org/Graphics/SVG/1.1/DTD/svg11.dtd">
<svg xmlns="http://www.w3.org/2000/svg" version="1.1" viewBox="0 0 720 520" width="720.0pt" height="520.0pt">
<path d="M 0.00 0.00 L 720.00 0.00 L 720.00 232.03 C 701.00 231.96 682.00 232.03 663.00 231.99 C 658.06 231.99 653.08 231.86 648.15 232.14 C 647.79 238.05 647.98 244.02 648.07 249.94 C 660.03 250.14 671.98 249.86 683.94 250.06 C 684.12 286.01 683.88 321.98 684.06 357.93 C 690.02 358.07 695.98 358.07 701.94 357.93 C 702.12 321.98 701.88 286.01 702.06 250.06 C 708.04 249.96 714.02 249.97 720.00 250.04 L 720.00 520.00 L 0.00 520.00 L 0.00 0.00 Z" fill="#181f29" />
<path d="M 363.72 66.23 C 417.28 84.51 473.29 103.50 527.17 121.84 C 554.75 131.29 582.45 140.49 609.97 150.09 C 604.70 177.38 599.21 204.63 593.99 231.92 C 605.97 232.16 617.95 231.85 629.93 232.06 C 630.07 238.02 630.07 243.98 629.93 249.94 C 616.74 250.20 603.53 249.73 590.34 250.16 C 588.09 262.12 585.67 274.03 583.32 285.97 C 592.86 286.10 602.40 285.88 611.93 286.06 C 612.07 292.02 612.07 297.98 611.93 303.94 C 601.28 304.14 590.62 303.84 579.97 304.08 C 577.40 315.94 575.00 327.94 572.90 339.90 C 585.90 340.21 598.89 339.79 611.89 340.10 C 612.07 346.05 612.08 351.99 611.93 357.94 C 597.70 358.18 583.45 357.78 569.22 358.13 C 566.55 371.76 563.78 385.37 561.22 399.03 C 560.83 400.86 560.46 402.85 559.61 404.54 C 558.15 406.11 555.93 407.09 554.04 408.08 C 546.42 411.72 538.90 415.57 531.33 419.33 C 478.00 446.01 424.66 472.65 371.34 499.34 C 367.67 501.07 363.97 503.62 360.00 504.49 C 356.03 503.62 352.33 501.07 348.66 499.34 C 289.56 469.78 230.44 440.21 171.33 410.68 C 167.76 408.77 163.34 407.33 160.39 404.54 C 158.83 401.03 158.47 396.90 157.67 393.16 C 141.81 312.14 125.88 231.11 110.03 150.09 C 117.41 147.32 124.94 145.00 132.38 142.39 C 206.90 117.04 281.83 91.62 356.28 66.23 C 359.04 65.34 360.96 65.34 363.72 66.23 Z" fill="#f0f0e6" />
<path d="M 371.14 98.86 C 439.01 122.65 507.01 146.17 574.86 170.03 C 571.30 188.52 566.95 206.86 563.36 225.34 C 562.93 227.11 562.68 228.92 561.46 230.33 C 560.05 232.24 557.98 233.38 558.03 235.97 C 557.79 240.62 558.04 245.29 557.96 249.94 C 551.99 250.00 546.03 250.00 540.07 250.06 C 539.94 261.98 539.95 273.93 540.06 285.85 C 543.43 285.98 546.80 286.03 550.16 286.19 C 549.11 292.56 547.68 298.85 546.31 305.16 C 541.87 326.14 537.39 347.11 532.98 368.09 C 532.08 372.17 531.55 376.43 530.20 380.38 C 529.55 382.56 526.60 383.75 524.79 384.82 C 513.03 390.71 501.36 396.79 489.72 402.93 C 487.35 401.71 484.42 398.95 481.66 400.54 C 478.74 401.64 479.45 405.96 479.10 408.45 C 443.27 426.75 407.62 445.42 371.86 463.86 C 368.00 465.71 364.17 468.49 360.00 469.49 C 356.30 468.66 352.86 466.22 349.46 464.56 C 314.33 446.34 279.16 428.17 244.02 409.96 C 240.72 408.22 237.13 406.68 234.07 404.55 C 232.80 403.36 231.61 401.96 230.16 400.98 C 228.51 400.30 226.67 400.02 224.94 399.57 C 219.18 397.68 213.92 394.18 208.46 391.54 C 203.04 388.58 197.28 386.17 192.01 382.95 C 190.04 381.86 189.62 380.07 189.08 378.04 C 180.25 335.68 171.09 293.14 162.15 250.77 C 156.50 223.85 150.57 196.98 145.14 170.03 C 215.37 145.31 286.03 120.91 356.31 96.24 C 361.35 94.26 366.37 97.38 371.14 98.86 Z" fill="#1c3a5c" />
<path d="M 543.29 177.81 C 544.69 179.76 543.89 182.75 541.52 183.45 C 536.55 184.75 531.12 184.56 526.01 185.10 C 411.65 194.66 296.70 204.15 182.42 213.78 C 180.54 213.76 177.86 214.04 176.71 212.19 C 175.31 210.24 176.11 207.25 178.48 206.55 C 183.13 205.31 188.22 205.46 193.01 204.98 C 307.49 195.42 423.27 185.85 537.58 176.22 C 539.46 176.24 542.14 175.96 543.29 177.81 Z" fill="#f6be2c" />
<path d="M 234.27 232.27 C 236.80 231.91 239.44 231.93 241.99 231.93 C 263.30 232.14 284.61 231.85 305.92 232.07 C 306.08 238.03 306.08 243.97 305.92 249.93 C 281.95 250.11 257.98 249.94 234.01 250.01 C 234.10 244.12 233.60 238.12 234.27 232.27 Z" fill="#f0f0e6" />
<path d="M 324.16 232.16 C 328.09 231.90 332.06 231.96 336.00 231.97 C 355.98 232.09 375.96 231.87 395.93 232.07 C 396.04 238.05 396.04 244.03 396.00 250.00 C 378.06 250.12 360.08 249.76 342.16 250.16 C 341.79 262.06 342.02 274.02 342.07 285.93 C 360.04 286.11 378.02 285.95 396.00 286.00 C 396.04 291.98 396.04 297.96 395.93 303.94 C 389.98 304.00 384.02 304.00 378.07 304.06 C 377.96 310.04 377.94 316.02 378.02 322.00 C 372.04 322.04 366.05 322.04 360.06 321.93 C 360.00 315.98 360.00 310.03 359.94 304.09 C 354.03 303.97 348.05 303.77 342.16 304.17 C 341.74 315.85 342.12 327.58 342.02 339.28 C 342.02 342.14 342.05 344.99 342.04 347.85 C 342.02 351.20 341.99 354.56 341.92 357.92 C 335.97 358.08 330.03 358.08 324.08 357.92 C 324.02 354.94 323.99 351.96 323.96 348.98 C 323.94 346.33 323.96 343.67 323.97 341.01 C 324.04 311.01 323.98 281.00 324.00 251.00 C 324.04 244.73 323.79 238.42 324.16 232.16 Z" fill="#f0f0e6" />
<path d="M 432.16 232.16 C 435.75 231.92 439.40 231.96 443.00 231.97 C 469.31 232.10 495.62 231.88 521.92 232.07 C 522.08 238.03 522.08 243.97 521.92 249.93 C 497.97 250.16 474.02 249.84 450.07 250.07 C 449.94 262.02 449.94 273.98 450.07 285.93 C 468.02 286.17 485.97 285.83 503.92 286.07 C 504.08 292.03 504.08 297.97 503.92 303.93 C 485.97 304.17 468.02 303.83 450.07 304.07 C 449.89 313.30 450.07 322.53 449.95 331.77 C 449.93 334.33 449.92 336.89 449.89 339.46 C 458.04 340.41 465.79 339.90 474.00 340.00 C 489.97 340.06 505.95 339.89 521.92 340.07 C 522.08 346.03 522.08 351.97 521.92 357.93 C 491.97 358.05 462.02 358.05 432.07 357.93 C 431.97 352.27 431.97 346.61 431.98 340.95 C 431.98 338.29 431.98 335.63 431.97 332.98 C 432.03 305.65 431.98 278.33 432.00 251.00 C 432.04 244.73 431.79 238.42 432.16 232.16 Z" fill="#f0f0e6" />
<path d="M 648.15 232.14 C 653.08 231.86 658.06 231.99 663.00 231.99 C 682.00 232.03 701.00 231.96 720.00 232.03 L 720.00 250.04 C 714.02 249.97 708.04 249.96 702.06 250.06 C 701.88 286.01 702.12 321.98 701.94 357.93 C 695.98 358.07 690.02 358.07 684.06 357.93 C 683.88 321.98 684.12 286.01 683.94 250.06 C 671.98 249.86 660.03 250.14 648.07 249.94 C 647.98 244.02 647.79 238.05 648.15 232.14 Z" fill="#f0f0e6" />
<path d="M 216.16 250.16 C 222.09 249.81 228.07 250.02 234.01 250.01 C 233.99 280.00 234.00 310.00 234.01 340.00 C 228.03 340.04 222.05 340.04 216.07 339.93 C 215.88 313.62 216.10 287.31 215.97 261.00 C 215.96 257.40 215.92 253.75 216.16 250.16 Z" fill="#f0f0e6" />
<path d="M 342.16 250.16 C 360.08 249.76 378.06 250.12 396.00 250.00 C 396.01 262.00 396.00 274.00 396.00 286.00 C 378.02 285.95 360.04 286.11 342.07 285.93 C 342.02 274.02 341.79 262.06 342.16 250.16 Z" fill="#1c3a5c" />
<path d="M 396.00 250.00 C 401.97 249.96 407.95 249.96 413.93 250.07 C 414.06 262.02 414.06 273.99 413.93 285.93 C 407.95 286.04 401.97 286.04 396.00 286.00 C 396.00 274.00 396.01 262.00 396.00 250.00 Z" fill="#f0f0e6" />
<path d="M 342.16 304.17 C 348.05 303.77 354.03 303.97 359.94 304.09 C 360.00 310.03 360.00 315.98 360.06 321.93 C 366.05 322.04 372.04 322.04 378.02 322.00 C 377.98 326.99 377.89 331.97 378.04 336.96 C 365.95 337.59 354.13 339.25 342.02 339.28 C 342.12 327.58 341.74 315.85 342.16 304.17 Z" fill="#1c3a5c" />
<path d="M 629.94 304.07 C 630.05 316.02 630.05 327.98 629.94 339.93 C 623.98 340.07 618.02 340.07 612.06 339.93 C 612.05 328.03 611.76 316.09 612.19 304.20 C 618.07 303.78 624.05 303.97 629.94 304.07 Z" fill="#f0f0e6" />
<path d="M 378.02 322.00 C 383.99 321.95 389.96 321.96 395.92 322.07 C 396.01 326.47 396.05 330.88 396.03 335.28 C 396.02 336.85 396.01 338.43 396.00 340.00 C 390.05 340.08 384.10 340.05 378.14 339.87 C 378.10 338.90 378.07 337.93 378.04 336.96 C 377.89 331.97 377.98 326.99 378.02 322.00 Z" fill="#f0f0e6" />
<path d="M 522.42 326.20 C 524.35 326.23 527.14 325.91 528.30 327.82 C 529.69 329.77 528.88 332.75 526.52 333.46 C 524.12 334.19 521.47 334.30 518.98 334.49 C 495.92 335.83 472.97 338.33 449.89 339.46 C 449.92 336.89 449.93 334.33 449.95 331.77 C 454.30 331.26 458.67 330.91 463.05 330.64 C 482.87 329.34 502.61 327.49 522.42 326.20 Z" fill="#f6be2c" />
<path d="M 431.97 332.98 C 431.98 335.63 431.98 338.29 431.98 340.95 C 426.07 341.33 420.40 342.06 414.47 341.65 C 409.22 338.68 401.95 340.29 396.00 340.00 C 396.01 338.43 396.02 336.85 396.03 335.28 C 408.02 335.10 420.01 333.78 431.97 332.98 Z" fill="#f6be2c" />
<path d="M 378.04 336.96 C 378.07 337.93 378.10 338.90 378.14 339.87 C 384.10 340.05 390.05 340.08 396.00 340.00 C 395.99 341.28 395.98 342.55 395.97 343.83 C 386.44 344.13 377.00 345.03 367.49 345.71 C 358.98 346.37 350.52 346.84 342.04 347.85 C 342.05 344.99 342.02 342.14 342.02 339.28 C 354.13 339.25 365.95 337.59 378.04 336.96 Z" fill="#f6be2c" />
<path d="M 234.01 340.00 C 256.02 339.96 278.06 340.09 300.07 339.91 C 302.36 339.92 304.58 340.39 306.48 341.72 C 306.30 344.54 306.13 347.35 306.05 350.18 C 305.98 352.76 305.95 355.35 305.91 357.93 C 284.26 358.16 262.60 357.83 240.95 358.10 C 238.31 358.15 235.76 357.80 233.51 356.32 C 233.73 353.50 233.91 350.68 233.98 347.85 C 234.03 345.24 234.02 342.61 234.01 340.00 Z" fill="#f0f0e6" />
<path d="M 396.00 340.00 C 401.95 340.29 409.22 338.68 414.47 341.65 C 413.95 347.07 413.96 352.48 413.92 357.92 C 407.97 358.08 402.03 358.08 396.07 357.92 C 395.99 353.22 395.95 348.53 395.97 343.83 C 395.98 342.55 395.99 341.28 396.00 340.00 Z" fill="#f0f0e6" />
<path d="M 323.97 341.01 C 323.96 343.67 323.94 346.33 323.96 348.98 C 317.98 349.41 312.03 349.86 306.05 350.18 C 306.13 347.35 306.30 344.54 306.48 341.72 C 312.35 342.15 318.13 341.55 323.97 341.01 Z" fill="#f6be2c" />
<path d="M 233.98 347.85 C 233.91 350.68 233.73 353.50 233.51 356.32 C 224.79 355.71 215.86 357.38 207.04 357.77 C 201.15 357.97 195.13 359.11 189.26 358.67 C 186.78 358.51 185.35 355.68 186.33 353.49 C 187.27 351.02 190.76 351.09 192.95 350.75 C 206.64 349.92 220.29 348.65 233.98 347.85 Z" fill="#f6be2c" />
<path d="M 224.94 399.57 C 226.67 400.02 228.51 400.30 230.16 400.98 C 231.61 401.96 232.80 403.36 234.07 404.55 C 232.89 406.20 231.77 408.08 230.25 409.44 C 227.43 410.93 223.37 409.23 223.16 405.85 C 223.32 403.72 224.25 401.57 224.94 399.57 Z" fill="#f6be2c" />
<path d="M 258.39 400.25 C 261.72 399.26 265.01 401.43 264.99 405.00 C 265.02 408.91 261.07 411.05 257.66 409.46 C 253.84 407.59 254.24 401.46 258.39 400.25 Z" fill="#f6be2c" />
<path d="M 290.39 400.25 C 293.72 399.26 297.01 401.43 296.99 405.00 C 297.02 408.91 293.07 411.05 289.66 409.46 C 285.84 407.58 286.24 401.46 290.39 400.25 Z" fill="#f6be2c" />
<path d="M 322.39 400.25 C 325.72 399.26 329.01 401.43 328.99 405.00 C 329.02 408.91 325.07 411.05 321.66 409.46 C 317.84 407.59 318.24 401.46 322.39 400.25 Z" fill="#f6be2c" />
<path d="M 354.39 400.25 C 357.72 399.26 361.01 401.43 360.99 405.00 C 361.02 408.91 357.07 411.05 353.66 409.46 C 349.84 407.59 350.24 401.46 354.39 400.25 Z" fill="#f6be2c" />
<path d="M 386.39 400.25 C 389.72 399.26 393.01 401.43 392.99 405.00 C 393.02 408.91 389.07 411.05 385.66 409.46 C 381.84 407.58 382.24 401.46 386.39 400.25 Z" fill="#f6be2c" />
<path d="M 418.39 400.25 C 421.72 399.26 425.01 401.43 424.99 405.00 C 425.02 408.91 421.07 411.05 417.66 409.46 C 413.84 407.59 414.24 401.46 418.39 400.25 Z" fill="#f6be2c" />
<path d="M 450.39 400.25 C 453.72 399.26 457.01 401.43 456.99 405.00 C 457.02 408.91 453.07 411.05 449.66 409.46 C 445.84 407.59 446.24 401.46 450.39 400.25 Z" fill="#f6be2c" />
<path d="M 489.72 402.93 C 488.94 404.93 488.39 407.44 486.96 409.09 C 484.97 410.70 481.30 408.91 479.10 408.45 C 479.45 405.96 478.74 401.64 481.66 400.54 C 484.42 398.95 487.35 401.71 489.72 402.93 Z" fill="#f6be2c" />
</svg>