<?xml version="1.0" encoding="UTF-8" standalone="no"?>
<!DOCTYPE svg PUBLIC "-//W3C//DTD SVG 1.1//EN" "http://www.w3.org/Graphics/SVG/1.1/DTD/svg11.dtd">
<svg xmlns="http://www.w3.org/2000/svg" version="1.1" viewBox="0 0 720 520" width="720.0pt" height="520.0pt">
<path d="M 0.00 0.00 L 720.00 0.00 L 720.00 520.00 L 0.00 520.00 L 0.00 0.00 Z" fill="#ffffff" />
<path d="M 278.76 101.19 C 301.40 104.03 323.33 112.07 342.35 124.66 C 365.24 139.55 383.83 160.98 395.46 185.67 C 346.96 163.83 298.51 141.85 250.00 120.03 C 255.26 132.69 260.49 145.36 265.73 158.02 C 249.25 157.29 232.81 160.52 218.12 168.10 C 200.53 177.00 186.05 191.72 177.43 209.45 C 170.23 224.10 166.95 240.69 168.25 256.98 C 169.66 275.60 176.91 293.79 188.77 308.23 C 200.26 322.43 216.26 332.99 233.77 338.16 C 247.57 342.37 262.21 343.05 276.41 340.59 C 269.55 356.01 262.70 371.43 255.85 386.84 C 254.13 390.60 252.65 394.42 250.65 398.04 C 251.05 398.53 251.46 399.01 251.87 399.50 C 254.13 398.12 256.48 396.98 258.92 395.96 C 298.78 378.02 338.58 359.93 378.45 342.03 C 357.94 368.60 328.16 387.88 295.51 395.72 C 271.76 401.57 246.63 401.44 222.94 395.33 C 198.06 389.08 175.06 376.20 156.45 358.57 C 138.99 341.87 125.60 320.89 117.88 298.00 C 110.35 275.57 108.07 251.44 111.63 228.03 C 115.75 199.66 128.29 172.69 147.18 151.14 C 160.98 135.26 178.43 122.44 197.51 113.62 C 222.74 102.09 251.24 97.61 278.76 101.19 Z" fill="#eb3c41" />
<path d="M 250.00 120.03 C 298.51 141.85 346.96 163.83 395.46 185.67 C 434.63 203.42 473.86 221.06 513.04 238.81 C 513.01 247.21 513.04 255.61 513.02 264.02 C 499.01 264.03 484.99 264.03 470.98 264.02 C 470.96 250.02 470.97 236.02 470.98 222.02 C 466.33 222.03 461.67 222.03 457.02 222.02 C 457.03 234.31 457.04 246.60 457.02 258.89 C 452.37 256.97 447.63 255.27 442.98 253.39 C 442.97 247.60 442.97 241.81 442.98 236.02 C 438.32 236.02 433.66 236.05 429.00 236.00 C 428.95 231.34 428.98 226.68 428.98 222.02 C 410.33 222.03 391.68 222.03 373.02 222.02 C 373.02 223.46 373.02 224.90 373.02 226.33 C 346.01 215.92 319.01 205.43 292.00 195.01 C 304.01 217.34 315.99 239.68 328.02 262.00 C 319.65 276.52 311.42 291.12 303.03 305.63 C 303.01 297.42 302.81 289.14 303.09 280.94 C 305.05 275.53 307.77 270.34 309.99 265.02 C 307.83 259.29 305.02 253.73 303.12 247.92 C 302.75 239.33 303.08 230.63 302.98 222.02 C 299.39 222.03 295.80 222.03 292.21 222.02 C 283.39 200.68 274.55 179.35 265.73 158.02 C 260.49 145.36 255.26 132.69 250.00 120.03 Z" fill="#1473dc" />
<path d="M 265.73 158.02 C 274.55 179.35 283.39 200.68 292.21 222.02 C 295.80 222.03 299.39 222.03 302.98 222.02 C 303.08 230.63 302.75 239.33 303.12 247.92 C 305.02 253.73 307.83 259.29 309.99 265.02 C 307.77 270.34 305.05 275.53 303.09 280.94 C 302.81 289.14 303.01 297.42 303.03 305.63 L 302.98 306.02 C 315.78 305.99 328.58 306.09 341.38 305.97 C 347.25 306.06 353.11 306.02 358.98 306.02 C 358.97 310.67 358.97 315.33 358.98 319.98 C 340.89 319.99 322.80 319.93 304.71 320.01 C 301.44 320.00 298.17 319.94 294.90 319.99 C 292.94 319.99 290.98 319.98 289.02 319.97 C 289.03 317.43 289.03 314.88 289.00 312.34 C 284.74 321.73 280.62 331.18 276.41 340.59 C 262.21 343.05 247.57 342.37 233.77 338.16 C 216.26 332.99 200.26 322.43 188.77 308.23 C 176.91 293.79 169.66 275.60 168.25 256.98 C 166.95 240.69 170.23 224.10 177.43 209.45 C 186.05 191.72 200.53 177.00 218.12 168.10 C 232.81 160.52 249.25 157.29 265.73 158.02 Z" fill="#ffffff" />
<path d="M 292.00 195.01 C 319.01 205.43 346.01 215.92 373.02 226.33 C 373.02 248.78 373.02 271.22 373.02 293.67 C 362.47 297.75 351.88 301.75 341.38 305.97 C 328.58 306.09 315.78 305.99 302.98 306.02 L 303.03 305.63 C 311.42 291.12 319.65 276.52 328.02 262.00 C 315.99 239.68 304.01 217.34 292.00 195.01 Z" fill="#020e1a" />
<path d="M 373.02 222.02 C 391.68 222.03 410.33 222.03 428.98 222.02 C 428.98 226.68 428.95 231.34 429.00 236.00 C 418.77 235.97 408.53 235.92 398.29 236.04 C 394.52 235.94 390.75 235.98 386.98 235.99 C 386.98 245.33 386.98 254.67 386.98 264.02 C 400.99 264.01 415.00 264.04 429.00 264.00 C 428.98 266.67 428.98 269.33 428.98 272.00 C 428.98 273.99 428.98 275.98 428.98 277.98 C 423.76 277.99 418.53 277.92 413.31 278.01 C 404.54 277.95 395.76 277.99 386.98 277.98 C 386.98 281.41 386.98 284.84 386.97 288.27 C 386.97 298.84 386.97 309.41 386.98 319.98 C 382.33 319.97 377.67 319.97 373.02 319.98 C 373.03 311.21 373.03 302.44 373.02 293.67 C 373.02 271.22 373.02 248.78 373.02 226.33 C 373.02 224.90 373.02 223.46 373.02 222.02 Z" fill="#ffffff" />
<path d="M 386.98 235.99 C 390.75 235.98 394.52 235.94 398.29 236.04 C 408.48 240.16 418.78 244.02 429.02 248.01 C 429.01 253.34 429.04 258.67 429.00 264.00 C 415.00 264.04 400.99 264.01 386.98 264.02 C 386.98 254.67 386.98 245.33 386.98 235.99 Z" fill="#020e1a" />
<path d="M 398.29 236.04 C 408.53 235.92 418.77 235.97 429.00 236.00 C 429.04 240.00 429.03 244.00 429.02 248.01 C 418.78 244.02 408.48 240.16 398.29 236.04 Z" fill="#1473dc" />
<path d="M 429.00 236.00 C 433.66 236.05 438.32 236.02 442.98 236.02 C 442.97 241.81 442.97 247.60 442.98 253.39 C 442.98 256.92 442.98 260.45 442.99 263.99 C 438.33 263.98 433.66 263.96 429.00 264.00 C 429.04 258.67 429.01 253.34 429.02 248.01 C 429.03 244.00 429.04 240.00 429.00 236.00 Z" fill="#ffffff" />
<path d="M 526.98 245.11 C 531.68 247.15 536.32 249.33 540.99 251.43 C 541.05 257.14 541.05 262.86 540.99 268.57 C 536.32 270.67 531.68 272.85 526.98 274.89 C 526.97 264.96 526.97 255.04 526.98 245.11 Z" fill="#1473dc" />
<path d="M 442.98 253.39 C 447.63 255.27 452.37 256.97 457.02 258.89 L 457.04 261.14 C 447.68 264.76 438.34 268.41 428.98 272.00 C 428.98 269.33 428.98 266.67 429.00 264.00 C 433.66 263.96 438.33 263.98 442.99 263.99 C 442.98 260.45 442.98 256.92 442.98 253.39 Z" fill="#020e1a" />
<path d="M 554.97 257.71 C 556.63 258.48 558.30 259.24 559.96 260.00 C 558.30 260.76 556.63 261.52 554.97 262.29 C 554.97 260.76 554.97 259.24 554.97 257.71 Z" fill="#1473dc" />
<path d="M 457.04 261.14 C 456.99 276.29 457.10 291.43 456.98 306.57 C 430.78 318.33 404.60 330.15 378.45 342.03 C 338.58 359.93 298.78 378.02 258.92 395.96 C 256.48 396.98 254.13 398.12 251.87 399.50 C 251.46 399.01 251.05 398.53 250.65 398.04 C 252.65 394.42 254.13 390.60 255.85 386.84 C 262.70 371.43 269.55 356.01 276.41 340.59 C 280.62 331.18 284.74 321.73 289.00 312.34 C 289.03 314.88 289.03 317.43 289.02 319.97 C 290.98 319.98 292.94 319.99 294.90 319.99 C 293.88 321.62 292.96 323.34 292.01 325.02 C 296.24 323.33 300.51 321.76 304.71 320.01 C 322.80 319.93 340.89 319.99 358.98 319.98 C 358.97 315.33 358.97 310.67 358.98 306.02 C 353.11 306.02 347.25 306.06 341.38 305.97 C 351.88 301.75 362.47 297.75 373.02 293.67 C 373.03 302.44 373.03 311.21 373.02 319.98 C 377.67 319.97 382.33 319.97 386.98 319.98 C 386.97 309.41 386.97 298.84 386.97 288.27 C 395.75 284.83 404.56 281.50 413.31 278.01 C 418.53 277.92 423.76 277.99 428.98 277.98 C 428.98 275.98 428.98 273.99 428.98 272.00 C 438.34 268.41 447.68 264.76 457.04 261.14 Z" fill="#1473dc" />
<path d="M 386.98 277.98 C 395.76 277.99 404.54 277.95 413.31 278.01 C 404.56 281.50 395.75 284.83 386.97 288.27 C 386.98 284.84 386.98 281.41 386.98 277.98 Z" fill="#020e1a" />
<path d="M 470.98 277.98 C 484.99 277.97 499.01 277.97 513.02 277.98 C 513.03 279.05 513.03 280.12 513.04 281.19 C 499.05 287.53 485.05 293.86 471.04 300.16 C 470.91 292.77 470.99 285.37 470.98 277.98 Z" fill="#1473dc" />
<path d="M 294.90 319.99 C 298.17 319.94 301.44 320.00 304.71 320.01 C 300.51 321.76 296.24 323.33 292.01 325.02 C 292.96 323.34 293.88 321.62 294.90 319.99 Z" fill="#020e1a" />
</svg>