<?xml version="1.0" encoding="UTF-8" standalone="no"?>
<!DOCTYPE svg PUBLIC "-//W3C//DTD SVG 1.1//EN" "http://www.w3.org/Graphics/SVG/1.1/DTD/svg11.dtd">
<svg xmlns="http://www.w3.org/2000/svg" version="1.1" viewBox="0 0 720 520" width="720.0pt" height="520.0pt">
<path d="M 0.00 0.00 L 720.00 0.00 L 720.00 520.00 L 0.00 520.00 L 0.00 0.00 Z" fill="#f6f8fa" />
<path d="M 575.19 143.57 C 580.82 143.08 586.45 142.76 592.10 142.76 C 592.13 144.22 592.16 145.69 592.20 147.15 C 583.80 148.18 575.38 148.64 566.95 149.24 C 471.85 156.48 376.72 163.69 281.61 170.86 C 273.70 171.53 265.83 172.27 257.89 172.24 C 257.87 170.78 257.86 169.32 257.85 167.86 C 266.23 166.82 274.63 166.35 283.05 165.76 C 367.39 159.30 451.77 153.01 536.11 146.54 C 549.14 145.61 562.18 144.71 575.19 143.57 Z" fill="#0c7191" />
<path d="M 178.89 164.18 C 195.73 167.07 211.57 175.25 223.44 187.56 C 236.23 200.27 244.05 217.12 246.45 234.93 C 259.63 235.10 272.82 234.93 286.00 235.03 C 286.00 237.68 286.00 240.33 286.00 242.98 C 275.34 243.03 264.67 242.98 254.01 243.01 C 254.00 248.34 254.00 253.67 254.01 258.99 C 262.01 259.00 270.00 258.99 278.00 259.02 C 278.00 261.67 278.00 264.33 278.00 266.98 C 270.00 267.01 262.01 267.00 254.01 267.01 C 254.00 275.01 254.01 283.00 253.98 291.00 C 251.33 291.00 248.68 291.00 246.02 291.00 C 245.91 280.32 246.19 269.63 245.78 258.96 C 242.88 275.58 235.02 291.12 222.94 302.94 C 210.49 315.64 193.80 323.80 176.21 326.23 C 159.30 328.66 141.63 325.44 126.56 317.45 C 115.18 311.47 105.34 302.55 97.87 292.12 C 88.42 278.70 83.21 262.43 82.98 246.03 C 82.77 227.98 88.63 209.95 99.57 195.57 C 107.77 184.93 118.30 176.17 130.55 170.57 C 145.57 163.66 162.60 161.30 178.89 164.18 Z" fill="#0a141c" />
<path d="M 157.42 187.49 C 179.00 184.48 201.26 194.59 213.23 212.78 C 221.79 225.51 224.99 241.66 221.81 256.69 C 217.44 278.82 199.57 296.95 177.50 301.63 C 164.65 304.54 150.88 302.79 139.11 296.90 C 129.24 291.99 120.87 284.25 115.22 274.77 C 107.82 262.46 105.22 247.38 108.19 233.31 C 110.29 222.95 115.32 213.25 122.51 205.51 C 131.62 195.68 144.13 189.22 157.42 187.49 Z" fill="#f6f8fa" />
<path d="M 245.60 202.84 C 254.79 202.56 263.69 203.24 272.89 203.64 C 375.60 208.54 478.30 213.42 581.01 218.32 C 589.78 218.74 598.44 219.00 607.19 219.80 C 607.16 221.27 607.13 222.74 607.10 224.21 C 598.06 224.37 589.13 223.77 580.11 223.36 C 475.11 218.35 370.11 213.35 265.11 208.36 C 258.79 208.02 252.31 208.07 246.06 207.02 C 245.89 205.63 245.74 204.23 245.60 202.84 Z" fill="#0c7191" />
<path d="M 294.24 235.25 C 297.11 234.88 300.10 234.93 303.00 234.95 C 313.33 235.05 323.66 234.96 334.00 235.02 C 334.00 237.67 334.00 240.32 334.00 242.97 C 328.67 242.99 323.34 243.01 318.01 243.01 C 317.99 256.34 317.99 269.66 318.01 282.99 C 323.34 282.98 328.68 283.01 334.02 283.02 C 333.99 284.75 333.98 286.48 333.98 288.21 C 333.98 289.12 333.97 290.03 333.96 290.94 C 326.06 291.01 318.15 290.94 310.25 291.21 C 304.83 291.02 299.42 290.95 294.00 290.96 C 294.00 288.32 294.00 285.67 294.00 283.02 C 299.33 283.01 304.66 282.99 309.99 282.99 C 310.01 269.66 310.01 256.34 309.99 243.01 C 304.62 243.02 299.25 242.99 293.87 242.97 C 293.91 240.41 293.93 237.79 294.24 235.25 Z" fill="#0a141c" />
<path d="M 342.12 235.11 C 344.74 234.97 347.31 234.96 349.93 234.95 C 349.98 237.62 350.01 240.28 350.05 242.95 C 352.70 242.99 355.35 243.02 357.99 243.06 C 357.99 245.68 358.00 248.31 358.00 250.94 C 355.35 250.97 352.75 250.97 350.11 251.13 C 349.79 262.87 350.14 274.64 349.98 286.38 C 349.96 287.90 349.94 289.43 349.92 290.95 C 347.30 290.97 344.68 290.97 342.06 290.95 C 342.05 289.92 342.03 288.89 342.02 287.86 C 342.06 270.28 341.83 252.68 342.12 235.11 Z" fill="#0a141c" />
<path d="M 374.12 235.11 C 376.74 234.97 379.35 234.96 381.98 234.94 C 382.04 250.94 381.96 266.94 382.02 282.94 C 382.03 284.65 382.03 286.36 382.01 288.06 C 382.00 289.13 381.98 290.20 381.97 291.26 C 378.87 290.98 376.15 291.38 373.56 289.32 C 373.60 287.53 373.73 285.75 373.84 283.96 C 374.13 278.35 373.99 272.68 373.99 267.06 C 371.33 267.02 368.67 266.98 366.01 266.94 C 366.01 264.30 366.00 261.66 366.00 259.03 C 368.67 259.01 371.33 258.99 374.00 258.97 C 374.08 251.02 373.82 243.05 374.12 235.11 Z" fill="#0a141c" />
<path d="M 390.11 235.11 C 403.40 234.83 416.71 235.06 430.00 235.02 C 430.00 237.67 430.00 240.32 430.00 242.98 C 419.34 243.03 408.67 242.98 398.01 243.01 C 398.00 248.34 398.00 253.66 398.01 258.99 C 406.01 259.00 414.00 258.99 422.00 259.02 C 422.00 261.67 422.00 264.33 422.00 266.98 C 414.00 267.01 406.01 267.00 398.01 267.01 C 398.00 271.70 397.88 276.43 398.09 281.12 L 398.23 282.86 C 408.57 283.16 419.07 283.22 429.40 282.61 C 429.78 285.38 429.99 288.17 430.19 290.96 C 416.79 291.04 403.39 290.99 389.99 290.99 C 389.97 289.68 389.95 288.38 389.94 287.07 C 389.93 285.59 389.92 284.12 389.93 282.65 C 390.16 266.80 389.79 250.94 390.11 235.11 Z" fill="#0a141c" />
<path d="M 486.11 235.11 C 499.40 234.83 512.71 235.06 526.00 235.02 C 526.00 237.67 526.00 240.32 526.00 242.98 C 515.34 243.03 504.67 242.98 494.01 243.01 C 494.00 248.34 494.00 253.66 494.01 258.99 C 501.98 258.99 509.96 259.02 517.93 258.99 C 517.98 261.76 518.05 264.53 518.15 267.30 L 517.26 267.34 C 509.49 266.80 501.78 267.01 494.01 267.02 C 494.01 268.08 494.01 269.14 494.00 270.21 C 494.00 271.88 494.00 273.56 494.00 275.23 C 494.00 277.81 494.01 280.40 494.01 282.98 C 504.67 283.03 515.34 282.97 526.00 283.02 C 526.00 285.68 526.00 288.33 526.00 290.98 C 512.67 291.01 499.34 291.00 486.01 290.99 C 486.01 286.20 486.00 281.41 485.98 276.61 C 485.97 274.95 485.96 273.28 485.96 271.61 C 486.12 259.45 485.80 247.27 486.11 235.11 Z" fill="#0a141c" />
<path d="M 534.11 235.11 C 544.72 234.81 555.36 235.08 565.98 235.01 C 565.98 237.67 566.00 240.33 566.01 242.99 C 558.05 243.08 550.07 242.82 542.11 243.11 C 541.82 250.39 542.06 257.70 542.02 264.99 C 542.02 266.66 542.02 268.33 542.02 270.00 C 542.00 274.33 542.01 278.66 542.00 282.99 C 550.01 283.00 558.01 283.00 566.01 283.01 C 566.00 285.67 565.99 288.33 565.98 290.99 C 555.32 291.01 544.67 291.01 534.01 290.99 C 534.00 284.30 534.00 277.60 533.98 270.91 C 533.98 269.25 533.98 267.59 533.98 265.93 C 534.11 255.66 533.81 245.37 534.11 235.11 Z" fill="#0a141c" />
<path d="M 590.12 235.11 C 600.74 234.82 611.38 235.07 622.00 235.02 C 622.00 237.67 622.00 240.32 622.00 242.98 C 611.32 243.01 600.63 243.04 589.95 242.96 C 589.97 240.33 589.98 237.73 590.12 235.11 Z" fill="#0a141c" />
<path d="M 630.24 235.24 C 632.78 234.91 635.42 234.93 637.99 234.94 C 648.66 235.06 659.33 234.96 670.00 235.02 C 670.00 237.67 670.00 240.33 670.00 242.98 C 659.34 243.03 648.67 242.98 638.01 243.01 C 638.00 248.34 638.00 253.66 638.01 258.99 C 646.01 259.00 654.00 258.99 662.00 259.02 C 662.00 261.67 662.00 264.33 662.00 266.98 C 654.00 267.01 646.01 267.00 638.01 267.01 C 638.00 272.33 638.00 277.66 638.01 282.99 C 648.67 283.02 659.34 282.97 670.00 283.02 C 670.00 285.68 670.00 288.33 670.00 290.98 C 656.67 291.02 643.34 291.00 630.01 290.99 C 629.97 276.33 630.04 261.67 629.97 247.00 C 629.98 243.11 629.76 239.10 630.24 235.24 Z" fill="#0a141c" />
<path d="M 542.11 243.11 C 550.07 242.82 558.05 243.08 566.01 242.99 C 566.00 249.36 566.00 255.73 565.99 262.11 C 558.01 263.18 550.01 264.02 542.02 264.99 C 542.06 257.70 541.82 250.39 542.11 243.11 Z" fill="#f6f8fa" />
<path d="M 566.01 242.99 C 568.67 243.00 571.33 243.01 573.99 243.02 C 573.99 249.08 574.00 255.14 574.03 261.21 C 574.04 262.88 574.05 264.55 574.05 266.22 C 574.01 271.81 573.99 277.39 573.99 282.98 C 571.33 282.99 568.67 283.00 566.01 283.01 C 566.00 277.87 566.00 272.72 565.99 267.58 C 565.99 265.75 565.99 263.93 565.99 262.11 C 566.00 255.73 566.00 249.36 566.01 242.99 Z" fill="#0a141c" />
<path d="M 582.10 243.12 C 584.73 242.98 587.32 242.97 589.95 242.96 C 589.79 249.33 590.24 255.65 590.55 262.00 C 590.17 269.02 589.77 275.98 589.99 283.01 C 587.33 283.00 584.67 282.99 582.01 282.98 C 582.00 277.07 581.99 271.16 582.03 265.25 C 582.04 263.58 582.04 261.91 582.03 260.24 C 582.03 254.54 581.85 248.81 582.10 243.12 Z" fill="#0a141c" />
<path d="M 350.11 251.13 C 352.75 250.97 355.35 250.97 358.00 250.94 C 358.00 253.62 358.02 256.30 358.01 258.97 C 360.67 258.99 363.34 259.01 366.00 259.03 C 366.00 261.66 366.01 264.30 366.01 266.94 C 368.67 266.98 371.33 267.02 373.99 267.06 C 373.99 272.68 374.13 278.35 373.84 283.96 C 365.88 284.92 357.99 285.99 349.98 286.38 C 350.14 274.64 349.79 262.87 350.11 251.13 Z" fill="#f6f8fa" />
<path d="M 358.00 250.94 C 360.66 250.98 363.33 251.01 365.99 251.04 C 365.98 253.70 366.00 256.36 366.00 259.03 C 363.34 259.01 360.67 258.99 358.01 258.97 C 358.02 256.30 358.00 253.62 358.00 250.94 Z" fill="#0a141c" />
<path d="M 606.11 259.12 C 611.39 258.85 616.70 259.01 621.99 259.02 C 622.01 269.67 622.01 280.33 621.99 290.99 C 611.33 291.01 600.68 291.01 590.02 290.99 C 590.02 288.33 590.00 285.67 589.99 283.01 C 597.99 283.00 605.99 283.00 613.99 282.99 C 614.00 277.68 614.00 272.37 614.00 267.06 C 611.32 267.02 608.63 266.97 605.95 266.93 C 605.96 264.31 605.97 261.73 606.11 259.12 Z" fill="#0a141c" />
<path d="M 582.03 260.24 C 582.04 261.91 582.04 263.58 582.03 265.25 C 579.37 265.60 576.71 265.92 574.05 266.22 C 574.05 264.55 574.04 262.88 574.03 261.21 C 576.70 260.90 579.37 260.58 582.03 260.24 Z" fill="#0c7191" />
<path d="M 565.99 262.11 C 565.99 263.93 565.99 265.75 565.99 267.58 C 558.01 267.98 550.02 269.11 542.02 270.00 C 542.02 268.33 542.02 266.66 542.02 264.99 C 550.01 264.02 558.01 263.18 565.99 262.11 Z" fill="#0c7191" />
<path d="M 533.98 265.93 C 533.98 267.59 533.98 269.25 533.98 270.91 C 520.64 272.23 507.36 274.22 494.00 275.23 C 494.00 273.56 494.00 271.88 494.00 270.21 C 501.80 269.61 509.57 268.85 517.26 267.34 L 518.15 267.30 C 523.46 267.08 528.70 266.46 533.98 265.93 Z" fill="#0c7191" />
<path d="M 494.01 267.02 C 501.78 267.01 509.49 266.80 517.26 267.34 C 509.57 268.85 501.80 269.61 494.00 270.21 C 494.01 269.14 494.01 268.08 494.01 267.02 Z" fill="#f6f8fa" />
<path d="M 565.99 267.58 C 566.00 272.72 566.00 277.87 566.01 283.01 C 558.01 283.00 550.01 283.00 542.00 282.99 C 542.01 278.66 542.00 274.33 542.02 270.00 C 550.02 269.11 558.01 267.98 565.99 267.58 Z" fill="#f6f8fa" />
<path d="M 485.96 271.61 C 485.96 273.28 485.97 274.95 485.98 276.61 C 467.08 278.11 448.28 280.93 429.40 282.61 C 419.07 283.22 408.57 283.16 398.23 282.86 L 398.09 281.12 C 414.72 279.62 431.28 277.27 447.89 275.61 C 460.58 274.35 473.24 272.29 485.96 271.61 Z" fill="#0c7191" />
<path d="M 382.02 282.94 C 384.66 282.82 387.29 282.71 389.93 282.65 C 389.92 284.12 389.93 285.59 389.94 287.07 C 387.30 287.42 384.66 287.75 382.01 288.06 C 382.03 286.36 382.03 284.65 382.02 282.94 Z" fill="#0c7191" />
<path d="M 373.84 283.96 C 373.73 285.75 373.60 287.53 373.56 289.32 C 365.41 289.82 357.28 290.97 349.17 291.90 C 349.07 293.61 348.97 295.31 348.87 297.02 C 347.35 296.97 345.84 296.94 344.32 296.91 C 344.01 295.11 343.69 293.31 343.36 291.51 C 341.45 293.16 339.51 294.75 337.83 296.65 C 331.60 297.19 325.27 297.01 319.01 297.02 C 319.01 300.33 319.01 303.64 319.01 306.95 C 324.00 306.98 329.00 307.01 334.00 307.05 C 333.98 308.68 333.98 310.32 334.00 311.95 C 329.00 311.99 324.01 312.02 319.01 312.05 C 319.01 315.35 319.01 318.66 319.01 321.96 C 325.67 321.99 332.33 322.00 339.00 322.03 C 338.98 323.68 338.98 325.32 339.00 326.96 C 330.67 327.03 322.35 327.03 314.02 326.97 C 313.94 316.63 314.08 306.30 313.93 295.97 C 308.99 296.61 304.06 297.08 299.09 297.41 C 298.92 307.28 299.05 317.14 298.97 327.00 C 297.32 326.98 295.68 326.98 294.03 327.00 C 293.95 317.35 294.07 307.71 293.92 298.06 C 280.27 299.49 266.61 301.77 252.89 302.29 C 252.88 300.83 252.87 299.36 252.86 297.89 C 262.41 296.19 272.38 296.27 281.75 293.81 C 290.99 290.48 300.35 292.92 310.25 291.21 C 318.15 290.94 326.06 291.01 333.96 290.94 C 333.97 290.03 333.98 289.12 333.98 288.21 C 336.66 288.10 339.34 287.97 342.02 287.86 C 342.03 288.89 342.05 289.92 342.06 290.95 C 344.68 290.97 347.30 290.97 349.92 290.95 C 349.94 289.43 349.96 287.90 349.98 286.38 C 357.99 285.99 365.88 284.92 373.84 283.96 Z" fill="#0c7191" />
<path d="M 364.09 292.00 C 365.72 292.01 367.34 292.02 368.97 292.03 C 368.98 293.67 368.99 295.31 369.01 296.95 C 367.33 296.92 365.65 296.90 363.97 296.88 C 364.02 295.25 364.06 293.63 364.09 292.00 Z" fill="#0c7191" />
<path d="M 374.00 292.05 C 382.33 291.99 390.67 291.95 399.00 292.05 C 398.99 293.67 398.99 295.30 399.01 296.92 C 395.68 296.94 392.35 297.06 389.02 297.08 C 388.98 307.05 389.04 317.02 388.97 327.00 C 387.32 326.98 385.68 326.98 384.03 327.00 C 383.96 317.02 384.02 307.05 383.98 297.08 C 380.65 297.06 377.32 296.94 373.99 296.92 C 374.01 295.30 374.01 293.67 374.00 292.05 Z" fill="#0c7191" />
<path d="M 434.00 292.04 C 442.34 291.96 450.66 291.96 459.00 292.04 C 458.99 293.67 458.99 295.30 459.01 296.92 C 455.68 296.94 452.35 297.06 449.02 297.08 C 448.98 307.05 449.04 317.02 448.97 327.00 C 447.32 326.98 445.68 326.98 444.03 327.00 C 443.96 317.02 444.02 307.05 443.98 297.08 C 440.65 297.06 437.32 296.94 433.99 296.92 C 434.01 295.30 434.01 293.67 434.00 292.04 Z" fill="#0c7191" />
<path d="M 464.30 292.31 C 472.45 291.46 480.80 292.20 489.00 292.04 C 488.98 293.68 488.98 295.32 489.00 296.97 C 482.33 297.00 475.67 297.01 469.01 297.04 C 469.01 300.34 469.01 303.64 469.01 306.95 C 474.01 306.98 479.00 307.01 484.00 307.05 C 483.98 308.68 483.98 310.32 484.00 311.95 C 479.00 311.99 474.01 312.02 469.01 312.05 C 469.01 315.35 469.01 318.66 469.01 321.96 C 475.67 321.99 482.34 322.00 489.00 322.03 C 488.98 323.68 488.98 325.32 489.00 326.96 C 480.67 327.03 472.35 327.03 464.02 326.97 C 463.97 318.31 464.04 309.65 463.92 300.99 C 463.93 298.12 463.86 295.15 464.30 292.31 Z" fill="#0c7191" />
<path d="M 499.53 292.37 C 505.90 291.43 512.57 292.14 519.00 292.06 C 518.99 293.69 518.98 295.33 519.00 296.96 C 512.23 297.01 505.49 297.12 498.72 296.81 C 498.95 295.31 499.16 293.84 499.53 292.37 Z" fill="#0c7191" />
<path d="M 524.00 292.04 C 532.34 291.96 540.66 291.96 549.00 292.05 C 548.99 293.67 548.99 295.30 549.01 296.92 C 545.68 296.94 542.35 297.06 539.02 297.08 C 538.98 307.05 539.04 317.02 538.97 327.00 C 537.32 326.98 535.68 326.98 534.03 327.00 C 533.96 317.02 534.02 307.05 533.98 297.08 C 530.65 297.06 527.32 296.94 523.99 296.92 C 524.01 295.30 524.01 293.67 524.00 292.04 Z" fill="#0c7191" />
<path d="M 348.87 297.02 C 350.56 297.04 352.25 297.05 353.94 297.04 C 353.96 298.71 353.99 300.37 354.02 302.03 C 352.39 301.99 350.75 301.96 349.12 301.93 C 349.04 300.29 348.96 298.65 348.87 297.02 Z" fill="#0c7191" />
<path d="M 359.27 297.28 C 360.84 297.12 362.41 297.00 363.97 296.88 C 363.95 298.57 363.95 300.25 363.97 301.94 C 362.27 301.95 360.57 301.97 358.87 302.00 C 358.99 300.42 359.11 298.85 359.27 297.28 Z" fill="#0c7191" />
<path d="M 494.15 297.31 C 495.67 297.11 497.20 296.96 498.72 296.81 C 498.91 300.21 499.00 303.62 499.01 307.03 C 497.33 306.98 495.64 306.94 493.96 306.91 C 493.97 303.69 493.94 300.52 494.15 297.31 Z" fill="#0c7191" />
<path d="M 354.02 302.03 C 355.64 302.03 357.26 302.02 358.87 302.00 C 359.03 307.00 359.02 312.00 358.98 317.00 C 357.32 316.95 355.66 316.90 354.00 316.84 C 354.00 311.91 354.00 306.97 354.02 302.03 Z" fill="#0c7191" />
<path d="M 499.01 307.03 C 503.98 307.00 508.94 307.00 513.91 307.01 C 513.94 308.66 513.98 310.32 514.03 311.97 C 509.04 312.00 504.06 312.00 499.08 311.99 C 499.06 310.34 499.04 308.68 499.01 307.03 Z" fill="#0c7191" />
<path d="M 514.03 311.97 C 515.68 312.02 517.34 312.06 519.00 312.09 C 519.00 315.36 519.00 318.63 519.00 321.90 C 517.34 321.94 515.68 321.99 514.03 322.04 C 514.02 318.68 514.02 315.33 514.03 311.97 Z" fill="#0c7191" />
<path d="M 349.27 317.29 C 350.84 317.11 352.42 316.98 354.00 316.84 C 353.97 318.55 353.96 320.26 353.95 321.96 C 352.26 321.95 350.57 321.95 348.88 321.97 C 349.00 320.41 349.11 318.85 349.27 317.29 Z" fill="#0c7191" />
<path d="M 358.98 317.00 C 360.64 317.03 362.29 317.05 363.95 317.07 C 363.95 318.71 363.96 320.35 363.99 321.99 C 362.35 321.96 360.72 321.95 359.08 321.95 C 359.05 320.30 359.02 318.65 358.98 317.00 Z" fill="#0c7191" />
<path d="M 344.00 322.10 C 345.62 322.06 347.25 322.02 348.88 321.97 C 348.90 323.65 348.93 325.33 348.96 327.01 C 347.31 326.99 345.67 326.98 344.02 326.97 C 344.02 325.34 344.01 323.72 344.00 322.10 Z" fill="#0c7191" />
<path d="M 363.99 321.99 C 365.66 322.03 367.34 322.06 369.01 322.08 C 368.99 323.71 368.98 325.34 368.97 326.97 C 367.34 326.98 365.71 326.99 364.09 327.01 C 364.06 325.34 364.03 323.67 363.99 321.99 Z" fill="#0c7191" />
<path d="M 494.00 322.04 C 500.68 321.98 507.35 321.97 514.03 322.04 C 513.98 323.68 513.95 325.33 513.92 326.97 C 507.28 327.03 500.64 327.03 494.00 326.96 C 494.02 325.32 494.02 323.68 494.00 322.04 Z" fill="#0c7191" />
<path d="M 525.02 333.60 C 535.70 333.28 546.43 332.56 557.10 332.80 C 557.13 334.28 557.16 335.75 557.19 337.23 C 537.83 338.49 518.41 338.81 499.03 339.63 C 454.34 341.43 409.68 343.17 364.99 344.87 C 316.02 346.83 266.98 348.46 218.02 350.57 C 193.67 351.57 169.32 352.25 144.98 353.40 C 134.29 353.72 123.56 354.44 112.88 354.20 C 112.87 352.73 112.87 351.26 112.86 349.78 C 134.24 348.38 155.71 348.10 177.11 347.12 C 262.00 343.71 346.88 340.52 431.78 337.31 C 462.85 335.81 493.95 335.05 525.02 333.60 Z" fill="#0c7191" />
<path d="M 243.52 372.45 C 246.89 371.36 249.87 374.17 248.77 377.57 C 247.75 380.62 243.17 380.99 241.59 378.28 C 240.25 376.27 241.27 373.24 243.52 372.45 Z" fill="#0a141c" />
<path d="M 411.49 372.31 C 414.55 370.85 418.15 374.45 416.69 377.52 C 415.41 380.09 412.33 380.94 410.21 378.79 C 408.06 376.67 408.91 373.58 411.49 372.31 Z" fill="#0a141c" />
<path d="M 215.45 373.26 C 218.04 372.14 221.06 374.21 221.04 376.99 C 220.90 380.00 217.42 382.23 214.81 380.29 C 212.10 378.33 212.45 374.71 215.45 373.26 Z" fill="#0a141c" />
<path d="M 383.38 374.14 C 386.81 372.79 390.16 376.10 388.63 379.49 C 387.43 382.54 382.57 382.54 381.37 379.49 C 380.38 377.51 381.39 375.01 383.38 374.14 Z" fill="#0a141c" />
<path d="M 439.38 374.16 C 442.57 373.10 445.58 375.36 444.91 378.75 C 444.16 381.78 440.50 382.85 438.24 380.76 C 436.20 378.72 436.73 375.35 439.38 374.16 Z" fill="#0a141c" />
<path d="M 271.43 375.24 C 273.23 374.57 275.30 375.10 276.40 376.73 C 277.79 378.80 276.69 381.65 274.49 382.61 C 272.49 383.48 270.24 382.42 269.37 380.48 C 268.37 378.45 269.37 376.09 271.43 375.24 Z" fill="#0a141c" />
<path d="M 103.49 376.31 C 106.55 374.85 110.15 378.45 108.69 381.51 C 107.42 384.09 104.33 384.94 102.21 382.79 C 100.06 380.67 100.91 377.58 103.49 376.31 Z" fill="#0a141c" />
<path d="M 186.53 377.33 C 189.16 375.86 192.66 376.85 193.00 380.16 C 193.37 383.35 189.77 385.68 187.02 384.04 C 184.47 382.66 184.34 379.12 186.53 377.33 Z" fill="#0a141c" />
<path d="M 355.32 378.00 C 358.15 376.77 361.11 378.89 361.00 381.93 C 360.83 385.03 356.91 386.85 354.50 384.72 C 352.09 382.97 352.75 379.22 355.32 378.00 Z" fill="#0a141c" />
<path d="M 467.36 378.06 C 470.32 376.58 473.77 379.61 472.86 382.74 C 472.07 385.64 468.54 386.74 466.31 384.68 C 464.22 382.65 464.72 379.34 467.36 378.06 Z" fill="#0a141c" />
<path d="M 299.33 379.00 C 301.26 378.16 303.38 378.87 304.48 380.65 C 305.67 382.67 304.84 385.17 302.75 386.21 C 300.35 387.57 297.12 385.60 296.98 382.92 C 296.84 381.23 297.86 379.75 299.33 379.00 Z" fill="#0a141c" />
<path d="M 522.52 379.33 C 524.83 378.05 528.02 378.58 528.85 381.37 C 529.98 384.66 525.95 388.14 523.01 386.03 C 520.46 384.61 520.34 381.15 522.52 379.33 Z" fill="#0a141c" />
<path d="M 130.50 380.27 C 132.95 378.15 136.80 379.98 137.02 383.08 C 137.25 386.06 134.04 388.25 131.33 387.00 C 128.65 385.72 128.10 382.12 130.50 380.27 Z" fill="#0a141c" />
<path d="M 159.33 380.00 C 161.26 379.16 163.38 379.87 164.48 381.65 C 165.67 383.67 164.84 386.17 162.75 387.21 C 160.35 388.57 157.12 386.60 156.98 383.92 C 156.84 382.23 157.86 380.75 159.33 380.00 Z" fill="#0a141c" />
<path d="M 327.45 380.26 C 330.04 379.14 333.06 381.21 333.04 383.99 C 332.90 387.00 329.42 389.23 326.81 387.29 C 324.10 385.33 324.45 381.71 327.45 380.26 Z" fill="#0a141c" />
<path d="M 495.45 380.26 C 498.04 379.14 501.06 381.21 501.04 383.99 C 500.90 387.00 497.42 389.23 494.81 387.29 C 492.10 385.33 492.45 381.71 495.45 380.26 Z" fill="#0a141c" />
</svg>