<?xml version="1.0" encoding="UTF-8" standalone="no"?>
<!DOCTYPE svg PUBLIC "-//W3C//DTD SVG 1.1//EN" "http://www.w3.org/Graphics/SVG/1.1/DTD/svg11.dtd">
<svg xmlns="http://www.w3.org/2000/svg" version="1.1" viewBox="0 0 720 520" width="720.0pt" height="520.0pt">
<path d="M 0.00 0.00 L 720.00 0.00 L 720.00 520.00 L 0.00 520.00 L 0.00 0.00 Z" fill="#020408" />
<path d="M 336.75 145.46 C 387.20 159.28 437.68 173.00 488.14 186.78 C 491.89 187.78 495.64 188.73 499.31 190.04 C 473.65 195.08 447.89 199.67 422.21 204.62 C 419.77 205.24 417.77 204.33 415.49 203.59 C 409.21 201.39 402.85 199.41 396.56 197.20 C 412.44 194.50 428.46 192.58 444.37 190.03 C 439.97 188.43 435.48 187.36 430.98 186.07 C 401.59 177.81 372.18 169.62 342.81 161.32 C 340.85 160.85 338.53 159.80 336.55 160.42 C 319.35 165.12 302.22 170.24 284.98 174.75 C 254.24 179.79 223.40 184.63 192.63 189.58 C 192.70 189.42 192.76 189.25 192.83 189.09 C 237.90 175.16 282.96 161.14 328.02 147.15 C 330.69 146.47 334.03 144.60 336.75 145.46 Z" fill="#1ebee6" />
<path d="M 573.97 198.03 C 581.93 197.32 588.70 205.02 586.65 212.82 C 585.26 218.24 580.57 221.84 575.00 222.03 C 429.34 231.84 283.67 241.67 138.01 251.48 C 133.87 251.64 128.93 252.81 125.13 250.92 C 119.50 248.46 116.39 241.55 118.80 235.79 C 120.58 231.07 125.01 228.15 130.00 227.97 C 277.99 217.99 425.98 208.04 573.97 198.03 Z" fill="#1ebee6" />
<path d="M 240.00 244.96 C 246.67 245.02 253.33 244.99 260.00 245.00 C 260.00 251.67 260.00 258.33 260.00 265.00 C 266.67 265.00 273.33 265.00 280.00 265.00 C 280.00 267.33 280.00 269.67 279.99 272.00 C 279.95 276.03 280.06 280.06 280.19 284.09 L 279.63 284.93 C 273.09 285.10 266.54 284.95 260.00 285.00 C 259.99 291.38 260.01 297.75 260.00 304.13 C 260.00 321.37 260.00 338.60 260.00 355.84 C 260.02 361.96 259.98 368.09 260.01 374.21 C 260.03 377.81 260.02 381.41 260.01 385.01 C 253.34 385.01 246.66 385.01 239.99 385.00 C 239.99 383.30 239.99 381.60 240.00 379.90 C 240.01 373.36 239.99 366.81 239.99 360.27 C 239.99 343.42 239.99 326.57 239.99 309.73 C 239.99 303.18 240.01 296.64 240.00 290.10 C 239.99 288.06 239.99 286.03 239.99 284.00 C 240.00 280.00 240.00 276.00 240.00 272.00 C 240.00 262.99 240.00 253.97 240.00 244.96 Z" fill="#e6f0ee" />
<path d="M 320.00 245.00 C 326.67 245.00 333.33 245.00 340.00 245.00 C 340.00 254.00 340.00 263.00 340.00 272.00 C 340.00 276.00 339.99 280.00 340.00 284.00 C 340.00 289.06 340.01 294.13 340.00 299.20 C 339.99 302.83 340.01 306.47 340.00 310.10 C 340.00 313.08 340.00 316.05 340.00 319.03 C 340.00 322.01 340.00 325.00 340.00 327.99 C 340.00 332.64 339.99 337.28 340.01 341.93 C 338.34 341.93 336.67 341.96 335.00 342.00 C 335.00 339.67 335.00 337.34 335.00 335.00 C 329.99 334.99 324.99 335.01 319.98 334.98 C 319.98 331.66 319.98 328.33 319.99 325.01 C 313.32 325.01 306.66 325.00 299.99 325.00 L 299.98 323.92 C 300.10 317.70 299.71 311.42 300.23 305.23 C 306.78 304.71 313.43 305.14 320.00 305.00 C 320.00 301.61 320.00 298.22 320.00 294.84 C 319.99 291.22 320.00 287.61 320.00 284.00 C 320.00 280.00 320.00 276.00 320.00 272.00 C 320.00 263.00 320.00 254.00 320.00 245.00 Z" fill="#e6f0ee" />
<path d="M 380.00 245.00 C 400.00 245.00 420.00 245.00 440.00 245.00 C 440.00 251.67 440.00 258.33 440.00 265.00 C 420.00 265.00 400.00 265.00 380.00 265.00 C 380.00 258.33 380.00 251.67 380.00 245.00 Z" fill="#e6f0ee" />
<path d="M 480.00 245.00 C 486.67 245.00 493.33 245.00 500.00 245.00 C 500.00 254.00 500.00 263.00 500.00 272.00 C 500.00 276.00 500.00 280.00 500.00 284.00 C 500.00 286.57 500.01 289.14 500.00 291.71 C 500.11 302.73 499.77 313.81 500.18 324.82 C 506.76 325.24 513.40 324.87 520.00 325.00 C 520.14 338.26 519.75 351.59 520.17 364.83 C 526.55 365.11 533.41 365.18 539.78 364.78 C 540.31 351.57 539.85 338.24 540.00 325.00 C 543.72 325.00 547.44 325.01 551.16 324.99 C 554.01 324.98 556.96 324.87 559.78 325.22 C 560.29 330.79 559.88 336.46 560.00 342.05 L 559.03 342.12 C 558.93 349.74 559.04 357.37 559.00 365.00 C 552.73 365.12 546.42 364.76 540.18 365.18 C 539.76 371.76 540.12 378.40 540.00 385.00 C 533.33 385.00 526.67 385.00 520.00 385.00 C 519.86 378.42 520.29 371.78 519.77 365.23 C 516.56 364.85 513.24 365.00 510.01 365.02 C 509.99 357.35 510.01 349.68 510.00 342.00 C 507.66 342.00 505.33 342.00 503.00 342.00 C 503.00 339.67 503.00 337.34 503.00 335.01 C 502.00 335.01 501.00 335.00 500.00 335.00 C 500.00 331.77 500.16 328.44 499.78 325.22 C 493.22 324.70 486.58 325.14 480.00 325.00 C 480.00 320.07 480.01 315.14 480.00 310.21 C 479.99 301.48 480.00 292.74 480.00 284.00 C 480.00 280.00 480.00 276.00 480.00 272.00 C 480.00 263.00 480.00 254.00 480.00 245.00 Z" fill="#e6f0ee" />
<path d="M 560.00 245.00 C 566.67 245.00 573.33 245.00 580.00 245.00 C 580.00 271.67 580.00 298.33 580.00 325.00 C 573.40 324.89 566.75 325.25 560.17 324.83 C 560.05 323.56 559.98 322.28 559.98 321.00 C 560.02 295.67 559.99 270.33 560.00 245.00 Z" fill="#e6f0ee" />
<path d="M 620.00 245.00 C 640.00 245.00 660.00 245.00 680.00 245.00 C 680.00 251.67 680.00 258.33 680.00 265.00 C 660.00 265.00 640.00 265.00 620.00 265.00 C 620.00 258.33 620.00 251.67 620.00 245.00 Z" fill="#e6f0ee" />
<path d="M 360.00 265.00 C 366.67 265.00 373.33 265.00 380.00 265.00 C 380.00 267.33 380.00 269.67 380.00 272.00 C 380.00 276.00 380.00 280.00 380.00 284.00 C 379.99 289.07 380.02 294.13 380.00 299.20 C 379.98 305.40 380.02 311.60 380.01 317.79 C 379.98 325.86 380.06 333.92 380.01 341.99 C 379.01 341.99 378.00 342.00 377.00 342.00 C 377.00 339.67 377.00 337.34 377.00 335.00 C 371.33 334.99 365.66 335.01 359.99 334.99 C 360.00 332.33 360.00 329.67 360.00 327.02 C 360.00 324.34 360.00 321.66 360.00 318.98 C 359.99 315.62 360.00 312.26 360.00 308.90 C 359.99 305.28 360.01 301.65 360.00 298.03 C 359.99 293.35 360.00 288.68 360.00 284.00 C 360.01 280.00 360.00 276.00 359.99 272.00 C 359.99 269.66 360.00 267.33 360.00 265.00 Z" fill="#e6f0ee" />
<path d="M 380.00 265.00 C 400.00 265.00 420.00 265.00 440.00 265.00 C 440.00 267.33 440.00 269.67 440.00 272.00 C 420.00 272.00 400.00 271.99 380.00 272.00 C 380.00 269.67 380.00 267.33 380.00 265.00 Z" fill="#020509" />
<path d="M 440.00 265.00 C 446.67 265.00 453.33 265.00 460.00 265.00 C 460.00 267.33 460.00 269.67 460.00 272.00 C 460.00 276.00 459.99 280.00 460.00 284.00 C 460.00 290.24 460.01 296.48 460.00 302.72 C 459.98 313.47 460.03 324.23 460.01 334.99 C 453.34 335.01 446.67 335.00 440.00 335.00 C 440.00 326.74 440.01 318.48 440.00 310.21 C 439.98 301.48 440.01 292.74 440.00 284.00 C 440.01 280.00 440.00 276.00 440.00 272.00 C 440.00 269.67 440.00 267.33 440.00 265.00 Z" fill="#e6f0ee" />
<path d="M 600.00 265.00 C 606.67 265.00 613.33 265.00 620.00 265.00 C 620.00 278.33 620.00 291.67 620.00 305.00 C 640.00 305.00 660.00 305.00 680.00 305.00 C 680.00 291.67 680.00 278.33 680.00 265.00 C 686.67 265.00 693.33 265.00 700.00 265.00 C 700.00 305.00 700.00 345.00 700.00 385.00 C 693.33 385.00 686.67 385.00 680.00 385.00 C 680.00 365.00 680.00 345.00 680.00 325.00 C 660.00 325.00 640.00 325.00 620.00 325.00 C 620.00 335.33 620.00 345.67 620.00 356.00 C 616.00 356.00 612.00 356.00 608.00 356.00 C 607.99 349.00 608.01 342.00 608.00 335.00 C 605.67 335.00 603.33 335.00 601.00 335.00 C 601.00 351.33 601.00 367.67 601.00 384.00 C 603.33 384.00 605.67 384.00 608.00 384.00 C 608.01 377.00 607.99 370.00 608.00 363.00 C 612.00 363.00 616.00 363.00 620.00 363.00 C 620.00 370.33 620.00 377.67 620.00 385.00 C 613.33 385.00 606.67 385.00 600.00 385.00 C 600.00 345.00 600.00 305.00 600.00 265.00 Z" fill="#e6f0ee" />
<path d="M 620.00 265.00 C 640.00 265.00 660.00 265.00 680.00 265.00 C 680.00 278.33 680.00 291.67 680.00 305.00 C 660.00 305.00 640.00 305.00 620.00 305.00 C 620.00 291.67 620.00 278.33 620.00 265.00 Z" fill="#020408" />
<path d="M 160.97 271.99 C 187.31 272.00 213.66 272.00 240.00 272.00 C 240.00 276.00 240.00 280.00 239.99 284.00 C 215.33 284.02 190.66 283.98 166.00 284.01 C 163.43 283.98 160.71 284.22 158.18 283.70 C 154.45 282.68 152.90 278.12 154.85 274.87 C 156.17 272.59 158.48 271.98 160.97 271.99 Z" fill="#d2ebe6" />
<path d="M 279.99 272.00 C 293.33 272.00 306.66 271.99 320.00 272.00 C 320.00 276.00 320.00 280.00 320.00 284.00 C 306.74 284.07 293.45 283.87 280.19 284.09 C 280.06 280.06 279.95 276.03 279.99 272.00 Z" fill="#d2ebe6" />
<path d="M 340.00 272.00 C 346.67 271.99 353.33 271.99 359.99 272.00 C 360.00 276.00 360.01 280.00 360.00 284.00 C 353.33 284.00 346.67 284.00 340.00 284.00 C 339.99 280.00 340.00 276.00 340.00 272.00 Z" fill="#d2ebe6" />
<path d="M 380.00 272.00 C 400.00 271.99 420.00 272.00 440.00 272.00 C 440.00 276.00 440.01 280.00 440.00 284.00 C 420.00 284.00 400.00 284.00 380.00 284.00 C 380.00 280.00 380.00 276.00 380.00 272.00 Z" fill="#d2ebe6" />
<path d="M 460.00 272.00 C 466.67 272.00 473.33 272.00 480.00 272.00 C 480.00 276.00 480.00 280.00 480.00 284.00 C 473.33 284.00 466.67 284.00 460.00 284.00 C 459.99 280.00 460.00 276.00 460.00 272.00 Z" fill="#d2ebe6" />
<path d="M 500.00 272.00 C 512.67 271.99 525.34 272.03 538.00 271.97 C 539.73 272.03 541.58 271.95 543.13 272.85 C 545.95 274.50 546.82 278.34 545.15 281.13 C 543.83 283.41 541.52 284.02 539.03 284.01 C 526.02 284.00 513.01 284.00 500.00 284.00 C 500.00 280.00 500.00 276.00 500.00 272.00 Z" fill="#d2ebe6" />
<path d="M 280.19 284.09 C 293.45 283.87 306.74 284.07 320.00 284.00 C 320.00 287.61 319.99 291.22 320.00 294.84 C 313.27 295.12 306.67 296.17 300.01 297.11 C 300.00 293.07 300.00 289.04 300.00 285.00 C 293.33 285.00 286.67 285.00 280.00 285.00 C 280.00 289.69 279.99 294.38 280.00 299.06 C 273.23 300.39 266.64 302.30 260.00 304.13 C 260.01 297.75 259.99 291.38 260.00 285.00 C 266.54 284.95 273.09 285.10 279.63 284.93 L 280.19 284.09 Z" fill="#030b11" />
<path d="M 340.00 284.00 C 346.67 284.00 353.33 284.00 360.00 284.00 C 360.00 288.68 359.99 293.35 360.00 298.03 C 353.26 297.64 346.67 298.26 340.00 299.20 C 340.01 294.13 340.00 289.06 340.00 284.00 Z" fill="#040e14" />
<path d="M 380.00 284.00 C 400.00 284.00 420.00 284.00 440.00 284.00 C 440.01 292.74 439.98 301.48 440.00 310.21 C 433.27 308.54 426.83 306.23 420.04 304.89 C 412.41 303.35 404.72 302.01 397.00 300.97 C 391.35 300.15 385.64 300.12 380.00 299.20 C 380.02 294.13 379.99 289.07 380.00 284.00 Z" fill="#030d13" />
<path d="M 460.00 284.00 C 466.67 284.00 473.33 284.00 480.00 284.00 C 480.00 292.74 479.99 301.48 480.00 310.21 C 473.18 307.94 467.03 304.41 460.00 302.72 C 460.01 296.48 460.00 290.24 460.00 284.00 Z" fill="#03090e" />
<path d="M 300.00 285.00 C 300.00 289.04 300.00 293.07 300.01 297.11 C 300.01 299.66 300.08 302.28 299.82 304.82 C 293.24 305.24 286.60 304.89 280.00 305.00 C 280.00 303.02 280.00 301.04 280.00 299.06 C 279.99 294.38 280.00 289.69 280.00 285.00 C 286.67 285.00 293.33 285.00 300.00 285.00 Z" fill="#e6f0ee" />
<path d="M 240.00 290.10 C 240.01 296.64 239.99 303.18 239.99 309.73 C 231.30 313.27 222.30 319.21 217.26 327.29 C 214.32 332.11 214.06 337.11 216.89 342.05 C 221.77 350.49 231.13 356.66 239.99 360.27 C 239.99 366.81 240.01 373.36 240.00 379.90 C 223.40 375.34 206.32 369.64 191.80 360.17 C 186.68 356.62 181.70 353.03 178.22 347.77 C 175.54 343.98 173.78 339.71 173.88 335.00 C 173.67 328.01 178.00 321.53 182.80 316.81 C 193.08 307.49 206.62 301.09 219.60 296.50 C 226.24 293.77 233.16 292.19 240.00 290.10 Z" fill="#030a0f" />
<path d="M 500.00 291.71 C 504.62 292.91 509.00 294.68 513.35 296.63 C 523.61 300.82 533.97 306.30 542.26 313.73 C 545.93 316.93 548.76 320.77 551.16 324.99 C 547.44 325.01 543.72 325.00 540.00 325.00 C 539.85 338.24 540.31 351.57 539.78 364.78 C 533.41 365.18 526.55 365.11 520.17 364.83 C 519.75 351.59 520.14 338.26 520.00 325.00 C 513.40 324.87 506.76 325.24 500.18 324.82 C 499.77 313.81 500.11 302.73 500.00 291.71 Z" fill="#03080d" />
<path d="M 320.00 294.84 C 320.00 298.22 320.00 301.61 320.00 305.00 C 313.43 305.14 306.78 304.71 300.23 305.23 C 299.71 311.42 300.10 317.70 299.98 323.92 C 297.54 325.28 294.71 326.71 292.77 328.75 C 291.13 330.48 290.41 332.81 289.53 334.97 C 281.36 334.94 273.18 334.98 265.00 335.00 C 264.98 342.33 265.02 349.67 264.99 357.00 C 263.33 356.62 261.67 356.23 260.00 355.84 C 260.00 338.60 260.00 321.37 260.00 304.13 C 266.64 302.30 273.23 300.39 280.00 299.06 C 280.00 301.04 280.00 303.02 280.00 305.00 C 286.60 304.89 293.24 305.24 299.82 304.82 C 300.08 302.28 300.01 299.66 300.01 297.11 C 306.67 296.17 313.27 295.12 320.00 294.84 Z" fill="#05171e" />
<path d="M 360.00 298.03 C 360.01 301.65 359.99 305.28 360.00 308.90 C 353.27 308.71 346.73 310.28 340.00 310.10 C 340.01 306.47 339.99 302.83 340.00 299.20 C 346.67 298.26 353.26 297.64 360.00 298.03 Z" fill="#05161e" />
<path d="M 380.00 299.20 C 385.64 300.12 391.35 300.15 397.00 300.97 C 404.72 302.01 412.41 303.35 420.04 304.89 C 426.83 306.23 433.27 308.54 440.00 310.21 C 440.01 318.48 440.00 326.74 440.00 335.00 C 437.67 335.00 435.33 335.00 433.00 335.00 C 432.99 337.33 432.99 339.66 433.00 342.00 C 435.33 342.00 437.67 342.00 440.00 342.00 C 439.85 349.57 440.31 357.23 439.78 364.78 C 436.57 365.17 433.23 364.99 430.00 365.01 C 414.67 364.99 399.33 365.00 384.00 365.00 C 383.99 360.61 384.03 356.22 384.01 351.84 C 391.40 350.23 398.44 348.56 405.36 345.40 C 408.97 343.71 412.48 340.93 414.37 337.37 C 415.20 335.73 415.20 334.27 414.37 332.63 C 412.20 328.58 408.18 325.72 404.01 323.99 C 396.33 320.84 388.27 318.68 380.01 317.79 C 380.02 311.60 379.98 305.40 380.00 299.20 Z" fill="#051a22" />
<path d="M 460.00 302.72 C 467.03 304.41 473.18 307.94 480.00 310.21 C 480.01 315.14 480.00 320.07 480.00 325.00 C 486.58 325.14 493.22 324.70 499.78 325.22 C 500.16 328.44 500.00 331.77 500.00 335.00 C 494.00 335.00 488.00 335.00 482.00 335.00 C 482.00 337.33 482.00 339.66 482.00 342.00 C 479.66 342.00 477.33 342.00 475.00 342.00 C 474.99 349.67 475.02 357.34 474.99 365.02 C 468.15 367.93 461.24 370.31 454.02 372.07 C 454.00 369.72 454.00 367.36 454.00 365.00 C 456.00 365.00 458.00 365.00 460.00 365.00 C 460.00 357.34 460.02 349.67 460.01 342.01 C 462.67 342.02 465.34 342.02 468.01 342.01 C 468.01 339.67 468.01 337.33 468.01 334.99 C 465.35 334.98 462.68 334.98 460.01 334.99 C 460.03 324.23 459.98 313.47 460.00 302.72 Z" fill="#041016" />
<path d="M 360.00 308.90 C 360.00 312.26 359.99 315.62 360.00 318.98 C 353.33 318.99 346.67 318.98 340.00 319.03 C 340.00 316.05 340.00 313.08 340.00 310.10 C 346.73 310.28 353.27 308.71 360.00 308.90 Z" fill="#061f29" />
<path d="M 239.99 309.73 C 239.99 326.57 239.99 343.42 239.99 360.27 C 231.13 356.66 221.77 350.49 216.89 342.05 C 214.06 337.11 214.32 332.11 217.26 327.29 C 222.30 319.21 231.30 313.27 239.99 309.73 Z" fill="#040f16" />
<path d="M 380.01 317.79 C 388.27 318.68 396.33 320.84 404.01 323.99 C 408.18 325.72 412.20 328.58 414.37 332.63 C 415.20 334.27 415.20 335.73 414.37 337.37 C 412.48 340.93 408.97 343.71 405.36 345.40 C 398.44 348.56 391.40 350.23 384.01 351.84 C 384.00 348.55 384.00 345.27 384.00 341.98 C 382.67 341.98 381.34 341.99 380.01 341.99 C 380.06 333.92 379.98 325.86 380.01 317.79 Z" fill="#072530" />
<path d="M 340.00 319.03 C 346.67 318.98 353.33 318.99 360.00 318.98 C 360.00 321.66 360.00 324.34 360.00 327.02 C 353.24 327.01 346.67 326.54 340.00 327.99 C 340.00 325.00 340.00 322.01 340.00 319.03 Z" fill="#072733" />
<path d="M 299.98 323.92 L 299.99 325.00 C 306.66 325.00 313.32 325.01 319.99 325.01 C 319.98 328.33 319.98 331.66 319.98 334.98 C 315.65 334.95 311.32 334.97 307.00 335.00 C 306.98 340.96 307.02 346.92 306.99 352.88 C 304.67 352.22 302.34 351.56 300.01 350.91 C 300.00 347.93 300.00 344.95 299.99 341.97 C 298.04 342.01 296.09 342.05 294.14 342.10 C 293.72 341.69 293.31 341.28 292.90 340.86 C 292.95 338.91 292.99 336.97 293.03 335.02 C 291.86 335.00 290.70 334.98 289.53 334.97 C 290.41 332.81 291.13 330.48 292.77 328.75 C 294.71 326.71 297.54 325.28 299.98 323.92 Z" fill="#06222c" />
<path d="M 360.00 327.02 C 360.00 329.67 360.00 332.33 359.99 334.99 C 358.65 334.98 357.32 334.98 355.98 334.98 C 355.99 337.32 356.00 339.66 356.00 342.00 C 353.67 342.00 351.34 342.00 349.01 342.00 L 348.98 344.31 C 346.33 344.24 344.25 344.10 341.99 342.58 C 341.34 342.34 340.68 342.12 340.01 341.93 C 339.99 337.28 340.00 332.64 340.00 327.99 C 346.67 326.54 353.24 327.01 360.00 327.02 Z" fill="#08303d" />
<path d="M 265.00 335.00 C 273.18 334.98 281.36 334.94 289.53 334.97 C 290.70 334.98 291.86 335.00 293.03 335.02 C 292.99 336.97 292.95 338.91 292.90 340.86 C 293.31 341.28 293.72 341.69 294.14 342.10 C 296.09 342.05 298.04 342.01 299.99 341.97 C 300.00 344.95 300.00 347.93 300.01 350.91 C 300.01 352.62 300.01 354.33 300.01 356.04 C 298.05 356.00 296.08 355.96 294.12 355.90 C 293.71 356.31 293.31 356.72 292.90 357.12 C 292.95 359.10 292.99 361.08 293.03 363.06 L 290.65 363.09 C 284.44 362.97 278.23 363.07 272.02 363.02 C 272.01 370.04 271.99 377.06 272.00 384.07 C 269.66 383.98 267.32 384.00 264.98 384.01 C 264.97 381.08 264.96 378.16 264.98 375.23 C 265.03 369.16 264.97 363.08 264.99 357.00 C 265.02 349.67 264.98 342.33 265.00 335.00 Z" fill="#1ebee6" />
<path d="M 307.00 335.00 C 311.32 334.97 315.65 334.95 319.98 334.98 C 324.99 335.01 329.99 334.99 335.00 335.00 C 335.00 337.34 335.00 339.67 335.00 342.00 C 330.00 342.00 324.99 341.99 319.99 342.01 C 318.00 342.02 316.01 342.02 314.02 342.02 C 314.00 346.68 313.99 351.34 314.00 356.00 C 316.00 356.00 318.00 356.00 320.00 356.00 C 325.00 356.00 330.00 356.00 335.00 356.00 C 335.00 358.33 335.00 360.66 335.00 362.99 C 332.67 363.00 330.34 363.00 328.00 363.01 C 328.00 365.34 328.00 367.67 328.00 370.00 C 325.67 370.00 323.34 370.00 321.00 370.00 C 321.00 367.67 321.00 365.35 321.00 363.03 L 319.97 363.03 C 318.00 363.04 316.02 363.05 314.04 363.05 C 314.05 370.03 314.00 377.01 313.99 384.00 C 311.67 384.00 309.34 384.00 307.01 384.00 C 307.01 378.26 306.95 372.52 306.99 366.79 C 307.02 362.15 306.97 357.52 306.99 352.88 C 307.02 346.92 306.98 340.96 307.00 335.00 Z" fill="#1ebee6" />
<path d="M 355.98 334.98 C 357.32 334.98 358.65 334.98 359.99 334.99 C 365.66 335.01 371.33 334.99 377.00 335.00 C 377.00 337.34 377.00 339.67 377.00 342.00 C 371.33 342.01 365.65 341.98 359.98 342.02 C 358.66 342.03 357.35 342.04 356.04 342.05 C 356.03 348.01 355.97 353.97 356.01 359.94 C 356.20 365.52 355.65 371.19 356.26 376.74 C 362.70 377.18 370.30 377.18 376.74 376.74 C 377.24 372.90 376.95 368.89 376.99 365.01 C 377.01 357.34 376.99 349.67 377.00 342.00 C 378.00 342.00 379.01 341.99 380.01 341.99 C 381.34 341.99 382.67 341.98 384.00 341.98 C 384.00 345.27 384.00 348.55 384.01 351.84 C 384.03 356.22 383.99 360.61 384.00 365.00 C 384.00 368.99 384.00 372.98 384.00 376.97 C 382.66 376.96 381.33 376.96 379.99 376.97 C 379.06 377.03 378.13 377.11 377.20 377.23 C 376.96 379.45 376.97 381.76 376.96 384.00 C 370.00 384.00 363.03 384.00 356.07 384.00 C 356.03 381.95 355.96 379.91 355.74 377.87 L 355.67 377.32 C 353.45 376.96 351.25 376.96 349.00 376.94 C 349.00 372.99 348.99 369.03 349.00 365.07 C 349.05 358.15 348.93 351.23 348.98 344.31 L 349.01 342.00 C 351.34 342.00 353.67 342.00 356.00 342.00 C 356.00 339.66 355.99 337.32 355.98 334.98 Z" fill="#1ebee6" />
<path d="M 433.00 335.00 C 435.33 335.00 437.67 335.00 440.00 335.00 C 446.67 335.00 453.34 335.01 460.01 334.99 C 462.68 334.98 465.35 334.98 468.01 334.99 C 468.01 337.33 468.01 339.67 468.01 342.01 C 465.34 342.02 462.67 342.02 460.01 342.01 C 458.01 342.01 456.01 342.00 454.00 342.00 C 453.99 349.67 454.01 357.33 454.00 365.00 C 454.00 367.36 454.00 369.72 454.02 372.07 C 454.05 376.05 454.03 380.03 454.01 384.01 C 451.67 384.02 449.32 384.02 446.98 384.02 C 446.98 382.60 446.99 381.19 446.99 379.77 C 447.01 374.84 446.99 369.91 446.99 364.98 C 447.00 357.32 447.00 349.66 447.00 342.00 C 444.66 342.00 442.33 342.00 440.00 342.00 C 437.67 342.00 435.33 342.00 433.00 342.00 C 432.99 339.66 432.99 337.33 433.00 335.00 Z" fill="#1ebee6" />
<path d="M 482.00 335.00 C 488.00 335.00 494.00 335.00 500.00 335.00 C 501.00 335.00 502.00 335.01 503.00 335.01 C 503.00 337.34 503.00 339.67 503.00 342.00 C 502.00 342.00 501.00 342.00 500.00 342.01 C 494.01 342.02 488.01 342.02 482.02 342.02 C 482.20 353.57 481.64 365.22 482.26 376.74 C 488.71 377.18 496.29 377.18 502.75 376.75 C 503.24 372.89 502.95 368.89 503.00 365.00 C 503.00 357.33 503.00 349.66 503.00 342.00 C 505.33 342.00 507.66 342.00 510.00 342.00 C 510.01 349.68 509.99 357.35 510.01 365.02 C 510.02 369.00 510.02 372.98 510.00 376.96 C 507.75 376.98 505.44 376.96 503.20 377.20 C 502.96 379.44 502.97 381.75 502.96 384.00 C 495.99 384.01 489.01 384.02 482.03 384.00 C 482.02 381.75 482.04 379.44 481.79 377.21 C 479.55 376.97 477.24 376.99 474.99 376.98 C 474.97 372.99 474.95 369.00 474.99 365.02 C 475.02 357.34 474.99 349.67 475.00 342.00 C 477.33 342.00 479.66 342.00 482.00 342.00 C 482.00 339.66 482.00 337.33 482.00 335.00 Z" fill="#1ebee6" />
<path d="M 566.00 335.00 C 575.33 334.99 584.67 335.00 594.00 335.00 C 594.00 337.33 594.00 339.67 594.00 342.00 C 584.67 342.00 575.34 342.01 566.00 342.00 C 566.01 353.67 566.00 365.34 566.00 377.00 C 563.67 377.00 561.33 377.00 559.00 377.00 C 559.00 373.00 559.00 369.00 559.00 365.00 C 559.04 357.37 558.93 349.74 559.03 342.12 L 560.00 342.05 C 562.00 341.97 564.00 341.97 565.99 341.98 C 566.00 339.65 566.00 337.33 566.00 335.00 Z" fill="#1ebee6" />
<path d="M 601.00 335.00 C 603.33 335.00 605.67 335.00 608.00 335.00 C 608.01 342.00 607.99 349.00 608.00 356.00 C 612.00 356.00 616.00 356.00 620.00 356.00 C 623.00 356.00 626.00 356.00 629.00 356.00 C 629.00 349.00 629.00 342.00 629.00 335.00 C 631.33 335.00 633.67 335.00 636.00 335.00 C 636.00 351.33 636.00 367.67 636.00 384.00 C 633.67 384.00 631.33 384.00 629.00 384.00 C 629.00 377.00 629.00 370.00 629.00 363.00 C 626.00 363.00 623.00 363.00 620.00 363.00 C 616.00 363.00 612.00 363.00 608.00 363.00 C 607.99 370.00 608.01 377.00 608.00 384.00 C 605.67 384.00 603.33 384.00 601.00 384.00 C 601.00 367.67 601.00 351.33 601.00 335.00 Z" fill="#1ebee6" />
<path d="M 272.00 342.00 C 278.10 342.01 284.20 342.04 290.29 341.96 C 291.44 342.03 292.78 341.70 292.99 343.20 C 293.07 347.06 293.07 350.95 293.00 354.81 C 292.80 356.31 291.44 355.97 290.30 356.05 C 284.20 356.00 278.10 355.99 272.00 356.00 C 272.00 351.33 272.00 346.67 272.00 342.00 Z" fill="#051922" />
<path d="M 314.02 342.02 C 316.01 342.02 318.00 342.02 319.99 342.01 C 319.99 346.68 320.00 351.34 320.00 356.00 C 318.00 356.00 316.00 356.00 314.00 356.00 C 313.99 351.34 314.00 346.68 314.02 342.02 Z" fill="#06212b" />
<path d="M 319.99 342.01 C 324.99 341.99 330.00 342.00 335.00 342.00 C 335.00 346.67 335.00 351.34 335.00 356.00 C 330.00 356.00 325.00 356.00 320.00 356.00 C 320.00 351.34 319.99 346.68 319.99 342.01 Z" fill="#e6f0ee" />
<path d="M 335.00 342.00 C 336.67 341.96 338.34 341.93 340.01 341.93 C 340.68 342.12 341.34 342.34 341.99 342.58 C 342.11 347.06 342.00 351.51 342.00 355.99 L 340.00 356.00 C 338.33 356.00 336.67 356.00 335.00 356.00 C 335.00 351.34 335.00 346.67 335.00 342.00 Z" fill="#1ebee6" />
<path d="M 356.04 342.05 C 357.35 342.04 358.66 342.03 359.98 342.02 C 359.99 347.99 360.02 353.96 359.99 359.93 C 358.67 359.93 357.34 359.93 356.01 359.94 C 355.97 353.97 356.03 348.01 356.04 342.05 Z" fill="#07242e" />
<path d="M 359.98 342.02 C 365.65 341.98 371.33 342.01 377.00 342.00 C 376.99 349.67 377.01 357.34 376.99 365.01 C 371.32 365.02 365.65 365.02 359.98 365.01 C 359.98 363.32 359.99 361.62 359.99 359.93 C 360.02 353.96 359.99 347.99 359.98 342.02 Z" fill="#e6f0ee" />
<path d="M 440.00 342.00 C 442.33 342.00 444.66 342.00 447.00 342.00 C 447.00 349.66 447.00 357.32 446.99 364.98 C 444.73 364.98 442.43 364.95 440.18 365.18 C 439.77 370.39 440.09 375.66 440.01 380.88 C 440.01 382.26 440.01 383.64 440.02 385.01 C 436.14 385.02 432.27 384.97 428.39 385.06 C 412.26 384.92 396.13 385.04 380.00 385.00 C 380.00 382.32 380.00 379.65 379.99 376.97 C 381.33 376.96 382.66 376.96 384.00 376.97 C 384.00 372.98 384.00 368.99 384.00 365.00 C 399.33 365.00 414.67 364.99 430.00 365.01 C 433.23 364.99 436.57 365.17 439.78 364.78 C 440.31 357.23 439.85 349.57 440.00 342.00 Z" fill="#e6f0ee" />
<path d="M 454.00 342.00 C 456.01 342.00 458.01 342.01 460.01 342.01 C 460.02 349.67 460.00 357.34 460.00 365.00 C 458.00 365.00 456.00 365.00 454.00 365.00 C 454.01 357.33 453.99 349.67 454.00 342.00 Z" fill="#e6f0ee" />
<path d="M 482.02 342.02 C 488.01 342.02 494.01 342.02 500.00 342.01 C 499.99 349.67 500.00 357.33 500.00 365.00 C 501.00 365.00 502.00 365.00 503.00 365.00 C 502.95 368.89 503.24 372.89 502.75 376.75 C 496.29 377.18 488.71 377.18 482.26 376.74 C 481.64 365.22 482.20 353.57 482.02 342.02 Z" fill="#030b10" />
<path d="M 500.00 342.01 C 501.00 342.00 502.00 342.00 503.00 342.00 C 503.00 349.66 503.00 357.33 503.00 365.00 C 502.00 365.00 501.00 365.00 500.00 365.00 C 500.00 357.33 499.99 349.67 500.00 342.01 Z" fill="#e6f0ee" />
<path d="M 341.99 342.58 C 344.25 344.10 346.33 344.24 348.98 344.31 C 348.93 351.23 349.05 358.15 349.00 365.07 C 346.00 364.62 343.00 364.19 340.00 363.79 C 340.00 361.19 340.00 358.60 340.00 356.00 L 342.00 355.99 C 342.00 351.51 342.11 347.06 341.99 342.58 Z" fill="#062029" />
<path d="M 300.01 350.91 C 302.34 351.56 304.67 352.22 306.99 352.88 C 306.97 357.52 307.02 362.15 306.99 366.79 C 301.52 365.48 295.97 365.01 290.65 363.09 L 293.03 363.06 C 292.99 361.08 292.95 359.10 292.90 357.12 C 293.31 356.72 293.71 356.31 294.12 355.90 C 296.08 355.96 298.05 356.00 300.01 356.04 C 300.01 354.33 300.01 352.62 300.01 350.91 Z" fill="#05171f" />
<path d="M 260.00 355.84 C 261.67 356.23 263.33 356.62 264.99 357.00 C 264.97 363.08 265.03 369.16 264.98 375.23 C 263.32 374.89 261.67 374.55 260.01 374.21 C 259.98 368.09 260.02 361.96 260.00 355.84 Z" fill="#040f15" />
<path d="M 335.00 356.00 C 336.67 356.00 338.33 356.00 340.00 356.00 C 340.00 358.60 340.00 361.19 340.00 363.79 C 340.01 368.19 339.99 372.60 340.00 377.00 C 338.34 376.95 336.66 376.98 335.00 376.99 C 335.00 374.66 335.00 372.33 335.00 370.00 C 332.66 370.00 330.33 370.00 328.00 370.00 C 328.00 367.67 328.00 365.34 328.00 363.01 C 330.34 363.00 332.67 363.00 335.00 362.99 C 335.00 360.66 335.00 358.33 335.00 356.00 Z" fill="#e6f0ee" />
<path d="M 356.01 359.94 C 357.34 359.93 358.67 359.93 359.99 359.93 C 359.99 361.62 359.98 363.32 359.98 365.01 C 365.65 365.02 371.32 365.02 376.99 365.01 C 376.95 368.89 377.24 372.90 376.74 376.74 C 370.30 377.18 362.70 377.18 356.26 376.74 C 355.65 371.19 356.20 365.52 356.01 359.94 Z" fill="#04131a" />
<path d="M 272.02 363.02 C 278.23 363.07 284.44 362.97 290.65 363.09 C 295.97 365.01 301.52 365.48 306.99 366.79 C 306.95 372.52 307.01 378.26 307.01 384.00 C 309.34 384.00 311.67 384.00 313.99 384.00 C 314.00 377.01 314.05 370.03 314.04 363.05 C 316.02 363.05 318.00 363.04 319.97 363.03 C 319.97 370.36 320.00 377.68 320.00 385.00 C 326.46 384.89 332.97 385.23 339.42 384.83 L 340.61 384.12 L 341.97 383.93 C 342.02 381.76 342.10 379.59 342.12 377.42 C 346.48 378.40 351.30 377.98 355.74 377.87 C 355.96 379.91 356.03 381.95 356.07 384.00 C 363.03 384.00 370.00 384.00 376.96 384.00 C 376.97 381.76 376.96 379.45 377.20 377.23 C 378.13 377.11 379.06 377.03 379.99 376.97 C 380.00 379.65 380.00 382.32 380.00 385.00 C 396.13 385.04 412.26 384.92 428.39 385.06 C 415.76 387.92 402.50 388.42 389.62 389.55 C 385.42 390.13 381.23 390.12 377.00 389.96 C 371.25 389.71 365.73 391.15 360.00 391.05 C 356.67 391.03 353.33 391.03 350.00 391.05 C 343.94 391.13 338.09 389.59 332.00 389.98 C 327.27 390.26 322.64 389.86 317.95 389.31 C 304.29 388.50 290.64 387.00 277.15 384.68 C 275.44 384.41 273.73 384.21 272.00 384.07 C 271.99 377.06 272.01 370.04 272.02 363.02 Z" fill="#030c12" />
<path d="M 319.97 363.03 L 321.00 363.03 C 321.00 365.35 321.00 367.67 321.00 370.00 C 323.34 370.00 325.67 370.00 328.00 370.00 C 328.00 372.33 328.00 374.66 328.00 377.00 C 330.34 377.00 332.67 377.00 335.00 376.99 C 335.00 379.32 335.00 381.65 335.00 383.97 C 336.87 384.02 338.74 384.07 340.61 384.12 L 339.42 384.83 C 332.97 385.23 326.46 384.89 320.00 385.00 C 320.00 377.68 319.97 370.36 319.97 363.03 Z" fill="#e6f0ee" />
<path d="M 340.00 363.79 C 343.00 364.19 346.00 364.62 349.00 365.07 C 348.99 369.03 349.00 372.99 349.00 376.94 C 351.25 376.96 353.45 376.96 355.67 377.32 L 355.74 377.87 C 351.30 377.98 346.48 378.40 342.12 377.42 L 341.40 377.27 L 340.00 377.00 C 339.99 372.60 340.01 368.19 340.00 363.79 Z" fill="#04131a" />
<path d="M 440.18 365.18 C 442.43 364.95 444.73 364.98 446.99 364.98 C 446.99 369.91 447.01 374.84 446.99 379.77 C 444.66 380.13 442.33 380.50 440.01 380.88 C 440.09 375.66 439.77 370.39 440.18 365.18 Z" fill="#030c12" />
<path d="M 328.00 370.00 C 330.33 370.00 332.66 370.00 335.00 370.00 C 335.00 372.33 335.00 374.66 335.00 376.99 C 332.67 377.00 330.34 377.00 328.00 377.00 C 328.00 374.66 328.00 372.33 328.00 370.00 Z" fill="#1ebee6" />
<path d="M 335.00 376.99 C 336.66 376.98 338.34 376.95 340.00 377.00 L 341.40 377.27 L 342.12 377.42 C 342.10 379.59 342.02 381.76 341.97 383.93 L 340.61 384.12 C 338.74 384.07 336.87 384.02 335.00 383.97 C 335.00 381.65 335.00 379.32 335.00 376.99 Z" fill="#1ebee6" />
<path d="M 566.00 377.00 C 575.33 377.00 584.67 377.00 594.00 377.00 C 594.00 379.33 594.00 381.67 594.00 384.00 C 584.67 384.00 575.33 384.00 566.00 384.00 C 566.00 381.67 566.00 379.33 566.00 377.00 Z" fill="#1ebee6" />
</svg>