<?xml version="1.0" encoding="UTF-8" standalone="no"?>
<!DOCTYPE svg PUBLIC "-//W3C//DTD SVG 1.1//EN" "http://www.w3.org/Graphics/SVG/1.1/DTD/svg11.dtd">
<svg xmlns="http://www.w3.org/2000/svg" version="1.1" viewBox="0 0 699 780" width="699.0pt" height="780.0pt">
<path d="M 0.00 0.00 L 699.00 0.00 L 699.00 780.00 L 0.00 780.00 L 0.00 0.00 Z" fill="#eef3fa" />
<path d="M 6.00 7.00 C 234.67 7.00 463.33 7.00 692.00 7.00 C 691.99 234.20 692.01 461.40 691.99 688.60 C 463.33 688.59 234.67 688.59 6.01 688.60 C 5.99 461.40 6.01 234.20 6.00 7.00 Z" fill="#006b84" />
<path d="M 396.03 104.86 C 411.69 103.77 426.52 109.09 441.25 113.57 C 449.69 116.18 459.45 118.65 465.82 125.15 C 466.95 126.52 468.70 127.76 468.08 129.75 C 463.42 130.20 458.71 129.96 454.03 130.31 C 435.55 131.17 417.52 127.36 400.38 120.63 C 393.19 117.65 386.30 115.21 381.48 108.74 C 385.95 106.19 390.93 105.12 396.03 104.86 Z" fill="#fdfdfd" />
<path d="M 261.02 108.89 C 263.96 108.95 266.30 110.15 268.69 111.75 C 265.07 116.08 260.39 118.61 255.94 121.90 C 249.00 126.94 241.28 131.04 233.40 134.38 C 220.03 139.88 204.08 144.27 189.58 142.02 C 191.26 138.36 193.14 134.90 195.97 131.99 C 200.65 127.08 206.98 124.10 212.90 120.91 C 227.49 113.43 244.44 107.65 261.02 108.89 Z" fill="#fdfdfd" />
<path d="M 547.98 126.40 C 550.98 129.99 552.90 134.16 554.45 138.54 C 557.81 148.01 559.75 158.30 561.40 168.21 C 563.50 180.73 564.26 193.92 562.32 206.50 C 561.68 210.74 560.53 214.33 557.36 217.37 C 554.27 212.70 552.50 207.65 550.58 202.41 C 542.92 180.47 541.18 156.91 544.69 133.99 C 545.09 131.10 546.28 128.72 547.98 126.40 Z" fill="#fdfdfd" />
<path d="M 489.02 132.02 C 491.58 131.06 494.07 132.58 496.29 133.71 C 502.92 137.46 508.50 143.75 514.10 148.89 C 518.35 152.75 521.88 157.21 525.07 161.96 C 529.35 168.32 534.12 173.57 537.57 180.42 C 540.88 187.19 544.01 193.63 544.14 201.32 C 530.64 198.25 521.46 189.44 512.66 179.35 C 503.11 169.15 495.70 157.03 491.31 143.74 C 490.14 139.99 489.06 135.98 489.02 132.02 Z" fill="#fdfdfd" />
<path d="M 160.01 154.34 C 161.65 163.90 159.93 172.48 158.96 181.99 C 157.37 196.13 150.82 208.76 144.03 221.02 C 141.84 224.84 139.47 229.49 135.90 232.17 C 133.85 231.69 133.39 228.97 132.71 227.26 C 129.69 217.48 132.14 208.11 134.46 198.52 C 137.07 187.54 141.28 177.04 147.74 167.74 C 150.61 163.67 152.92 159.08 157.03 156.17 C 158.01 155.54 159.01 154.93 160.01 154.34 Z" fill="#fdfdfd" />
<path d="M 113.21 173.01 C 120.58 183.56 124.15 197.30 125.89 209.90 C 127.66 223.87 128.05 238.31 125.98 252.27 C 121.41 248.06 117.68 243.32 115.61 237.40 C 111.94 227.04 108.11 216.01 107.09 205.02 C 106.72 193.72 107.14 182.92 113.21 173.01 Z" fill="#fdfdfd" />
<path d="M 469.28 177.37 C 478.40 175.59 488.37 177.57 496.86 181.13 C 509.44 186.29 521.49 193.35 532.00 201.99 C 535.38 204.70 537.85 207.76 539.93 211.56 C 532.59 212.88 525.56 211.61 518.51 209.54 C 505.08 205.51 492.05 199.50 480.59 191.38 C 476.45 188.32 472.16 185.07 468.87 181.09 C 468.06 179.75 466.76 177.53 469.28 177.37 Z" fill="#fdfdfd" />
<path d="M 193.51 181.15 C 189.66 200.30 177.01 216.97 162.53 229.57 C 156.74 234.36 150.77 239.80 143.75 242.52 C 145.26 231.19 149.47 220.38 155.95 210.97 C 163.58 199.63 173.93 190.55 185.66 183.62 C 188.12 182.13 190.75 181.76 193.51 181.15 Z" fill="#fdfdfd" />
<path d="M 343.17 220.27 C 346.55 219.75 350.52 219.79 353.92 220.21 C 356.02 220.86 355.85 223.17 356.00 224.96 C 356.02 244.57 355.97 264.35 356.03 284.02 C 355.91 285.87 356.20 288.31 354.16 289.23 C 351.92 289.93 349.31 289.70 346.97 289.73 C 345.09 289.55 342.10 290.02 341.61 287.53 C 341.04 284.10 341.39 280.47 341.33 277.00 C 341.34 259.65 341.34 242.30 341.32 224.95 C 341.44 223.37 341.19 220.81 343.17 220.27 Z" fill="#fdfdfd" />
<path d="M 538.41 222.34 C 541.58 221.30 545.07 222.30 547.30 224.77 C 550.60 228.20 550.09 234.42 546.20 237.25 C 542.50 240.23 537.08 239.41 534.22 235.67 C 530.76 231.04 532.83 224.11 538.41 222.34 Z" fill="#fdfcfc" />
<path d="M 292.48 224.68 C 307.18 221.76 322.48 230.64 327.36 244.75 C 331.61 256.62 328.19 270.39 318.66 278.68 C 308.56 287.77 292.83 288.92 281.43 281.59 C 270.70 274.99 264.98 261.54 267.59 249.22 C 269.94 236.86 280.09 226.84 292.48 224.68 Z" fill="#fdfdfd" />
<path d="M 464.48 224.69 C 476.99 222.21 490.33 228.22 496.79 239.20 C 504.51 251.76 501.88 269.10 490.69 278.72 C 480.32 287.91 464.33 288.98 452.88 281.16 C 440.51 273.10 435.53 256.21 441.75 242.76 C 445.71 233.39 454.51 226.53 464.48 224.69 Z" fill="#fdfdfd" />
<path d="M 422.13 225.22 C 423.19 226.75 424.14 227.96 424.00 229.95 C 424.04 247.61 423.94 265.34 424.03 283.00 C 424.03 285.27 424.04 287.56 423.64 289.80 C 421.67 290.41 420.61 288.86 419.11 287.87 C 410.01 280.30 400.84 272.82 391.73 265.26 C 389.80 263.67 387.77 262.22 385.70 260.82 C 384.79 271.11 386.04 281.59 384.96 291.87 C 380.34 291.81 374.89 293.02 370.92 290.40 C 371.10 270.25 370.95 250.10 370.99 229.95 C 371.04 228.40 371.04 227.13 372.16 225.92 C 374.31 225.57 375.40 226.82 376.86 228.12 C 386.06 236.93 395.20 245.80 404.34 254.66 C 406.09 256.38 407.94 257.98 409.86 259.51 C 410.00 250.34 409.92 241.17 409.89 232.00 C 409.92 230.11 409.92 228.13 410.30 226.27 C 413.67 224.57 418.41 225.59 422.13 225.22 Z" fill="#fdfdfd" />
<path d="M 245.15 228.10 C 248.31 230.47 251.84 232.64 254.56 235.50 C 255.09 237.36 253.73 238.35 252.73 239.70 C 248.66 244.30 244.53 248.84 240.53 253.50 C 238.17 256.29 235.27 258.92 233.41 262.06 C 234.24 264.10 235.87 265.15 237.50 266.48 C 244.13 271.49 250.58 276.73 257.19 281.77 C 259.22 283.37 261.58 284.98 263.06 287.11 C 261.75 290.60 258.85 293.91 255.91 296.14 C 254.13 296.09 252.60 294.79 251.17 293.83 C 239.70 285.34 228.17 276.93 216.64 268.51 C 216.10 276.32 216.93 284.16 216.68 292.00 C 216.44 295.41 217.39 299.81 215.81 302.90 C 213.01 303.68 209.87 303.44 206.98 303.43 C 205.16 303.16 203.12 303.76 202.24 301.72 C 201.79 298.87 202.01 295.88 201.98 293.00 C 202.03 273.34 201.98 253.62 201.99 233.97 C 202.19 232.13 201.77 229.93 204.13 229.51 C 207.81 229.32 212.52 228.62 215.93 230.21 C 217.11 239.80 215.83 249.77 216.59 259.46 C 220.19 256.05 223.15 252.20 226.36 248.39 C 231.24 242.59 236.09 236.77 240.94 230.95 C 242.20 229.42 243.24 228.64 245.15 228.10 Z" fill="#fdfdfd" />
<path d="M 557.97 227.78 C 562.76 233.39 566.02 239.54 568.36 246.51 C 571.20 255.11 574.89 264.88 574.91 273.98 C 573.81 277.09 569.42 276.05 566.88 276.18 C 565.67 271.47 564.96 266.76 563.96 261.98 C 561.68 250.64 558.48 239.60 555.40 228.46 C 556.25 228.23 557.11 228.00 557.97 227.78 Z" fill="#fdfcfc" />
<path d="M 295.48 239.62 C 304.26 237.99 312.98 245.08 313.31 253.96 C 313.79 262.28 307.38 269.54 299.05 270.03 C 290.46 270.81 282.67 263.42 282.79 254.84 C 282.68 247.43 288.22 240.89 295.48 239.62 Z" fill="#006b84" />
<path d="M 467.50 239.64 C 476.25 237.99 485.17 244.99 485.36 253.97 C 486.03 262.18 479.27 269.79 471.04 270.03 C 462.65 270.77 454.70 263.46 454.93 255.01 C 454.58 247.59 460.26 240.91 467.50 239.64 Z" fill="#006b84" />
<path d="M 103.26 252.09 C 107.38 251.34 111.91 253.87 112.96 258.03 C 114.15 262.20 112.33 266.54 108.35 268.36 C 103.79 270.50 98.32 267.95 96.79 263.23 C 95.07 258.39 98.29 253.11 103.26 252.09 Z" fill="#fdfdfd" />
<path d="M 136.25 254.56 C 139.36 255.16 140.40 259.27 140.11 261.97 C 139.39 270.19 137.73 278.72 137.66 287.00 C 137.63 291.37 137.17 295.56 136.10 299.80 C 133.96 299.60 131.17 299.89 129.27 298.78 C 127.71 297.71 127.98 295.65 127.77 293.99 C 127.70 287.34 129.11 280.62 130.22 274.07 C 131.75 267.51 133.28 260.64 136.25 254.56 Z" fill="#fdfcfc" />
<path d="M 588.12 272.21 C 593.93 280.31 593.69 289.43 593.10 298.97 C 591.97 310.17 589.86 321.30 587.23 332.24 C 585.18 340.04 583.21 347.62 578.85 354.48 C 576.65 350.58 574.73 346.58 573.65 342.22 C 570.45 330.48 571.79 316.96 573.40 305.03 C 575.42 292.84 578.38 280.64 588.12 272.21 Z" fill="#fdfdfd" />
<path d="M 534.26 285.18 C 537.29 285.59 539.67 287.19 541.98 289.08 C 546.45 292.84 550.00 298.02 552.99 303.00 C 558.49 312.45 562.50 322.84 565.68 333.28 C 568.74 343.92 571.26 354.23 570.59 365.40 C 567.25 363.85 564.15 362.00 561.50 359.41 C 553.98 352.25 549.94 342.97 545.14 333.86 C 538.18 320.27 532.98 306.48 532.95 290.99 C 533.06 289.10 532.83 286.62 534.26 285.18 Z" fill="#fdfdfd" />
<path d="M 620.11 289.16 C 621.97 303.89 618.31 318.52 613.27 332.26 C 610.64 339.52 606.88 346.19 602.64 352.62 C 598.04 359.35 594.86 366.04 587.80 370.68 C 586.87 367.17 586.19 363.65 586.30 360.00 C 586.51 349.30 589.69 338.22 593.15 328.14 C 595.60 321.52 598.08 314.74 601.57 308.58 C 606.41 300.62 611.51 293.40 620.11 289.16 Z" fill="#fdfdfd" />
<path d="M 116.12 294.73 C 120.79 298.99 124.68 304.18 126.74 310.21 C 133.25 328.06 134.47 348.15 133.19 366.98 C 132.91 372.00 132.47 377.03 131.68 382.00 C 131.59 383.02 131.11 383.85 130.24 384.49 C 126.72 380.19 124.89 374.37 122.67 369.32 C 115.09 350.84 112.03 330.87 113.11 310.95 C 113.58 305.52 114.34 299.91 116.12 294.73 Z" fill="#fdfdfd" />
<path d="M 275.40 305.56 C 282.82 312.14 289.22 320.09 296.90 326.34 C 300.95 323.81 303.93 319.66 307.59 316.59 C 311.75 313.02 315.25 308.08 320.00 305.36 C 323.19 306.87 328.08 311.74 329.59 314.94 C 328.44 317.14 326.55 319.03 324.88 320.88 C 318.67 327.68 312.41 334.46 306.24 341.29 C 304.35 343.26 304.74 345.49 304.62 348.00 C 304.69 359.01 304.67 370.04 304.68 381.05 C 304.51 382.70 304.79 385.28 302.52 385.38 C 299.07 385.91 294.86 385.88 291.40 385.46 C 288.83 384.96 289.47 381.93 289.29 380.02 C 289.62 366.74 288.77 353.53 289.00 340.26 C 281.77 333.06 274.61 325.80 267.33 318.66 C 266.10 317.34 264.48 315.89 264.20 314.03 C 266.21 310.91 269.18 308.35 271.97 305.94 C 273.00 305.02 274.24 304.54 275.40 305.56 Z" fill="#fdfdfd" />
<path d="M 154.71 307.81 C 156.60 311.68 158.09 315.73 159.04 319.94 C 161.23 329.58 160.12 338.85 158.68 348.48 C 157.48 355.35 154.91 362.11 152.83 368.77 C 149.95 377.51 146.54 385.74 139.99 392.43 C 139.22 389.67 138.69 386.88 138.54 384.02 C 137.25 363.78 139.75 343.31 146.04 324.02 C 147.97 318.13 151.03 312.77 154.71 307.81 Z" fill="#fdfdfd" />
<path d="M 422.14 320.18 C 427.03 319.59 432.08 320.05 437.00 319.91 C 444.45 319.70 452.52 321.73 458.11 326.87 C 463.65 332.17 465.59 339.51 465.42 347.01 C 465.49 354.34 463.01 361.50 457.28 366.28 C 451.11 371.43 443.44 372.57 435.66 372.80 C 435.57 378.15 435.88 383.54 435.55 388.88 C 435.40 390.42 434.52 390.90 433.05 390.95 C 429.24 391.18 425.13 391.45 421.39 390.60 C 420.57 388.78 420.62 386.95 420.58 385.00 C 420.67 364.67 420.59 344.30 420.62 323.96 C 420.88 322.29 420.16 320.85 422.14 320.18 Z" fill="#fdfdfd" />
<path d="M 481.17 322.09 C 484.86 321.30 490.12 321.33 493.84 322.02 C 495.18 323.88 494.96 325.82 495.04 328.00 C 494.97 347.00 494.99 366.01 495.03 385.01 C 494.91 386.88 495.14 389.22 493.71 390.65 C 490.20 391.28 486.48 391.12 482.93 390.93 C 481.67 390.99 480.73 389.90 480.52 388.74 C 480.12 385.53 480.36 382.23 480.32 379.00 C 480.34 364.00 480.34 349.00 480.33 334.00 C 480.58 330.24 479.58 325.55 481.17 322.09 Z" fill="#fdfdfd" />
<path d="M 83.27 322.70 C 93.08 328.32 100.98 336.63 106.68 346.34 C 114.10 358.82 118.57 373.84 122.41 387.77 C 123.40 391.51 124.66 395.34 125.10 399.18 C 121.56 398.84 119.15 396.68 116.35 394.71 C 105.56 386.77 98.01 375.11 93.31 362.70 C 88.26 349.39 82.83 337.31 83.27 322.70 Z" fill="#fdfdfd" />
<path d="M 338.24 328.28 C 341.75 327.67 345.45 327.95 349.00 327.92 C 363.33 327.93 377.67 327.95 392.00 327.90 C 394.82 327.94 397.89 327.68 400.63 328.38 C 401.47 330.26 401.07 332.04 400.86 334.00 C 398.60 349.16 396.48 364.34 394.33 379.52 C 394.02 380.99 393.93 382.87 392.83 383.98 C 388.64 384.85 384.05 384.32 379.80 384.04 C 379.84 378.45 381.00 373.31 381.85 367.81 C 382.88 361.22 383.95 354.63 385.05 348.04 C 385.24 346.16 385.91 343.89 385.01 342.15 C 382.82 341.20 380.35 341.39 378.00 341.34 C 370.02 341.40 361.97 341.31 354.01 341.86 C 351.94 341.98 352.10 344.46 352.04 345.97 C 352.06 357.32 352.10 368.68 352.08 380.02 C 351.80 382.23 352.59 384.07 349.86 384.73 C 346.30 385.00 340.55 385.93 337.56 383.67 C 337.12 380.49 337.35 377.20 337.32 374.00 C 337.34 360.33 337.35 346.65 337.30 332.98 C 337.42 331.30 337.15 329.66 338.24 328.28 Z" fill="#fdfdfd" />
<path d="M 215.00 329.25 C 217.17 329.35 219.98 328.99 221.91 330.14 C 222.72 331.70 222.63 333.26 222.70 334.97 C 222.75 343.15 222.46 351.36 222.84 359.53 C 226.59 355.98 229.59 352.01 232.97 347.99 C 237.55 342.55 242.14 337.12 246.64 331.61 C 247.82 330.32 249.20 328.35 251.06 328.19 C 254.41 330.01 258.12 332.78 260.78 335.51 C 261.57 337.37 259.83 338.47 258.88 339.87 C 253.55 345.89 248.22 351.92 242.86 357.91 C 241.64 359.38 240.09 360.97 239.75 362.89 C 242.32 365.72 245.71 367.90 248.69 370.29 C 254.66 374.99 260.68 379.63 266.67 384.31 C 267.92 385.43 269.79 386.62 268.83 388.55 C 267.30 391.19 264.96 393.98 262.60 395.91 C 260.76 396.54 259.34 395.06 257.89 394.16 C 246.32 385.57 234.57 377.25 223.05 368.60 C 222.96 375.40 222.98 382.20 223.03 389.00 C 222.97 392.63 223.55 395.88 221.46 399.09 C 217.72 398.93 213.87 399.28 210.17 398.73 C 208.17 398.13 208.42 395.68 208.31 394.04 C 208.33 374.35 208.37 354.66 208.30 334.98 C 208.38 333.38 208.20 331.49 209.13 330.13 C 210.72 329.09 213.16 329.35 215.00 329.25 Z" fill="#fdfdfd" />
<path d="M 441.19 333.88 C 448.25 336.71 451.93 345.35 448.24 352.20 C 445.08 357.26 438.53 357.83 433.15 358.11 C 433.07 350.25 432.60 342.16 433.32 334.35 C 434.90 332.02 439.00 333.04 441.19 333.88 Z" fill="#006b84" />
<path d="M 580.36 372.47 C 581.54 372.18 582.74 371.98 583.97 371.86 C 583.91 376.92 582.39 382.06 580.90 386.87 C 577.39 396.88 573.05 409.34 564.90 416.49 C 562.61 415.98 561.10 414.11 560.72 411.85 C 561.15 409.30 562.38 406.82 563.44 404.47 C 567.94 394.75 573.97 385.97 578.21 376.24 C 578.82 374.97 579.40 373.51 580.36 372.47 Z" fill="#fdfcfc" />
<path d="M 597.37 378.36 C 601.14 376.60 606.24 378.00 608.28 381.71 C 610.43 385.41 609.50 390.45 606.05 393.03 C 602.46 395.61 597.22 395.00 594.38 391.60 C 591.04 387.42 592.30 380.53 597.37 378.36 Z" fill="#fdfdfd" />
<path d="M 159.35 394.33 C 163.83 392.84 168.73 395.30 170.18 399.78 C 171.54 403.78 169.74 408.09 166.05 410.07 C 161.52 412.61 155.28 410.06 153.97 405.00 C 152.69 400.48 154.89 395.90 159.35 394.33 Z" fill="#fdfdfd" />
<path d="M 138.50 402.12 C 139.58 404.63 140.37 407.23 141.17 409.84 C 144.37 420.30 148.27 430.52 153.03 440.38 C 151.66 442.60 151.07 444.69 148.00 444.70 C 145.56 444.86 144.71 443.21 143.60 441.39 C 140.63 435.99 138.08 430.11 136.96 424.02 C 135.65 417.02 134.00 410.52 134.38 403.31 C 135.73 402.81 137.09 402.41 138.50 402.12 Z" fill="#fdfcfc" />
<path d="M 265.94 419.62 C 269.18 419.51 272.67 419.34 275.82 420.19 C 277.44 429.22 275.28 438.91 277.08 447.98 C 277.75 451.13 279.04 454.41 281.18 456.86 C 284.05 460.13 288.87 461.42 293.00 460.09 C 298.94 458.39 303.42 452.75 305.07 446.97 C 306.61 442.08 305.41 437.20 306.29 432.26 C 308.06 431.14 309.99 431.31 312.01 431.24 C 313.93 431.35 316.00 431.05 317.51 432.47 C 318.90 438.85 316.70 444.88 319.73 451.25 C 322.66 458.64 331.75 462.60 338.98 458.99 C 344.60 455.78 348.77 449.83 350.77 443.75 C 353.14 437.15 351.25 429.01 352.31 422.23 C 354.19 421.08 356.86 421.31 359.00 421.25 C 360.96 421.32 362.99 421.18 364.73 422.19 C 365.44 427.72 364.97 433.43 365.07 439.00 C 364.84 449.77 361.84 462.10 353.78 469.77 C 347.73 475.80 339.38 478.21 330.99 478.07 C 324.56 477.93 318.33 474.63 314.38 469.59 C 312.44 467.11 310.91 464.18 309.23 461.49 C 306.92 465.72 304.51 469.69 300.63 472.69 C 295.18 476.92 287.53 479.15 280.78 477.09 C 272.79 474.84 267.04 468.31 264.30 460.66 C 260.99 451.49 262.23 442.58 262.00 433.00 C 262.08 429.13 261.67 425.10 262.29 421.28 C 263.03 419.54 264.36 419.84 265.94 419.62 Z" fill="#fdfdfd" />
<path d="M 523.73 419.82 C 529.51 432.53 530.51 446.20 529.11 459.95 C 528.48 472.70 524.26 484.03 519.89 495.85 C 518.98 498.15 517.76 500.25 516.51 502.36 C 514.89 500.06 513.66 497.70 513.17 494.90 C 510.64 481.83 509.66 468.30 510.67 455.02 C 511.84 442.13 514.92 429.72 523.73 419.82 Z" fill="#fdfdfd" />
<path d="M 437.92 422.16 C 438.59 424.99 438.39 428.11 438.41 431.00 C 438.22 449.56 438.66 468.15 438.18 486.70 C 433.85 484.44 430.59 481.24 426.84 478.19 C 418.41 471.31 410.06 464.34 401.59 457.50 C 401.08 457.65 400.58 457.79 400.07 457.93 C 400.12 464.96 399.96 471.98 400.04 479.00 C 400.06 482.03 399.95 485.04 399.44 488.03 C 394.81 488.01 390.46 488.35 385.93 487.17 C 385.93 466.77 385.95 446.37 385.91 425.97 C 386.02 424.39 385.77 423.03 387.04 421.84 C 389.62 421.79 390.96 423.69 392.73 425.26 C 398.71 431.30 404.97 437.02 411.04 442.95 C 415.58 447.19 419.74 451.67 424.52 455.66 C 424.71 447.78 424.60 439.88 424.60 432.00 C 424.64 428.78 424.32 425.32 425.06 422.17 C 428.10 420.90 434.90 420.83 437.92 422.16 Z" fill="#fdfdfd" />
<path d="M 569.88 424.89 C 570.85 436.34 567.66 447.29 562.31 457.31 C 555.92 469.15 546.82 479.87 537.33 489.34 C 534.72 491.77 532.11 494.86 528.91 496.41 C 528.14 493.50 528.82 490.93 529.31 488.04 C 532.20 473.66 537.34 459.61 545.21 447.18 C 551.45 437.59 559.11 429.34 569.88 424.89 Z" fill="#fdfdfd" />
<path d="M 202.48 434.87 C 204.45 436.15 206.03 437.82 206.96 440.01 C 211.72 450.70 214.44 462.31 215.03 474.00 C 215.39 488.58 214.72 503.70 208.75 517.25 C 206.17 512.72 204.29 508.08 202.89 503.06 C 198.88 489.10 196.59 474.51 196.65 459.98 C 196.87 451.69 197.79 441.96 202.48 434.87 Z" fill="#fdfdfd" />
<path d="M 159.74 441.67 C 169.73 445.68 177.06 453.35 182.56 462.42 C 189.59 474.12 193.79 487.80 196.99 500.99 C 198.01 505.08 198.61 509.07 198.77 513.29 C 193.26 510.70 188.37 507.21 184.41 502.56 C 175.56 492.47 170.26 479.15 165.07 466.92 C 161.65 458.78 159.72 450.53 159.74 441.67 Z" fill="#fdfdfd" />
<path d="M 599.09 456.80 C 597.09 462.58 594.69 468.10 590.99 473.01 C 584.11 481.95 575.56 488.03 566.41 494.39 C 559.69 499.25 551.89 502.97 544.30 506.31 C 540.00 508.15 536.19 508.53 531.57 507.79 C 532.32 505.00 533.37 502.39 535.03 500.01 C 540.03 492.63 546.42 485.96 552.98 479.95 C 561.83 472.07 572.02 464.51 583.06 460.05 C 588.26 457.92 593.47 456.89 599.09 456.80 Z" fill="#fdfdfd" />
<path d="M 126.66 472.19 C 140.47 472.66 151.37 479.06 162.52 486.51 C 172.16 493.27 179.76 502.82 186.87 512.09 C 190.03 516.29 193.39 520.36 196.31 524.72 C 193.98 524.51 191.73 524.10 189.48 523.42 C 177.23 519.63 165.55 514.35 155.09 506.87 C 142.61 498.11 132.37 486.44 126.66 472.19 Z" fill="#fdfdfd" />
<path d="M 517.47 521.41 C 521.53 519.85 526.48 521.73 528.27 525.73 C 530.36 529.93 528.40 535.22 524.20 537.20 C 520.10 539.25 514.77 537.29 512.88 533.15 C 510.62 528.79 512.86 523.09 517.47 521.41 Z" fill="#fdfdfd" />
<path d="M 216.32 525.18 C 218.47 524.49 219.51 525.67 221.05 526.91 C 236.81 541.28 259.87 547.37 277.46 559.58 C 279.53 560.99 280.78 562.96 282.12 565.00 C 278.69 567.19 275.50 567.68 271.52 566.66 C 265.30 564.80 259.39 560.38 253.57 557.44 C 240.56 550.81 227.79 542.77 217.03 532.86 C 214.58 530.33 214.37 528.12 216.32 525.18 Z" fill="#fdfcfc" />
<path d="M 497.48 528.36 C 496.81 531.47 496.03 534.36 493.75 536.70 C 489.16 541.69 481.69 544.37 475.91 547.90 C 465.62 554.08 454.77 559.20 443.60 563.59 C 436.90 566.13 429.70 567.88 422.74 569.60 C 419.22 570.44 415.50 571.30 411.88 571.39 C 410.24 569.46 411.02 566.34 412.27 564.40 C 414.45 561.09 419.21 560.41 422.77 559.48 C 434.32 557.02 446.14 553.76 456.96 548.95 C 465.80 544.72 474.09 539.36 482.79 534.82 C 487.89 532.29 491.74 529.08 497.48 528.36 Z" fill="#fdfcfc" />
<path d="M 203.23 536.27 C 206.89 535.12 211.00 536.74 213.01 539.98 C 215.43 544.32 214.04 550.25 209.24 552.24 C 204.61 554.42 199.35 551.89 197.61 547.24 C 195.89 542.78 198.64 537.53 203.23 536.27 Z" fill="#fdfcfc" />
<path d="M 392.12 546.70 C 394.93 546.06 397.54 547.66 398.91 550.06 C 400.60 552.59 399.70 556.06 399.73 558.99 C 399.26 565.84 400.11 574.41 396.36 580.41 C 394.18 584.66 387.14 583.42 384.91 579.97 C 382.36 572.44 382.60 563.75 385.18 556.24 C 386.52 552.72 388.77 548.65 392.12 546.70 Z" fill="#fdfdfd" />
<path d="M 301.97 550.98 C 306.35 552.24 308.35 556.62 307.91 560.94 C 307.16 569.67 301.45 576.66 296.35 583.37 C 295.00 584.90 293.42 587.53 291.05 587.06 C 288.18 586.27 285.58 584.12 283.04 582.59 C 282.85 578.97 281.63 575.93 283.54 572.57 C 286.54 566.57 289.54 559.19 294.50 554.57 C 296.42 552.98 299.32 550.55 301.97 550.98 Z" fill="#fdfdfd" />
<path d="M 329.89 557.28 C 330.85 560.76 328.33 564.97 327.25 568.26 C 325.32 573.42 323.99 579.14 320.74 583.68 C 319.32 585.60 317.31 587.75 314.93 588.40 C 311.44 588.18 308.43 586.04 307.30 582.70 C 305.76 577.79 306.74 572.67 309.24 568.26 C 312.28 562.87 316.36 558.01 320.80 553.74 C 323.67 550.17 328.52 554.33 329.89 557.28 Z" fill="#fdfdfd" />
<path d="M 353.54 558.00 C 354.04 568.06 351.54 578.55 345.90 586.97 C 344.42 589.07 342.55 591.79 340.06 592.70 C 336.96 592.52 333.43 591.05 331.60 588.45 C 330.70 586.87 331.42 585.37 331.77 583.75 C 335.15 572.64 335.76 562.35 342.94 552.68 C 347.32 550.62 353.10 552.92 353.54 558.00 Z" fill="#fdfdfd" />
<path d="M 364.30 554.09 C 368.97 552.33 375.30 556.77 375.35 561.86 C 376.06 569.31 372.09 576.44 368.95 582.94 C 367.95 584.77 367.13 587.12 365.57 588.52 C 361.88 589.94 356.65 588.77 355.47 584.52 C 352.71 576.22 357.41 568.16 360.86 560.89 C 361.97 558.63 362.89 556.17 364.30 554.09 Z" fill="#fdfdfd" />
<path d="M 6.01 688.60 C 234.67 688.59 463.33 688.59 691.99 688.60 C 692.01 717.07 692.00 745.53 692.00 774.00 C 463.33 774.00 234.67 774.00 6.00 774.00 C 6.00 745.53 5.99 717.07 6.01 688.60 Z" fill="#fcb828" />
</svg>