<?xml version="1.0" encoding="UTF-8" standalone="no"?>
<!DOCTYPE svg PUBLIC "-//W3C//DTD SVG 1.1//EN" "http://www.w3.org/Graphics/SVG/1.1/DTD/svg11.dtd">
<svg xmlns="http://www.w3.org/2000/svg" version="1.1" viewBox="0 0 1216 860" width="1216.0pt" height="860.0pt">
<path d="M 0.00 0.00 L 1216.00 0.00 L 1216.00 860.00 L 0.00 860.00 L 0.00 0.00 Z" fill="#000000" />
<path d="M 566.37 139.20 C 564.25 141.53 561.74 141.03 558.90 140.81 C 559.26 137.44 564.21 139.03 566.37 139.20 Z" fill="#1a262d" />
<path d="M 550.00 222.44 C 575.11 223.66 599.97 228.66 622.16 240.91 C 633.47 247.12 644.18 254.96 653.02 264.39 C 618.04 249.02 579.66 244.91 541.79 246.63 C 529.90 247.60 517.67 248.49 505.99 251.03 C 471.54 257.28 438.75 270.17 408.75 288.14 C 409.28 288.62 409.85 289.00 410.46 289.26 C 427.42 291.32 444.93 290.75 462.00 290.41 C 468.04 290.43 473.95 289.38 480.00 289.53 C 497.31 288.24 514.61 287.36 531.88 285.53 C 575.06 282.12 617.76 277.35 661.02 274.52 C 673.01 273.77 684.99 272.46 697.01 272.27 C 704.99 271.54 713.00 271.48 721.01 271.21 C 731.75 270.18 742.23 270.32 753.00 270.23 C 765.02 269.60 777.13 269.52 789.14 270.24 C 796.78 270.31 804.34 270.21 812.01 271.03 C 846.31 272.64 882.61 276.96 914.98 288.91 C 932.96 295.78 951.32 306.28 962.90 322.06 C 966.01 326.00 968.10 330.43 970.52 334.78 C 962.13 327.08 952.28 321.55 941.86 317.08 C 918.95 307.53 895.46 303.62 871.02 300.56 C 862.06 299.86 853.11 298.66 844.13 298.41 C 832.16 297.15 820.01 297.61 808.00 297.19 C 800.02 296.34 792.06 296.81 784.00 296.70 C 768.37 297.75 752.65 297.16 737.01 297.93 C 729.68 298.93 722.32 298.13 715.00 299.09 C 709.02 299.68 702.99 299.23 697.00 299.91 C 690.66 300.71 684.32 300.16 678.01 301.01 C 673.34 301.63 668.65 301.30 663.99 302.02 C 658.33 302.81 652.64 302.16 647.02 303.00 C 642.70 303.73 638.35 303.26 634.03 303.92 C 629.38 304.62 624.68 304.26 620.01 304.96 C 615.05 305.69 610.06 305.20 605.13 306.02 C 601.11 306.63 597.04 306.37 593.01 306.96 C 587.01 307.78 581.00 307.12 575.01 308.21 C 567.97 308.50 561.03 309.46 553.99 309.71 C 547.33 310.73 540.63 310.08 533.98 311.06 C 529.34 311.65 524.66 311.34 520.01 311.95 C 513.67 312.73 507.33 312.15 501.00 313.09 C 496.32 313.70 491.68 313.27 487.00 313.78 C 478.27 314.87 469.71 314.21 461.01 315.21 C 454.01 315.52 447.00 315.34 440.00 315.61 C 434.63 315.50 429.36 316.42 424.00 316.32 C 410.00 316.34 395.99 316.43 382.00 316.28 C 374.01 315.52 366.01 315.47 357.99 315.35 C 347.30 314.50 336.64 313.96 325.98 312.54 C 313.13 311.29 300.57 308.77 287.95 306.16 C 288.68 305.46 289.33 304.75 290.20 304.22 C 324.18 285.72 359.05 268.97 395.12 254.95 C 425.03 243.51 455.43 233.66 486.96 227.82 C 507.64 224.05 528.96 221.77 550.00 222.44 Z" fill="#2cc5e6" />
<path d="M 721.01 321.10 C 728.59 320.24 736.35 320.67 744.00 320.40 C 761.33 320.24 778.67 320.28 796.00 320.42 C 801.73 320.65 807.40 320.31 813.02 321.10 C 817.66 321.62 822.43 321.36 827.11 321.64 C 821.71 322.02 816.33 322.23 810.91 322.40 C 812.09 323.99 814.57 325.45 813.74 327.67 C 812.87 331.05 811.27 334.14 810.69 337.63 C 809.57 338.13 808.44 338.62 807.31 339.11 C 807.50 339.89 807.69 340.67 807.88 341.45 C 800.22 341.42 792.67 340.44 785.00 340.75 C 777.63 340.39 770.37 341.47 763.00 341.26 C 752.34 341.31 741.66 341.59 731.00 341.80 C 723.25 342.73 715.57 342.43 707.81 342.75 C 700.22 343.64 692.59 343.18 684.99 344.06 C 679.05 344.72 673.08 344.35 667.16 345.12 C 662.43 345.70 657.72 345.40 653.00 345.85 C 645.98 346.63 639.00 346.33 632.01 347.15 C 627.33 347.69 622.67 347.39 618.01 348.09 C 612.03 348.91 606.00 348.39 599.99 349.11 C 594.67 349.69 589.33 349.40 584.02 349.96 C 576.43 350.85 568.62 350.28 561.01 351.10 C 555.35 351.70 549.66 351.46 544.00 352.01 C 536.19 352.94 528.35 352.23 520.53 353.28 C 507.36 353.58 494.17 353.60 480.99 353.68 C 468.40 354.64 455.59 354.58 443.00 353.65 C 431.09 353.45 419.11 353.76 407.22 353.16 C 419.00 353.73 430.96 352.70 442.74 352.74 L 442.76 352.05 C 439.51 351.85 436.26 351.76 433.01 351.75 C 433.16 348.41 433.48 344.85 434.74 341.72 C 436.15 339.75 439.95 340.23 442.15 339.45 C 433.78 338.78 425.27 338.96 416.90 338.59 C 424.27 338.46 431.63 338.51 439.00 338.39 C 447.37 338.53 455.62 337.23 464.00 337.36 C 478.92 336.06 494.02 335.82 508.93 334.51 C 515.69 334.65 522.26 333.31 529.01 333.40 C 539.01 332.72 549.00 331.71 559.00 331.15 C 565.27 330.35 571.56 330.72 577.82 329.79 C 582.81 329.43 587.76 329.19 592.74 328.56 C 604.53 328.14 616.23 326.69 628.01 326.21 C 632.03 325.74 635.95 325.43 640.00 325.39 C 652.00 324.66 663.99 323.60 676.01 323.25 C 685.33 322.16 694.70 322.81 704.02 321.73 C 709.63 321.31 715.39 321.63 721.01 321.10 Z" fill="#b8c6b8" />
<path d="M 810.91 322.40 C 816.33 322.23 821.71 322.02 827.11 321.64 C 848.39 323.21 869.15 325.51 889.90 330.83 C 906.80 334.86 924.20 341.35 938.16 351.91 C 946.81 358.58 953.79 367.20 957.55 377.52 C 961.25 388.11 964.59 398.59 962.80 409.98 C 961.27 426.15 953.28 441.54 942.42 453.43 C 932.78 463.45 921.19 471.40 907.85 475.61 C 901.08 478.17 894.14 478.66 887.00 479.30 C 874.40 478.90 861.51 475.73 851.95 467.08 C 859.07 469.64 865.14 473.21 872.99 473.58 C 879.98 473.79 887.47 474.16 894.14 471.98 C 911.80 467.50 927.53 455.62 937.22 440.27 C 942.74 431.39 947.07 420.58 946.87 410.00 C 946.84 403.39 947.25 397.32 944.98 390.98 C 942.63 383.47 938.10 377.03 932.42 371.67 C 923.85 364.37 912.34 359.79 901.00 360.32 C 888.42 359.67 876.12 363.94 865.47 370.39 C 858.61 374.99 851.98 379.73 847.20 386.57 C 848.22 384.83 849.29 383.14 850.62 381.61 C 856.31 375.18 862.19 369.14 869.46 364.47 C 877.17 359.56 885.97 355.23 895.00 353.56 C 895.90 353.24 897.44 353.39 897.72 352.24 C 894.67 350.95 891.38 350.54 888.17 349.86 C 880.84 348.27 873.43 347.00 866.00 345.97 C 854.31 344.76 842.75 342.97 830.98 342.56 C 823.27 342.35 815.60 341.58 807.88 341.45 C 807.69 340.67 807.50 339.89 807.31 339.11 C 808.44 338.62 809.57 338.13 810.69 337.63 C 811.27 334.14 812.87 331.05 813.74 327.67 C 814.57 325.45 812.09 323.99 810.91 322.40 Z" fill="#829892" />
<path d="M 286.18 328.44 C 311.81 335.10 337.64 337.29 364.00 338.40 C 381.63 338.65 399.26 338.75 416.90 338.59 C 425.27 338.96 433.78 338.78 442.15 339.45 C 439.95 340.23 436.15 339.75 434.74 341.72 C 433.48 344.85 433.16 348.41 433.01 351.75 C 436.26 351.76 439.51 351.85 442.76 352.05 L 442.74 352.74 C 430.96 352.70 419.00 353.73 407.22 353.16 C 398.82 352.31 390.39 351.96 382.01 350.82 C 374.94 350.48 367.99 349.42 360.98 348.55 C 335.12 344.64 310.14 339.24 286.18 328.44 Z" fill="#829892" />
<path d="M 332.00 347.66 C 340.57 348.18 349.72 349.64 357.45 353.54 C 367.46 358.41 376.33 366.51 381.34 376.53 C 386.98 387.33 388.72 400.01 387.06 412.03 C 385.94 418.01 385.23 423.77 382.36 429.24 C 382.84 426.06 383.79 423.04 384.64 419.95 C 386.13 412.79 387.12 404.72 385.56 397.52 C 381.90 394.61 376.77 393.21 372.24 392.36 C 372.18 396.91 372.47 401.37 371.66 405.89 C 370.72 411.07 370.96 415.73 368.47 420.37 C 370.20 411.44 371.66 402.89 369.90 393.79 C 368.45 385.03 364.77 376.77 358.89 370.09 C 351.63 361.70 340.87 356.38 330.01 354.62 C 324.23 354.02 317.77 354.02 311.99 354.59 C 300.21 356.41 288.75 361.63 279.03 368.46 C 284.05 364.26 289.39 360.31 295.14 357.18 C 306.48 351.03 319.16 348.03 332.00 347.66 Z" fill="#829892" />
<path d="M 333.32 373.50 C 326.64 373.22 319.24 372.61 312.75 374.55 C 314.47 373.81 316.17 373.03 317.88 372.27 C 316.53 372.04 315.17 371.83 313.82 371.65 C 320.54 370.82 326.84 371.77 333.32 373.50 Z" fill="#b8c6b8" />
<path d="M 313.82 371.65 C 315.17 371.83 316.53 372.04 317.88 372.27 C 316.17 373.03 314.47 373.81 312.75 374.55 C 295.44 380.25 281.59 394.89 278.32 412.99 C 276.35 421.78 278.52 430.80 283.20 438.37 C 283.00 441.78 286.14 443.39 288.04 445.84 C 281.32 446.02 277.29 441.28 271.05 440.28 C 266.71 432.05 266.51 423.01 267.81 413.99 C 272.39 392.19 291.80 374.56 313.82 371.65 Z" fill="#b8c6b8" />
<path d="M 627.53 378.87 C 636.52 378.12 645.25 378.41 653.53 382.35 C 660.89 385.85 666.37 392.44 668.72 400.23 C 663.82 401.52 659.34 403.23 654.40 403.89 C 653.05 400.90 651.61 398.11 648.94 396.08 C 642.23 390.69 631.95 390.10 624.21 393.43 C 616.73 396.62 612.83 405.28 612.44 413.00 C 612.22 420.32 611.74 427.23 614.99 434.00 C 617.62 440.21 623.29 444.62 629.98 445.54 C 635.83 446.13 641.75 446.22 646.82 442.81 C 651.21 439.96 653.53 435.78 655.74 431.20 C 660.40 433.13 665.19 434.65 669.81 436.68 C 666.91 442.95 663.42 448.62 657.53 452.52 C 650.06 457.68 641.55 459.09 632.61 458.77 C 627.55 458.10 622.66 456.61 617.57 456.09 C 611.23 453.12 605.67 449.05 601.94 443.02 C 597.26 435.81 596.00 427.42 595.66 419.00 C 595.71 408.57 597.60 397.80 604.80 389.80 C 610.68 383.16 618.87 379.90 627.53 378.87 Z" fill="#b8c6b8" />
<path d="M 424.41 379.66 C 430.46 379.49 436.52 379.69 442.58 379.58 C 452.03 395.79 461.17 412.20 470.51 428.48 C 472.71 432.32 474.70 436.23 477.34 439.81 C 476.11 432.46 476.40 425.43 476.34 418.00 C 476.39 405.20 476.24 392.40 476.42 379.60 C 481.16 379.61 485.89 379.61 490.63 379.60 C 490.81 405.63 490.65 431.69 490.71 457.73 C 484.31 457.72 477.90 457.81 471.50 457.67 C 461.63 439.87 451.44 422.26 441.53 404.49 C 440.30 402.33 438.99 400.22 437.62 398.14 C 437.90 402.11 438.60 406.00 438.56 410.00 C 438.57 423.95 438.60 437.90 438.54 451.85 C 433.70 452.09 428.93 452.68 424.27 454.07 C 424.22 430.72 424.29 407.36 424.23 384.00 C 424.25 382.56 424.26 381.09 424.41 379.66 Z" fill="#b8c6b8" />
<path d="M 528.00 378.61 C 535.87 378.39 545.17 378.63 552.24 382.53 C 558.15 385.49 561.64 391.85 562.63 398.19 C 557.36 398.69 552.22 399.81 546.90 399.87 C 545.78 397.11 544.63 394.60 542.08 392.87 C 537.87 389.76 531.95 390.07 526.98 390.35 C 523.08 390.65 518.07 392.42 516.76 396.52 C 516.30 398.27 516.32 400.70 516.77 402.46 C 518.48 406.05 522.22 407.86 525.87 408.88 C 533.60 411.02 541.84 412.23 549.46 414.83 C 555.04 416.93 560.11 419.80 562.70 425.45 C 565.73 432.13 565.38 441.21 561.41 447.46 C 556.59 454.72 547.29 457.74 539.00 458.49 C 530.03 458.77 521.53 459.38 513.04 456.04 C 505.02 453.28 498.20 446.03 497.08 437.47 C 502.27 436.54 507.31 435.36 512.60 435.19 C 513.87 438.78 515.63 441.94 519.02 443.91 C 524.16 446.87 530.82 446.82 536.56 446.40 C 540.74 445.87 546.06 444.49 548.10 440.39 C 549.14 436.88 549.33 432.34 546.04 429.92 C 540.63 425.40 531.55 424.81 524.87 422.99 C 517.29 421.11 507.68 418.72 503.34 411.56 C 498.93 403.97 499.47 392.32 506.10 386.11 C 511.94 380.70 520.29 378.96 528.00 378.61 Z" fill="#b8c6b8" />
<path d="M 699.88 379.73 C 706.05 379.37 712.26 379.81 718.44 379.50 C 720.37 383.25 721.46 387.24 722.93 391.16 C 727.43 403.19 731.68 415.32 736.11 427.38 C 739.65 437.51 743.72 447.50 746.97 457.72 C 741.67 457.76 736.38 457.73 731.08 457.74 C 728.92 452.07 727.08 446.31 725.12 440.57 C 724.66 439.61 724.36 438.00 723.16 437.78 C 713.68 437.56 704.16 437.89 694.68 437.63 C 691.91 444.09 689.84 450.97 687.61 457.64 C 682.13 457.82 676.64 457.76 671.15 457.69 C 680.34 432.30 689.72 406.91 698.86 381.53 C 699.13 380.91 699.47 380.31 699.88 379.73 Z" fill="#b8c6b8" />
<path d="M 753.51 379.49 C 766.67 379.77 779.84 379.50 793.00 379.63 C 799.79 379.97 806.36 380.96 812.12 384.82 C 816.61 387.74 819.72 392.70 820.54 397.98 C 821.02 403.65 821.25 409.10 818.26 414.18 C 815.30 419.72 810.15 423.32 804.12 424.88 C 805.36 427.85 807.24 430.33 808.97 433.02 C 814.23 441.25 819.53 449.46 824.84 457.67 C 822.53 457.71 820.23 457.74 817.93 457.74 C 819.48 454.49 817.77 451.71 814.36 451.31 C 812.45 452.85 811.50 455.70 810.46 457.86 C 809.10 457.78 807.73 457.69 806.37 457.60 C 800.50 447.82 794.45 438.15 788.60 428.35 C 782.17 428.21 775.73 428.31 769.30 428.29 C 769.21 438.11 769.48 447.95 769.16 457.77 C 763.78 457.72 758.41 457.76 753.03 457.73 C 752.59 453.48 752.79 449.26 752.77 445.00 C 752.76 426.33 752.77 407.67 752.76 389.00 C 752.82 385.70 752.35 382.67 753.51 379.49 Z" fill="#b8c6b8" />
<path d="M 372.24 392.36 C 376.77 393.21 381.90 394.61 385.56 397.52 C 387.12 404.72 386.13 412.79 384.64 419.95 C 383.79 423.04 382.84 426.06 382.36 429.24 C 374.76 448.53 359.82 463.90 341.56 473.46 C 337.47 471.88 332.66 471.67 329.04 469.31 C 330.16 468.13 331.18 466.92 331.99 465.50 C 349.22 455.60 362.65 439.45 368.47 420.37 C 370.96 415.73 370.72 411.07 371.66 405.89 C 372.47 401.37 372.18 396.91 372.24 392.36 Z" fill="#b8c6b8" />
<path d="M 709.20 392.22 C 711.43 398.42 713.11 404.78 715.45 410.95 C 716.94 415.79 719.09 420.53 720.00 425.52 C 712.72 425.46 705.43 425.51 698.15 425.48 C 701.67 414.34 705.73 403.38 709.20 392.22 Z" fill="#000000" />
<path d="M 769.39 392.52 C 776.26 392.34 783.14 392.51 790.01 392.45 C 794.23 392.43 799.56 393.08 802.40 396.58 C 805.79 401.17 805.32 409.05 800.59 412.61 C 798.05 414.80 794.23 415.30 791.00 415.41 C 783.84 415.52 776.66 415.30 769.49 415.52 C 769.15 407.90 769.26 400.14 769.39 392.52 Z" fill="#000000" />
<path d="M 352.90 424.28 C 346.77 441.34 330.91 454.08 313.45 458.11 C 304.90 459.70 295.40 459.64 287.43 455.78 C 280.31 452.63 274.27 447.48 271.05 440.28 C 277.29 441.28 281.32 446.02 288.04 445.84 C 286.14 443.39 283.00 441.78 283.20 438.37 C 285.52 440.77 287.86 443.39 290.55 445.37 C 297.57 450.40 306.50 452.30 315.02 451.16 C 330.92 449.29 345.34 438.14 352.90 424.28 Z" fill="#829892" />
<path d="M 791.81 441.15 C 794.45 442.70 796.56 443.39 795.66 447.03 C 793.04 453.94 790.14 460.79 787.35 467.64 C 793.74 467.45 800.03 466.35 806.44 466.39 C 807.83 463.57 809.21 460.74 810.46 457.86 C 811.50 455.70 812.45 452.85 814.36 451.31 C 817.77 451.71 819.48 454.49 817.93 457.74 C 816.52 460.55 815.01 463.24 814.16 466.30 C 822.95 466.18 831.58 466.39 840.15 468.59 C 843.56 462.92 845.96 456.51 849.86 451.19 C 851.76 452.77 854.82 453.85 853.55 456.94 C 851.44 461.69 849.00 466.34 846.55 470.93 C 847.78 472.40 851.48 475.04 848.15 476.45 C 846.97 476.08 845.79 475.68 844.63 475.25 C 837.41 489.68 830.83 504.53 825.58 519.80 C 824.47 523.14 819.80 519.30 820.15 517.02 C 821.05 512.31 823.41 507.91 824.77 503.30 C 819.15 509.17 812.59 513.90 804.86 516.58 C 803.61 515.50 802.29 514.61 801.49 513.12 C 801.21 510.09 802.79 506.82 804.09 504.13 C 806.13 500.36 809.03 496.15 812.92 494.13 C 816.47 492.54 819.56 493.72 822.90 495.04 C 826.41 490.13 830.09 485.41 833.24 480.25 C 834.70 477.70 836.67 475.79 836.77 472.74 C 828.45 472.53 820.10 471.31 811.90 471.84 C 809.52 473.83 808.55 478.38 807.12 481.18 C 802.09 493.31 797.70 506.14 795.88 519.18 C 795.17 525.02 794.82 530.86 794.52 536.72 C 792.37 536.21 789.27 534.58 789.41 532.02 C 789.18 523.58 790.32 514.50 792.42 506.32 C 787.58 509.36 781.79 513.07 776.00 513.57 C 772.34 514.09 770.24 511.00 769.14 508.00 C 768.06 504.97 768.85 502.00 769.65 499.03 C 771.93 491.11 775.07 483.32 777.76 475.50 C 776.05 475.48 774.23 475.70 772.54 475.37 C 770.82 474.21 770.07 472.58 769.38 470.69 C 773.04 469.83 776.77 469.42 780.43 468.58 C 782.61 462.30 785.10 456.14 787.60 449.98 C 788.93 446.82 789.70 443.73 791.81 441.15 Z" fill="#2cc5e6" />
<path d="M 706.42 449.26 C 708.80 448.96 712.64 452.47 710.70 454.78 C 700.67 470.03 692.11 486.58 686.30 503.91 C 689.84 501.20 693.07 498.17 696.88 495.81 C 700.18 493.77 703.51 491.00 707.23 489.83 C 709.71 489.05 712.07 491.71 713.25 493.55 C 714.50 498.15 712.84 501.72 711.26 505.91 C 718.49 504.41 724.50 500.97 731.03 497.89 C 733.25 496.44 736.09 500.05 733.58 501.55 C 727.24 505.49 720.69 509.60 713.62 512.06 C 710.69 513.17 707.10 511.85 705.67 509.05 C 704.26 505.19 706.61 500.78 707.72 497.06 C 699.53 500.98 692.26 507.52 685.96 513.97 C 684.07 515.72 681.94 513.87 680.76 512.25 C 678.55 509.59 679.31 506.69 679.38 503.52 C 673.40 506.68 666.99 508.99 660.88 511.91 C 657.97 512.77 655.16 514.03 652.10 513.12 C 649.33 512.37 647.98 510.31 646.13 508.33 C 642.58 511.13 638.81 515.89 633.76 514.74 C 630.19 513.78 629.79 509.98 629.39 506.89 C 624.85 510.01 619.61 515.79 613.99 516.39 C 608.92 515.99 607.69 511.35 607.91 506.99 C 609.44 502.94 611.32 499.57 613.90 496.11 C 615.77 496.48 617.10 497.38 618.59 498.48 C 618.82 502.73 614.89 505.59 614.17 509.87 C 621.43 505.36 627.63 498.97 633.96 493.26 C 636.23 494.38 637.98 495.09 638.20 497.93 C 637.48 501.55 636.14 505.01 635.46 508.64 C 639.09 507.06 642.47 504.96 645.42 502.32 C 647.34 500.25 648.08 497.29 650.36 495.36 C 652.76 493.32 655.73 491.87 658.79 493.46 C 660.61 494.19 664.12 496.59 662.25 498.75 C 660.38 498.78 658.35 498.29 656.51 498.66 C 653.63 500.99 652.47 504.27 651.39 507.67 C 653.12 507.60 654.75 507.60 656.44 507.15 C 664.93 504.70 673.23 501.75 681.39 498.34 C 687.74 481.05 696.06 464.50 706.42 449.26 Z" fill="#2cc5e6" />
<path d="M 256.25 452.34 C 264.84 466.73 281.53 474.55 298.00 474.50 C 310.23 474.71 321.17 470.78 331.99 465.50 C 331.18 466.92 330.16 468.13 329.04 469.31 C 332.66 471.67 337.47 471.88 341.56 473.46 C 326.02 481.83 306.69 485.05 289.56 480.10 C 275.31 476.10 262.49 465.87 256.25 452.34 Z" fill="#829892" />
<path d="M 438.54 451.85 C 442.93 452.38 447.00 452.87 450.89 455.12 C 456.88 458.43 461.25 464.36 462.27 471.16 C 463.05 477.76 460.97 483.93 457.69 489.57 C 452.23 498.80 442.68 505.61 432.77 509.34 C 427.14 511.40 422.05 511.18 416.99 507.87 C 415.54 513.79 413.94 519.57 412.97 525.60 C 412.62 527.85 412.19 530.03 411.31 532.15 C 408.87 530.69 406.16 529.39 406.95 526.01 C 410.22 505.04 416.78 484.53 425.69 465.29 C 428.24 465.43 431.57 467.59 430.42 470.50 C 428.27 475.89 425.60 481.01 423.94 486.61 C 425.52 486.06 427.40 484.51 428.94 485.92 C 430.88 487.22 431.90 490.02 429.41 491.36 C 424.96 494.47 419.23 499.31 420.45 505.40 C 432.32 504.68 443.80 497.25 450.92 487.94 C 455.55 481.66 458.33 473.74 456.03 466.00 C 453.79 460.06 448.00 457.51 441.99 457.31 C 436.90 457.47 432.00 457.68 427.20 459.56 C 415.72 463.87 405.25 469.15 398.62 479.96 C 398.58 481.50 398.55 483.05 398.50 484.59 C 395.84 484.07 393.88 482.68 393.42 479.87 C 392.77 475.64 395.13 472.71 397.72 469.72 C 405.03 462.06 414.25 457.23 424.27 454.07 C 428.93 452.68 433.70 452.09 438.54 451.85 Z" fill="#2cc5e6" />
<path d="M 594.00 456.06 C 601.90 455.34 609.69 456.21 617.57 456.09 C 622.66 456.61 627.55 458.10 632.61 458.77 C 635.48 460.29 636.92 461.38 637.66 464.64 C 633.09 465.02 629.57 462.62 625.07 462.18 C 613.75 460.53 601.90 461.71 590.47 461.57 C 590.54 463.33 591.12 464.80 590.31 466.45 C 583.72 479.59 578.54 493.40 575.23 507.73 C 573.75 513.26 572.83 518.84 572.17 524.52 C 572.04 526.05 571.11 526.81 570.11 527.85 C 568.80 526.67 567.51 525.47 566.24 524.25 C 567.05 518.47 568.12 512.74 568.98 506.97 C 571.37 498.77 573.20 490.48 576.34 482.50 C 578.70 475.35 582.25 468.76 585.06 461.80 C 576.02 462.28 566.99 462.38 558.00 463.41 C 554.63 464.02 552.39 461.24 552.11 458.15 C 565.93 456.73 580.21 456.42 594.00 456.06 Z" fill="#2cc5e6" />
<path d="M 803.90 472.30 C 801.27 478.95 798.36 485.35 796.26 492.21 C 795.50 494.46 794.95 496.85 793.95 499.00 C 792.19 500.86 789.69 502.11 787.46 503.31 C 783.07 505.37 778.89 507.30 774.04 507.95 C 774.27 501.85 777.05 497.25 778.82 491.54 C 781.06 485.62 782.64 479.37 785.44 473.72 C 791.60 473.16 797.69 472.34 803.90 472.30 Z" fill="#000000" />
<path d="M 606.52 495.11 C 606.79 499.57 606.96 503.76 605.09 507.92 C 603.07 511.59 601.33 515.05 596.90 516.14 C 592.99 517.08 590.29 513.86 588.74 510.72 C 587.92 506.67 589.61 503.13 592.00 499.99 C 594.50 496.86 597.52 494.00 600.97 491.94 C 603.21 490.18 606.39 492.73 606.52 495.11 Z" fill="#2cc5e6" />
<path d="M 497.95 491.57 C 500.31 490.76 501.09 492.47 502.70 493.71 C 502.64 498.56 503.43 503.72 501.23 508.23 C 499.64 511.62 496.93 515.40 493.06 516.27 C 487.70 517.22 483.39 510.70 485.19 505.91 C 487.09 499.82 492.54 494.68 497.95 491.57 Z" fill="#2cc5e6" />
<path d="M 467.86 492.41 C 469.23 493.49 470.55 494.63 471.86 495.77 C 474.18 494.42 476.18 493.10 479.02 493.39 C 482.56 493.39 485.17 496.62 484.99 500.07 C 483.40 499.86 481.23 498.62 479.70 498.92 C 473.56 502.23 468.58 508.09 465.33 514.20 C 464.79 514.89 464.12 516.84 463.01 516.52 C 460.60 516.01 458.45 513.64 459.48 511.04 C 460.88 506.89 462.77 502.91 464.18 498.74 C 465.17 496.51 465.53 493.64 467.86 492.41 Z" fill="#2cc5e6" />
<path d="M 819.82 498.37 C 817.03 501.72 814.05 504.77 810.18 506.86 C 812.28 503.45 815.61 499.04 819.82 498.37 Z" fill="#000000" />
<path d="M 497.51 500.18 C 496.12 504.11 494.73 507.79 491.07 510.16 C 491.62 506.17 494.33 502.53 497.51 500.18 Z" fill="#000000" />
<path d="M 600.82 500.14 C 600.19 504.24 598.16 508.16 594.33 510.09 C 595.77 506.09 597.74 503.06 600.82 500.14 Z" fill="#000000" />
<path d="M 568.98 506.97 C 568.12 512.74 567.05 518.47 566.24 524.25 C 567.51 525.47 568.80 526.67 570.11 527.85 C 571.11 526.81 572.04 526.05 572.17 524.52 C 572.83 518.84 573.75 513.26 575.23 507.73 C 575.53 508.82 575.85 509.91 576.18 510.99 C 580.50 511.82 584.53 510.14 588.74 510.72 C 590.29 513.86 592.99 517.08 596.90 516.14 C 601.33 515.05 603.07 511.59 605.09 507.92 C 605.59 508.60 606.10 509.28 606.60 509.96 C 607.05 508.97 607.48 507.98 607.91 506.99 C 607.69 511.35 608.92 515.99 613.99 516.39 C 619.61 515.79 624.85 510.01 629.39 506.89 C 629.79 509.98 630.19 513.78 633.76 514.74 C 638.81 515.89 642.58 511.13 646.13 508.33 C 647.98 510.31 649.33 512.37 652.10 513.12 C 655.16 514.03 657.97 512.77 660.88 511.91 L 662.86 512.22 C 661.51 513.12 660.16 514.01 658.83 514.92 C 661.84 516.62 664.72 515.93 668.01 516.10 C 676.10 516.37 683.05 520.15 691.02 520.15 C 694.58 520.27 697.53 521.90 701.10 522.86 C 704.65 523.89 708.21 523.89 711.67 525.29 C 715.63 526.87 719.75 527.57 723.53 529.62 C 726.36 531.24 729.63 530.85 732.42 532.47 C 739.32 536.54 747.97 537.68 754.04 542.95 C 755.68 544.50 757.87 545.02 759.62 546.35 C 762.69 549.22 765.14 552.87 768.38 555.55 C 772.61 557.17 777.52 557.28 781.99 558.01 C 789.01 558.66 796.04 560.53 803.00 560.22 C 806.12 560.11 809.21 560.17 812.30 560.70 C 817.65 561.72 822.97 560.59 828.33 561.64 C 834.60 562.78 840.85 561.49 847.12 562.79 C 866.58 564.53 884.64 564.96 903.88 569.24 C 906.92 569.95 909.88 570.78 912.99 570.95 C 915.54 571.17 917.79 570.84 920.18 571.86 C 923.18 573.17 926.05 572.84 929.24 573.21 C 927.38 574.62 924.22 573.95 921.99 574.16 C 917.87 573.88 914.93 576.42 911.00 576.77 C 908.30 577.00 905.63 577.20 903.00 577.94 C 886.35 581.31 869.84 582.22 853.00 583.85 C 848.85 583.91 844.74 583.75 840.62 584.42 C 833.44 585.48 826.48 584.18 819.32 585.33 C 811.83 586.49 804.38 585.11 796.87 586.51 C 789.10 587.89 781.10 588.35 773.44 590.21 C 771.72 595.49 766.24 597.82 762.46 601.45 C 760.25 603.83 757.30 604.83 754.77 606.80 C 752.31 608.81 749.39 609.11 746.67 610.65 C 736.35 616.81 723.17 620.05 712.09 624.02 C 708.24 624.98 704.32 624.93 700.59 626.49 C 694.05 628.97 687.23 628.43 680.58 630.44 C 669.63 631.38 658.92 633.45 648.02 634.65 C 643.28 634.73 638.74 635.99 634.00 635.82 C 615.33 635.85 596.67 635.85 578.00 635.81 C 574.63 635.75 571.37 634.91 568.00 634.78 C 556.27 634.07 544.89 631.11 533.15 630.57 C 528.67 629.73 524.25 628.83 519.70 628.30 C 514.58 627.71 510.13 625.14 504.98 624.77 C 502.26 624.57 499.89 623.49 497.43 622.41 C 493.73 620.65 489.65 620.99 486.01 618.99 C 480.27 616.12 474.10 614.37 468.31 611.68 C 464.27 609.23 460.06 607.58 456.51 604.49 C 454.14 602.52 451.24 602.20 449.19 599.78 C 446.72 597.08 443.49 595.66 441.51 592.47 C 440.14 590.42 438.79 589.83 436.39 589.40 C 429.73 588.34 423.02 587.65 416.39 586.42 C 410.82 585.44 405.58 585.97 400.00 585.82 C 396.63 585.75 393.36 585.01 390.00 584.87 C 386.01 584.71 382.00 584.97 378.00 584.83 C 374.30 584.71 370.71 583.90 367.00 583.87 C 362.53 583.83 358.12 584.04 353.68 583.33 C 344.33 582.39 334.98 581.64 325.67 580.37 C 318.01 579.62 310.67 577.40 302.98 576.87 C 299.15 576.56 295.94 574.66 292.00 574.90 C 286.58 575.14 281.39 574.06 276.03 573.52 C 281.91 571.48 287.68 572.70 293.66 571.60 C 297.55 570.90 301.33 571.32 305.13 570.29 C 308.72 569.33 312.39 568.90 316.00 568.06 C 325.10 565.83 334.86 565.67 344.14 564.42 C 348.06 563.79 351.96 564.37 355.88 563.75 C 360.03 563.04 364.24 563.29 368.39 562.58 C 374.17 561.57 379.89 562.77 385.67 561.64 C 391.36 560.54 396.99 561.77 402.68 560.69 C 408.10 559.67 413.46 560.71 418.89 559.84 C 427.40 558.49 436.31 557.56 444.69 555.61 C 446.52 555.29 446.64 553.76 447.62 552.43 C 448.82 549.98 452.25 548.77 454.54 547.51 C 454.87 546.87 455.20 546.23 455.53 545.59 C 458.71 543.82 461.81 542.08 464.43 539.50 C 466.06 539.09 467.60 539.01 468.98 537.96 C 471.83 535.70 475.20 536.14 478.39 534.44 C 486.77 530.30 495.45 527.63 504.11 524.38 C 506.98 523.79 509.87 523.55 512.67 522.63 C 515.83 521.67 518.62 520.33 521.98 520.14 C 529.40 519.63 536.67 517.24 544.01 516.25 C 551.61 516.05 559.21 514.76 566.77 513.74 C 567.41 511.45 568.17 509.20 568.98 506.97 Z" fill="#0b1013" />
<path d="M 604.00 530.20 C 608.02 529.72 611.87 530.77 615.85 530.69 C 620.28 530.25 624.54 531.56 629.00 531.19 C 634.55 530.85 639.86 531.87 645.31 532.70 C 653.37 533.57 661.42 534.86 669.33 536.65 C 672.53 537.30 675.54 537.09 678.52 538.63 C 686.25 542.02 694.87 543.56 702.15 547.83 C 704.10 548.81 706.38 549.62 708.08 550.97 C 709.78 552.24 711.30 553.95 713.31 554.62 C 720.35 557.28 728.24 558.03 735.65 559.42 C 750.16 560.92 764.52 563.33 779.00 565.03 C 790.46 566.59 802.50 570.35 814.00 570.14 C 820.00 570.40 825.99 570.86 832.00 571.03 C 843.15 572.18 854.19 571.06 865.27 573.24 C 863.71 574.50 861.89 574.14 860.00 574.26 C 856.63 574.22 853.35 574.41 850.00 574.82 C 842.72 575.63 835.38 575.05 828.12 575.56 C 820.76 576.30 813.39 576.79 806.00 577.02 C 799.48 577.26 793.53 579.63 787.12 580.35 C 763.86 584.10 740.32 586.31 717.10 590.29 C 713.53 590.92 711.19 593.06 708.49 595.24 C 703.48 598.32 698.31 601.00 692.68 602.74 C 687.41 605.23 681.81 606.40 676.32 608.25 C 672.27 609.59 668.11 609.81 664.00 610.86 C 657.94 612.38 651.73 613.37 645.58 614.45 C 640.74 615.27 635.95 614.41 631.13 615.24 C 627.21 615.95 623.26 615.82 619.32 616.33 C 616.14 616.83 613.20 615.52 610.02 616.08 C 605.80 616.79 601.84 615.35 597.57 616.39 C 588.61 616.21 579.81 614.74 570.98 614.73 C 560.58 613.41 550.20 610.99 539.90 609.09 C 534.08 607.81 528.79 605.37 523.12 603.69 C 519.38 602.57 515.85 600.85 512.16 599.53 C 507.54 597.42 503.44 594.59 499.39 591.56 C 493.19 590.29 487.38 588.21 480.98 587.91 C 457.82 584.00 435.68 582.97 413.12 577.66 C 409.41 576.90 405.76 576.95 402.00 576.80 C 387.36 575.73 372.66 575.34 358.00 574.74 C 352.25 574.44 346.38 575.08 340.74 574.19 C 336.52 573.47 332.38 573.77 328.12 573.55 C 334.12 573.10 339.94 571.96 346.00 572.34 C 351.41 572.65 356.60 571.15 362.00 571.32 C 373.34 571.47 384.67 571.06 395.99 570.26 C 400.92 569.94 405.65 570.38 410.34 569.40 C 424.90 566.29 439.58 564.30 454.35 562.45 C 468.51 560.37 482.21 559.20 495.93 556.03 C 499.70 555.05 502.86 552.23 506.17 550.16 C 511.39 546.66 516.95 545.09 522.71 542.80 C 527.35 540.77 532.30 540.40 536.70 537.72 C 547.19 536.59 557.30 533.65 567.88 532.80 C 579.90 530.61 591.90 531.56 604.00 530.20 Z" fill="#1a262d" />
<path d="M 592.99 551.40 C 601.33 551.36 609.66 551.44 618.00 551.37 C 622.97 551.29 628.05 552.52 632.99 553.42 C 642.35 555.35 651.83 556.13 661.22 557.88 C 672.08 559.22 682.87 560.93 693.81 561.70 C 706.52 563.55 719.46 563.70 732.07 566.02 C 741.45 567.08 750.67 568.34 759.87 570.45 C 765.58 571.83 771.25 570.96 777.01 571.96 C 782.98 572.97 788.18 571.47 793.91 573.53 C 787.55 573.58 781.40 574.99 775.00 574.74 C 768.99 575.51 763.00 575.48 757.00 575.98 C 747.45 578.42 737.73 579.07 728.00 580.40 C 723.09 580.45 718.60 581.44 713.82 582.37 C 705.13 582.63 696.42 584.14 687.81 585.33 C 684.44 585.66 681.14 585.56 677.83 586.39 C 672.95 587.69 667.93 587.58 663.02 588.67 C 658.64 589.75 654.15 589.26 649.83 590.48 C 647.26 591.24 644.66 591.53 641.99 591.75 C 631.54 593.02 620.54 596.09 610.00 595.61 C 602.27 595.45 594.79 596.20 587.18 594.36 C 581.04 593.64 575.13 591.70 568.97 591.53 C 565.46 591.51 562.55 589.57 559.01 589.63 C 552.56 589.79 546.66 587.29 540.18 587.36 C 529.89 585.19 519.66 584.52 509.19 583.28 C 503.60 582.43 498.02 582.55 492.50 581.21 C 483.00 580.18 473.39 579.37 463.93 577.97 C 459.33 576.83 454.65 576.53 449.98 575.87 C 443.59 575.03 437.34 576.20 430.93 574.95 C 425.54 573.96 420.21 575.11 414.81 574.05 C 410.89 573.33 407.14 573.67 403.17 573.53 C 409.50 573.35 415.64 572.25 422.00 572.32 C 428.33 571.06 434.61 571.57 441.00 571.40 C 449.33 570.67 457.54 569.30 465.77 567.86 C 475.84 566.69 485.87 565.28 495.92 563.99 C 517.01 561.92 539.26 560.40 559.99 556.53 C 567.96 555.52 575.87 554.26 583.78 552.85 C 586.87 552.26 589.81 551.43 592.99 551.40 Z" fill="#3d5962" />
<path d="M 627.10 565.85 C 635.39 567.23 643.74 567.83 652.00 569.37 C 660.62 571.44 670.14 571.15 679.00 571.92 C 683.80 572.44 688.37 572.09 693.06 573.46 C 684.77 574.71 676.37 574.38 668.00 575.21 C 660.94 575.41 654.00 575.78 647.00 576.77 C 632.67 578.08 619.04 581.85 605.00 581.34 C 596.27 581.40 587.94 579.75 579.35 578.58 C 572.21 577.78 565.16 576.47 558.00 575.90 C 544.65 575.12 531.22 574.74 517.91 573.44 C 532.66 570.93 548.28 572.21 562.89 568.86 C 573.61 567.72 584.24 565.82 594.98 564.98 C 606.06 563.42 616.16 564.73 627.10 565.85 Z" fill="#829892" />
</svg>